<svg version="1.2" xmlns="http://www.w3.org/2000/svg" width="241" height="392"><defs><radialGradient id="g1" cx="111.1" cy="305.2" r="195.8" gradientUnits="userSpaceOnUse"><stop offset="0" stop-color="#513393"/><stop offset="1" stop-color="#0e1124"/></radialGradient><radialGradient id="g2" cx="32.7" cy="218.9" r="32.5" gradientUnits="userSpaceOnUse"><stop offset="0" stop-color="#ec1876"/><stop offset=".9" stop-color="#7b499e"/></radialGradient><radialGradient id="g3" cx="28.8" cy="240.1" r="9.3" gradientUnits="userSpaceOnUse"><stop offset="0" stop-color="#ec1876"/><stop offset=".9" stop-color="#7b499e"/></radialGradient><radialGradient id="g4" cx="32.8" cy="234.2" r="12.7" gradientUnits="userSpaceOnUse"><stop offset="0" stop-color="#ec1876"/><stop offset=".9" stop-color="#7b499e"/></radialGradient><radialGradient id="g5" cx="42.4" cy="188.1" r="325.6" gradientUnits="userSpaceOnUse"><stop offset=".1" stop-color="#fcf3d8"/><stop offset="1" stop-color="#e0948f"/></radialGradient><radialGradient id="g6" cx="42.4" cy="188.1" r="325.6" gradientUnits="userSpaceOnUse"><stop offset="0" stop-color="#d11b5c"/><stop offset="1" stop-color="#682b81" stop-opacity=".6"/></radialGradient><radialGradient id="g7" cx="41.5" cy="188" r="333.2" gradientUnits="userSpaceOnUse"><stop offset="0" stop-color="#d11b5c"/><stop offset="1" stop-color="#682b81" stop-opacity=".6"/></radialGradient><radialGradient id="g8" cx="78.1" cy="182.3" r="55.1" gradientUnits="userSpaceOnUse"><stop offset="0" stop-color="#d11b5c"/><stop offset="1" stop-color="#682b81" stop-opacity=".6"/></radialGradient><radialGradient id="g9" cx="65.7" cy="181.1" r="15.4" gradientUnits="userSpaceOnUse"><stop offset="0" stop-color="#fdea6d"/><stop offset=".4" stop-color="#6accdf"/><stop offset=".6" stop-color="#4988c6"/><stop offset=".9" stop-color="#7b499e"/></radialGradient><radialGradient id="g10" cx="60.7" cy="184.5" r="13.1" gradientUnits="userSpaceOnUse"><stop offset="0" stop-color="#fdea6d"/><stop offset=".4" stop-color="#6accdf"/><stop offset=".6" stop-color="#4988c6"/><stop offset=".9" stop-color="#7b499e"/></radialGradient><radialGradient id="g11" cx="64" cy="183.3" r="12" gradientUnits="userSpaceOnUse"><stop offset="0" stop-color="#fdea6d"/><stop offset=".4" stop-color="#6accdf"/><stop offset=".6" stop-color="#4988c6"/><stop offset=".9" stop-color="#7b499e"/></radialGradient><radialGradient id="g12" cx="62" cy="182.6" r="13.7" gradientUnits="userSpaceOnUse"><stop offset="0" stop-color="#fdea6d"/><stop offset=".4" stop-color="#6accdf"/><stop offset=".6" stop-color="#4988c6"/><stop offset=".9" stop-color="#7b499e"/></radialGradient><radialGradient id="g13" cx="64.7" cy="183" r="13" gradientUnits="userSpaceOnUse"><stop offset="0" stop-color="#fdea6d"/><stop offset=".4" stop-color="#6accdf"/><stop offset=".6" stop-color="#4988c6"/><stop offset=".9" stop-color="#7b499e"/></radialGradient><radialGradient id="g14" cx="68.9" cy="186.6" r="8.1" gradientUnits="userSpaceOnUse"><stop offset="0" stop-color="#fdea6d"/><stop offset=".4" stop-color="#6accdf"/><stop offset=".6" stop-color="#4988c6"/><stop offset=".9" stop-color="#7b499e"/></radialGradient><radialGradient id="g15" cx="67.4" cy="185.7" r="7.9" gradientUnits="userSpaceOnUse"><stop offset="0" stop-color="#fdea6d"/><stop offset=".4" stop-color="#6accdf"/><stop offset=".6" stop-color="#4988c6"/><stop offset=".9" stop-color="#7b499e"/></radialGradient><radialGradient id="g16" cx="64.8" cy="180" r="11.5" gradientUnits="userSpaceOnUse"><stop offset="0" stop-color="#fdea6d"/><stop offset=".4" stop-color="#6accdf"/><stop offset=".6" stop-color="#4988c6"/><stop offset=".9" stop-color="#7b499e"/></radialGradient><radialGradient id="g17" cx="66.1" cy="178.9" r="5" gradientUnits="userSpaceOnUse"><stop offset="0" stop-color="#fdea6d"/><stop offset=".4" stop-color="#6accdf"/><stop offset=".6" stop-color="#4988c6"/><stop offset=".9" stop-color="#7b499e"/></radialGradient><radialGradient id="g18" cx="70.3" cy="178.4" r="50.1" gradientUnits="userSpaceOnUse"><stop offset=".1" stop-color="#f4a51a"/><stop offset="1" stop-color="#d13c9a"/></radialGradient><radialGradient id="g19" cx="69" cy="179" r="45" gradientUnits="userSpaceOnUse"><stop offset=".1" stop-color="#f4a51a"/><stop offset="1" stop-color="#d13c9a"/></radialGradient><radialGradient id="g20" cx="81.9" cy="178.1" r="10" gradientUnits="userSpaceOnUse"><stop offset=".1" stop-color="#f4a51a"/><stop offset="1" stop-color="#d13c9a"/></radialGradient><radialGradient id="g21" cx="80.4" cy="205.2" r="0" gradientUnits="userSpaceOnUse"><stop offset="0" stop-color="#d11b5c"/><stop offset="1" stop-color="#682b81" stop-opacity=".6"/></radialGradient><radialGradient id="g22" cx="142.1" cy="193.7" r="76.9" gradientUnits="userSpaceOnUse"><stop offset="0" stop-color="#d11b5c"/><stop offset="1" stop-color="#682b81" stop-opacity=".6"/></radialGradient><radialGradient id="g23" cx="28.7" cy="207.1" r="116.8" gradientUnits="userSpaceOnUse"><stop offset=".1" stop-color="#fcf3d8"/><stop offset="1" stop-color="#e0948f"/></radialGradient><radialGradient id="g24" cx="30.1" cy="208" r="124.6" gradientUnits="userSpaceOnUse"><stop offset="0" stop-color="#d11b5c"/><stop offset="1" stop-color="#682b81" stop-opacity=".6"/></radialGradient><radialGradient id="g25" cx="11.7" cy="33.8" r="211.3" gradientUnits="userSpaceOnUse"><stop offset="0" stop-color="#ec1876"/><stop offset=".9" stop-color="#7b499e"/></radialGradient><radialGradient id="g26" cx="107.1" cy="58.5" r="11.6" gradientUnits="userSpaceOnUse"><stop offset="0" stop-color="#ec1876"/><stop offset=".9" stop-color="#7b499e"/></radialGradient><radialGradient id="g27" cx="0" cy="0" r="0" gradientUnits="userSpaceOnUse"><stop offset="0" stop-color="#ec1876"/><stop offset=".9" stop-color="#7b499e"/></radialGradient><radialGradient id="g28" cx="112.5" cy="36.4" r="118.8" gradientUnits="userSpaceOnUse"><stop offset="0" stop-color="#ec1876"/><stop offset=".9" stop-color="#7b499e"/></radialGradient><radialGradient id="g29" cx="48" cy="6.4" r="39.4" gradientUnits="userSpaceOnUse"><stop offset="0" stop-color="#ec1876"/><stop offset=".9" stop-color="#7b499e"/></radialGradient><radialGradient id="g30" cx="58.4" cy="24.2" r="28" gradientUnits="userSpaceOnUse"><stop offset="0" stop-color="#fdea6d"/><stop offset=".4" stop-color="#6accdf"/><stop offset=".6" stop-color="#4988c6"/><stop offset=".9" stop-color="#7b499e"/></radialGradient><radialGradient id="g31" cx="50" cy="23.6" r="28.6" gradientUnits="userSpaceOnUse"><stop offset="0" stop-color="#fdea6d"/><stop offset=".4" stop-color="#6accdf"/><stop offset=".6" stop-color="#4988c6"/><stop offset=".9" stop-color="#7b499e"/></radialGradient><radialGradient id="g32" cx="48.9" cy="25.2" r="26.8" gradientUnits="userSpaceOnUse"><stop offset="0" stop-color="#fdea6d"/><stop offset=".4" stop-color="#6accdf"/><stop offset=".6" stop-color="#4988c6"/><stop offset=".9" stop-color="#7b499e"/></radialGradient><radialGradient id="g33" cx="48.6" cy="28" r="22.3" gradientUnits="userSpaceOnUse"><stop offset="0" stop-color="#fdea6d"/><stop offset=".4" stop-color="#6accdf"/><stop offset=".6" stop-color="#4988c6"/><stop offset=".9" stop-color="#7b499e"/></radialGradient><radialGradient id="g34" cx="54.7" cy="27.3" r="22.4" gradientUnits="userSpaceOnUse"><stop offset="0" stop-color="#fdea6d"/><stop offset=".4" stop-color="#6accdf"/><stop offset=".6" stop-color="#4988c6"/><stop offset=".9" stop-color="#7b499e"/></radialGradient><radialGradient id="g35" cx="50.1" cy="25.2" r="26.7" gradientUnits="userSpaceOnUse"><stop offset="0" stop-color="#fdea6d"/><stop offset=".4" stop-color="#6accdf"/><stop offset=".6" stop-color="#4988c6"/><stop offset=".9" stop-color="#7b499e"/></radialGradient><radialGradient id="g36" cx="54.6" cy="26.5" r="26.3" gradientUnits="userSpaceOnUse"><stop offset="0" stop-color="#fdea6d"/><stop offset=".4" stop-color="#6accdf"/><stop offset=".6" stop-color="#4988c6"/><stop offset=".9" stop-color="#7b499e"/></radialGradient><radialGradient id="g37" cx="61.9" cy="34" r="14.5" gradientUnits="userSpaceOnUse"><stop offset="0" stop-color="#fdea6d"/><stop offset=".4" stop-color="#6accdf"/><stop offset=".6" stop-color="#4988c6"/><stop offset=".9" stop-color="#7b499e"/></radialGradient><radialGradient id="g38" cx="59.5" cy="32.4" r="14.8" gradientUnits="userSpaceOnUse"><stop offset="0" stop-color="#fdea6d"/><stop offset=".4" stop-color="#6accdf"/><stop offset=".6" stop-color="#4988c6"/><stop offset=".9" stop-color="#7b499e"/></radialGradient><radialGradient id="g39" cx="56.7" cy="21" r="20.5" gradientUnits="userSpaceOnUse"><stop offset="0" stop-color="#fdea6d"/><stop offset=".4" stop-color="#6accdf"/><stop offset=".6" stop-color="#4988c6"/><stop offset=".9" stop-color="#7b499e"/></radialGradient><radialGradient id="g40" cx="59.6" cy="19.6" r="9.2" gradientUnits="userSpaceOnUse"><stop offset="0" stop-color="#fdea6d"/><stop offset=".4" stop-color="#6accdf"/><stop offset=".6" stop-color="#4988c6"/><stop offset=".9" stop-color="#7b499e"/></radialGradient><radialGradient id="g41" cx="54.3" cy="21.1" r="4.6" gradientUnits="userSpaceOnUse"><stop offset="0" stop-color="#fdea6d"/><stop offset=".4" stop-color="#6accdf"/><stop offset=".6" stop-color="#4988c6"/><stop offset=".9" stop-color="#7b499e"/></radialGradient><radialGradient id="g42" cx="68" cy="20" r="88.8" gradientUnits="userSpaceOnUse"><stop offset=".1" stop-color="#f4a51a"/><stop offset="1" stop-color="#d13c9a"/></radialGradient><radialGradient id="g43" cx="65.1" cy="20.6" r="83.2" gradientUnits="userSpaceOnUse"><stop offset=".1" stop-color="#f4a51a"/><stop offset="1" stop-color="#d13c9a"/></radialGradient><radialGradient id="g44" cx="89.1" cy="21.9" r="21.3" gradientUnits="userSpaceOnUse"><stop offset=".1" stop-color="#f4a51a"/><stop offset="1" stop-color="#d13c9a"/></radialGradient><radialGradient id="g45" cx="35.7" cy="45.6" r="11.9" gradientUnits="userSpaceOnUse"><stop offset=".1" stop-color="#f4a51a"/><stop offset="1" stop-color="#d13c9a"/></radialGradient><radialGradient id="g46" cx="-152.9" cy="-40.7" r="530.1" gradientUnits="userSpaceOnUse"><stop offset="0" stop-color="#ec1876"/><stop offset=".9" stop-color="#7b499e"/></radialGradient><radialGradient id="g47" cx="54.6" cy="-15.5" r="123.2" gradientUnits="userSpaceOnUse"><stop offset="0" stop-color="#fdea6d"/><stop offset=".4" stop-color="#6accdf"/><stop offset=".6" stop-color="#4988c6"/><stop offset=".9" stop-color="#7b499e"/></radialGradient><radialGradient id="g48" cx="79.1" cy="201.4" r="69.1" gradientUnits="userSpaceOnUse"><stop offset=".1" stop-color="#fcf3d8"/><stop offset="1" stop-color="#e0948f"/></radialGradient><radialGradient id="g49" cx="84.8" cy="224.5" r="20.5" gradientUnits="userSpaceOnUse"><stop offset=".1" stop-color="#fcf3d8"/><stop offset="1" stop-color="#e0948f"/></radialGradient><radialGradient id="g50" cx="84.8" cy="224.5" r="20.6" gradientUnits="userSpaceOnUse"><stop offset=".1" stop-color="#fcf3d8"/><stop offset="1" stop-color="#e0948f"/></radialGradient><radialGradient id="g51" cx="85.2" cy="220.7" r="23.3" gradientUnits="userSpaceOnUse"><stop offset="0" stop-color="#d11b5c"/><stop offset="1" stop-color="#682b81" stop-opacity=".6"/></radialGradient><radialGradient id="g52" cx="84.9" cy="219.7" r="23.3" gradientUnits="userSpaceOnUse"><stop offset=".1" stop-color="#1db2dc"/><stop offset="1" stop-color="#452c7e"/></radialGradient><radialGradient id="g53" cx="77.9" cy="227.2" r="33" gradientUnits="userSpaceOnUse"><stop offset="0" stop-color="#d11b5c"/><stop offset="1" stop-color="#682b81" stop-opacity=".6"/></radialGradient><radialGradient id="g54" cx="42.5" cy="219.4" r="40" gradientUnits="userSpaceOnUse"><stop offset="0" stop-color="#ec1876"/><stop offset=".9" stop-color="#7b499e"/></radialGradient><radialGradient id="g55" cx="35" cy="198.4" r="33.8" gradientUnits="userSpaceOnUse"><stop offset="0" stop-color="#ec1876"/><stop offset=".9" stop-color="#7b499e"/></radialGradient><radialGradient id="g56" cx="35.1" cy="198.5" r="33.8" gradientUnits="userSpaceOnUse"><stop offset="0" stop-color="#ec1876"/><stop offset=".9" stop-color="#7b499e"/></radialGradient><radialGradient id="g57" cx="35.9" cy="198.5" r="32.4" gradientUnits="userSpaceOnUse"><stop offset="0" stop-color="#ec1876"/><stop offset=".9" stop-color="#7b499e"/></radialGradient><radialGradient id="g58" cx="35.8" cy="198.9" r="33.3" gradientUnits="userSpaceOnUse"><stop offset="0" stop-color="#ec1876"/><stop offset=".9" stop-color="#7b499e"/></radialGradient><radialGradient id="g59" cx="42" cy="238.3" r="17.8" gradientUnits="userSpaceOnUse"><stop offset="0" stop-color="#ec1876"/><stop offset=".9" stop-color="#7b499e"/></radialGradient><radialGradient id="g60" cx="57.9" cy="239.9" r="7.3" gradientUnits="userSpaceOnUse"><stop offset="0" stop-color="#d11b5c"/><stop offset="1" stop-color="#682b81" stop-opacity=".6"/></radialGradient><radialGradient id="g61" cx="207.5" cy="200.4" r="87.3" gradientUnits="userSpaceOnUse"><stop offset=".1" stop-color="#fcf3d8"/><stop offset="1" stop-color="#e0948f"/></radialGradient><radialGradient id="g62" cx="230.5" cy="208.7" r="54.4" gradientUnits="userSpaceOnUse"><stop offset=".1" stop-color="#fcf3d8"/><stop offset="1" stop-color="#e0948f"/></radialGradient><radialGradient id="g63" cx="228.7" cy="208.7" r="54.4" gradientUnits="userSpaceOnUse"><stop offset=".1" stop-color="#fcf3d8"/><stop offset="1" stop-color="#e0948f"/></radialGradient><radialGradient id="g64" cx="207.1" cy="243.6" r="34.2" gradientUnits="userSpaceOnUse"><stop offset="0" stop-color="#d11b5c"/><stop offset="1" stop-color="#682b81" stop-opacity=".6"/></radialGradient><radialGradient id="g65" cx="217.6" cy="221.9" r="35.4" gradientUnits="userSpaceOnUse"><stop offset="0" stop-color="#d11b5c"/><stop offset="1" stop-color="#682b81" stop-opacity=".6"/></radialGradient><radialGradient id="g66" cx="217.7" cy="220.8" r="35.4" gradientUnits="userSpaceOnUse"><stop offset=".1" stop-color="#1db2dc"/><stop offset="1" stop-color="#452c7e"/></radialGradient><radialGradient id="g67" cx="206.9" cy="259.5" r="14.2" gradientUnits="userSpaceOnUse"><stop offset="0" stop-color="#d11b5c"/><stop offset="1" stop-color="#682b81" stop-opacity=".6"/></radialGradient><radialGradient id="g68" cx="179.8" cy="273.6" r="46.1" gradientUnits="userSpaceOnUse"><stop offset="0" stop-color="#ec1876"/><stop offset=".9" stop-color="#7b499e"/></radialGradient><radialGradient id="g69" cx="180.9" cy="271.5" r="32.1" gradientUnits="userSpaceOnUse"><stop offset="0" stop-color="#ec1876"/><stop offset=".9" stop-color="#7b499e"/></radialGradient><radialGradient id="g70" cx="181.2" cy="270.5" r="30.4" gradientUnits="userSpaceOnUse"><stop offset=".1" stop-color="#1db2dc"/><stop offset="1" stop-color="#452c7e"/></radialGradient><radialGradient id="g71" cx="181.4" cy="270.2" r="30" gradientUnits="userSpaceOnUse"><stop offset=".1" stop-color="#1db2dc"/><stop offset="1" stop-color="#452c7e"/></radialGradient><radialGradient id="g72" cx="209" cy="269.4" r="4.5" gradientUnits="userSpaceOnUse"><stop offset="0" stop-color="#ec1876"/><stop offset=".9" stop-color="#7b499e"/></radialGradient><radialGradient id="g73" cx="210.1" cy="279.6" r="8" gradientUnits="userSpaceOnUse"><stop offset="0" stop-color="#ec1876"/><stop offset=".9" stop-color="#7b499e"/></radialGradient><radialGradient id="g74" cx="203.2" cy="282.9" r="10.8" gradientUnits="userSpaceOnUse"><stop offset="0" stop-color="#ec1876"/><stop offset=".9" stop-color="#7b499e"/></radialGradient><radialGradient id="g75" cx="179.8" cy="273.6" r="46.1" gradientUnits="userSpaceOnUse"><stop offset="0" stop-color="#ec1876"/><stop offset=".9" stop-color="#7b499e"/></radialGradient><radialGradient id="g76" cx="208.3" cy="238.3" r="7.5" gradientUnits="userSpaceOnUse"><stop offset="0" stop-color="#d11b5c"/><stop offset="1" stop-color="#682b81" stop-opacity=".6"/></radialGradient><radialGradient id="g77" cx="141" cy="193.5" r="180.3" gradientUnits="userSpaceOnUse"><stop offset=".1" stop-color="#fcf3d8"/><stop offset="1" stop-color="#e0948f"/></radialGradient><radialGradient id="g78" cx="133.1" cy="300.8" r="46.5" gradientUnits="userSpaceOnUse"><stop offset=".1" stop-color="#fcf3d8"/><stop offset="1" stop-color="#e0948f"/></radialGradient><radialGradient id="g79" cx="133.1" cy="299.1" r="51.9" gradientUnits="userSpaceOnUse"><stop offset=".1" stop-color="#fcf3d8"/><stop offset="1" stop-color="#e0948f"/></radialGradient><radialGradient id="g80" cx="120.6" cy="153.1" r="159.8" gradientUnits="userSpaceOnUse"><stop offset=".1" stop-color="#fcf3d8"/><stop offset="1" stop-color="#e0948f"/></radialGradient><radialGradient id="g81" cx="120" cy="134.8" r="187" gradientUnits="userSpaceOnUse"><stop offset=".1" stop-color="#fcf3d8"/><stop offset="1" stop-color="#e0948f"/></radialGradient><radialGradient id="g82" cx="69" cy="205.3" r="308.8" gradientUnits="userSpaceOnUse"><stop offset="0" stop-color="#d11b5c"/><stop offset="1" stop-color="#682b81" stop-opacity=".6"/></radialGradient><radialGradient id="g83" cx="107.5" cy="290.9" r="37.8" gradientUnits="userSpaceOnUse"><stop offset="0" stop-color="#d11b5c"/><stop offset="1" stop-color="#682b81" stop-opacity=".6"/></radialGradient><radialGradient id="g84" cx="84.5" cy="366.7" r="74.2" gradientUnits="userSpaceOnUse"><stop offset=".1" stop-color="#1db2dc"/><stop offset="1" stop-color="#452c7e"/></radialGradient><radialGradient id="g85" cx="79" cy="357.8" r="101.1" gradientUnits="userSpaceOnUse"><stop offset=".1" stop-color="#1db2dc"/><stop offset="1" stop-color="#452c7e"/></radialGradient><radialGradient id="g86" cx="108.8" cy="375.4" r="12.2" gradientUnits="userSpaceOnUse"><stop offset=".1" stop-color="#1db2dc"/><stop offset="1" stop-color="#452c7e"/></radialGradient><radialGradient id="g87" cx="103.2" cy="322.2" r="63.4" gradientUnits="userSpaceOnUse"><stop offset="0" stop-color="#ec1876"/><stop offset=".9" stop-color="#7b499e"/></radialGradient><radialGradient id="g88" cx="94.4" cy="347.8" r="48.6" gradientUnits="userSpaceOnUse"><stop offset="0" stop-color="#fdea6d"/><stop offset=".4" stop-color="#6accdf"/><stop offset=".6" stop-color="#4988c6"/><stop offset=".9" stop-color="#7b499e"/></radialGradient><radialGradient id="g89" cx="95.4" cy="347.2" r="47.2" gradientUnits="userSpaceOnUse"><stop offset="0" stop-color="#fdea6d"/><stop offset=".4" stop-color="#6accdf"/><stop offset=".6" stop-color="#4988c6"/><stop offset=".9" stop-color="#7b499e"/></radialGradient><radialGradient id="g90" cx="83.6" cy="345.6" r="80.5" gradientUnits="userSpaceOnUse"><stop offset="0" stop-color="#ec1876"/><stop offset=".9" stop-color="#7b499e"/></radialGradient><radialGradient id="g91" cx="101" cy="356.9" r="24.2" gradientUnits="userSpaceOnUse"><stop offset="0" stop-color="#ec1876"/><stop offset=".9" stop-color="#7b499e"/></radialGradient><radialGradient id="g92" cx="101" cy="356.9" r="24.3" gradientUnits="userSpaceOnUse"><stop offset="0" stop-color="#ec1876"/><stop offset=".9" stop-color="#7b499e"/></radialGradient><radialGradient id="g93" cx="93.6" cy="363.6" r="33" gradientUnits="userSpaceOnUse"><stop offset=".1" stop-color="#fcf3d8"/><stop offset="1" stop-color="#e0948f"/></radialGradient><radialGradient id="g94" cx="94.6" cy="364.8" r="19.5" gradientUnits="userSpaceOnUse"><stop offset="0" stop-color="#d11b5c"/><stop offset="1" stop-color="#682b81" stop-opacity=".6"/></radialGradient><radialGradient id="g95" cx="104.6" cy="361.5" r="19.5" gradientUnits="userSpaceOnUse"><stop offset="0" stop-color="#d11b5c"/><stop offset="1" stop-color="#682b81" stop-opacity=".6"/></radialGradient><radialGradient id="g96" cx="126.3" cy="335.8" r="11" gradientUnits="userSpaceOnUse"><stop offset="0" stop-color="#ec1876"/><stop offset=".9" stop-color="#7b499e"/></radialGradient><radialGradient id="g97" cx="102.2" cy="326" r="29.1" gradientUnits="userSpaceOnUse"><stop offset="0" stop-color="#ec1876"/><stop offset=".9" stop-color="#7b499e"/></radialGradient><radialGradient id="g98" cx="96.8" cy="313.8" r="44.8" gradientUnits="userSpaceOnUse"><stop offset=".1" stop-color="#1db2dc"/><stop offset="1" stop-color="#452c7e"/></radialGradient><radialGradient id="g99" cx="102.6" cy="314" r="37.5" gradientUnits="userSpaceOnUse"><stop offset=".1" stop-color="#1db2dc"/><stop offset="1" stop-color="#452c7e"/></radialGradient><radialGradient id="g100" cx="102.2" cy="337.5" r="17.8" gradientUnits="userSpaceOnUse"><stop offset=".1" stop-color="#1db2dc"/><stop offset="1" stop-color="#452c7e"/></radialGradient><radialGradient id="g101" cx="105.8" cy="327.8" r="8.4" gradientUnits="userSpaceOnUse"><stop offset=".1" stop-color="#1db2dc"/><stop offset="1" stop-color="#452c7e"/></radialGradient><radialGradient id="g102" cx="205.5" cy="366.7" r="74.2" gradientUnits="userSpaceOnUse"><stop offset=".1" stop-color="#1db2dc"/><stop offset="1" stop-color="#452c7e"/></radialGradient><radialGradient id="g103" cx="211" cy="357.8" r="101.1" gradientUnits="userSpaceOnUse"><stop offset=".1" stop-color="#1db2dc"/><stop offset="1" stop-color="#452c7e"/></radialGradient><radialGradient id="g104" cx="181.2" cy="375.4" r="12.2" gradientUnits="userSpaceOnUse"><stop offset=".1" stop-color="#1db2dc"/><stop offset="1" stop-color="#452c7e"/></radialGradient><radialGradient id="g105" cx="186.8" cy="322.2" r="63.4" gradientUnits="userSpaceOnUse"><stop offset="0" stop-color="#ec1876"/><stop offset=".9" stop-color="#7b499e"/></radialGradient><radialGradient id="g106" cx="195.6" cy="347.8" r="48.6" gradientUnits="userSpaceOnUse"><stop offset="0" stop-color="#fdea6d"/><stop offset=".4" stop-color="#6accdf"/><stop offset=".6" stop-color="#4988c6"/><stop offset=".9" stop-color="#7b499e"/></radialGradient><radialGradient id="g107" cx="194.6" cy="347.2" r="47.2" gradientUnits="userSpaceOnUse"><stop offset="0" stop-color="#fdea6d"/><stop offset=".4" stop-color="#6accdf"/><stop offset=".6" stop-color="#4988c6"/><stop offset=".9" stop-color="#7b499e"/></radialGradient><radialGradient id="g108" cx="206.4" cy="345.6" r="80.5" gradientUnits="userSpaceOnUse"><stop offset="0" stop-color="#ec1876"/><stop offset=".9" stop-color="#7b499e"/></radialGradient><radialGradient id="g109" cx="189" cy="356.9" r="24.2" gradientUnits="userSpaceOnUse"><stop offset="0" stop-color="#ec1876"/><stop offset=".9" stop-color="#7b499e"/></radialGradient><radialGradient id="g110" cx="189" cy="356.9" r="24.3" gradientUnits="userSpaceOnUse"><stop offset="0" stop-color="#ec1876"/><stop offset=".9" stop-color="#7b499e"/></radialGradient><radialGradient id="g111" cx="182.6" cy="363.6" r="6.8" gradientUnits="userSpaceOnUse"><stop offset=".1" stop-color="#fcf3d8"/><stop offset="1" stop-color="#e0948f"/></radialGradient><radialGradient id="g112" cx="195.4" cy="364.8" r="19.5" gradientUnits="userSpaceOnUse"><stop offset="0" stop-color="#d11b5c"/><stop offset="1" stop-color="#682b81" stop-opacity=".6"/></radialGradient><radialGradient id="g113" cx="185.4" cy="361.5" r="19.5" gradientUnits="userSpaceOnUse"><stop offset="0" stop-color="#d11b5c"/><stop offset="1" stop-color="#682b81" stop-opacity=".6"/></radialGradient><radialGradient id="g114" cx="163.7" cy="335.8" r="11" gradientUnits="userSpaceOnUse"><stop offset="0" stop-color="#ec1876"/><stop offset=".9" stop-color="#7b499e"/></radialGradient><radialGradient id="g115" cx="187.8" cy="326" r="29.1" gradientUnits="userSpaceOnUse"><stop offset="0" stop-color="#ec1876"/><stop offset=".9" stop-color="#7b499e"/></radialGradient><radialGradient id="g116" cx="193.2" cy="313.8" r="44.8" gradientUnits="userSpaceOnUse"><stop offset=".1" stop-color="#1db2dc"/><stop offset="1" stop-color="#452c7e"/></radialGradient><radialGradient id="g117" cx="187.5" cy="314" r="37.5" gradientUnits="userSpaceOnUse"><stop offset=".1" stop-color="#1db2dc"/><stop offset="1" stop-color="#452c7e"/></radialGradient><radialGradient id="g118" cx="187.8" cy="337.5" r="17.8" gradientUnits="userSpaceOnUse"><stop offset=".1" stop-color="#1db2dc"/><stop offset="1" stop-color="#452c7e"/></radialGradient><radialGradient id="g119" cx="184.2" cy="327.8" r="8.4" gradientUnits="userSpaceOnUse"><stop offset=".1" stop-color="#1db2dc"/><stop offset="1" stop-color="#452c7e"/></radialGradient><radialGradient id="g120" cx="128.4" cy="334.9" r="21.9" gradientUnits="userSpaceOnUse"><stop offset="0" stop-color="#d11b5c"/><stop offset="1" stop-color="#682b81" stop-opacity=".6"/></radialGradient><radialGradient id="g121" cx="129" cy="335.2" r="21.9" gradientUnits="userSpaceOnUse"><stop offset=".1" stop-color="#1db2dc"/><stop offset="1" stop-color="#452c7e"/></radialGradient><radialGradient id="g122" cx="160" cy="335" r="22" gradientUnits="userSpaceOnUse"><stop offset="0" stop-color="#d11b5c"/><stop offset="1" stop-color="#682b81" stop-opacity=".6"/></radialGradient><radialGradient id="g123" cx="159.1" cy="335" r="22" gradientUnits="userSpaceOnUse"><stop offset=".1" stop-color="#1db2dc"/><stop offset="1" stop-color="#452c7e"/></radialGradient><radialGradient id="g124" cx="172.8" cy="301.4" r="17.5" gradientUnits="userSpaceOnUse"><stop offset="0" stop-color="#d11b5c"/><stop offset="1" stop-color="#682b81" stop-opacity=".6"/></radialGradient><radialGradient id="g125" cx="186.7" cy="291.1" r="40.4" gradientUnits="userSpaceOnUse"><stop offset="0" stop-color="#ec1876"/><stop offset=".9" stop-color="#7b499e"/></radialGradient><radialGradient id="g126" cx="174" cy="300.9" r="18.8" gradientUnits="userSpaceOnUse"><stop offset="0" stop-color="#ec1876"/><stop offset=".9" stop-color="#7b499e"/></radialGradient><radialGradient id="g127" cx="184" cy="286.5" r="13.4" gradientUnits="userSpaceOnUse"><stop offset="0" stop-color="#fdea6d"/><stop offset=".4" stop-color="#6accdf"/><stop offset=".6" stop-color="#4988c6"/><stop offset=".9" stop-color="#7b499e"/></radialGradient><radialGradient id="g128" cx="105" cy="291.1" r="38.7" gradientUnits="userSpaceOnUse"><stop offset="0" stop-color="#ec1876"/><stop offset=".9" stop-color="#7b499e"/></radialGradient><radialGradient id="g129" cx="117.2" cy="300.9" r="18" gradientUnits="userSpaceOnUse"><stop offset="0" stop-color="#ec1876"/><stop offset=".9" stop-color="#7b499e"/></radialGradient><radialGradient id="g130" cx="107.7" cy="286.5" r="12.8" gradientUnits="userSpaceOnUse"><stop offset="0" stop-color="#fdea6d"/><stop offset=".4" stop-color="#6accdf"/><stop offset=".6" stop-color="#4988c6"/><stop offset=".9" stop-color="#7b499e"/></radialGradient><radialGradient id="g131" cx="158.9" cy="221.3" r="40.5" gradientUnits="userSpaceOnUse"><stop offset="0" stop-color="#d11b5c"/><stop offset="1" stop-color="#682b81" stop-opacity=".6"/></radialGradient><radialGradient id="g132" cx="167.6" cy="218.5" r="10.7" gradientUnits="userSpaceOnUse"><stop offset="0" stop-color="#fdea6d"/><stop offset=".4" stop-color="#6accdf"/><stop offset=".6" stop-color="#4988c6"/><stop offset=".9" stop-color="#7b499e"/></radialGradient><radialGradient id="g133" cx="170.6" cy="218" r="10.9" gradientUnits="userSpaceOnUse"><stop offset="0" stop-color="#fdea6d"/><stop offset=".4" stop-color="#6accdf"/><stop offset=".6" stop-color="#4988c6"/><stop offset=".9" stop-color="#7b499e"/></radialGradient><radialGradient id="g134" cx="171" cy="218.5" r="10.3" gradientUnits="userSpaceOnUse"><stop offset="0" stop-color="#fdea6d"/><stop offset=".4" stop-color="#6accdf"/><stop offset=".6" stop-color="#4988c6"/><stop offset=".9" stop-color="#7b499e"/></radialGradient><radialGradient id="g135" cx="171.1" cy="219.2" r="9.2" gradientUnits="userSpaceOnUse"><stop offset="0" stop-color="#fdea6d"/><stop offset=".4" stop-color="#6accdf"/><stop offset=".6" stop-color="#4988c6"/><stop offset=".9" stop-color="#7b499e"/></radialGradient><radialGradient id="g136" cx="168.9" cy="219.6" r="8.4" gradientUnits="userSpaceOnUse"><stop offset="0" stop-color="#fdea6d"/><stop offset=".4" stop-color="#6accdf"/><stop offset=".6" stop-color="#4988c6"/><stop offset=".9" stop-color="#7b499e"/></radialGradient><radialGradient id="g137" cx="170.6" cy="218.8" r="9.7" gradientUnits="userSpaceOnUse"><stop offset="0" stop-color="#fdea6d"/><stop offset=".4" stop-color="#6accdf"/><stop offset=".6" stop-color="#4988c6"/><stop offset=".9" stop-color="#7b499e"/></radialGradient><radialGradient id="g138" cx="169" cy="219.3" r="10" gradientUnits="userSpaceOnUse"><stop offset="0" stop-color="#fdea6d"/><stop offset=".4" stop-color="#6accdf"/><stop offset=".6" stop-color="#4988c6"/><stop offset=".9" stop-color="#7b499e"/></radialGradient><radialGradient id="g139" cx="166.5" cy="222.4" r="5.5" gradientUnits="userSpaceOnUse"><stop offset="0" stop-color="#fdea6d"/><stop offset=".4" stop-color="#6accdf"/><stop offset=".6" stop-color="#4988c6"/><stop offset=".9" stop-color="#7b499e"/></radialGradient><radialGradient id="g140" cx="167.2" cy="221.7" r="5.6" gradientUnits="userSpaceOnUse"><stop offset="0" stop-color="#fdea6d"/><stop offset=".4" stop-color="#6accdf"/><stop offset=".6" stop-color="#4988c6"/><stop offset=".9" stop-color="#7b499e"/></radialGradient><radialGradient id="g141" cx="168" cy="217.3" r="7.7" gradientUnits="userSpaceOnUse"><stop offset="0" stop-color="#fdea6d"/><stop offset=".4" stop-color="#6accdf"/><stop offset=".6" stop-color="#4988c6"/><stop offset=".9" stop-color="#7b499e"/></radialGradient><radialGradient id="g142" cx="166.8" cy="216.8" r="3.4" gradientUnits="userSpaceOnUse"><stop offset="0" stop-color="#fdea6d"/><stop offset=".4" stop-color="#6accdf"/><stop offset=".6" stop-color="#4988c6"/><stop offset=".9" stop-color="#7b499e"/></radialGradient><radialGradient id="g143" cx="168.9" cy="217.3" r="1.8" gradientUnits="userSpaceOnUse"><stop offset="0" stop-color="#fdea6d"/><stop offset=".4" stop-color="#6accdf"/><stop offset=".6" stop-color="#4988c6"/><stop offset=".9" stop-color="#7b499e"/></radialGradient><radialGradient id="g144" cx="163.7" cy="217.2" r="33.7" gradientUnits="userSpaceOnUse"><stop offset=".1" stop-color="#f4a51a"/><stop offset="1" stop-color="#d13c9a"/></radialGradient><radialGradient id="g145" cx="164.9" cy="217.4" r="31.9" gradientUnits="userSpaceOnUse"><stop offset=".1" stop-color="#f4a51a"/><stop offset="1" stop-color="#d13c9a"/></radialGradient><radialGradient id="g146" cx="155.8" cy="218.7" r="8" gradientUnits="userSpaceOnUse"><stop offset=".1" stop-color="#f4a51a"/><stop offset="1" stop-color="#d13c9a"/></radialGradient><radialGradient id="g147" cx="176.7" cy="225.9" r="4.5" gradientUnits="userSpaceOnUse"><stop offset=".1" stop-color="#f4a51a"/><stop offset="1" stop-color="#d13c9a"/></radialGradient><radialGradient id="g148" cx="147.8" cy="203.7" r="71.9" gradientUnits="userSpaceOnUse"><stop offset="0" stop-color="#d11b5c"/><stop offset="1" stop-color="#682b81" stop-opacity=".6"/></radialGradient><radialGradient id="g149" cx="146.4" cy="202.8" r="71.9" gradientUnits="userSpaceOnUse"><stop offset="0" stop-color="#ec1876"/><stop offset=".9" stop-color="#7b499e"/></radialGradient><radialGradient id="g150" cx="145.9" cy="275.6" r="19.2" gradientUnits="userSpaceOnUse"><stop offset="0" stop-color="#d11b5c"/><stop offset="1" stop-color="#682b81" stop-opacity=".6"/></radialGradient><radialGradient id="g151" cx="145.9" cy="274.6" r="19.2" gradientUnits="userSpaceOnUse"><stop offset=".1" stop-color="#1db2dc"/><stop offset="1" stop-color="#452c7e"/></radialGradient><radialGradient id="g152" cx="142.5" cy="200" r="88.7" gradientUnits="userSpaceOnUse"><stop offset="0" stop-color="#d11b5c"/><stop offset="1" stop-color="#682b81" stop-opacity=".6"/></radialGradient><radialGradient id="g153" cx="141.4" cy="197.9" r="92.9" gradientUnits="userSpaceOnUse"><stop offset="0" stop-color="#d11b5c"/><stop offset="1" stop-color="#682b81" stop-opacity=".6"/></radialGradient><radialGradient id="g154" cx="107" cy="249.5" r="27.7" gradientUnits="userSpaceOnUse"><stop offset="0" stop-color="#d11b5c"/><stop offset="1" stop-color="#682b81" stop-opacity=".6"/></radialGradient><radialGradient id="g155" cx="106.2" cy="248.3" r="27.7" gradientUnits="userSpaceOnUse"><stop offset="0" stop-color="#ec1876"/><stop offset=".9" stop-color="#7b499e"/></radialGradient><radialGradient id="g156" cx="108.7" cy="249" r="15.8" gradientUnits="userSpaceOnUse"><stop offset="0" stop-color="#ec1876"/><stop offset=".9" stop-color="#7b499e"/></radialGradient><radialGradient id="g157" cx="106.2" cy="249.7" r="26.8" gradientUnits="userSpaceOnUse"><stop offset="0" stop-color="#ec1876"/><stop offset=".9" stop-color="#7b499e"/></radialGradient><radialGradient id="g158" cx="78.5" cy="211.8" r="71" gradientUnits="userSpaceOnUse"><stop offset=".1" stop-color="#fcf3d8"/><stop offset="1" stop-color="#e0948f"/></radialGradient><radialGradient id="g159" cx="110.1" cy="247.4" r="4.1" gradientUnits="userSpaceOnUse"><stop offset=".1" stop-color="#fcf3d8"/><stop offset="1" stop-color="#e0948f"/></radialGradient><radialGradient id="g160" cx="82.3" cy="203.8" r="4" gradientUnits="userSpaceOnUse"><stop offset=".1" stop-color="#fcf3d8"/><stop offset="1" stop-color="#e0948f"/></radialGradient><radialGradient id="g161" cx="91.8" cy="233.4" r="34.6" gradientUnits="userSpaceOnUse"><stop offset=".1" stop-color="#fcf3d8"/><stop offset="1" stop-color="#e0948f"/></radialGradient><radialGradient id="g162" cx="70.5" cy="187.3" r="28.2" gradientUnits="userSpaceOnUse"><stop offset=".1" stop-color="#fcf3d8"/><stop offset="1" stop-color="#e0948f"/></radialGradient><radialGradient id="g163" cx="58.2" cy="202.7" r="128.1" gradientUnits="userSpaceOnUse"><stop offset="0" stop-color="#d11b5c"/><stop offset="1" stop-color="#682b81" stop-opacity=".6"/></radialGradient><radialGradient id="g164" cx="143.4" cy="208.3" r="25.2" gradientUnits="userSpaceOnUse"><stop offset="0" stop-color="#d11b5c"/><stop offset="1" stop-color="#682b81" stop-opacity=".6"/></radialGradient><radialGradient id="g165" cx="206.3" cy="119.5" r="75.4" gradientUnits="userSpaceOnUse"><stop offset=".1" stop-color="#fcf3d8"/><stop offset="1" stop-color="#e0948f"/></radialGradient><radialGradient id="g166" cx="206.6" cy="154.4" r="18.1" gradientUnits="userSpaceOnUse"><stop offset="0" stop-color="#d11b5c"/><stop offset="1" stop-color="#682b81" stop-opacity=".6"/></radialGradient><radialGradient id="g167" cx="214.4" cy="155.1" r="8.3" gradientUnits="userSpaceOnUse"><stop offset=".1" stop-color="#1db2dc"/><stop offset="1" stop-color="#452c7e"/></radialGradient><radialGradient id="g168" cx="213.8" cy="155.3" r="6.5" gradientUnits="userSpaceOnUse"><stop offset=".1" stop-color="#1db2dc"/><stop offset="1" stop-color="#452c7e"/></radialGradient><radialGradient id="g169" cx="83.6" cy="119.5" r="75.4" gradientUnits="userSpaceOnUse"><stop offset=".1" stop-color="#fcf3d8"/><stop offset="1" stop-color="#e0948f"/></radialGradient><radialGradient id="g170" cx="83.3" cy="154.4" r="18.1" gradientUnits="userSpaceOnUse"><stop offset="0" stop-color="#d11b5c"/><stop offset="1" stop-color="#682b81" stop-opacity=".6"/></radialGradient><radialGradient id="g171" cx="75.4" cy="155.1" r="8.3" gradientUnits="userSpaceOnUse"><stop offset=".1" stop-color="#1db2dc"/><stop offset="1" stop-color="#452c7e"/></radialGradient><radialGradient id="g172" cx="76.1" cy="155.3" r="6.5" gradientUnits="userSpaceOnUse"><stop offset=".1" stop-color="#1db2dc"/><stop offset="1" stop-color="#452c7e"/></radialGradient><radialGradient id="g173" cx="143.4" cy="146.5" r="167" gradientUnits="userSpaceOnUse"><stop offset=".1" stop-color="#fcf3d8"/><stop offset="1" stop-color="#e0948f"/></radialGradient><radialGradient id="g174" cx="137.2" cy="32.1" r="171.8" gradientUnits="userSpaceOnUse"><stop offset=".1" stop-color="#fcf3d8"/><stop offset="1" stop-color="#e0948f"/></radialGradient><radialGradient id="g175" cx="143.4" cy="170.5" r="139.6" gradientUnits="userSpaceOnUse"><stop offset="0" stop-color="#d11b5c"/><stop offset="1" stop-color="#682b81" stop-opacity=".6"/></radialGradient><radialGradient id="g176" cx="145.7" cy="38.6" r="209.4" gradientUnits="userSpaceOnUse"><stop offset="0" stop-color="#d11b5c"/><stop offset="1" stop-color="#682b81" stop-opacity=".6"/></radialGradient><radialGradient id="g177" cx="144.6" cy="36.3" r="209.4" gradientUnits="userSpaceOnUse"><stop offset=".1" stop-color="#1db2dc"/><stop offset="1" stop-color="#452c7e"/></radialGradient><radialGradient id="g178" cx="144.6" cy="44.2" r="195.8" gradientUnits="userSpaceOnUse"><stop offset=".1" stop-color="#1db2dc"/><stop offset="1" stop-color="#452c7e"/></radialGradient><radialGradient id="g179" cx="145.5" cy="113.8" r="98.3" gradientUnits="userSpaceOnUse"><stop offset=".1" stop-color="#1db2dc"/><stop offset=".9" stop-color="#6dc8b4"/></radialGradient><radialGradient id="g180" cx="145.5" cy="113.8" r="98.3" gradientUnits="userSpaceOnUse"><stop offset=".1" stop-color="#1db2dc"/><stop offset=".9" stop-color="#6dc8b4"/></radialGradient><radialGradient id="g181" cx="145.5" cy="113.8" r="98.3" gradientUnits="userSpaceOnUse"><stop offset=".1" stop-color="#1db2dc"/><stop offset=".9" stop-color="#6dc8b4"/></radialGradient><radialGradient id="g182" cx="145.5" cy="113.8" r="98.3" gradientUnits="userSpaceOnUse"><stop offset=".1" stop-color="#1db2dc"/><stop offset=".9" stop-color="#6dc8b4"/></radialGradient><radialGradient id="g183" cx="135" cy="114.3" r="85.1" gradientUnits="userSpaceOnUse"><stop offset=".1" stop-color="#1db2dc"/><stop offset=".9" stop-color="#6dc8b4"/></radialGradient><radialGradient id="g184" cx="145.5" cy="143.3" r="74.9" gradientUnits="userSpaceOnUse"><stop offset=".1" stop-color="#1db2dc"/><stop offset=".9" stop-color="#6dc8b4"/></radialGradient><radialGradient id="g185" cx="116.3" cy="136.2" r="18" gradientUnits="userSpaceOnUse"><stop offset=".1" stop-color="#1db2dc"/><stop offset=".9" stop-color="#6dc8b4"/></radialGradient><radialGradient id="g186" cx="168.3" cy="187.5" r="12.9" gradientUnits="userSpaceOnUse"><stop offset=".1" stop-color="#1db2dc"/><stop offset=".9" stop-color="#6dc8b4"/></radialGradient><radialGradient id="g187" cx="190.5" cy="172.5" r="2.7" gradientUnits="userSpaceOnUse"><stop offset=".1" stop-color="#1db2dc"/><stop offset=".9" stop-color="#6dc8b4"/></radialGradient></defs><style>.s60,.s61{fill:#e0a326}.s61{opacity:.5;mix-blend-mode:multiply}</style><g id="&lt;Group&gt;"><path id="&lt;Path&gt;" d="M240.9 382c-2.3 9.3-63.8 1.7-91.6 1.2-27.8-.6-106.4 13.7-116.1 5.8-9.7-7.9 57.3-21.5 43.6-20.1-13.7 1.4-1.5-7.7 23.3-10.7 24.9-2.9 80.5-.5 80.5-.5 20 3.4 62.6 14.9 60.3 24.3z" opacity=".5" fill="url(#g1)"/><g id="&lt;Group&gt;"><g id="&lt;Group&gt;"><g id="&lt;Group&gt;"><path id="&lt;Path&gt;" d="M45.3 244.8c-2.9 5.5-8.4 5.2-14.8 3.5-6.4-1.8-12.3-11-10.7-18.9 1.6-7.9 14.5-9.9 14.5-9.9 7.1-.4 13.8 19.8 11 25.3z" style="mix-blend-mode:multiply" opacity=".5" fill="url(#g2)"/><path id="&lt;Compound Path&gt;" fill-rule="evenodd" d="M38 247.3c-.2.5-.5 1.1-1 1.6q-.3.3-.6.5-1.1-.1-2.2-.3h.1s.3-.1.7-.2c.4-.1 1-.3 1.4-.6.5-.4.9-.8 1.1-1.1.3-.4.4-.7.5-.7.1 0 .1.4 0 .8zm-11.7-1.7s.7.1 1.6.2c.9.1 2.1 0 3.4-.2 2.4-.4 4.5-1.7 4.4-1.8-.1-.2-2.2.8-4.6 1-1.1.1-2.3.1-3.1-.1-.8-.1-1.4-.2-1.4-.2s-.6-.1-1.4-.4q-.6-.1-1.3-.4.8.9 1.6 1.7c.5.1.8.2.8.2zm-6.8-13.4c1.5 2.3 3.5 3.9 3.5 3.9s.6.4 1.5.9c.8.6 2.1 1.2 3.5 1.4 1.4.3 2.8.2 3.8 0s1.6-.6 1.6-.7c0 0-.7.2-1.7.3-.9.1-2.2 0-3.5-.4-1.2-.3-2.4-.9-3.2-1.5-.8-.5-1.2-.9-1.2-.9s-.6-.4-1.3-1c-.7-.7-1.6-1.6-2.4-2.6q-.3-.4-.5-.8-.1.7-.1 1.4z" style="mix-blend-mode:multiply" opacity=".5" fill="url(#g3)"/></g><path id="&lt;Path&gt;" d="M45.3 244.8c-2.9 5.5-8.4 5.2-14.8 3.5-2.4-.7-4.6-2.3-6.5-4.5 2 .9 4 1.1 5.1-.4 2.8-4-7.8-9.9-7.5-15.6q0-1-.1-1.9c3.9-5 12.8-6.4 12.8-6.4 7.1-.4 13.8 19.8 11 25.3z" style="mix-blend-mode:multiply" opacity=".5" fill="url(#g4)"/></g><g id="&lt;Group&gt;"><path id="&lt;Path&gt;" d="M215.9 137.5c18.4 20.1.5 93.3-16.8 118.4-17.3 25.1-77.6 15.6-99.4 10.6-21.8-5-40.8-96.1-34.1-117.9 6.7-21.7 21.2-22.3 21.2-22.3 17.3-10.1 110.6-8.9 129.1 11.2z" fill="url(#g5)"/><path id="&lt;Path&gt;" d="M215.9 137.5c18.4 20.1.5 93.3-16.8 118.4-17.3 25.1-77.6 15.6-99.4 10.6-21.8-5-40.8-96.1-34.1-117.9 6.7-21.7 21.2-22.3 21.2-22.3 17.3-10.1 110.6-8.9 129.1 11.2z" style="mix-blend-mode:multiply" opacity=".3" fill="url(#g6)"/><path id="&lt;Path&gt;" d="M99.7 266.5c-4.7-1.1-9.3-6.2-13.5-13.7 1.9-2.4 5.3-4.5 5.9-7.8 3.4-18.6-8.7-62-14-88.2-1.8-9.3-5.6-13.6-9.7-15.3 7.3-14.8 18.4-15.2 18.4-15.2 16.9-9.8 106.1-9 127.6 9.7-19.1 22.5-17.7 72.4-18.8 93.5-.5 8.4-.9 23.1 3.9 25.9q-.2.2-.4.5c-17.3 25.1-77.6 15.6-99.4 10.6z" style="mix-blend-mode:multiply" opacity=".3" fill="url(#g7)"/><g id="&lt;Group&gt;"><path id="&lt;Compound Path&gt;" fill-rule="evenodd" d="M75.8 186.9q0 .3-.2.6v.2l-.6 1.4q0 .1-.1.2-.3.6-.7 1.3l-.6.8c-1.7 2.2-3.7 3.7-5.8 4.3-1.1-5.6-2-11.3-2.8-17 2.8-1.8 6.1-2.2 8.4-.6q.6.4 1.1 1 .6-.2 1.1-.4.2-.1.4-.1.4-.1.9-.2.1-.1.2-.1c4.1-1 7-.7 7.2.7.3 1.8-3.4 4.6-8.5 7.9zm5.3-6.6c-.2-1.2-2.6-1.3-5.9-.4.6.9.9 2 1 3.2v.1q.1.7 0 1.3v.2q0 .4-.1.9c3.2-2.2 5.3-4.2 5-5.3z" style="mix-blend-mode:multiply" opacity=".3" fill="url(#g8)"/><g id="&lt;Group&gt;"><g id="&lt;Group&gt;"><path id="&lt;Path&gt;" d="M74.2 189.7c-1.8 2.7-4.2 4.6-6.6 5.2-1.1-5.7-1.9-11.4-2.7-17.1 2.8-1.9 6.2-2.3 8.5-.7 3.8 2.5 3.7 8.1.8 12.6z" fill="url(#g9)"/><path id="&lt;Path&gt;" d="M68.7 191.8c-.4.4-1.3.6-1.6.2v-.2c0-.1 0-.2.1-.3q.3-.2.6-.3c.3-.1 1.2-.4 1.2.1 0 .2-.2.4-.3.5z" fill="url(#g10)"/><path id="&lt;Path&gt;" d="M73.6 182c.3-.5.8-1 1.3-.8.5.3.6 1 .7 1.6 0 .8-.2 1.7-.8 2.4-.2.2-.4.4-.7.4q-.2 0-.3-.1c-.5-.3-.7-.9-.7-1.5 0-.7.2-1.4.5-2z" fill="url(#g11)"/><path id="&lt;Path&gt;" d="M73.6 187.9c.1-.4.4-1.1.8-1.4.1 0 .3 0 .3.2 0 .1 0 .3-.1.4-.2.4-.3 1-.8 1-.1.1-.2 0-.3 0q0-.1.1-.2z" fill="url(#g12)"/><path id="&lt;Path&gt;" d="M73.7 180.1c-.2-.2-.3-.8.1-1 .1-.1.3-.1.4 0 .3.1.5.3.6.7 0 .2.1.4 0 .6-.1.1-.2.2-.3.2h-.2c-.2-.1-.5-.2-.6-.5z" fill="url(#g13)"/><path id="&lt;Path&gt;" d="M74.2 189.7c-1.8 2.7-4.2 4.6-6.6 5.2q-.7-3.7-1.3-7.5c.3-.4.6-.7 1-.9.6-.4 1.3-.3 2-.3.9 0 1.9-.4 2.8-1.1.6-.5 1.1-1.2 1.5-2 .9-1.5 1.4-3.2 1.2-4.7 2.3 2.8 1.9 7.4-.6 11.3z" style="mix-blend-mode:multiply" opacity=".5" fill="url(#g14)"/><path id="&lt;Path&gt;" d="M73.6 189.6c-1.3 2.3-4.1 4.1-6.1 4.8q-.1-.6-.2-1.1.5-.2 1.1-.6c1.9-1.1-.1-12.3-2.8-10.1q-.3-2.1-.6-4.3.3-.3.7-.5c4-2.1 5.8-1 5.7-1 2.1 1.7-5 2.4-2.8 5.9 2.2 3.5.4 8.9 1.6 8.8 1.1 0 5.1-5.1 3.4-1.9z" style="mix-blend-mode:screen" opacity=".3" fill="url(#g15)"/><path id="&lt;Path&gt;" d="M71.1 181.3c-1.6.4-3.1.3-5.4 2.3q-.4-2.6-.7-5.3.6-.4 1.4-.7c-.1 0 2.6-1.6 5.2-.5s1.1 3.8-.5 4.2z" style="mix-blend-mode:screen" opacity=".3" fill="url(#g16)"/><g id="&lt;Group&gt;" style="mix-blend-mode:screen"><path id="&lt;Path&gt;" d="M67.8 177.6c1.1-.2 2 0 2 .6-.1.6-1 1.3-2.2 1.6-1.1.3-2 0-2-.5 0-.6 1-1.4 2.2-1.7z" style="mix-blend-mode:screen" opacity=".5" fill="url(#g17)"/></g></g><g id="&lt;Group&gt;"><path id="&lt;Path&gt;" d="M84.4 178.1c.4 2.4-6.9 6.9-14.8 11.9q-1.4.8-2.6 1.6-.1-.5-.2-.9 1.3-.7 2.6-1.5c6.4-4.1 12.2-7.9 11.8-9.9-.2-1.1-2.6-1.3-6.1-.3q-.3-.5-.6-.8c5.5-1.9 9.6-1.8 9.9-.1z" fill="url(#g18)"/><path id="&lt;Path&gt;" d="M81.5 180c-1.4 2.3-4.3 4.6-8.5 7.2-1.7 1.1-3.9 2.4-6.1 3.7q0-.1-.1-.2 1.3-.7 2.6-1.5c6.4-4.1 12.2-7.9 11.8-9.9-.2-1.1-2.6-1.3-6.1-.3q-.3-.5-.6-.8 1.4-.5 2.6-.8c-.5.3-.8.5-.6.7.6.6 6.4-.5 5 1.9z" style="mix-blend-mode:multiply" opacity=".5" fill="url(#g19)"/><path id="&lt;Path&gt;" d="M79.8 177.2s4.4-.6 4.4 1.1c-.1 1.5-3.2 4-4.3 4.3-1.1.2 2.4-2.4 2.4-3.7 0-1.2-4.4-1.3-2.5-1.7z" style="mix-blend-mode:screen" fill="url(#g20)"/></g></g></g><g id="&lt;Group&gt;"><path id="&lt;Compound Path&gt;" fill-rule="evenodd" d="M193 207.6c7.1 1.4 15.5 3.6 23.4 6.9-4.7 16.9-11 32.3-17.3 41.4-17.3 25.1-77.6 15.6-99.4 10.6-1.5-.3-3-1.1-4.5-2.2v-.5q.1-.3.1-.5l.4-2.6v-.2q.2-1.2.3-2.4c-2.4-.6-4.7-1.7-6.4-3.4q-1 .3-1.9.6c-5-8-9.5-19.4-13.2-32 3.7-1.3 6.8-2.8 8.9-4.2q4.3-2.9 7.9-5.1-.9-1.5-2.5-2.2-.6-.2-1.1-.4-.2 0-.4-.1-.4-.1-.8-.1-.2-.1-.3-.1-.6-.1-1.1-.1h-2.8c-1.3.1-2.6.3-4 .5l-1.4.2h-.1q-.6.1-1.3.2h-.3q-.2.1-.4.1h-.7q-.2.1-.3.1h-2.3q-.7-3-1.4-6.1c1.7.3 3.7.1 5.9-.2q.7-.1 1.5-.2 1.4-.2 2.9-.4c3.4-.4 7-.4 10.6 1 2.4 1 4.2 2.6 5.6 4.8q.9-.5 1.9-1 1.5-.7 2.8-1.4h.1q1.2-.6 2.4-1.1c-.3-.9-.4-1.7-.4-2.5v-.2q0-.7.2-1.3c.1-.5.3-1 .5-1.3q-4.9-2.5-9.1-5.7l-2.2-1.8q-3.2-2.7-5.9-6c-3-3.6-5.5-7.6-7.4-12q-1.1-2.7-1.9-5.6-.3-.8-.5-1.6-.7-.3-1.4-.9c-3.2 2.3-7.2 5.7-10.4 9.8q-.5-4.3-.7-8.2c1.4-1.5 3-2.9 4.4-4.1l1-.8q.2-.1.3-.2.5-.3.9-.6v-.1q-.7-.9-1.3-1.9-.1-.1-.1-.2-.3-.4-.5-.8-.2-1.6-.5-3.3-.2-.9-.2-1.8 0-.3-.1-.6v-1.4q0-1.5.1-3 .2-1 .4-1.9l.1-.1q.2-.9.4-1.9c2.1-3.2 5.2-5.7 7.8-6.9 1.1-4.6 2.7-8.9 4.8-13.1 2.8-1.1 4.7-1.2 4.7-1.2 15.2-8.8 89.2-9 119.4 4.7q1.2 2.9 2.2 6l.8 3q.3.1.5.1.2.1.3.1.3.1.6.3h.1c2.7 1.2 5.9 3.7 8 7q.3 1 .5 1.9v.1q.2.9.4 1.9v.5q.1.6.1 1.2v3.3q-.1.9-.3 1.8-.2 1.7-.5 3.3l-.4.8q-.1.1-.1.2c-2.7 4.3-6.9 7.4-9.1 7.5-3.9 14.4-13.8 25.1-27.1 31.9.4.6.8 1.3.9 2q.1.5.1.9 0 .5-.1 1 .4.1.8.1.1 0 .2.1.5 0 1 .1.2 0 .4.1.4 0 .9.1.2 0 .4.1.6.1 1.3.2h.2q.6.1 1.2.3h.5q.5.1 1 .3h.5q.8.2 1.5.4zm-95.8 43.6l-1.2.6 1 .4q.1-.3.1-.6.1-.2.1-.3v-.1zm107.1-5l-13.3 1.5q1 4.5 1.9 9.4.2 1 .4 2.1.1.4.2.9v-.1q.1-.1.1-.2.6-1 1.2-1.9.3-.4.5-.7.1-.1.1-.2.3-.4.5-.7.2-.2.4-.5.1-.2.3-.4.6-.9 1.2-1.7.3-.3.5-.6.5-.6.9-1.1c1.4-1.7 2.7-3.1 3.6-4.1v-.1l.4-.4.6-.6q.1-.2.2-.3.1-.1.2-.1l.1-.1v-.1z" style="mix-blend-mode:multiply" opacity=".3" fill="url(#g22)"/></g></g><g id="&lt;Group&gt;"><g id="&lt;Group&gt;"><g id="&lt;Group&gt;"><path id="&lt;Path&gt;" d="M53.2 383.5c-1.1-.1-2-.9-2.2-2.1L1.7 33.5c-.2-1.4.7-2.7 2-2.9 1.2-.2 2.4.7 2.6 2.1l49.3 347.9c.2 1.4-.6 2.7-1.9 2.9h-.5z" fill="url(#g23)"/></g><path id="&lt;Path&gt;" d="M55.6 380.6c.2 1.3-.6 2.5-1.8 2.8L4.5 35.5c-.2-1.3.6-2.6 1.8-2.9v.1z" style="mix-blend-mode:multiply" opacity=".3" fill="url(#g24)"/></g><g id="&lt;Group&gt;"><path id="&lt;Path&gt;" d="M.9 37.3c-.2.1 34.8-26.1 80.5-35.4 46-8.4 41.9 17.7 41.6 17.2.1.2 22.6-2.1 48.8-1.6 26 .1 55.7 2.9 67.4 2.7q-15.5 13-30.1 26.7 10.6 13.5 19.9 27.4c-36.7-7.6-72.8-10.3-107.5-8.7q-7.5.8-14.8 1.9c.1-4.2-.1-10.7-.1-14.8 0-1.6-72.4 3.8-97.2 36.9-1.7-17.8-6-34.5-8.5-52.3z" fill="url(#g25)"/><path id="&lt;Path&gt;" d="M107.8 67.3q-.6.1-1.1.2c.1-4.2-.1-10.7-.1-14.8 0 0 20.9-2.3 13.8 5.8-3.3 3.8-10.7 7.3-12.6 8.8z" style="mix-blend-mode:multiply" opacity=".5" fill="url(#g26)"/><path id="&lt;Path&gt;" d="M123.1 19.1c.3.1 22.7-2 48.7-1.6 26 .1 55.7 2.9 67.4 2.7q-15.5 13-30.1 26.7 10.6 13.5 19.9 27.4c-36.7-7.6-72.8-10.3-107.5-8.7q-7.5.8-14.8 1.9c.1-4.2-.1-10.7-.1-14.8 10.1-2.6 15.2 2 15.2 2l1.2-35.6z" style="mix-blend-mode:multiply" opacity=".5" fill="url(#g28)"/><g id="&lt;Group&gt;"><path id="&lt;Compound Path&gt;" fill-rule="evenodd" d="M37.3 41.1V41q.8-.8 1.7-1.6l.8-.6q.7-.6 1.5-1.3l2.4-1.8c.7-3.4 2.2-6.9 4.9-10.1 6.9-8.9 18.9-11.2 24.9-5.5q1.1 1 1.9 2.2 1.1-.2 2.1-.3.4-.1.8-.1.9-.1 1.7-.2h.4c8.2-.7 13.6.8 13.6 3.6 0 3.3-7.9 7.5-18.5 12.3q-.3.5-.6 1.1l-.2.4q-.6 1.2-1.4 2.4-.1.2-.3.3-.8 1.3-1.8 2.4-.7.7-1.3 1.4C63 52.2 54.4 54.2 48.3 50q-.4-.3-.8-.7c-9.2 3.5-15.4 5-16.3 1.9-.6-2 1.6-5.9 6.1-10.1zm40-10.6v.2q-.1 1.3-.4 2.6v.3q-.2.8-.5 1.7c6.6-3.4 11.2-6.4 11.2-8.7-.1-2.2-4.6-3.3-11.3-2.5.9 1.9 1.2 4.1 1 6.4zM46.1 47.8q-.3-.5-.6-.9-.1-.1-.1-.2c-.5-.8-1-1.7-1.3-2.6h.1c-.6-1.8-.9-3.8-.8-5.9-4.7 3.9-7.3 7.5-6.8 9.5.6 2 4.1 1.7 9.5.1z" style="mix-blend-mode:multiply" opacity=".5" fill="url(#g29)"/><g id="&lt;Group&gt;"><g id="&lt;Group&gt;"><path id="&lt;Path&gt;" d="M49 23.9c6.9-8.9 18.9-11.3 24.9-5.5 6.3 5.7 4.5 16.4-2.3 24-7.1 7.7-16.4 10.4-22.9 5.9-6.1-4.6-7-15.5.3-24.4z" fill="url(#g30)"/><path id="&lt;Path&gt;" d="M48 43.5c-.2-.7 0-1.6.7-2.3 1.2-1 3.2-1.2 4.3-.7 1.1.4 1.6 1.7 1.8 3.1.1.6.1 1.3-.4 1.9-.4.4-.9.6-1.4.6-1.3.1-2.4-.5-3.4-1.1-.6-.3-1.3-.8-1.6-1.5z" fill="url(#g31)"/><path id="&lt;Path&gt;" d="M54.6 48.6c-.4-.4-.2-1.3.4-1.6.3-.2.6-.2.9-.3.7-.1 1.3-.2 1.8 0 .3.1.5.3.6.6 0 .1-.1.4-.1.5-.3.6-.9 1.1-1.5 1.2-.6.1-1.1 0-1.6-.2-.2 0-.4-.1-.5-.2z" fill="url(#g32)"/><path id="&lt;Path&gt;" d="M60.4 44.9c-.9.5-2.7.7-3.1-.2v-.3c0-.2.2-.4.4-.6.3-.3.8-.4 1.2-.4.6-.1 2.4-.4 2.2.6-.1.4-.4.7-.7.9z" fill="url(#g33)"/><path id="&lt;Path&gt;" d="M72.8 27.7c.6-1 1.8-1.7 2.6-1.1.9.6.9 2 .8 3.1-.2 1.5-.8 3.3-2.1 4.4-.5.3-1 .6-1.5.6q-.4-.1-.6-.3c-.8-.7-1.1-2-.8-3.2.2-1.2.8-2.4 1.6-3.5z" fill="url(#g34)"/><path id="&lt;Path&gt;" d="M70.8 38.9c.3-.8 1.3-2 2.1-2.4.2-.1.5.1.5.4 0 .2-.2.5-.3.8-.6.7-1 1.7-2 1.7-.1 0-.3-.1-.3-.2v-.3z" fill="url(#g35)"/><path id="&lt;Path&gt;" d="M73.4 24.1c-.2-.4-.3-1.6.5-2 .3-.1.6 0 .8.2.6.3.9.8 1 1.6 0 .3-.1.7-.3 1-.1.2-.4.4-.6.4q-.1 0-.3-.1c-.5-.2-.9-.6-1.1-1.1z" fill="url(#g36)"/><path id="&lt;Path&gt;" d="M76.1 21.2c3.5 6.1 1.3 14.7-4.5 21.2-7.1 7.7-16.4 10.4-22.9 5.9-1.9-1.5-3.4-3.5-4.2-6 1.1 1.2 2.9 1.5 4.7 1.4 1.2-.1 2.5-.4 3.6-1.3.7-.6 1.2-1.4 1.6-2.2.6-1.2 1.2-2.4 2-3.4.8-1.1 1.8-2.1 2.9-2.5 1.4-.5 2.7-.1 3.9 0 1.8.3 3.9-.1 5.7-1.2 1.4-.8 2.5-2 3.5-3.3 2.1-2.6 3.6-5.7 3.7-8.6z" style="mix-blend-mode:multiply" opacity=".5" fill="url(#g37)"/><path id="&lt;Path&gt;" d="M63 27.5c3.1 7.3-1.9 16.9.4 17.3 2.1.2 11.3-8.3 7-2.6-4.5 5.6-15.3 8.5-16.6 6.9-1.4-1.7 1.8-1 5.8-2.6 3.9-1.5 3.6-23.5-2.3-20.1-5.7 3.4-8.6 5.1-9.9 3.4-1.4-1.6 3.3-9.6 11.6-12.5 8.2-2.8 11.2-.2 11.2-.3 3.4 3.9-10.4 3.1-7.2 10.5z" style="mix-blend-mode:screen" opacity=".3" fill="url(#g38)"/><path id="&lt;Path&gt;" d="M60.3 17s5.4-2.1 10 .8c4.6 2.9 1.1 7.5-2.2 7.8-3.3.4-6.4-.4-11.9 3.3-5.5 3.8-7.4 7.8-9.5 4.4-2.1-3.3 4.2-14 13.6-16.3z" style="mix-blend-mode:screen" opacity=".3" fill="url(#g39)"/><g id="&lt;Group&gt;" style="mix-blend-mode:screen"><path id="&lt;Path&gt;" d="M62.9 17.6c2.3-.2 3.9.6 3.7 1.7-.3 1.1-2.3 2.1-4.6 2.3-2.2.2-3.9-.5-3.6-1.6.2-1.1 2.2-2.2 4.5-2.4z" style="mix-blend-mode:screen" opacity=".5" fill="url(#g40)"/></g><path id="&lt;Path&gt;" d="M55.6 19.8c1.1-.4 2-.4 2 .1s-.8 1.2-1.8 1.6c-1.1.5-1.9.5-2 0 0-.5.8-1.2 1.8-1.7z" style="mix-blend-mode:screen" fill="url(#g41)"/></g><g id="&lt;Group&gt;"><path id="&lt;Path&gt;" d="M31.6 49.5c-.8-2.9 3.9-9.4 12.8-15.7-.2.8-.2 1.6-.3 2.4-4.9 4-7.6 7.8-7.1 9.7 1 3.7 11.6-.2 25.5-5.9C75.9 34.2 88.1 28.7 88 24.9c-.1-2.3-4.6-3.3-11.5-2.5q-.4-1-1-1.8c11-1.9 18.9-.3 18.9 2.9 0 4.7-15.2 10.9-31.7 18.1-17.1 7-29.7 12.4-31.1 7.9z" fill="url(#g42)"/><path id="&lt;Path&gt;" d="M39.3 48.7c-7.2 1.4-2.8-4.4-2.2-7 .2-.8-.3-.9-1.1-.6 2.1-2.4 4.9-4.9 8.4-7.3-.2.8-.2 1.6-.3 2.4-4.9 4-7.6 7.8-7.1 9.7 1 3.7 11.6-.2 25.5-5.9C75.9 34.2 88.1 28.7 88 24.9c-.1-2.3-4.6-3.3-11.5-2.5q-.4-1-1-1.8 2.8-.5 5.3-.7c-1 .4-1.6.8-1.4 1.2 1 1.3 12.3 1 8.9 5.1-3.3 4-9.6 7.6-18.3 11.2-8.9 3.5-23.6 9.8-30.7 11.3z" style="mix-blend-mode:multiply" opacity=".5" fill="url(#g43)"/><path id="&lt;Path&gt;" d="M86 20.4c0-.1 8.5.2 7.9 3.3-.6 3-7.3 6.8-9.4 7-2.2 0 5.3-3.9 5.7-6.2.4-2.5-7.9-4-4.2-4.1z" style="mix-blend-mode:screen" fill="url(#g44)"/><path id="&lt;Path&gt;" d="M31.9 48.6c.2-1.5 1.5-4.2 3.2-5.6 1.9-1.5-1.9 3.3-1.1 5.3.7 2 5.7.1 4 1.6-1.7 1.4-6.4 1.3-6.1-1.3z" style="mix-blend-mode:screen" fill="url(#g45)"/></g></g></g><path id="&lt;Compound Path&gt;" fill-rule="evenodd" d="M185.1 67.5q-6.4-.7-12.8-1.2l25.5-48c4.5.2 8.9.4 13.1.7zm-53.3-2.2l26.6-47.8h13.4c4.7.1 9.6.2 14.5.3l-25.8 47.8q-14.5-.7-28.7-.3zm-90.7 1.5C28.4 72.3 16.8 79.7 9.4 89.6q-.1-1-.2-1.9l18.5-66.5c8.2-4.2 17.9-8.6 28.7-12.3zm25.4-8.5c-4.3 1.1-8.7 2.3-13.1 3.8L67.8 5.2Q74.2 3.4 81 2z" style="mix-blend-mode:multiply" opacity=".5" fill="url(#g46)"/><path id="&lt;Path&gt;" d="M93.6 3.6s16.5-6.6 25.9 7.3c-1.7-.4-3.7-1.5-5-.2-2.8 2.6-1.8 6.9-1.7 10.3q.3 5.9.5 11.8c.2 3.8.7 7.9 1.9 11.7 1.1 3.5 1.8 5.1 4.7 7.4 0 0-19.8-5.5-36.2 0 3.3-1.1 6.5-2.2 9.9-3.1 5.5-1.5 14-2.4 15.5-9.3.8-3.7.5-7.6.3-11.3l-.8-13c-.2-3.5-.6-9.2-5-10-3.4-.5-6.7-1-10-1.6z" style="mix-blend-mode:screen" opacity=".5" fill="url(#g47)"/></g></g><g id="&lt;Group&gt;"><g id="&lt;Group&gt;"><g id="&lt;Group&gt;"><path id="&lt;Path&gt;" d="M111.1 237.6c-10.7 16.4-45.9 19.7-64.9 14-19-5.8-14.3-27.4-3-25.4s36.6-4 45-9.8c16.3-11.1 26-13.2 26-13.2 7.3 1.7 7.6 18-3.1 34.4z" fill="url(#g48)"/><path id="&lt;Path&gt;" d="M64.6 241.3c2-6.7-3.2-14.2-3.2-14.2s15.6-3 24.9-7.6c.2 3.8.1 7.5-.2 11.2-11.1 7.3-21.5 10.6-21.5 10.6z" style="mix-blend-mode:screen" fill="url(#g49)"/><path id="&lt;Path&gt;" d="M108.3 207.7c-4.6 8.7-11.7 15.5-18.9 20.7q.3-5.3 0-10.6.7-.4 1.3-.9c7.4-6.1 17.6-9.2 17.6-9.2z" style="mix-blend-mode:screen" fill="url(#g50)"/><g id="&lt;Group&gt;" style="mix-blend-mode:multiply" opacity=".3"><path id="&lt;Path&gt;" d="M55 231.8h-.6v-1.7c.2 0 17.5.3 29.8-6.1 4-2 7.9-4.4 11.6-6.6 7.9-4.9 14.7-9 20.2-8.3l-.3 1.7c-4.8-.7-11.4 3.4-19 8-3.7 2.3-7.6 4.7-11.7 6.7-11.6 6-26.9 6.3-30 6.3z" fill="url(#g51)"/></g><g id="&lt;Group&gt;"><path id="&lt;Path&gt;" d="M54.7 230.8h-.6V229c.2 0 17.5.3 29.8-6 4.1-2.1 7.9-4.4 11.6-6.7 7.9-4.8 14.7-9 20.2-8.3l-.2 1.7c-4.9-.6-11.4 3.4-19.1 8.1-3.7 2.2-7.5 4.6-11.6 6.7-11.7 5.9-26.9 6.3-30.1 6.3z" fill="url(#g52)"/></g><path id="&lt;Path&gt;" d="M111.1 237.6c-10.7 16.4-45.9 19.7-64.9 14-3.4-1.1-6-2.6-8-4.4-1-7.9.2-15.6 7.7-20.7 5.7.4 13.7-.6 21.4-2.4-2.7 5.3-5.1 14.6 9.7 16.5 20.9 2.6 27.6-15 28.6-21.7.5-3.4-1.3-7.6-3.3-10.9 7.6-3.9 11.9-4.8 11.9-4.8 7.3 1.7 7.6 18-3.1 34.4z" style="mix-blend-mode:multiply" opacity=".3" fill="url(#g53)"/></g><g id="&lt;Group&gt;"><path id="&lt;Path&gt;" d="M57.8 225.9c10 16.4.2 28.6.2 28.6-12.2-.2-22.6-6.6-24.9-12-2.4-5.3.2-9.4.2-9.4s-4 4.6-7.5 1.2c-3.6-3.5.8-13.6 9.4-14.2 8.7-.5 15.5 6.4 15.5 6.4z" fill="url(#g54)"/><g id="&lt;Group&gt;" style="mix-blend-mode:multiply" opacity=".5"><g id="&lt;Group&gt;"><path id="&lt;Path&gt;" d="M36.4 230.5c.1 0-.3.8-1.2 1.7-.9 1-2.4 2-4 2.6-.9.3-1.7.6-2.6.7-.8 0-1.7-.1-2.4-.4-.7-.3-1.1-.9-1.3-1.2-.3-.3-.4-.6-.4-.6s0-.2-.2-.6c-.1-.3-.2-.9-.3-1.6 0-1.3.4-3.1 1.3-4.6 1-1.5 2.2-2.7 3.2-3.5 1-.8 1.7-1.3 1.8-1.2l-1.5 1.5c-.9.9-2 2.2-2.8 3.6-.8 1.4-1 3-.9 4.2 0 .5.1 1 .3 1.3q.1.5.2.5s0 .2.2.4c.1.3.4.7.9.9.4.3 1.1.4 1.9.4.7-.1 1.5-.2 2.3-.5 1.6-.5 3-1.4 4-2.2.9-.8 1.4-1.5 1.5-1.4z" fill="url(#g55)"/></g><g id="&lt;Group&gt;"><path id="&lt;Path&gt;" d="M41.4 250.4c0 .1-2.3-1-4.4-2.6-1-.8-1.9-1.7-2.5-2.5-.7-.7-1-1.3-1-1.3s-.4-.5-.8-1.4c-.4-.9-.8-2.2-.9-3.4-.1-1.3 0-2.6.3-3.5.3-1 .7-1.5.7-1.5.1.1-.1.7-.3 1.6-.1.9-.1 2.1.1 3.3.2 1.1.6 2.3 1.1 3.1.4.8.7 1.3.7 1.3s.3.5.9 1.2c.5.7 1.3 1.7 2.2 2.5 1.9 1.7 4 3 3.9 3.2z" fill="url(#g56)"/></g><g id="&lt;Group&gt;"><path id="&lt;Path&gt;" d="M52.5 235.5c-.1 0-.3-1.3-.6-2.5-.3-1.3-.8-2.5-.8-2.5s-.4-1.2-.9-2.4c-.5-1.1-1.2-2.3-1-2.3.1-.1 1 .8 1.7 2 .7 1.1 1.2 2.4 1.2 2.4s.4 1.3.6 2.6c.1 1.4 0 2.7-.2 2.7z" fill="url(#g57)"/></g><g id="&lt;Group&gt;"><path id="&lt;Path&gt;" d="M54.3 233.2c-.2.1-.7-.7-1.2-1.5l-1.2-1.6-1-1.6c-.5-.8-1.1-1.6-1-1.7.1-.1.9.5 1.6 1.2.7.7 1.4 1.5 1.4 1.5s.5.9.9 1.8c.3.9.6 1.9.5 1.9z" fill="url(#g58)"/></g></g><path id="&lt;Path&gt;" d="M59.3 228.6c7.5 15-1.3 25.9-1.3 25.9-12.2-.2-22.6-6.6-24.9-12-2.4-5.3.2-9.4.2-9.4s-4 4.6-7.5 1.2c-2.4-2.4-1.2-7.8 2.6-11.2-1.3 3.3-2.4 7.6.7 7.8 5.1.3 9.3-3.2 9.3-3.2s-6.5 7.9-1.9 13.8c4.5 5.9 11.3-4.9 9.3-14.7-.3-1.8-.8-3.3-1.4-4.7 3.8 1.9 6.3 4.4 6.3 4.4l.6-.1c.7 3.8 2.1 13.4-.4 18.7-3.2 6.7 7.7 2.1 7.8-13.1q0-1.8.6-3.4z" style="mix-blend-mode:multiply" opacity=".5" fill="url(#g59)"/><g id="&lt;Group&gt;"><path id="&lt;Path&gt;" d="M59.3 225.9c8.7 14.3 2.4 25.4.6 28q-2.6-.1-5.1-.5c1.7-2.5 4.5-7.2 5.1-11.7.7-5.1-2.4-12.6-3.7-15.6z" style="mix-blend-mode:multiply" opacity=".3" fill="url(#g60)"/><g id="&lt;Group&gt;"><path id="&lt;Path&gt;" class="s60" d="M58.5 241.7c.6-5.1-2.4-12.6-3.8-15.6l3.1-.2c10 16.4.2 28.6.2 28.6q-2.6 0-5.2-.4c1.7-2.3 5-7.5 5.7-12.4z"/></g><path id="&lt;Path&gt;" class="s61" d="M58.5 241.7c.6-5.1-2.4-12.6-3.8-15.6h.6c1.1 2.4 4 9.3 4.2 12.4.3 3.9-2.2 8.8 0 7.8 1.5-.6 2.5-3.3 2.8-6.7.4 9.1-4.3 14.9-4.3 14.9q-2.6 0-5.2-.4c1.7-2.3 5-7.5 5.7-12.4z"/></g></g></g><g id="&lt;Group&gt;"><path id="&lt;Path&gt;" d="M175.7 203.3s59.2 5.3 60 34c.8 28.8-24.3 32.9-24.3 32.9s8.9 2.4 7.7 10.5c-1.3 8.1-17.5 10.1-29.2-2-12.9-13.3 11.3-36.9 11.3-36.9l-14.6 1.6s-16.6-27.1-10.9-40.1z" fill="url(#g61)"/><g id="&lt;Group&gt;" style="mix-blend-mode:screen"><path id="&lt;Path&gt;" d="M194.8 208.4s29.1 4.7 35.6 18.6q-5.3 1.9-10.4 4.4c0-1.6-.2-3.3-.7-4.9-3.7-12.8-24.5-18.1-24.5-18.1z" style="mix-blend-mode:screen" fill="url(#g62)"/><path id="&lt;Path&gt;" d="M231.4 230.2c3.4 16-1 21.7-5.6 28.2l-16-8.4s7.5-6.1 9.6-14.6c3.9-2 7.9-3.7 12-5.2z" style="mix-blend-mode:screen" fill="url(#g63)"/></g><path id="&lt;Path&gt;" d="M201.2 241.8l-14.6 1.6s-16.6-27.1-10.9-40.1c0 0 6.4.6 15 2.4-2.3 6.3-4.8 17.5 3.1 22.4 11.2 7 20.1 5.5 20.1 5.5s-16.1 10.6-9.2 21.3c6.2 9.5 24.1-.4 30.8-12.8-1.9 24.5-24.1 28.1-24.1 28.1s8.9 2.4 7.7 10.5c-1.3 8.1-17.5 10.1-29.2-2-12.9-13.3 11.3-36.9 11.3-36.9z" style="mix-blend-mode:multiply" opacity=".3" fill="url(#g64)"/><g id="&lt;Group&gt;"><g id="&lt;Group&gt;" style="mix-blend-mode:multiply" opacity=".3"><path id="&lt;Path&gt;" d="M213.1 263.3l-1.2-1.4c3.6-3.1 8.7-8 11.7-14.3 2.8-6 3.2-12.4 1-17.5-2.2-5-6.4-8.2-9.5-10-3.9-2.2-8.2-3.6-13.5-5-8-2.2-16.3-3.9-24.5-5.1l.2-1.9c8.4 1.3 16.7 3 24.8 5.2 5.4 1.4 9.8 2.9 13.9 5.2 3.4 1.9 7.9 5.4 10.3 10.8 2.4 5.7 2.1 12.6-1 19.1-3.1 6.6-8.5 11.7-12.2 14.9z" fill="url(#g65)"/></g><g id="&lt;Group&gt;"><path id="&lt;Path&gt;" d="M213.3 262.2l-1.2-1.4c3.6-3.1 8.7-8.1 11.6-14.3 2.9-6 3.3-12.4 1-17.5-2.1-5-6.3-8.2-9.5-10-3.9-2.2-8.2-3.6-13.4-5-8.1-2.2-16.3-3.9-24.6-5.1l.3-1.9c8.3 1.3 16.7 3 24.8 5.2 5.4 1.4 9.8 2.8 13.8 5.2 3.4 1.9 8 5.4 10.4 10.8 2.4 5.7 2 12.6-1.1 19.1-3.1 6.6-8.4 11.6-12.1 14.9z" fill="url(#g66)"/></g></g><path id="&lt;Path&gt;" d="M223.9 264.5c-5.2 3.9-10.5 5.2-12.1 5.6-6.2-2.8-12.3-6.4-12.3-6.4l-9.7-6.9c1.6-2.9 3.5-5.6 5.2-7.8 6.8 1 22.5 4.5 28.9 15.5z" style="mix-blend-mode:multiply" opacity=".3" fill="url(#g67)"/><g id="&lt;Group&gt;"><path id="&lt;Path&gt;" class="s60" d="M198.9 264.2l-9.4-6.6c1.3-2.6 2.9-5.1 4.4-7.2 6.1.8 22.3 4.1 28.1 15.4-5.5 3.5-10.6 4.4-10.6 4.4s2 .5 4 2c-7.2-2.4-16.5-8-16.5-8z"/></g><path id="&lt;Path&gt;" class="s61" d="M215.4 272.2c-7.2-2.4-16.5-8-16.5-8l-9.4-6.6c1.3-2.6 2.9-5.1 4.4-7.2 1.8.2 4.5.7 7.5 1.5-3 .3-5.1 1-1.6 2.6 7.3 3.3 9.9 4.2 16.5 8 2.6 1.5 3.3 1 3.3-.3q1.4 1.6 2.4 3.6c-5.5 3.5-10.6 4.4-10.6 4.4s2 .5 4 2z"/><g id="&lt;Group&gt;"><path id="&lt;Path&gt;" d="M219 267.5c-4.2 2.1-7.6 2.7-7.6 2.7s8.9 2.4 7.7 10.5c-1.3 8.1-17.5 10.1-29.2-2-6.7-6.9-3.4-16.6 1.3-24.3 4.4.4 19.9 2.6 27.8 13.1z" fill="url(#g68)"/><g id="&lt;Group&gt;"><g id="&lt;Group&gt;"><path id="&lt;Path&gt;" d="M208 271.8c-.1 5.5-11.8 7.3-19.9 6.1-3-5.2-2.3-11.4.1-17.3 3.8.8 20 4.5 19.8 11.2z" style="mix-blend-mode:multiply" opacity=".5" fill="url(#g69)"/><path id="&lt;Path&gt;" d="M206.9 270.7c-.2 5-11.2 6.6-18.9 5.6-2.9-4.7-2.1-10.4.1-15.7 3.6.7 18.9 4.1 18.8 10.1z" fill="url(#g70)"/><path id="&lt;Path&gt;" d="M206.9 270.7c-.1 2.2-2.2 3.7-5.3 4.7 1.2-.9 1.9-1.9 1.9-3.1.1-5.1-10.6-8.3-16.2-9.6q.3-1.1.8-2.1c3.6.7 18.9 4.1 18.8 10.1z" style="mix-blend-mode:multiply" opacity=".5" fill="url(#g71)"/></g><g id="&lt;Group&gt;"><path id="&lt;Path&gt;" d="M213.6 269.6c-1.4.4-2.2.6-2.2.6s.3.1.8.3c-.8.2-1.7.2-1.7.2s-.8 0-1.7-.2c-.8-.2-1.6-.6-1.6-.8.1-.1.9 0 1.7-.1h4.7z" style="mix-blend-mode:multiply" opacity=".5" fill="url(#g72)"/><path id="&lt;Path&gt;" d="M218.5 279.9c.1.2-1.2 1.2-2.7 1.7-1.5.5-3.2.5-3.2.5s-1.6-.1-3.1-.6c-1.5-.6-2.8-1.6-2.7-1.7.1-.2 1.5.6 2.9.9 1.5.3 3 .2 3 .2s1.4.1 2.9-.1c1.5-.3 2.8-1 2.9-.9z" style="mix-blend-mode:multiply" opacity=".5" fill="url(#g73)"/><path id="&lt;Path&gt;" d="M214.3 286.2q-1 .4-2.1.7-.8.1-1.6.1c-2.1.1-4.2-.3-4.2-.3s-2-.4-3.9-1.3c-2-.9-3.6-2.1-3.6-2.3.1-.1 1.9.9 3.9 1.5 1.9.7 3.9 1 3.9 1s1.9.4 3.9.6c1.5.1 3 0 3.7 0z" style="mix-blend-mode:multiply" opacity=".5" fill="url(#g74)"/></g><path id="&lt;Path&gt;" d="M189.9 278.7c-6.7-6.9-3.4-16.6 1.3-24.3 2.6.3 9 1.1 15.5 3.9-3.4 0-9.1.5-11.3 3.4-3.2 4.2-5.2 15.4 5.4 20.2 10.7 4.9 16.5-3.7 14.2-6.7-2.4-3-11.2-7.2-11.2-7.2s11.5.5 12.7-3.4q1.4 1.3 2.5 2.9c-4.2 2.1-7.6 2.7-7.6 2.7s8.9 2.4 7.7 10.5c-1.3 8.1-17.5 10.1-29.2-2z" style="mix-blend-mode:multiply" opacity=".5" fill="url(#g75)"/></g></g><path id="&lt;Path&gt;" d="M217.3 237.6c0 .2-2.4.3-4.7.8-2.4.5-4.6 1.3-4.6 1.3s-2.3.7-4.5 1.8c-2 .9-3.8 2.2-4.1 2.3 1.1-1.3 1.8-2 1.8-2l-1 .1 1-1c2.1-2 4.6-3.7 4.6-3.7s2.5-1.6 5.2-2.8c2.7-1.1 5.5-1.8 5.6-1.7 0 .2-2.7 1.1-5.3 2.5-2.5 1.3-4.9 2.9-4.9 2.9s-2.4 1.6-4.6 3.4l-.6.6c.6-.5 1.2-.9 1.9-1.4 2.1-1.2 4.5-2.1 4.5-2.1s2.4-.8 4.8-1c2.5-.3 4.9-.2 4.9 0z" style="mix-blend-mode:multiply" opacity=".3" fill="url(#g76)"/></g><g id="&lt;Group&gt;"><path id="&lt;Path&gt;" d="M174.5 201.5s14.8 28.3 18.9 70.2c4 41.8-18 84.9-18 84.9 18.4 2.3 33.2 15.8 15.7 18.5-17.5 2.7-33.2-5.8-38.6-10.3-5.4-4.5-.8-19.8 1-37.8 1.8-18-3.7-24.8-12.7-20.2-11 5.6 5.2 48.8-1.5 57.3-6.8 8.5-49.8 14.1-49.8 5.1s23.8-10.8 23.8-10.8-15.7-47.6-15.3-83.1c.5-35.6 16.2-75.6 16.2-75.6z" fill="url(#g77)"/><g id="&lt;Group&gt;" opacity=".5"><path id="&lt;Path&gt;" d="M105.8 308.1c-.6-5.3-.8-8.9-.8-8.9 7-2.2 23.9 8.9 23.9 8.9l1 6.9c-7.8-3.1-15.8-5.5-24.1-6.9z" style="mix-blend-mode:screen" fill="url(#g78)"/><path id="&lt;Path&gt;" d="M130.5 318.8l4.2 27.8-21.6-7.1c-3.5-7.6-5.6-19.2-6.8-28 8.3 1.5 16.4 4.1 24.2 7.3z" style="mix-blend-mode:screen" fill="url(#g79)"/></g><g id="&lt;Group&gt;" style="mix-blend-mode:screen"><path id="&lt;Path&gt;" d="M114.3 213.6c-.7 14.3 1.7 28.1 5.1 39.8q-6.8 2.8-13.3 6.2c1.3-25 8.2-46 8.2-46z" style="mix-blend-mode:screen" fill="url(#g80)"/><path id="&lt;Path&gt;" d="M120.4 256.6c5.6 18 11.7 37 11.7 37-10.2-9.2-25.5-9.5-25.5-9.5-.6-6.1-.8-14.7-.6-20.6q7-3.8 14.4-6.9z" style="mix-blend-mode:screen" fill="url(#g81)"/></g><path id="&lt;Path&gt;" d="M89.5 369.2c0-9 23.8-10.8 23.8-10.8S97.6 310.8 98 275.3c.4-30.4 11.9-64 15.3-73.2-1.1 4.3-14.2 55.7-10.8 85.6 3.6 31.3 15.5 36 25 28.6 9.5-7.4-.8-19.6-.8-19.6s26.5-2.1 34.9 1.3c0 0-12.4 21.7 8 22.7 20.3.9 21.5-57 13.1-85.3-8.4-28.4-13-33.9-13-33.9l.2-.1 4.6.1s14.8 28.3 18.9 70.2c4 41.8-18 84.9-18 84.9 18.4 2.3 33.2 15.8 15.7 18.5-17.5 2.7-33.2-5.8-38.6-10.3-5.4-4.5-.8-19.8 1-37.8 1.8-18-3.7-24.8-12.7-20.2-11 5.6 5.2 48.8-1.5 57.3-6.8 8.5-49.8 14.1-49.8 5.1z" style="mix-blend-mode:multiply" opacity=".3" fill="url(#g82)"/><path id="&lt;Path&gt;" d="M138.4 309.3c-.6 1.2-1 2.6-1.3 4.4-1.5-3.1-4.2-5.3-7-7.4-4-3-8.5-5.3-13.2-6.8-3.4-1.2-7-2-10.6-2.5q-2.1-.3-4.2-.4c-.5-.1-1.8-.4-2.2-.1-.7.5-.3 1.3-.3 1.9q-.7-4.8-1.1-9.5c4.8-2.5 14.1 1.6 18.7 3.3 7.8 3 17.3 9.2 21.2 17.1z" style="mix-blend-mode:multiply" opacity=".3" fill="url(#g83)"/><g id="&lt;Group&gt;"><g id="&lt;Group&gt;"><path id="&lt;Path&gt;" d="M140.1 357.3s4.7 5.9 1.3 11c-3.5 5.1-9.8 6.8-18.3 9s-26.3 4.9-32.4-.3c-6.1-5.1-1.2-10.4-1.2-10.4z" fill="url(#g84)"/><path id="&lt;Path&gt;" d="M123.1 377.3c-2.1.5-4.8 1.1-7.7 1.6 7.3-1.7 15.6-4.4 17.6-6.6 3.3-3.4 3.8-2.4-18.6 1.6-22.4 4-25.6-1.9-25.6-1.9-.2 1.2 0 2.3.2 3.2-3.3-4.5.5-8.6.5-8.6l50.6-9.3s4.7 5.9 1.3 11c-3.5 5.1-9.8 6.8-18.3 9z" opacity=".3" fill="url(#g85)"/><g id="&lt;Group&gt;" style="mix-blend-mode:screen"><path id="&lt;Path&gt;" d="M125.9 372.9c0 .2-4 1.9-8.3 3-4.3 1.1-8.7 1.7-8.7 1.7s-1.1.1-2.8.2c-1.6.1-3.8.2-6.1 0-2.2-.1-4.5-.6-6-1.4-1.5-.7-2.3-1.5-2.3-1.6.1-.1 1 .5 2.6 1 1.5.5 3.6.8 5.8.8 2.1-.1 4.3-.3 5.9-.4 1.6-.2 2.7-.4 2.7-.4s4.3-.3 8.6-1.2c4.3-.7 8.5-1.9 8.6-1.7z" fill="url(#g86)"/></g></g><g id="&lt;Group&gt;"><g id="&lt;Group&gt;"><path id="&lt;Path&gt;" d="M139.6 341.9c1.4 9.8 2.4 18.8-.3 22.2-6.8 8.5-49.8 14.1-49.8 5.1s23.8-10.8 23.8-10.8-4.6-14.1-8.8-32.7c7.9.7 25.7 3.8 35.1 16.2z" fill="url(#g87)"/><g id="&lt;Group&gt;" style="mix-blend-mode:screen" opacity=".5"><g id="&lt;Group&gt;"><path id="&lt;Path&gt;" d="M103.5 362c0 .2-1.6.9-3.1 1.6-1.5.6-2.9 1.5-2.9 1.5s-1.5.6-2.8 1.5c-1.4.9-2.4 2.3-2.6 2.2-.2-.1.5-1.8 1.8-3.1 1.2-1.3 2.8-2.2 2.8-2.2s.4-.2 1-.4 1.5-.5 2.3-.7c1.7-.4 3.4-.7 3.5-.4z" fill="url(#g88)"/></g><g id="&lt;Group&gt;"><path id="&lt;Path&gt;" d="M115.3 357.6c-.3 0-1.1-1.5-1.9-3.2-.7-1.6-1.4-3.3-1.4-3.3s-.4-1.7-.8-3.5c-.3-1.7-.5-3.5-.2-3.6.2 0 .8 1.7 1.4 3.3.7 1.7 1.3 3.3 1.3 3.3s.4 1.7.9 3.4c.4 1.7.9 3.5.7 3.6z" fill="url(#g89)"/></g></g><path id="&lt;Path&gt;" d="M139.6 341.9c1.4 9.8 2.4 18.8-.3 22.2-6.8 8.5-49.8 14.1-49.8 5.1 0-1.6.8-3 2.1-4.2.3 2.2 2.2 4.8 9.2 5.1 12.7.6 16.7-2.3 16-4.5-.4-1.4-3.9-4.6-6.5-6.8 1.8-.3 3-.4 3-.4s-.9-2.7-2.3-7.4c4.4 4.6 11.9 10.8 15.9 6.3 5.5-6.3-9-24.2-20.8-24.7q-.8-3.3-1.6-6.9c7.9.7 25.7 3.8 35.1 16.2z" style="mix-blend-mode:multiply" opacity=".5" fill="url(#g90)"/></g><g id="&lt;Group&gt;"><g id="&lt;Group&gt;"><path id="&lt;Path&gt;" d="M103.8 371.8q-.7-.1-1.4-.4-.3-.2-.5-.4c-1.3-.9-1.9-2.4-2.9-3.6q-.2-.3-.4-.5c-.8-1-1.7-2.2-2.8-2.9-.2-.2-.6-.4-.8-.7q0-.1-.1-.3 0-.1.1-.2c1.6-.8 3.4-1.5 5.2-2 4 .3 8.1 3 8.3 6.8v.5q-.1.3-.1.5c-.1.8-.5 1.4-.9 1.9q-.2.2-.4.3l-.6.4-.8.4q-.3.1-.5.1-.7.2-1.4.1z" style="mix-blend-mode:multiply" opacity=".5" fill="url(#g91)"/><path id="&lt;Path&gt;" d="M105.6 359.6v-.1c4.2-.8 7.7-1.1 7.7-1.1l-.2-.7c2.9.9 5.6 3.1 5.9 5.9q.1.3.1.5v.5q0 .3-.1.6c-.2 1.3-1.1 2.3-2.3 2.8q-.4.2-.9.3-.4.1-.9.1t-1-.2q-.4-.1-.9-.3-.3-.1-.5-.3-.5-.4-1-.9c-.8-1-1.4-2.3-2.3-3.3-.8-.9-1.6-2.2-2.7-2.9-.3-.2-.6-.3-.8-.6q-.1-.1-.1-.3z" style="mix-blend-mode:multiply" opacity=".5" fill="url(#g92)"/></g><g id="&lt;Group&gt;"><path id="&lt;Compound Path&gt;" fill-rule="evenodd" d="M109.5 362.5c-.8-.9-1.6-2-2.6-2.7-.3-.2-.8-.5-.8-.9-.1-.4.2-.7.5-.9 4.1-3.2 13 .4 12.1 6.1-.4 2.5-3.5 3.7-5.6 2.6q-.3-.1-.5-.3c-1.4-1-2-2.7-3.1-3.9zm-6.9 7.1q.2.2.5.3c2.1 1.1 5.3-.1 5.6-2.5.9-5.8-8-9.4-12.1-6.2-.3.2-.6.6-.5.9 0 .5.5.7.8.9 1.1.7 1.8 1.8 2.6 2.7 1.1 1.2 1.8 3 3.1 3.9z" fill="url(#g93)"/><g id="&lt;Group&gt;" style="mix-blend-mode:multiply" opacity=".3"><path id="&lt;Path&gt;" d="M108.7 365.4q.2 1 0 2c-.3 2.4-3.5 3.6-5.6 2.5q-.3-.1-.5-.3c-1.3-.9-2-2.7-3.1-3.9-.8-.9-1.5-2-2.6-2.7-.3-.2-.8-.4-.8-.9-.1-.3.2-.7.5-.9q.4-.3.7-.5c.9.7 1.6 1.7 2.3 2.5 1.1 1.2 1.8 2.9 3.1 3.9q.2.1.5.3c1.9 1 4.7.1 5.5-2z" fill="url(#g94)"/><path id="&lt;Path&gt;" d="M118.6 362.2q.3.9.1 1.9c-.4 2.5-3.5 3.7-5.6 2.6q-.3-.1-.5-.3c-1.4-1-2-2.7-3.1-3.9-.8-.9-1.6-2-2.6-2.7-.3-.2-.8-.5-.8-.9-.1-.4.2-.7.5-.9q.4-.3.7-.5c.9.7 1.6 1.6 2.3 2.4 1.1 1.3 1.7 3 3.1 3.9q.2.2.5.4c1.9.9 4.7 0 5.4-2z" fill="url(#g95)"/></g></g></g><g id="&lt;Group&gt;"><path id="&lt;Path&gt;" d="M140 344.6c-4.1-3.2-18.1-13.6-28.1-12.4-11.9 1.5 1.2-5.1 1.2-5.1v-.1c8.6 1.9 19.7 6 26.5 14.9q.2 1.4.4 2.7z" style="mix-blend-mode:multiply" opacity=".5" fill="url(#g96)"/><g id="&lt;Group&gt;"><path id="&lt;Path&gt;" class="s60" d="M139.8 343.4c-3.7-3-18.1-13.9-28.3-12.6-11.9 1.5 1.2-5.1 1.2-5.1v-.6s16.6 1.3 26.2 12.3q.5 3 .9 6z"/></g><path id="&lt;Path&gt;" class="s61" d="M138.9 337.4q.5 3 .9 6c-3.7-3-18.1-13.9-28.3-12.6-11.9 1.5 1.2-5.1 1.2-5.1v-.6s2 .2 5 .8c.2 1.7 1.3 3.7 4.9 5.3 5.9 2.5 12.5 6.3 12.7 2.7q1.9 1.6 3.6 3.5z"/></g></g><g id="&lt;Group&gt;"><g id="&lt;Group&gt;"><path id="&lt;Path&gt;" d="M104.5 325.7c2.7.3 6.2-1.4 10.7-.3 0 .3.6 2.7.7 3 2.8 8.6 4.8 19.1-7 14.2q-.1 0-.3-.1c-1.3-4.9-2.7-10.6-4.1-16.8z" style="mix-blend-mode:multiply" opacity=".5" fill="url(#g97)"/><path id="&lt;Path&gt;" d="M99.7 316.4c.2-2 .1-4.9 7.4-3.7 9.8 1.6 4.6 5.3 7.3 13.9 2.8 8.7 4.9 19.1-6.9 14.3-7.9-3.3-8-21.7-7.8-24.5z" fill="url(#g98)"/><path id="&lt;Path&gt;" d="M107.5 340.9c-1.2-.5-2.1-1.3-2.9-2.3 11.6 4.8 9.6-5.6 6.8-14.2-1.7-5.4-.4-8.8-1.4-11 5.7 1.9 2 5.6 4.4 13.2 2.8 8.7 4.9 19.1-6.9 14.3z" style="mix-blend-mode:multiply" opacity=".5" fill="url(#g99)"/><path id="&lt;Path&gt;" d="M104.6 338.6c5.2 2.1 7.6 1.2 8.5-1.2.8.9 1.9 1.8 3 2.4-.9 2.4-3.4 3.2-8.6 1.1-1.2-.5-2.1-1.3-2.9-2.3z" style="mix-blend-mode:multiply" opacity=".5" fill="url(#g100)"/></g><g id="&lt;Group&gt;" style="mix-blend-mode:screen"><path id="&lt;Path&gt;" d="M110.8 337.9c0 .1-.6.8-2 .9-.7 0-1.5-.1-2.3-.4-.8-.4-1.6-1-2.2-1.7-1.2-1.4-1.8-3.1-2.2-4.3-.4-1.2-.6-2.1-.6-2.1s-.1-.8-.3-2.1c-.2-1.3-.4-3-.4-4.7 0-3.4.7-6.8.9-6.7.2 0 0 3.4.4 6.7.3 3.3 1.1 6.4 1.1 6.4l.5 2c.3 1.2.7 2.8 1.6 4.1.9 1.2 2.3 2 3.5 2.1 1.1.1 1.9-.3 2-.2z" fill="url(#g101)"/></g></g></g><g id="&lt;Group&gt;"><g id="&lt;Group&gt;"><path id="&lt;Path&gt;" d="M200.5 366.6s4.9 5.3-1.2 10.4c-6.1 5.2-23.9 2.5-32.4.3s-14.8-3.9-18.2-9c-3.5-5.1 1.2-11 1.2-11z" fill="url(#g102)"/><path id="&lt;Path&gt;" d="M148.7 368.3c-3.5-5.1 1.2-11 1.2-11l50.6 9.3s3.8 4.1.5 8.6c.3-.9.4-2 .2-3.2 0 0-3.2 5.9-25.6 1.9-22.4-4-21.9-5-18.6-1.6 2 2.2 10.3 4.9 17.6 6.6-2.9-.5-5.6-1.1-7.7-1.6-8.5-2.2-14.8-3.9-18.2-9z" opacity=".3" fill="url(#g103)"/><g id="&lt;Group&gt;" style="mix-blend-mode:screen"><path id="&lt;Path&gt;" d="M172.7 374.6c4.3.9 8.6 1.2 8.6 1.2s1.1.2 2.7.4c1.6.1 3.8.3 6 .4 2.1 0 4.2-.3 5.8-.8 1.5-.5 2.4-1.1 2.5-1 .1.1-.8.9-2.3 1.6-1.5.8-3.8 1.3-6 1.4-2.2.2-4.5.1-6.1 0-1.7-.1-2.8-.2-2.8-.2s-4.4-.6-8.7-1.7c-4.2-1.1-8.3-2.8-8.3-3 .1-.2 4.3 1 8.6 1.7z" fill="url(#g104)"/></g></g><g id="&lt;Group&gt;"><g id="&lt;Group&gt;"><path id="&lt;Path&gt;" d="M185.5 325.7c-4.1 18.6-8.8 32.7-8.8 32.7s23.8 1.8 23.8 10.8-43 3.4-49.8-5.1c-2.7-3.4-1.7-12.4-.3-22.2 9.4-12.4 27.2-15.5 35.1-16.2z" fill="url(#g105)"/><g id="&lt;Group&gt;" style="mix-blend-mode:screen" opacity=".5"><g id="&lt;Group&gt;"><path id="&lt;Path&gt;" d="M190 362.4c.8.2 1.7.5 2.3.7.6.2 1 .4 1 .4s1.6.9 2.8 2.2c1.3 1.3 2 3 1.8 3.1-.2.1-1.2-1.3-2.6-2.2-1.3-.9-2.8-1.5-2.8-1.5s-1.4-.9-2.9-1.5c-1.5-.7-3.1-1.4-3-1.6 0-.3 1.7 0 3.4.4z" fill="url(#g106)"/></g><g id="&lt;Group&gt;"><path id="&lt;Path&gt;" d="M175.4 354c.5-1.7.9-3.4.9-3.4s.6-1.6 1.3-3.3c.6-1.6 1.2-3.3 1.4-3.3.3.1.1 1.9-.2 3.6-.4 1.8-.8 3.5-.8 3.5s-.7 1.7-1.4 3.3c-.8 1.7-1.6 3.2-1.9 3.2-.2-.1.3-1.9.7-3.6z" fill="url(#g107)"/></g></g><path id="&lt;Path&gt;" d="M185.5 325.7q-.8 3.6-1.6 6.9c-11.8.5-26.3 18.4-20.8 24.7 4.1 4.5 11.5-1.7 15.9-6.3-1.4 4.7-2.3 7.4-2.3 7.4s1.2.1 3 .4c-2.6 2.2-6.1 5.4-6.5 6.8-.6 2.2 3.3 5.1 16 4.5 7-.3 8.9-2.9 9.2-5.1 1.3 1.2 2.1 2.6 2.1 4.2 0 9-43 3.4-49.8-5.1-2.7-3.4-1.7-12.4-.3-22.2 9.4-12.4 27.2-15.5 35.1-16.2z" style="mix-blend-mode:multiply" opacity=".5" fill="url(#g108)"/></g><g id="&lt;Group&gt;"><g id="&lt;Group&gt;"><path id="&lt;Path&gt;" d="M184.8 371.7q-.2 0-.5-.1l-.8-.4-.6-.4q-.2-.1-.3-.3c-.5-.5-.9-1.1-1-1.9q0-.2-.1-.5v-.5c.2-3.8 4.3-6.5 8.3-6.8 1.8.5 3.6 1.2 5.3 2v.2q-.1.2-.1.3c-.2.3-.6.5-.8.7-1.1.7-2 1.9-2.8 2.9q-.2.2-.4.5c-1 1.2-1.6 2.7-2.9 3.6q-.2.2-.5.4-.7.3-1.4.4-.7.1-1.4-.1z" style="mix-blend-mode:multiply" opacity=".5" fill="url(#g109)"/><path id="&lt;Path&gt;" d="M184.3 359.9c-.1.3-.5.4-.8.6-1.1.7-1.9 2-2.7 2.9-.9 1-1.5 2.3-2.3 3.3q-.5.5-1 .9-.2.2-.5.3-.5.2-.9.3-.5.2-1 .2t-.9-.1q-.5-.1-.9-.3c-1.2-.5-2.1-1.5-2.3-2.8q-.1-.3-.1-.6v-.5q0-.2.1-.5c.4-2.8 3-5 5.9-5.9l-.2.7s3.5.3 7.7 1.1v.1q0 .2-.1.3z" style="mix-blend-mode:multiply" opacity=".5" fill="url(#g110)"/></g><g id="&lt;Group&gt;"><path id="&lt;Compound Path&gt;" fill-rule="evenodd" d="M177.4 366.4q-.2.2-.5.3c-2.1 1.1-5.2-.1-5.6-2.6-.9-5.7 8-9.3 12.1-6.1.3.2.6.5.5.9 0 .4-.5.7-.8.9-1 .7-1.8 1.8-2.6 2.7-1.1 1.2-1.7 2.9-3.1 3.9zm13.1-.7c.8-.9 1.5-2 2.6-2.7.3-.2.8-.4.8-.9.1-.3-.2-.7-.5-.9-4.1-3.2-13 .4-12.1 6.2.3 2.4 3.5 3.6 5.6 2.5q.3-.1.5-.3c1.3-.9 2-2.7 3.1-3.9z" fill="url(#g111)"/><g id="&lt;Group&gt;" style="mix-blend-mode:multiply" opacity=".3"><path id="&lt;Path&gt;" d="M186.8 367.4q.3-.2.5-.3c1.4-1 2-2.7 3.1-3.9.7-.8 1.4-1.8 2.3-2.5q.3.2.7.5c.3.2.6.6.5.9 0 .5-.5.7-.8.9-1.1.7-1.8 1.8-2.6 2.7-1.1 1.2-1.8 3-3.1 3.9q-.2.2-.5.3c-2.1 1.1-5.3-.1-5.6-2.5q-.2-1 0-2c.8 2.1 3.6 3 5.5 2z" fill="url(#g112)"/><path id="&lt;Path&gt;" d="M176.8 364.2q.3-.2.5-.4c1.4-.9 2-2.6 3.1-3.9.7-.8 1.4-1.7 2.3-2.4q.4.2.7.5c.3.2.6.5.5.9 0 .4-.5.7-.8.9-1 .7-1.8 1.8-2.6 2.7-1.1 1.2-1.7 2.9-3.1 3.9q-.2.2-.5.3c-2.1 1.1-5.2-.1-5.6-2.6q-.2-1 .1-1.9c.7 2 3.5 2.9 5.4 2z" fill="url(#g113)"/></g></g></g><g id="&lt;Group&gt;"><path id="&lt;Path&gt;" d="M150.4 341.9c6.8-8.9 17.9-13 26.5-14.9v.1s13.1 6.6 1.2 5.1c-10-1.2-24 9.2-28.1 12.4q.2-1.3.4-2.7z" style="mix-blend-mode:multiply" opacity=".5" fill="url(#g114)"/><g id="&lt;Group&gt;"><path id="&lt;Path&gt;" class="s60" d="M151.1 337.4c9.6-11 26.2-12.3 26.2-12.3v.6s13.1 6.6 1.2 5.1c-10.2-1.3-24.6 9.6-28.3 12.6q.4-3 .9-6z"/></g><path id="&lt;Path&gt;" class="s61" d="M154.7 333.9c.2 3.6 6.8-.2 12.7-2.7 3.6-1.6 4.7-3.6 4.9-5.3 3-.6 5-.8 5-.8v.6s13.1 6.6 1.2 5.1c-10.2-1.3-24.6 9.6-28.3 12.6q.4-3 .9-6 1.7-1.9 3.6-3.5z"/></g></g><g id="&lt;Group&gt;"><g id="&lt;Group&gt;"><path id="&lt;Path&gt;" d="M181.4 342.5q-.2.1-.3.1c-11.8 4.9-9.7-5.6-7-14.2.1-.3.7-2.7.7-3 4.5-1.1 8 .6 10.7.3-1.4 6.2-2.8 11.9-4.1 16.8z" style="mix-blend-mode:multiply" opacity=".5" fill="url(#g115)"/><path id="&lt;Path&gt;" d="M182.5 340.9c-11.8 4.8-9.7-5.6-6.9-14.3 2.7-8.6-2.4-12.3 7.3-13.9 7.3-1.2 7.2 1.7 7.4 3.7.2 2.8.1 21.2-7.8 24.5z" fill="url(#g116)"/><path id="&lt;Path&gt;" d="M175.6 326.6c2.4-7.6-1.3-11.3 4.4-13.2-1 2.2.3 5.6-1.4 11-2.7 8.6-4.8 19 6.9 14.2-.9 1-1.8 1.8-3 2.3-11.8 4.8-9.7-5.6-6.9-14.3z" style="mix-blend-mode:multiply" opacity=".5" fill="url(#g117)"/><path id="&lt;Path&gt;" d="M182.5 340.9c-5.2 2.1-7.7 1.3-8.6-1.1 1.1-.6 2.2-1.5 3-2.4.9 2.4 3.3 3.3 8.6 1.2-.9 1-1.8 1.8-3 2.3z" style="mix-blend-mode:multiply" opacity=".5" fill="url(#g118)"/></g><g id="&lt;Group&gt;" style="mix-blend-mode:screen"><path id="&lt;Path&gt;" d="M181.2 338.1c1.2-.1 2.6-.9 3.5-2.1.9-1.3 1.3-2.9 1.6-4.1l.5-2s.8-3.1 1.1-6.4c.4-3.3.2-6.7.4-6.7.3-.1.9 3.3.9 6.7 0 1.7-.2 3.4-.4 4.7-.1 1.3-.3 2.1-.3 2.1s-.2.9-.6 2.1c-.4 1.2-1 2.9-2.2 4.3-.6.7-1.4 1.3-2.2 1.7-.8.3-1.6.4-2.3.4-1.4-.1-2-.8-2-.9.1-.1.9.3 2 .2z" fill="url(#g119)"/></g></g></g><g id="&lt;Group&gt;"><path id="&lt;Path&gt;" d="M129.1 369.1q-1.9.7-4.1 1.2c.1-.1 5.1-3.2 6.1-10 .8-5.5-2.3-19.8-4.6-30.2-.6-3.1-1.2-5.9-1.7-8.1-1.9-9.8-.8-22.1-.8-22.6l1.9.2c0 .1-1.1 12.5.8 22 .4 2.2 1 5.1 1.7 8.1 2.4 11.1 5.4 25 4.5 30.9-.5 3.9-2.2 6.7-3.8 8.5z" style="mix-blend-mode:multiply" opacity=".3" fill="url(#g120)"/><path id="&lt;Path&gt;" d="M129.7 369.4q-1.9.7-4 1.2h-.1c.1 0 5.1-3.2 6.1-10 .8-5.5-2.3-19.8-4.5-30.2-.7-3-1.3-5.9-1.7-8.1-1.9-9.8-.9-22-.9-22.6l1.9.2c0 .1-1 12.5.8 22.1.4 2.1 1 5 1.7 8 2.4 11.1 5.4 25 4.6 30.9-.6 3.9-2.3 6.7-3.9 8.5z" fill="url(#g121)"/></g><g id="&lt;Group&gt;"><path id="&lt;Path&gt;" d="M163.1 370.7q-2.2-1-4-2.1c-1.5-1.8-3.1-4.5-3.6-8.1-.9-5.9 2.1-19.8 4.6-31 .6-3 1.2-5.8 1.7-8 1.8-9.5.8-21.9.8-22l1.8-.2c.1.5 1.1 12.8-.8 22.6-.4 2.2-1.1 5-1.7 8-2.3 10.5-5.4 24.8-4.6 30.3 1 6.8 6.1 9.9 6.1 9.9z" style="mix-blend-mode:multiply" opacity=".3" fill="url(#g122)"/><path id="&lt;Path&gt;" d="M162.2 370.7q-2.2-1-4-2.1c-1.5-1.8-3-4.5-3.6-8.1-.9-5.9 2.2-19.8 4.6-31 .6-3 1.3-5.8 1.7-8 1.8-9.5.8-21.9.8-22l1.8-.2c.1.5 1.1 12.8-.8 22.6-.4 2.2-1 5-1.7 8-2.3 10.5-5.4 24.8-4.5 30.3 1 6.8 6 9.9 6 9.9z" fill="url(#g123)"/></g><g id="&lt;Group&gt;"><g id="&lt;Group&gt;"><path id="&lt;Path&gt;" d="M193.7 288.2q-.3 5-.8 9.9c-.2-.7.3-1.6-.4-2.1-.5-.4-1.8 0-2.4 0l-4.4.4c-3.7.5-7.4 1.3-11 2.5-4.9 1.6-9.6 3.9-13.8 6.8-3.1 2.2-6.1 4.6-7.7 8.1q-.5-2.5-1.4-4.3c3.8-8.3 14.1-14.7 22.6-17.9 4.7-1.7 14.2-5.7 19.3-3.4z" style="mix-blend-mode:multiply" opacity=".3" fill="url(#g124)"/><path id="&lt;Path&gt;" d="M196.7 294.3q-.2.6-.6 1.1c-.5.6-1.3 1-2 1.2-.4.1-.7.2-1 0-.8-.6.3-1.8-.6-2.5-.5-.3-1.8 0-2.4 0q-2.2.2-4.4.5c-3.7.5-7.4 1.3-11 2.4-4.9 1.6-9.6 3.9-13.8 6.9-3.5 2.5-7.1 5.3-8.2 9.6-1-.2-1.6-1.2-1.7-2.1-.2-1 .1-2 .5-2.9 3.4-8.7 14.1-15.5 22.9-18.7 6.6-2.4 22.2-9.2 22.6 2.5.1.7 0 1.4-.3 2z" fill="url(#g125)"/><path id="&lt;Path&gt;" d="M197 292.3c.1.7 0 1.4-.3 2q-.2.6-.6 1.1c-.5.6-1.3 1-2 1.2-.4.1-.7.2-1 0-.8-.6.3-1.8-.6-2.5-.5-.3-1.8 0-2.4 0q-2.2.2-4.4.5c-3.7.5-7.4 1.3-11 2.4-4.9 1.6-9.6 3.9-13.8 6.9-3.5 2.5-7.1 5.3-8.2 9.6-1-.2-1.6-1.2-1.7-2.1-.2-1 .1-2 .5-2.9 1.8-4.7 5.9-8.9 10.6-12.3-1.5 2.7-1.5 4.4 3.5 2.2 11.3-5.1 20.6-5.1 27-6.2 2.8-.4 3.5-2.1 3.4-3.8.6 1 1 2.3 1 3.9z" style="mix-blend-mode:multiply" opacity=".5" fill="url(#g126)"/></g><g id="&lt;Group&gt;" style="mix-blend-mode:screen" opacity=".5"><path id="&lt;Path&gt;" d="M175.5 290.1c1.4-.6 2.8-1.1 3.9-1.4 1-.3 1.8-.5 1.8-.5s3-.6 6.1-.4c3 .1 5.9 1.1 5.8 1.3 0 .2-2.9-.3-5.8-.1-2.9.2-5.7.9-5.7.9s-.7.1-1.8.4c-1.1.2-2.5.5-3.9 1-2.8.8-5.5 1.9-5.6 1.6-.1-.2 2.4-1.6 5.2-2.8z" fill="url(#g127)"/></g></g><g id="&lt;Group&gt;"><g id="&lt;Group&gt;"><path id="&lt;Path&gt;" d="M95.2 292.3c.4-11.7 15.4-4.9 21.7-2.5 8.4 3.2 18.7 10 21.9 18.7.4.9.7 1.9.5 2.9-.1.9-.7 1.9-1.6 2.1-1.1-4.3-4.5-7.1-7.9-9.6-4-3-8.5-5.3-13.2-6.9-3.4-1.1-7-1.9-10.6-2.4q-2.1-.3-4.2-.5c-.6 0-1.8-.3-2.2 0-.9.7.1 1.9-.7 2.5-.2.2-.6.1-.9 0-.7-.2-1.4-.6-1.9-1.2q-.4-.5-.6-1.1c-.2-.6-.3-1.3-.3-2z" fill="url(#g128)"/><path id="&lt;Path&gt;" d="M96.2 288.4c-.1 1.7.6 3.4 3.3 3.8 6.1 1.1 15 1.1 25.8 6.2 4.8 2.2 4.8.5 3.3-2.2 4.6 3.4 8.5 7.6 10.2 12.3.4.9.7 1.9.5 2.9-.1.9-.7 1.9-1.6 2.1-1.1-4.3-4.5-7.1-7.9-9.6-4-3-8.5-5.3-13.2-6.9-3.4-1.1-7-1.9-10.6-2.4q-2.1-.3-4.2-.5c-.6 0-1.8-.3-2.2 0-.9.7.1 1.9-.7 2.5-.2.2-.6.1-.9 0-.7-.2-1.4-.6-1.9-1.2q-.4-.5-.6-1.1c-.2-.6-.3-1.3-.3-2 0-1.6.4-2.9 1-3.9z" style="mix-blend-mode:multiply" opacity=".5" fill="url(#g129)"/></g><g id="&lt;Group&gt;" style="mix-blend-mode:screen" opacity=".5"><path id="&lt;Path&gt;" d="M120.8 292.9c-.1.3-2.7-.8-5.4-1.6-1.3-.5-2.7-.8-3.7-1-1-.3-1.7-.4-1.7-.4s-2.7-.7-5.5-.9c-2.7-.2-5.5.3-5.6.1-.1-.2 2.7-1.2 5.6-1.3 3-.2 5.9.4 5.9.4s.7.2 1.7.5c1.1.3 2.4.8 3.7 1.4 2.7 1.2 5.1 2.6 5 2.8z" fill="url(#g130)"/></g></g><g id="&lt;Group&gt;"><path id="&lt;Compound Path&gt;" fill-rule="evenodd" d="M178.6 227.9c-.3 1.2-2.7.8-6.3-.2q-.1.1-.2.3c-2.2 1.8-5.5 1.3-8.3-1q-.3-.2-.6-.5-.4-.4-.7-.8l-.1-.1q-.4-.5-.6-.9l-.1-.1q-.2-.3-.3-.5c-4.1-1.4-7.3-2.8-7.4-4 0-1.1 2-1.8 5.1-1.8h1q.5 0 .9.1.2-.5.6-.9c2.1-2.4 6.7-1.8 9.6 1.3 1.1 1.1 1.8 2.4 2.1 3.6q.5.4 1 .7l.6.4q.2.1.3.2.4.3.7.6h.1c1.8 1.4 2.7 2.8 2.6 3.6zm-17.9-8.8c-2.6-.1-4.2.4-4.2 1.3.1.9 1.9 1.9 4.5 2.9l-.2-.6q0-.1-.1-.1l-.2-1v-.1q-.2-1.3.2-2.4zm15.7 7.6c.1-.7-.9-2-2.9-3.3q.2 1.2-.1 2.2h.1q-.2.6-.4 1.1h-.1l-.2.4c2.1.4 3.5.4 3.6-.4z" style="mix-blend-mode:multiply" opacity=".3" fill="url(#g131)"/><g id="&lt;Group&gt;"><g id="&lt;Group&gt;"><path id="&lt;Path&gt;" d="M171.8 227.3c-2.3 1.9-5.9 1.2-8.8-1.4-2.8-2.7-3.8-6.7-1.6-9.1 2.1-2.3 6.7-1.8 9.6 1.3 3 3.2 3 7.3.8 9.2z" fill="url(#g132)"/><path id="&lt;Path&gt;" d="M171.4 226.1c-.4.3-.7.5-1.2.6-.2 0-.4-.1-.6-.2-.2-.2-.2-.5-.2-.7.1-.5.2-1.1.6-1.3.4-.2 1.2-.2 1.6.2.3.2.4.5.4.8-.1.3-.4.5-.6.6z" fill="url(#g133)"/><path id="&lt;Path&gt;" d="M169.4 227.8c-.1 0-.3.1-.5.1-.3-.1-.5-.2-.6-.4q-.1-.1-.1-.2c0-.1.1-.2.2-.2.2-.1.4-.1.7-.1q.2 0 .3.1c.3.1.4.4.2.5q0 .1-.2.2z" fill="url(#g134)"/><path id="&lt;Path&gt;" d="M167 226.1c0-.4.6-.3.9-.3q.2 0 .4.2.2 0 .2.1v.1c-.1.4-.8.4-1.2.2-.1 0-.2-.1-.3-.3z" fill="url(#g135)"/><path id="&lt;Path&gt;" d="M162.9 221.6c.1.5 0 .9-.3 1.2q0 .1-.2.2c-.2 0-.4-.1-.6-.2-.5-.4-.8-1-.9-1.6-.1-.4-.1-.9.2-1.2.3-.2.8 0 1 .3.3.4.6.9.8 1.3z" fill="url(#g136)"/><path id="&lt;Path&gt;" d="M163.2 224.6q0 .1-.1.1c-.4 0-.6-.3-.8-.6q-.1-.1-.1-.3c0-.1.1-.2.2-.1.3.1.7.5.8.8v.1z" fill="url(#g137)"/><path id="&lt;Path&gt;" d="M161.4 219.4l-.1.1c-.1 0-.2-.1-.3-.2q-.1-.1-.1-.3c0-.3.1-.5.3-.7.1 0 .2-.1.3 0 .3.1.3.5.3.7q-.1.3-.4.4z" fill="url(#g138)"/><path id="&lt;Path&gt;" d="M162.3 221.1c.4.5.9.9 1.5 1.1.7.4 1.5.5 2.1.3.5-.1 1-.2 1.5-.1s.9.5 1.2.8c.3.4.6.9.9 1.3.1.3.4.5.6.7.5.4 1 .4 1.4.4.7 0 1.4-.2 1.7-.6-.2.9-.7 1.7-1.4 2.3-2.3 1.9-5.9 1.2-8.8-1.4-2.4-2.3-3.5-5.5-2.3-7.9.1 1.1.8 2.2 1.6 3.1z" style="mix-blend-mode:multiply" opacity=".5" fill="url(#g139)"/><path id="&lt;Path&gt;" d="M162.8 216.2s1-1 4.2-.2 5.2 3.7 4.8 4.3c-.5.7-1.6.2-3.9-1-2.3-1-1.7 7.3-.2 7.7 1.5.5 2.7.1 2.3.8-.5.7-4.7-.1-6.5-2.1-1.8-2 1.9.9 2.7.8.8-.2-1.3-3.7-.4-6.6 1-2.8-4.2-2.1-3-3.7z" style="mix-blend-mode:screen" opacity=".3" fill="url(#g140)"/><path id="&lt;Path&gt;" d="M172.1 221.6c-.6 1.4-1.5-.1-3.7-1.3-2.2-1.3-3.3-.9-4.6-.9-1.2 0-2.7-1.7-1-2.9 1.6-1.2 3.7-.6 3.7-.6 3.6.6 6.3 4.4 5.6 5.7z" style="mix-blend-mode:screen" opacity=".3" fill="url(#g141)"/><g id="&lt;Group&gt;" style="mix-blend-mode:screen"><path id="&lt;Path&gt;" d="M167.3 217c.1.4-.5.7-1.3.7-.9 0-1.7-.3-1.8-.7-.1-.4.5-.8 1.3-.8.9 0 1.7.4 1.8.8z" style="mix-blend-mode:screen" opacity=".5" fill="url(#g142)"/></g><path id="&lt;Path&gt;" d="M169.1 217.4c0 .2-.3.2-.8.1-.4-.2-.7-.4-.7-.6 0-.2.4-.2.8-.1.4.2.7.4.7.6z" style="mix-blend-mode:screen" fill="url(#g143)"/></g><g id="&lt;Group&gt;"><path id="&lt;Path&gt;" d="M166.4 225.3c-6.5-2.2-12.4-4.1-12.6-5.9-.1-1.2 2.8-2 7.1-1.7q-.2.4-.4.7c-2.6-.1-4.2.5-4.2 1.3.1 1.5 4.8 3.2 10.1 5 5.4 1.7 9.5 2.8 9.8 1.4.1-.8-1-2.1-3-3.5q0-.4-.2-.9c3.6 2.1 5.6 4.5 5.4 5.6-.4 1.7-5.4.1-12-2z" fill="url(#g144)"/><path id="&lt;Path&gt;" d="M163.5 223.9c-3.4-1.1-5.9-2.3-7.3-3.7-1.4-1.4 2.9-1.6 3.2-2.2.1-.1-.1-.2-.6-.4q1 0 2.1.1-.2.4-.4.7c-2.6-.1-4.2.5-4.2 1.3.1 1.5 4.8 3.2 10.1 5 5.4 1.7 9.5 2.8 9.8 1.4.1-.8-1-2.1-3-3.5q0-.4-.2-.9c1.4.9 2.6 1.7 3.4 2.5-.3 0-.5 0-.4.3.4 1 2.2 3-.6 2.7-2.7-.3-8.4-2.3-11.9-3.3z" style="mix-blend-mode:multiply" opacity=".5" fill="url(#g145)"/><path id="&lt;Path&gt;" d="M155.4 219.7c.3.8 3.2 2.1 2.4 2.1-.8 0-3.5-1.2-3.8-2.3-.3-1.2 2.9-1.5 2.9-1.5 1.4-.1-1.7.8-1.5 1.7z" style="mix-blend-mode:screen" fill="url(#g146)"/><path id="&lt;Path&gt;" d="M176 227.6c-.7-.5 1.2.1 1.4-.7.2-.8-1.3-2.5-.6-2 .7.5 1.3 1.5 1.4 2.1.2.9-1.5 1.1-2.2.6z" style="mix-blend-mode:screen" fill="url(#g147)"/></g></g></g><g id="&lt;Group&gt;" style="mix-blend-mode:multiply" opacity=".3"><path id="&lt;Path&gt;" d="M147.7 269.6h-2.9l.3-66.2h2.8z" fill="url(#g148)"/></g><g id="&lt;Group&gt;"><path id="&lt;Path&gt;" d="M146.3 268.6h-2.8l.3-66.2 2.8.1z" fill="url(#g149)"/></g><g id="&lt;Group&gt;"><path id="&lt;Path&gt;" d="M98 278.2v-2c10.7-3.1 54.5-14.5 95.6-.4q.1.9.1 1.8l-.1.2c-41.5-14.5-86.1-2.5-95.6.4z" style="mix-blend-mode:multiply" opacity=".3" fill="url(#g150)"/><path id="&lt;Path&gt;" d="M98 277.3v-2c10.7-3.2 54.5-14.5 95.6-.4q.1.9.1 1.8l-.1.2c-41.5-14.6-86.1-2.5-95.6.4z" fill="url(#g151)"/></g><path id="&lt;Path&gt;" d="M186 232.7q.3.9.6 1.9c-7.2-1-25.7-2.8-30.1.3-2.3 1.7-3.2 5.1-2.4 8.8.8 3.2 3 6.8 7.1 7.4 3.4.5 7.9.4 12.8.3 5.7-.2 11.6-.3 16.5.5l.4 2c-4.8-1-10.9-.8-16.9-.7-4.9.2-9.5.3-13-.2-5.1-.8-7.8-5.1-8.7-8.8-1-4.5.2-8.7 3.2-10.8 5.3-3.7 25.5-1.4 30.5-.7z" style="mix-blend-mode:multiply" opacity=".3" fill="url(#g152)"/><path id="&lt;Path&gt;" d="M124.4 232.7c-.8 4.6-1.7 9.5-.1 11.5q.7.9 2.2 1l.6.1c8 .5 11.7.8 11.4 9.9-.3 8.4-1.2 13.6-1.2 13.9l-1.9-.4s.9-5.3 1.2-13.5c.2-7.4-1.6-7.5-9.6-8.1h-.6q-2.4-.2-3.6-1.8c-2.1-2.7-1.2-7.7-.2-13 .7-3.6 1.4-7.4.9-9.9q-.3-1.5-1.7-2.3c-4.1-2.5-13.6.4-13.7.4l-.4-1.2q.1-.4.2-.7c1.9-.5 10.5-2.8 14.9-.1q2 1.2 2.5 3.6c.6 2.8-.1 6.8-.9 10.6z" style="mix-blend-mode:multiply" opacity=".3" fill="url(#g153)"/></g><g id="&lt;Group&gt;"><g id="&lt;Group&gt;"><path id="&lt;Path&gt;" d="M121.5 250.1c0 3.4-2.7 6.1-6.1 6.1-3.4 0-6.1-2.7-6.1-6.1 0-3.4 2.7-6.1 6.1-6.1 3.4 0 6.1 2.7 6.1 6.1z" style="mix-blend-mode:multiply" opacity=".3" fill="url(#g154)"/><path id="&lt;Path&gt;" d="M120.7 248.8c0 3.4-2.8 6.1-6.1 6.1-3.4 0-6.1-2.7-6.1-6.1 0-3.3 2.7-6.1 6.1-6.1 3.3 0 6.1 2.8 6.1 6.1z" fill="url(#g155)"/><path id="&lt;Path&gt;" d="M117 249.3c0 2-1.6 3.6-3.5 3.6s-3.5-1.6-3.5-3.6 1.6-3.6 3.5-3.6 3.5 1.6 3.5 3.6z" style="mix-blend-mode:multiply" opacity=".5" fill="url(#g156)"/><path id="&lt;Path&gt;" d="M119.5 245.2c.7 1 1.2 2.3 1.2 3.6 0 3.4-2.8 6.1-6.1 6.1-3.4 0-6.1-2.7-6.1-6.1q0-1.3.5-2.4c-.5 2 0 4.3 4.4 4.5 5.7.3 6.2-3.5 6.1-5.7z" style="mix-blend-mode:multiply" opacity=".5" fill="url(#g157)"/></g><g id="&lt;Group&gt;"><g id="&lt;Group&gt;"><path id="&lt;Path&gt;" d="M105.9 253.7c-4.4 0-9.2-1.2-12.1-4.2-2.4-2.4-4.5-6.7-1.3-14.1 4.2-9.8 5.6-18.1 3.7-22.7-.6-1.5-1.6-2.5-3-3.1-3-1.2-6.3-.7-9.7-.2-6.9 1-15.4 2.2-21.1-11.4-8.4-20.1 19.2-36 20.4-36.6 1.3-.8 3-.3 3.8 1 .7 1.4.3 3.1-1.1 3.9-.2.1-24.4 14-17.9 29.5 4 9.6 8.4 9 15.1 8 3.8-.5 8.3-1.2 12.6.6 2.8 1.2 4.9 3.3 6.1 6.2 2.4 6 1.1 15.6-3.8 27-1.6 3.6-1.5 6.3.1 8 3.1 3 10.6 3 14.3 1.5 1.4-.6 3.1 0 3.6 1.5.6 1.4 0 3-1.5 3.6-2.1.9-5 1.5-8.2 1.5z" fill="url(#g158)"/></g><g id="&lt;Group&gt;" style="mix-blend-mode:screen"><path id="&lt;Path&gt;" d="M109.1 247.8c1.1-.1 2.1-.4 2.9-.7q.7-.3 1.4-.2h-.1c-1.1.5-2.6.8-4.2.9z" fill="url(#g159)"/><path id="&lt;Path&gt;" d="M85.4 203.5l-1.4.2q-1.4.2-2.7.3.6-.1 1.4-.2 1.3-.2 2.7-.3z" fill="url(#g160)"/><path id="&lt;Path&gt;" d="M109.8 253.4q-1.9.3-3.9.3c-4.4 0-9.2-1.2-12.1-4.2-2.4-2.4-4.5-6.7-1.3-14.1 4.2-9.8 5.6-18.1 3.7-22.7-.6-1.5-1.6-2.5-3-3.1-2.2-.9-4.6-.9-7.1-.6 3-.4 5.9-.6 8.4.4 1.4.6 2.4 1.6 3 3.2 1.9 4.5.5 12.8-3.7 22.6-3.2 7.4-1.1 11.8 1.3 14.2 3 3 7.7 4.1 12.2 4.1q1.3 0 2.5-.1z" fill="url(#g161)"/><path id="&lt;Path&gt;" d="M82.1 209.6c-6.6.9-14.4 1.1-19.7-11.6-8.4-20.1 19.2-36 20.4-36.6.5-.3 1.1-.4 1.7-.4l-.4.2c-1.2.7-28.7 16.5-20.4 36.6 5 11.9 12.1 12.5 18.4 11.8z" fill="url(#g162)"/></g><path id="&lt;Path&gt;" d="M114.8 251.9c-1.8-1-6.5-1.1-12.1-1.6-8.3-.7-10.1-7.8-6.2-15.7 3.9-7.6 5.9-17 1.6-25.2-3.6-6.7-12.2-5.3-18.3-3.8-3.1.8-2 2.6-.1 4.2-2.6.3-5.4.2-8-1 1.4-.8 2.1-1.9.6-3.2-3.8-3.3-9.4-9.6-7.8-18.7 1.7-9 12.2-17.8 12.2-17.8l-2-2.1c4.1-3.4 7.7-5.4 8.1-5.6 1.3-.8 3-.3 3.8 1 .7 1.4.3 3.1-1.1 3.9-.2.1-24.4 14-17.9 29.5 4 9.6 8.4 9 15.1 8 3.8-.5 8.3-1.2 12.6.6 2.8 1.2 4.9 3.3 6.1 6.2 2.4 6 1.1 15.6-3.8 27-1.6 3.6-1.5 6.3.1 8 3.1 3 10.6 3 14.3 1.5 1.4-.6 3.1 0 3.6 1.5.5 1.2.1 2.5-.8 3.3z" style="mix-blend-mode:multiply" opacity=".3" fill="url(#g163)"/></g></g><g id="&lt;Group&gt;"><g id="&lt;Group&gt;"><path id="&lt;Path&gt;" d="M178.2 198.4s7.3 4.8.1 9.6c-7.1 4.8-19.9 10.1-33.4 10.4-13.5.3-31.3-3.5-35.8-9.2-4.5-5.8-.8-9.3-.8-9.3z" style="mix-blend-mode:multiply" opacity=".3" fill="url(#g164)"/><g id="&lt;Group&gt;"><g id="&lt;Group&gt;"><path id="&lt;Path&gt;" class="s60" d="M178.2 198.4s7.3 4.2.1 8.4c-7.1 4.2-19.9 8.8-33.4 9.1-13.5.3-31.3-3.1-35.8-8.1-4.5-5-.8-8.1-.8-8.1z"/></g><path id="&lt;Path&gt;" class="s61" d="M176.6 204.4c-4.8 2.8-19.2 5.7-34 6.3-14.8.6-29.4-4.4-29.4-4.4 1 2.6 4.1 5 6.9 6.7-5.1-1.4-9.1-3.1-11-5.2-4.5-5-.8-8.1-.8-8.1l69.9-1.3s7.3 4.2.1 8.4c-2.3 1.4-5.3 2.8-8.7 4.1 5.1-3.2 7-6.5 7-6.5z"/></g></g><g id="&lt;Group&gt;"><g id="&lt;Group&gt;"><path id="&lt;Path&gt;" d="M214.8 162.7c-2.4 4.5-6.7 7.8-8.9 7.9-3.3.1-6.2-6-6.6-13.8-.4-7.8 1.9-14.3 5.1-14.5 2.4-.1 7.4 2.7 10.2 7.2q.5 1.9.9 3.7c.1 2.1.2 4.1-.2 6.3q-.2 1.6-.5 3.2z" fill="url(#g165)"/><path id="&lt;Path&gt;" d="M214.8 162.6c-2.4 4.6-6.7 7.9-8.9 8-3.3.1-6.2-6-6.6-13.8-.4-7.8 1.9-14.3 5.1-14.5.7 0 1.7.2 2.8.7q-.1 2 0 4.1c.4 7.8 3.3 14 6.6 13.9q.6-.1 1.4-.4l-.4 2z" style="mix-blend-mode:multiply" opacity=".3" fill="url(#g166)"/><path id="&lt;Path&gt;" d="M214.8 162.6q-.2.5-.5.9c-.9-2-1.4-4.7-1.4-7.7 0-2.7.4-5.1 1.2-7.1q.3.4.6.9l.8 3.6c.1 2.1.2 4.1-.2 6.3q-.2 1.6-.5 3.1z" fill="url(#g167)"/><path id="&lt;Path&gt;" d="M213.7 162c-.5-1.8-.8-3.9-.8-6.2 0-2 .2-3.9.7-5.6.9 1.6 1.5 3.4 1.6 5.3.1 2.3-.5 4.5-1.5 6.5z" style="mix-blend-mode:multiply" opacity=".5" fill="url(#g168)"/></g><g id="&lt;Group&gt;"><path id="&lt;Path&gt;" d="M74.6 159.5c-.4-2.2-.4-4.2-.2-6.3q.4-1.8.8-3.7c2.9-4.5 7.9-7.3 10.3-7.2 3.2.2 5.5 6.7 5.1 14.5-.4 7.8-3.3 13.9-6.6 13.8-2.2-.1-6.5-3.4-8.9-7.9q-.3-1.6-.5-3.2z" fill="url(#g169)"/><path id="&lt;Path&gt;" d="M74.7 160.6q.8.3 1.4.4c3.3.1 6.2-6.1 6.6-13.9q.1-2.1 0-4.1c1.1-.5 2-.7 2.8-.7 3.2.2 5.5 6.7 5.1 14.5-.4 7.8-3.3 13.9-6.6 13.8-2.2-.1-6.5-3.4-8.9-8l-.4-2z" style="mix-blend-mode:multiply" opacity=".3" fill="url(#g170)"/><path id="&lt;Path&gt;" d="M74.6 159.5c-.4-2.2-.4-4.2-.2-6.3l.8-3.6q.3-.5.6-.9c.8 2 1.2 4.4 1.2 7.1 0 3-.5 5.7-1.4 7.7q-.3-.4-.5-.9-.3-1.5-.5-3.1z" fill="url(#g171)"/><path id="&lt;Path&gt;" d="M74.7 155.5c.1-1.9.7-3.7 1.6-5.3.5 1.7.7 3.6.7 5.6 0 2.3-.3 4.4-.8 6.2-1-2-1.6-4.2-1.5-6.5z" style="mix-blend-mode:multiply" opacity=".5" fill="url(#g172)"/></g><path id="&lt;Path&gt;" d="M207.6 157c0 33.6-28.9 51.4-64 51.4-35 0-62.8-17.8-62.8-51.4 0-33.5 28.4-60.7 63.4-60.7s63.4 27.2 63.4 60.7z" fill="url(#g173)"/><path id="&lt;Compound Path&gt;" fill-rule="evenodd" d="M111.7 164.7c-16.1-1.7-27-17.8-27-17.8s.7-16.5 21.7-35q.9-.7 1.7-1.4c9.7-2.5 20-2.8 30.2-1.7-29.9 20.4-26.6 55.9-26.6 55.9zm3.8-59c19.6-10.7 41.8-6 41.8-6-5.4 1.7-10.2 3.8-14.5 6.2-9.1-1.2-18.4-1.5-27.3-.2z" style="mix-blend-mode:screen" fill="url(#g174)"/><path id="&lt;Path&gt;" d="M207.6 157c0 33.6-28.9 51.4-64 51.4-35 0-62.8-17.8-62.8-51.4q0-4.9.8-9.6c7.7 22.7 31.5 34.6 60.2 34.6 31.7 0 58.4-14.6 63.2-42.3 1.7 5.5 2.6 11.3 2.6 17.3z" style="mix-blend-mode:multiply" opacity=".3" fill="url(#g175)"/><path id="&lt;Path&gt;" d="M204.7 164c0 27.7-27.1 42.4-60 42.4-32.8 0-58.8-14.7-58.8-42.4s26.6-50.2 59.4-50.2 59.4 22.5 59.4 50.2z" style="mix-blend-mode:multiply" opacity=".3" fill="url(#g176)"/><path id="&lt;Path&gt;" d="M203.6 161.7c0 27.7-27.1 42.4-59.9 42.4-32.9 0-58.9-14.7-58.9-42.4s26.6-50.1 59.4-50.1 59.4 22.4 59.4 50.1z" fill="url(#g177)"/><path id="&lt;Path&gt;" d="M199.8 161.5c0 25.8-25.4 39.6-56.1 39.6-30.7 0-55.1-13.8-55.1-39.6 0-25.9 24.9-46.9 55.6-46.9 30.7 0 55.6 21 55.6 46.9z" style="mix-blend-mode:multiply" opacity=".5" fill="url(#g178)"/><path id="&lt;Path&gt;" d="M196.9 161.3c0 24.5-24.1 37.6-53.2 37.6s-52.2-13.1-52.2-37.6c0-24.6 23.6-44.5 52.7-44.5s52.7 19.9 52.7 44.5z" fill="url(#g179)"/><path id="&lt;Path&gt;" d="M91.5 161.3c0-24.6 23.6-44.5 52.7-44.5 19.7 0 36.9 9.1 46 22.7-9.1 7.7-18.3 15.3-27.8 22.6-12.6 9.7-25.6 18.8-39.2 27q-3.9 2.4-7.9 4.7c-14.4-5.9-23.8-16.8-23.8-32.5z" style="mix-blend-mode:multiply" fill="url(#g180)"/><path id="&lt;Path&gt;" d="M194.9 149.1q1 2.9 1.5 5.9c-19.2 16.3-40.3 30.6-62.3 43.4q-2.4-.3-4.7-.7.3-.2.6-.3c13.5-8.3 26.5-17.6 39-27.2 8.9-6.8 17.5-13.9 25.9-21.1z" style="mix-blend-mode:multiply" fill="url(#g181)"/><path id="&lt;Path&gt;" d="M196.9 160.2v1.1c0 24.5-24.1 37.6-53.2 37.6q-1.1 0-2.3-.1c19.5-11.4 38.2-24.1 55.5-38.6z" style="mix-blend-mode:multiply" fill="url(#g182)"/><path id="&lt;Path&gt;" d="M169.5 122.2l-36 24.9 17.3 2-48.6 36.6c-4-3.6-7-7.9-8.8-12.9l27.8-20.7-15.7-1.4 42.5-33.8c7.7.5 15 2.3 21.5 5.3z" fill="url(#g183)"/><path id="&lt;Path&gt;" d="M196.9 161.3c0 24.5-24.1 37.6-53.2 37.6s-52.2-13.1-52.2-37.6c0-3.5.5-6.8 1.3-10 7.6 14.6 26.4 22.2 48.7 22.2 25.1 0 46.6-9.7 51.9-28.3 2.3 5 3.5 10.4 3.5 16.1z" style="mix-blend-mode:screen" opacity=".3" fill="url(#g184)"/><g id="&lt;Group&gt;" style="mix-blend-mode:screen"><g id="&lt;Group&gt;"><path id="&lt;Path&gt;" d="M136.2 120.2c0 .1-1.6.6-3.9 1.5s-5.4 2.1-8.3 3.6c-3 1.4-5.8 3-7.9 4.4-1 .7-1.8 1.3-2.4 1.7-.6.5-.9.7-.9.7s-.3.2-.9.7c-.6.4-1.4 1-2.3 1.8-1.9 1.6-4.2 3.9-6.3 6.4-2.1 2.6-3.8 5.3-5 7.5-1.1 2.2-1.7 3.8-1.9 3.7-.1 0 .3-1.6 1.3-4 1-2.3 2.6-5.2 4.6-7.9 2-2.8 4.3-5.2 6.2-6.9 1-.9 1.8-1.5 2.3-2 .6-.4.9-.7.9-.7s.4-.3 1-.7c.6-.4 1.5-1 2.6-1.6 2.1-1.4 5.1-3 8.1-4.3 3.1-1.3 6.3-2.4 8.7-3 2.4-.7 4-1 4.1-.9z" fill="url(#g185)"/></g><g id="&lt;Group&gt;"><path id="&lt;Path&gt;" d="M185 180.2s-.6 1-1.7 2.4c-1.2 1.3-3 2.9-4.9 4.3-1.9 1.4-4 2.6-5.6 3.4-1.6.8-2.7 1.2-2.7 1.2s-1.1.4-2.8.9c-1.7.5-4 1.1-6.4 1.5-4.6.9-9.3 1.2-9.3 1 0-.3 4.6-1 9.1-2.2 2.2-.6 4.4-1.2 6.1-1.8 1.6-.6 2.7-1 2.7-1s1-.4 2.6-1.1c1.6-.7 3.7-1.7 5.6-2.9 2-1.2 3.8-2.6 5.1-3.8 1.3-1.2 2.1-2 2.2-1.9z" fill="url(#g186)"/></g><g id="&lt;Group&gt;"><path id="&lt;Path&gt;" d="M192.7 169.2c.3.1.1 1.2-.3 2.2-.3 1-.9 1.9-.9 1.9s-.7.8-1.5 1.5-1.7 1.2-1.9 1c-.1-.2.5-1 1-1.8.5-.9 1-1.7 1-1.7s.6-.7 1.2-1.5 1.2-1.6 1.4-1.6z" fill="url(#g187)"/></g></g></g></g></g></g></g></svg>