<svg version="1.2" xmlns="http://www.w3.org/2000/svg" width="268" height="285"><defs><radialGradient id="a" cx="121.8" cy="3.2" r="272.5" gradientUnits="userSpaceOnUse"><stop offset="0" stop-color="#ec1876"/><stop offset=".9" stop-color="#7b499e"/></radialGradient><radialGradient id="b" cx="135.7" cy="113" r=".3" gradientUnits="userSpaceOnUse"><stop offset="0" stop-color="#ec1876"/><stop offset=".9" stop-color="#7b499e"/></radialGradient><radialGradient id="c" cx="135.5" cy="113.5" r=".3" gradientUnits="userSpaceOnUse"><stop offset="0" stop-color="#ec1876"/><stop offset=".9" stop-color="#7b499e"/></radialGradient><radialGradient id="d" cx="135.9" cy="112.2" r=".5" gradientUnits="userSpaceOnUse"><stop offset="0" stop-color="#ec1876"/><stop offset=".9" stop-color="#7b499e"/></radialGradient><radialGradient id="e" cx="140.1" cy="83.4" r=".9" gradientUnits="userSpaceOnUse"><stop offset="0" stop-color="#ec1876"/><stop offset=".9" stop-color="#7b499e"/></radialGradient><radialGradient id="f" cx="136.1" cy="111.5" r=".6" gradientUnits="userSpaceOnUse"><stop offset="0" stop-color="#ec1876"/><stop offset=".9" stop-color="#7b499e"/></radialGradient><radialGradient id="g" cx="135.4" cy="113.9" r=".3" gradientUnits="userSpaceOnUse"><stop offset="0" stop-color="#ec1876"/><stop offset=".9" stop-color="#7b499e"/></radialGradient><radialGradient id="h" cx="135.3" cy="114.3" r=".2" gradientUnits="userSpaceOnUse"><stop offset="0" stop-color="#ec1876"/><stop offset=".9" stop-color="#7b499e"/></radialGradient><radialGradient id="i" cx="136.6" cy="109.8" r=".6" gradientUnits="userSpaceOnUse"><stop offset="0" stop-color="#ec1876"/><stop offset=".9" stop-color="#7b499e"/></radialGradient><radialGradient id="j" cx="138.3" cy="102.6" r=".9" gradientUnits="userSpaceOnUse"><stop offset="0" stop-color="#ec1876"/><stop offset=".9" stop-color="#7b499e"/></radialGradient><radialGradient id="k" cx="137.7" cy="105.2" r=".9" gradientUnits="userSpaceOnUse"><stop offset="0" stop-color="#ec1876"/><stop offset=".9" stop-color="#7b499e"/></radialGradient><radialGradient id="l" cx="136.4" cy="110.7" r=".5" gradientUnits="userSpaceOnUse"><stop offset="0" stop-color="#ec1876"/><stop offset=".9" stop-color="#7b499e"/></radialGradient><radialGradient id="m" cx="138" cy="103.8" r="1.1" gradientUnits="userSpaceOnUse"><stop offset="0" stop-color="#ec1876"/><stop offset=".9" stop-color="#7b499e"/></radialGradient><radialGradient id="n" cx="143.3" cy="112.1" r="7.7" gradientUnits="userSpaceOnUse"><stop offset="0" stop-color="#ec1876"/><stop offset=".9" stop-color="#7b499e"/></radialGradient><radialGradient id="o" cx="136.9" cy="108.7" r=".8" gradientUnits="userSpaceOnUse"><stop offset="0" stop-color="#ec1876"/><stop offset=".9" stop-color="#7b499e"/></radialGradient><radialGradient id="p" cx="137.1" cy="107.7" r=".8" gradientUnits="userSpaceOnUse"><stop offset="0" stop-color="#ec1876"/><stop offset=".9" stop-color="#7b499e"/></radialGradient><radialGradient id="q" cx="137.4" cy="106.6" r=".7" gradientUnits="userSpaceOnUse"><stop offset="0" stop-color="#ec1876"/><stop offset=".9" stop-color="#7b499e"/></radialGradient><radialGradient id="r" cx="193.3" cy="175.8" r=".6" gradientUnits="userSpaceOnUse"><stop offset="0" stop-color="#ec1876"/><stop offset=".9" stop-color="#7b499e"/></radialGradient><radialGradient id="s" cx="192.3" cy="176.1" r=".3" gradientUnits="userSpaceOnUse"><stop offset="0" stop-color="#ec1876"/><stop offset=".9" stop-color="#7b499e"/></radialGradient><radialGradient id="t" cx="194.7" cy="175.5" r=".8" gradientUnits="userSpaceOnUse"><stop offset="0" stop-color="#ec1876"/><stop offset=".9" stop-color="#7b499e"/></radialGradient><radialGradient id="u" cx="262.9" cy="201.7" r="1.4" gradientUnits="userSpaceOnUse"><stop offset="0" stop-color="#ec1876"/><stop offset=".9" stop-color="#7b499e"/></radialGradient><radialGradient id="v" cx="226.9" cy="174.1" r="42" gradientUnits="userSpaceOnUse"><stop offset="0" stop-color="#ec1876"/><stop offset=".9" stop-color="#7b499e"/></radialGradient><radialGradient id="w" cx="264" cy="203.7" r="1.1" gradientUnits="userSpaceOnUse"><stop offset="0" stop-color="#ec1876"/><stop offset=".9" stop-color="#7b499e"/></radialGradient><radialGradient id="x" cx="196.6" cy="175.1" r="1" gradientUnits="userSpaceOnUse"><stop offset="0" stop-color="#ec1876"/><stop offset=".9" stop-color="#7b499e"/></radialGradient><radialGradient id="y" cx="135.2" cy="114.7" r="0" gradientUnits="userSpaceOnUse"><stop offset="0" stop-color="#ec1876"/><stop offset=".9" stop-color="#7b499e"/></radialGradient><radialGradient id="z" cx="192.1" cy="175.9" r=".2" gradientUnits="userSpaceOnUse"><stop offset="0" stop-color="#ec1876"/><stop offset=".9" stop-color="#7b499e"/></radialGradient><radialGradient id="A" cx="192.4" cy="174.9" r=".8" gradientUnits="userSpaceOnUse"><stop offset="0" stop-color="#ec1876"/><stop offset=".9" stop-color="#7b499e"/></radialGradient><radialGradient id="B" cx="166.4" cy="112" r="62.1" gradientUnits="userSpaceOnUse"><stop offset="0" stop-color="#ec1876"/><stop offset=".9" stop-color="#7b499e"/></radialGradient><radialGradient id="C" cx="201.9" cy="174.5" r="1.4" gradientUnits="userSpaceOnUse"><stop offset="0" stop-color="#ec1876"/><stop offset=".9" stop-color="#7b499e"/></radialGradient><radialGradient id="D" cx="199.1" cy="174.8" r="1.2" gradientUnits="userSpaceOnUse"><stop offset="0" stop-color="#ec1876"/><stop offset=".9" stop-color="#7b499e"/></radialGradient><radialGradient id="E" cx="207.7" cy="174.2" r=".8" gradientUnits="userSpaceOnUse"><stop offset="0" stop-color="#ec1876"/><stop offset=".9" stop-color="#7b499e"/></radialGradient><radialGradient id="F" cx="205.1" cy="174.3" r="1.5" gradientUnits="userSpaceOnUse"><stop offset="0" stop-color="#ec1876"/><stop offset=".9" stop-color="#7b499e"/></radialGradient><radialGradient id="G" cx="140.1" cy="87" r="1.6" gradientUnits="userSpaceOnUse"><stop offset="0" stop-color="#ec1876"/><stop offset=".9" stop-color="#7b499e"/></radialGradient><radialGradient id="H" cx="60.9" cy="1.2" r=".5" gradientUnits="userSpaceOnUse"><stop offset="0" stop-color="#ec1876"/><stop offset=".9" stop-color="#7b499e"/></radialGradient><radialGradient id="I" cx="62.1" cy="1.3" r=".5" gradientUnits="userSpaceOnUse"><stop offset="0" stop-color="#ec1876"/><stop offset=".9" stop-color="#7b499e"/></radialGradient><radialGradient id="J" cx="57.9" cy="1" r="2.2" gradientUnits="userSpaceOnUse"><stop offset="0" stop-color="#ec1876"/><stop offset=".9" stop-color="#7b499e"/></radialGradient><radialGradient id="K" cx="55.1" cy="1" r=".3" gradientUnits="userSpaceOnUse"><stop offset="0" stop-color="#ec1876"/><stop offset=".9" stop-color="#7b499e"/></radialGradient><radialGradient id="L" cx="138.5" cy="101.1" r=".9" gradientUnits="userSpaceOnUse"><stop offset="0" stop-color="#ec1876"/><stop offset=".9" stop-color="#7b499e"/></radialGradient><radialGradient id="M" cx="69.8" cy="2.3" r=".6" gradientUnits="userSpaceOnUse"><stop offset="0" stop-color="#ec1876"/><stop offset=".9" stop-color="#7b499e"/></radialGradient><radialGradient id="N" cx="63.3" cy="1.4" r=".5" gradientUnits="userSpaceOnUse"><stop offset="0" stop-color="#ec1876"/><stop offset=".9" stop-color="#7b499e"/></radialGradient><radialGradient id="O" cx="66.4" cy="1.5" r="2.4" gradientUnits="userSpaceOnUse"><stop offset="0" stop-color="#ec1876"/><stop offset=".9" stop-color="#7b499e"/></radialGradient><radialGradient id="P" cx="50.1" cy="1.1" r=".1" gradientUnits="userSpaceOnUse"><stop offset="0" stop-color="#ec1876"/><stop offset=".9" stop-color="#7b499e"/></radialGradient><radialGradient id="Q" cx="71.2" cy="2.6" r=".6" gradientUnits="userSpaceOnUse"><stop offset="0" stop-color="#ec1876"/><stop offset=".9" stop-color="#7b499e"/></radialGradient><radialGradient id="R" cx="49.9" cy="1.1" r=".1" gradientUnits="userSpaceOnUse"><stop offset="0" stop-color="#ec1876"/><stop offset=".9" stop-color="#7b499e"/></radialGradient><radialGradient id="S" cx="50.4" cy="1.1" r=".1" gradientUnits="userSpaceOnUse"><stop offset="0" stop-color="#ec1876"/><stop offset=".9" stop-color="#7b499e"/></radialGradient><radialGradient id="T" cx="53.5" cy="1" r=".3" gradientUnits="userSpaceOnUse"><stop offset="0" stop-color="#ec1876"/><stop offset=".9" stop-color="#7b499e"/></radialGradient><radialGradient id="U" cx="52.8" cy="1" r=".3" gradientUnits="userSpaceOnUse"><stop offset="0" stop-color="#ec1876"/><stop offset=".9" stop-color="#7b499e"/></radialGradient><radialGradient id="V" cx="50.8" cy="1.1" r=".1" gradientUnits="userSpaceOnUse"><stop offset="0" stop-color="#ec1876"/><stop offset=".9" stop-color="#7b499e"/></radialGradient><radialGradient id="W" cx="51.7" cy="1" r=".7" gradientUnits="userSpaceOnUse"><stop offset="0" stop-color="#ec1876"/><stop offset=".9" stop-color="#7b499e"/></radialGradient><radialGradient id="X" cx="54.3" cy="1" r=".2" gradientUnits="userSpaceOnUse"><stop offset="0" stop-color="#ec1876"/><stop offset=".9" stop-color="#7b499e"/></radialGradient><radialGradient id="Y" cx="139.7" cy="92.7" r="1.4" gradientUnits="userSpaceOnUse"><stop offset="0" stop-color="#ec1876"/><stop offset=".9" stop-color="#7b499e"/></radialGradient><radialGradient id="Z" cx="139.5" cy="94.6" r="1.2" gradientUnits="userSpaceOnUse"><stop offset="0" stop-color="#ec1876"/><stop offset=".9" stop-color="#7b499e"/></radialGradient><radialGradient id="aa" cx="139.8" cy="91.1" r="1.1" gradientUnits="userSpaceOnUse"><stop offset="0" stop-color="#ec1876"/><stop offset=".9" stop-color="#7b499e"/></radialGradient><radialGradient id="ab" cx="140" cy="89.3" r="1.1" gradientUnits="userSpaceOnUse"><stop offset="0" stop-color="#ec1876"/><stop offset=".9" stop-color="#7b499e"/></radialGradient><radialGradient id="ac" cx="72.6" cy="2.9" r=".6" gradientUnits="userSpaceOnUse"><stop offset="0" stop-color="#ec1876"/><stop offset=".9" stop-color="#7b499e"/></radialGradient><radialGradient id="ad" cx="139" cy="97.9" r="1.2" gradientUnits="userSpaceOnUse"><stop offset="0" stop-color="#ec1876"/><stop offset=".9" stop-color="#7b499e"/></radialGradient><radialGradient id="ae" cx="139.3" cy="96.4" r="1" gradientUnits="userSpaceOnUse"><stop offset="0" stop-color="#ec1876"/><stop offset=".9" stop-color="#7b499e"/></radialGradient><radialGradient id="af" cx="138.8" cy="99.4" r="1.3" gradientUnits="userSpaceOnUse"><stop offset="0" stop-color="#ec1876"/><stop offset=".9" stop-color="#7b499e"/></radialGradient><radialGradient id="ag" cx="74.1" cy="3.2" r=".6" gradientUnits="userSpaceOnUse"><stop offset="0" stop-color="#ec1876"/><stop offset=".9" stop-color="#7b499e"/></radialGradient><radialGradient id="ah" cx="139.5" cy="72.6" r="1.7" gradientUnits="userSpaceOnUse"><stop offset="0" stop-color="#ec1876"/><stop offset=".9" stop-color="#7b499e"/></radialGradient><radialGradient id="ai" cx="106.8" cy="2.8" r="90" gradientUnits="userSpaceOnUse"><stop offset="0" stop-color="#ec1876"/><stop offset=".9" stop-color="#7b499e"/></radialGradient><radialGradient id="aj" cx="140.1" cy="79.1" r="1.7" gradientUnits="userSpaceOnUse"><stop offset="0" stop-color="#ec1876"/><stop offset=".9" stop-color="#7b499e"/></radialGradient><radialGradient id="ak" cx="139.8" cy="75.1" r="1.2" gradientUnits="userSpaceOnUse"><stop offset="0" stop-color="#ec1876"/><stop offset=".9" stop-color="#7b499e"/></radialGradient><radialGradient id="al" cx="139.9" cy="77.2" r="1.3" gradientUnits="userSpaceOnUse"><stop offset="0" stop-color="#ec1876"/><stop offset=".9" stop-color="#7b499e"/></radialGradient></defs><path d="M49.7 1.2s40.6-4.7 71.9 31.2c31.3 36 13.5 82.4 13.5 82.4s35-11.2 53 12.2c17.9 23.5 3.9 49.3 3.9 49.3s49.2-14.1 73.5 30.5c24.2 44.6-227.6 77.4-227.6 77.4L.4 221.7z" style="mix-blend-mode:screen" fill="url(#a)"/><path d="M135.8 113l-.2.4.2-.4z" style="mix-blend-mode:screen" fill="url(#b)"/><path d="M135.6 113.5q-.1.2-.1.3 0-.1.1-.3z" style="mix-blend-mode:screen" fill="url(#c)"/><path d="M136 112.2l-.2.6.2-.6z" style="mix-blend-mode:screen" fill="url(#d)"/><path d="M140.1 84.8v-1.4 1.4z" style="mix-blend-mode:screen" fill="url(#e)"/><path d="M136.2 111.5q-.1.4-.2.7.1-.3.2-.7z" style="mix-blend-mode:screen" fill="url(#f)"/><path d="M135.4 113.9q0 .2-.1.4.1-.2.1-.4z" style="mix-blend-mode:screen" fill="url(#g)"/><path d="M135.3 114.3q0 .1-.1.2.1-.1.1-.2z" style="mix-blend-mode:screen" fill="url(#h)"/><path d="M136.7 109.8q-.1.4-.2.7.1-.3.2-.7z" style="mix-blend-mode:screen" fill="url(#i)"/><path d="M138.4 102.6q-.1.5-.2.9.1-.4.2-.9z" style="mix-blend-mode:screen" fill="url(#j)"/><path d="M137.8 105.2l-.2 1 .2-1z" style="mix-blend-mode:screen" fill="url(#k)"/><path d="M136.4 110.7q0 .3-.1.6.1-.3.1-.6z" style="mix-blend-mode:screen" fill="url(#l)"/><path d="M138.1 103.9l-.2 1.2.2-1.2z" style="mix-blend-mode:screen" fill="url(#m)"/><path d="M135.1 114.8s7.1-2.3 16.5-2.6c-9.4.3-16.5 2.6-16.5 2.6z" style="mix-blend-mode:screen" fill="url(#n)"/><path d="M137 108.7q-.1.4-.2.9.1-.5.2-.9z" style="mix-blend-mode:screen" fill="url(#o)"/><path d="M137.3 107.7q-.1.4-.3.8.2-.4.3-.8z" style="mix-blend-mode:screen" fill="url(#p)"/><path d="M137.5 106.6q-.1.4-.2.7.1-.3.2-.7z" style="mix-blend-mode:screen" fill="url(#q)"/><path d="M193.8 175.8q-.7.2-1.1.3.4-.1 1.1-.3z" style="mix-blend-mode:screen" fill="url(#r)"/><path d="M192.6 176.1q-.4.1-.5.2.1-.1.5-.2z" style="mix-blend-mode:screen" fill="url(#s)"/><path d="M195.6 175.5q-1 .2-1.7.3.7-.1 1.7-.3z" style="mix-blend-mode:screen" fill="url(#t)"/><path d="M262.4 201.7q.5.7 1 1.5-.5-.8-1-1.5z" style="mix-blend-mode:screen" fill="url(#u)"/><path d="M208.6 174.2c15.5-.2 38.4 4 53.7 27.3q-.5-.8-1.1-1.5c-23.5 10.2-51.6 17.6-69.7 5.9-20.3-13.1-2.5-24.4 17.1-31.7z" style="mix-blend-mode:screen" fill="url(#v)"/><path d="M263.7 203.7q.4.6.7 1.2-.3-.6-.7-1.2z" style="mix-blend-mode:screen" fill="url(#w)"/><path d="M197.8 175.1q-1.3.2-2.2.4.9-.2 2.2-.4z" style="mix-blend-mode:screen" fill="url(#x)"/><path d="M135.1 114.8l.1-.1-.1.1z" style="mix-blend-mode:screen" fill="url(#y)"/><path d="M192.2 175.9q-.1.1-.1.2 0-.1.1-.2z" style="mix-blend-mode:screen" fill="url(#z)"/><path d="M192.7 174.9q-.3.5-.5.9.2-.4.5-.9z" style="mix-blend-mode:screen" fill="url(#A)"/><path d="M151.6 112.2c11.5-.5 26.6 1.9 36.5 14.8 15.4 20.2 7.2 42.1 4.6 47.9 1.5-3.4 4.8-12 4.5-22.6-7.7 9.2-22.2 15.3-49.2.8-27.7-15-14.7-30.1 3.6-40.9z" style="mix-blend-mode:screen" fill="url(#B)"/><path d="M203.4 174.5q-1.6.1-3 .3 1.4-.2 3-.3z" style="mix-blend-mode:screen" fill="url(#C)"/><path d="M200.4 174.8q-1.4.1-2.6.3 1.2-.2 2.6-.3z" style="mix-blend-mode:screen" fill="url(#D)"/><path d="M208.6 174.2q-.9 0-1.8.1.9-.1 1.8-.1z" style="mix-blend-mode:screen" fill="url(#E)"/><path d="M206.8 174.3q-1.8 0-3.4.2 1.6-.2 3.4-.2z" style="mix-blend-mode:screen" fill="url(#F)"/><path d="M140.1 87.1q0 .8-.1 1.7.1-.9.1-1.7z" style="mix-blend-mode:screen" fill="url(#G)"/><path d="M60.4 1.2q.5 0 1 .1-.5-.1-1-.1z" style="mix-blend-mode:screen" fill="url(#H)"/><path d="M61.6 1.3q.5 0 1 .1-.5-.1-1-.1z" style="mix-blend-mode:screen" fill="url(#I)"/><path d="M55.5 1q2.1 0 4.8.2-2.7-.2-4.8-.2z" style="mix-blend-mode:screen" fill="url(#J)"/><path d="M54.7 1h.7-.7z" style="mix-blend-mode:screen" fill="url(#K)"/><path d="M138.6 101.2l-.2 1 .2-1z" style="mix-blend-mode:screen" fill="url(#L)"/><path d="M69.1 2.3q.7.1 1.3.3-.6-.2-1.3-.3z" style="mix-blend-mode:screen" fill="url(#M)"/><path d="M62.7 1.4q.6.1 1.1.1-.5 0-1.1-.1z" style="mix-blend-mode:screen" fill="url(#N)"/><path d="M63.9 1.5q2.4.3 5.2.8-2.8-.5-5.2-.8z" style="mix-blend-mode:screen" fill="url(#O)"/><path d="M50 1.1h.2-.2z" style="mix-blend-mode:screen" fill="url(#P)"/><path d="M70.6 2.6l1.2.2-1.2-.2z" style="mix-blend-mode:screen" fill="url(#Q)"/><path d="M49.8 1.1h.2-.2z" style="mix-blend-mode:screen" fill="url(#R)"/><path d="M50.3 1.1h.2-.2z" style="mix-blend-mode:screen" fill="url(#S)"/><path d="M53.2 1h.6-.6z" style="mix-blend-mode:screen" fill="url(#T)"/><path d="M52.6 1h.6-.6z" style="mix-blend-mode:screen" fill="url(#U)"/><path d="M50.6 1.1h.3-.3z" style="mix-blend-mode:screen" fill="url(#V)"/><path d="M51 1h1.5H51z" style="mix-blend-mode:screen" fill="url(#W)"/><path d="M54.6 1q-.3-.1-.7 0 .4-.1.7 0z" style="mix-blend-mode:screen" fill="url(#X)"/><path d="M139.8 92.7q-.1.9-.2 1.7.1-.8.2-1.7z" style="mix-blend-mode:screen" fill="url(#Y)"/><path d="M139.6 94.6q-.1.7-.2 1.3.1-.6.2-1.3z" style="mix-blend-mode:screen" fill="url(#Z)"/><path d="M139.9 91.1q-.1.6-.1 1.3 0-.7.1-1.3z" style="mix-blend-mode:screen" fill="url(#aa)"/><path d="M140 89.3q0 .6-.1 1.2.1-.6.1-1.2z" style="mix-blend-mode:screen" fill="url(#ab)"/><path d="M72 2.9q.7.1 1.3.3-.6-.2-1.3-.3z" style="mix-blend-mode:screen" fill="url(#ac)"/><path d="M139.1 97.9l-.2 1.4.2-1.4z" style="mix-blend-mode:screen" fill="url(#ad)"/><path d="M139.4 96.4q-.1.6-.2 1.1.1-.5.2-1.1z" style="mix-blend-mode:screen" fill="url(#ae)"/><path d="M138.9 99.4l-.2 1.4.2-1.4z" style="mix-blend-mode:screen" fill="url(#af)"/><path d="M73.5 3.2q.6.2 1.3.3-.7-.1-1.3-.3z" style="mix-blend-mode:screen" fill="url(#ag)"/><path d="M139.4 72.6q.2 1 .3 2-.1-1-.3-2z" style="mix-blend-mode:screen" fill="url(#ah)"/><path d="M74.9 3.6c13.9 3.4 31.4 11.3 46.7 28.8 11.2 13 16.2 27.2 17.8 40.2-2.1 15.1-9.1 29.1-26.8 32.3-28.4 5-33-59-33.1-100.1q-2.3-.7-4.6-1.2z" style="mix-blend-mode:screen" fill="url(#ai)"/><path d="M140 79.1q.1 1 .1 1.9 0-.9-.1-1.9z" style="mix-blend-mode:screen" fill="url(#aj)"/><path d="M139.7 75.2q.1.7.1 1.4 0-.7-.1-1.4z" style="mix-blend-mode:screen" fill="url(#ak)"/><path d="M139.9 77.2q0 .7.1 1.5-.1-.8-.1-1.5z" style="mix-blend-mode:screen" fill="url(#al)"/></svg>