<svg version="1.2" xmlns="http://www.w3.org/2000/svg" width="708" height="321"><defs><radialGradient id="g1" cx="661.1" cy="191.6" r="46" gradientUnits="userSpaceOnUse"><stop offset="0" stop-color="#ec1876"/><stop offset="1" stop-color="#7b499e" stop-opacity="0"/></radialGradient><radialGradient id="g2" cx="653.9" cy="152.3" r="117.7" gradientUnits="userSpaceOnUse"><stop offset="0" stop-color="#513393"/><stop offset="1" stop-color="#0e1124"/></radialGradient><radialGradient id="g3" cx="653.9" cy="152.3" r="117.7" gradientUnits="userSpaceOnUse"><stop offset="0" stop-color="#513393"/><stop offset="1" stop-color="#0e1124"/></radialGradient><radialGradient id="g4" cx="644.1" cy="164.2" r="61.1" gradientUnits="userSpaceOnUse"><stop offset="0" stop-color="#ec1876"/><stop offset=".9" stop-color="#7b499e"/></radialGradient><radialGradient id="g5" cx="644.1" cy="163.4" r="61.9" gradientUnits="userSpaceOnUse"><stop offset="0" stop-color="#ec1876"/><stop offset=".9" stop-color="#7b499e"/></radialGradient><radialGradient id="g6" cx="644.1" cy="163.3" r="61" gradientUnits="userSpaceOnUse"><stop offset="0" stop-color="#ec1876"/><stop offset=".9" stop-color="#7b499e"/></radialGradient><radialGradient id="g7" cx="644.8" cy="163.4" r="61.5" gradientUnits="userSpaceOnUse"><stop offset="0" stop-color="#ec1876"/><stop offset=".9" stop-color="#7b499e"/></radialGradient><radialGradient id="g8" cx="654.6" cy="161.9" r="106.7" gradientUnits="userSpaceOnUse"><stop offset="0" stop-color="#513393"/><stop offset="1" stop-color="#0e1124"/></radialGradient><radialGradient id="g9" cx="655.6" cy="175.2" r="87.5" gradientUnits="userSpaceOnUse"><stop offset="0" stop-color="#ec1876"/><stop offset=".9" stop-color="#7b499e"/></radialGradient><radialGradient id="g10" cx="650.7" cy="162.8" r="65.2" gradientUnits="userSpaceOnUse"><stop offset="0" stop-color="#513393"/><stop offset="1" stop-color="#0e1124"/></radialGradient><radialGradient id="g11" cx="60.6" cy="113.5" r="59.2" gradientUnits="userSpaceOnUse"><stop offset=".1" stop-color="#f4a51a"/><stop offset="1" stop-color="#d13c9a" stop-opacity="0"/></radialGradient><radialGradient id="g12" cx="109.9" cy="105.4" r="151.1" gradientUnits="userSpaceOnUse"><stop offset=".1" stop-color="#f4a51a"/><stop offset="1" stop-color="#d13c9a"/></radialGradient><radialGradient id="g13" cx="109.9" cy="105.4" r="151.1" gradientUnits="userSpaceOnUse"><stop offset=".1" stop-color="#f4a51a"/><stop offset="1" stop-color="#d13c9a"/></radialGradient><radialGradient id="g14" cx="94.7" cy="92.7" r="78.6" gradientUnits="userSpaceOnUse"><stop offset="0" stop-color="#ec1876"/><stop offset=".9" stop-color="#7b499e"/></radialGradient><radialGradient id="g15" cx="95.7" cy="92.8" r="79.6" gradientUnits="userSpaceOnUse"><stop offset="0" stop-color="#ec1876"/><stop offset=".9" stop-color="#7b499e"/></radialGradient><radialGradient id="g16" cx="95.9" cy="92.8" r="78.5" gradientUnits="userSpaceOnUse"><stop offset="0" stop-color="#ec1876"/><stop offset=".9" stop-color="#7b499e"/></radialGradient><radialGradient id="g17" cx="95.7" cy="93.6" r="79.1" gradientUnits="userSpaceOnUse"><stop offset="0" stop-color="#ec1876"/><stop offset=".9" stop-color="#7b499e"/></radialGradient><radialGradient id="g18" cx="97.8" cy="106" r="137.2" gradientUnits="userSpaceOnUse"><stop offset=".1" stop-color="#f4a51a"/><stop offset="1" stop-color="#d13c9a"/></radialGradient><radialGradient id="g19" cx="80.6" cy="107.6" r="112.4" gradientUnits="userSpaceOnUse"><stop offset=".1" stop-color="#f4a51a"/><stop offset="1" stop-color="#d13c9a"/></radialGradient><radialGradient id="g20" cx="70.2" cy="109.6" r="44.8" gradientUnits="userSpaceOnUse"><stop offset=".1" stop-color="#f4a51a"/><stop offset="1" stop-color="#d13c9a"/></radialGradient><radialGradient id="g21" cx="96.5" cy="101.2" r="83.9" gradientUnits="userSpaceOnUse"><stop offset=".1" stop-color="#f4a51a"/><stop offset="1" stop-color="#d13c9a"/></radialGradient><radialGradient id="g22" cx="80.4" cy="84.5" r="8.5" gradientUnits="userSpaceOnUse"><stop offset=".1" stop-color="#f4a51a"/><stop offset="1" stop-color="#d13c9a"/></radialGradient><radialGradient id="g23" cx="95.8" cy="101" r="5.2" gradientUnits="userSpaceOnUse"><stop offset=".1" stop-color="#f4a51a"/><stop offset="1" stop-color="#d13c9a"/></radialGradient><radialGradient id="g24" cx="555.4" cy="147.5" r="15.5" gradientUnits="userSpaceOnUse"><stop offset=".1" stop-color="#f4a51a"/><stop offset="1" stop-color="#d13c9a" stop-opacity="0"/></radialGradient><radialGradient id="g25" cx="568.3" cy="145.4" r="39.6" gradientUnits="userSpaceOnUse"><stop offset=".1" stop-color="#f4a51a"/><stop offset="1" stop-color="#d13c9a"/></radialGradient><radialGradient id="g26" cx="568.3" cy="145.4" r="39.6" gradientUnits="userSpaceOnUse"><stop offset=".1" stop-color="#f4a51a"/><stop offset="1" stop-color="#d13c9a"/></radialGradient><radialGradient id="g27" cx="564.3" cy="142.1" r="20.6" gradientUnits="userSpaceOnUse"><stop offset="0" stop-color="#ec1876"/><stop offset=".9" stop-color="#7b499e"/></radialGradient><radialGradient id="g28" cx="564.6" cy="142.1" r="20.9" gradientUnits="userSpaceOnUse"><stop offset="0" stop-color="#ec1876"/><stop offset=".9" stop-color="#7b499e"/></radialGradient><radialGradient id="g29" cx="564.6" cy="142.1" r="20.6" gradientUnits="userSpaceOnUse"><stop offset="0" stop-color="#ec1876"/><stop offset=".9" stop-color="#7b499e"/></radialGradient><radialGradient id="g30" cx="564.6" cy="142.3" r="20.7" gradientUnits="userSpaceOnUse"><stop offset="0" stop-color="#ec1876"/><stop offset=".9" stop-color="#7b499e"/></radialGradient><radialGradient id="g31" cx="565.1" cy="145.5" r="36" gradientUnits="userSpaceOnUse"><stop offset=".1" stop-color="#f4a51a"/><stop offset="1" stop-color="#d13c9a"/></radialGradient><radialGradient id="g32" cx="560.6" cy="145.9" r="29.5" gradientUnits="userSpaceOnUse"><stop offset=".1" stop-color="#f4a51a"/><stop offset="1" stop-color="#d13c9a"/></radialGradient><radialGradient id="g33" cx="557.9" cy="146.5" r="11.7" gradientUnits="userSpaceOnUse"><stop offset=".1" stop-color="#f4a51a"/><stop offset="1" stop-color="#d13c9a"/></radialGradient><radialGradient id="g34" cx="564.8" cy="144.3" r="22" gradientUnits="userSpaceOnUse"><stop offset=".1" stop-color="#f4a51a"/><stop offset="1" stop-color="#d13c9a"/></radialGradient><radialGradient id="g35" cx="560.6" cy="139.9" r="2.2" gradientUnits="userSpaceOnUse"><stop offset=".1" stop-color="#f4a51a"/><stop offset="1" stop-color="#d13c9a"/></radialGradient><radialGradient id="g36" cx="564.6" cy="144.2" r="1.4" gradientUnits="userSpaceOnUse"><stop offset=".1" stop-color="#f4a51a"/><stop offset="1" stop-color="#d13c9a"/></radialGradient><radialGradient id="g37" cx="530" cy="43.6" r="34.7" gradientUnits="userSpaceOnUse"><stop offset="0" stop-color="#452c7e"/><stop offset="1" stop-color="#1db2dc" stop-opacity="0"/></radialGradient><radialGradient id="g38" cx="506.4" cy="31.9" r="79.6" gradientUnits="userSpaceOnUse"><stop offset=".1" stop-color="#1db2dc"/><stop offset="1" stop-color="#452c7e"/></radialGradient><radialGradient id="g39" cx="520.6" cy="14.2" r="201.6" gradientUnits="userSpaceOnUse"><stop offset=".1" stop-color="#f4a51a"/><stop offset="1" stop-color="#d13c9a"/></radialGradient><radialGradient id="g40" cx="526.7" cy="13.3" r="163.2" gradientUnits="userSpaceOnUse"><stop offset=".1" stop-color="#f4a51a"/><stop offset="1" stop-color="#d13c9a"/></radialGradient><radialGradient id="g41" cx="520.8" cy="13.3" r="206.9" gradientUnits="userSpaceOnUse"><stop offset=".1" stop-color="#f4a51a"/><stop offset="1" stop-color="#d13c9a"/></radialGradient><radialGradient id="g42" cx="520.6" cy="14.6" r="193.4" gradientUnits="userSpaceOnUse"><stop offset=".1" stop-color="#f4a51a"/><stop offset="1" stop-color="#d13c9a"/></radialGradient><radialGradient id="g43" cx="510.6" cy="33.8" r="74.6" gradientUnits="userSpaceOnUse"><stop offset=".1" stop-color="#1db2dc"/><stop offset="1" stop-color="#452c7e"/></radialGradient><radialGradient id="g44" cx="519.4" cy="37.6" r="60.8" gradientUnits="userSpaceOnUse"><stop offset=".1" stop-color="#1db2dc"/><stop offset="1" stop-color="#452c7e"/></radialGradient><radialGradient id="g45" cx="524.8" cy="42.5" r="23.8" gradientUnits="userSpaceOnUse"><stop offset=".1" stop-color="#1db2dc"/><stop offset="1" stop-color="#452c7e"/></radialGradient><radialGradient id="g46" cx="505.4" cy="34.3" r="53.9" gradientUnits="userSpaceOnUse"><stop offset=".1" stop-color="#1db2dc"/><stop offset="1" stop-color="#452c7e"/></radialGradient><radialGradient id="g47" cx="510.1" cy="50.7" r="5.1" gradientUnits="userSpaceOnUse"><stop offset=".1" stop-color="#1db2dc"/><stop offset="1" stop-color="#452c7e"/></radialGradient><radialGradient id="g48" cx="508.6" cy="37.4" r="3.1" gradientUnits="userSpaceOnUse"><stop offset=".1" stop-color="#1db2dc"/><stop offset="1" stop-color="#452c7e"/></radialGradient><radialGradient id="g49" cx="159.9" cy="171.1" r="12.1" gradientUnits="userSpaceOnUse"><stop offset="0" stop-color="#452c7e"/><stop offset="1" stop-color="#1db2dc" stop-opacity="0"/></radialGradient><radialGradient id="g50" cx="161.8" cy="162.1" r="27.7" gradientUnits="userSpaceOnUse"><stop offset=".1" stop-color="#1db2dc"/><stop offset="1" stop-color="#452c7e"/></radialGradient><radialGradient id="g51" cx="169.1" cy="165.2" r="71.6" gradientUnits="userSpaceOnUse"><stop offset=".1" stop-color="#f4a51a"/><stop offset="1" stop-color="#d13c9a"/></radialGradient><radialGradient id="g52" cx="169.2" cy="166.9" r="61.1" gradientUnits="userSpaceOnUse"><stop offset=".1" stop-color="#f4a51a"/><stop offset="1" stop-color="#d13c9a"/></radialGradient><radialGradient id="g53" cx="169.2" cy="165.8" r="62.1" gradientUnits="userSpaceOnUse"><stop offset=".1" stop-color="#f4a51a"/><stop offset="1" stop-color="#d13c9a"/></radialGradient><radialGradient id="g54" cx="168.7" cy="165.2" r="66.2" gradientUnits="userSpaceOnUse"><stop offset=".1" stop-color="#f4a51a"/><stop offset="1" stop-color="#d13c9a"/></radialGradient><radialGradient id="g55" cx="161.3" cy="163.7" r="26.1" gradientUnits="userSpaceOnUse"><stop offset=".1" stop-color="#1db2dc"/><stop offset="1" stop-color="#452c7e"/></radialGradient><radialGradient id="g56" cx="160.7" cy="167.3" r="20.8" gradientUnits="userSpaceOnUse"><stop offset=".1" stop-color="#1db2dc"/><stop offset="1" stop-color="#452c7e"/></radialGradient><radialGradient id="g57" cx="159.9" cy="169.4" r="8.4" gradientUnits="userSpaceOnUse"><stop offset=".1" stop-color="#1db2dc"/><stop offset="1" stop-color="#452c7e"/></radialGradient><radialGradient id="g58" cx="160.6" cy="163" r="17.7" gradientUnits="userSpaceOnUse"><stop offset=".1" stop-color="#1db2dc"/><stop offset="1" stop-color="#452c7e"/></radialGradient><radialGradient id="g59" cx="155.8" cy="165" r="1.8" gradientUnits="userSpaceOnUse"><stop offset=".1" stop-color="#1db2dc"/><stop offset="1" stop-color="#452c7e"/></radialGradient><radialGradient id="g60" cx="160.1" cy="163.3" r="1.1" gradientUnits="userSpaceOnUse"><stop offset=".1" stop-color="#1db2dc"/><stop offset="1" stop-color="#452c7e"/></radialGradient><radialGradient id="g61" cx="561.4" cy="298.2" r="21.8" gradientUnits="userSpaceOnUse"><stop offset=".1" stop-color="#f4a51a"/><stop offset="1" stop-color="#d13c9a" stop-opacity="0"/></radialGradient><radialGradient id="g62" cx="554.3" cy="286.2" r="38.9" gradientUnits="userSpaceOnUse"><stop offset="0" stop-color="#ec1876"/><stop offset=".9" stop-color="#7b499e"/></radialGradient><radialGradient id="g63" cx="554.3" cy="289.5" r="36.4" gradientUnits="userSpaceOnUse"><stop offset="0" stop-color="#ec1876"/><stop offset=".9" stop-color="#7b499e"/></radialGradient><radialGradient id="g64" cx="555.4" cy="294.7" r="30.6" gradientUnits="userSpaceOnUse"><stop offset="0" stop-color="#ec1876"/><stop offset=".9" stop-color="#7b499e"/></radialGradient><radialGradient id="g65" cx="557" cy="270.7" r="22" gradientUnits="userSpaceOnUse"><stop offset="0" stop-color="#ec1876"/><stop offset=".9" stop-color="#7b499e"/></radialGradient><radialGradient id="g66" cx="558.2" cy="285.4" r="7.5" gradientUnits="userSpaceOnUse"><stop offset="0" stop-color="#ec1876"/><stop offset=".9" stop-color="#7b499e"/></radialGradient><radialGradient id="g67" cx="561.7" cy="275.1" r="15.4" gradientUnits="userSpaceOnUse"><stop offset="0" stop-color="#ec1876"/><stop offset=".9" stop-color="#7b499e"/></radialGradient><radialGradient id="g68" cx="558.8" cy="296.9" r="10.4" gradientUnits="userSpaceOnUse"><stop offset="0" stop-color="#ec1876"/><stop offset=".9" stop-color="#7b499e"/></radialGradient><radialGradient id="g69" cx="557.8" cy="302" r="11.1" gradientUnits="userSpaceOnUse"><stop offset="0" stop-color="#ec1876"/><stop offset=".9" stop-color="#7b499e"/></radialGradient><radialGradient id="g70" cx="574.1" cy="301.6" r="10" gradientUnits="userSpaceOnUse"><stop offset="0" stop-color="#ec1876"/><stop offset=".9" stop-color="#7b499e"/></radialGradient><radialGradient id="g71" cx="575" cy="283" r="10.5" gradientUnits="userSpaceOnUse"><stop offset="0" stop-color="#ec1876"/><stop offset=".9" stop-color="#7b499e"/></radialGradient><radialGradient id="g72" cx="572.1" cy="289.9" r="7.5" gradientUnits="userSpaceOnUse"><stop offset="0" stop-color="#ec1876"/><stop offset=".9" stop-color="#7b499e"/></radialGradient><radialGradient id="g73" cx="570.4" cy="304.4" r="6.2" gradientUnits="userSpaceOnUse"><stop offset="0" stop-color="#ec1876"/><stop offset=".9" stop-color="#7b499e"/></radialGradient><radialGradient id="g74" cx="571.8" cy="281.4" r="20.7" gradientUnits="userSpaceOnUse"><stop offset="0" stop-color="#ec1876"/><stop offset=".9" stop-color="#7b499e"/></radialGradient><radialGradient id="g75" cx="552.3" cy="289.6" r="6.5" gradientUnits="userSpaceOnUse"><stop offset="0" stop-color="#ec1876"/><stop offset=".9" stop-color="#7b499e"/></radialGradient><radialGradient id="g76" cx="545" cy="287.4" r="7.3" gradientUnits="userSpaceOnUse"><stop offset="0" stop-color="#ec1876"/><stop offset=".9" stop-color="#7b499e"/></radialGradient><radialGradient id="g77" cx="547.2" cy="271.5" r="18.2" gradientUnits="userSpaceOnUse"><stop offset="0" stop-color="#ec1876"/><stop offset=".9" stop-color="#7b499e"/></radialGradient><radialGradient id="g78" cx="555.5" cy="279.7" r="5.4" gradientUnits="userSpaceOnUse"><stop offset="0" stop-color="#ec1876"/><stop offset=".9" stop-color="#7b499e"/></radialGradient><radialGradient id="g79" cx="552.2" cy="307.9" r="6.1" gradientUnits="userSpaceOnUse"><stop offset="0" stop-color="#ec1876"/><stop offset=".9" stop-color="#7b499e"/></radialGradient><radialGradient id="g80" cx="546.6" cy="296.5" r="7.1" gradientUnits="userSpaceOnUse"><stop offset="0" stop-color="#ec1876"/><stop offset=".9" stop-color="#7b499e"/></radialGradient><radialGradient id="g81" cx="553.8" cy="307.4" r="6" gradientUnits="userSpaceOnUse"><stop offset="0" stop-color="#ec1876"/><stop offset=".9" stop-color="#7b499e"/></radialGradient><radialGradient id="g82" cx="546.4" cy="296.4" r="13.2" gradientUnits="userSpaceOnUse"><stop offset="0" stop-color="#ec1876"/><stop offset=".9" stop-color="#7b499e"/></radialGradient><radialGradient id="g83" cx="220.1" cy="9.8" r="35" gradientUnits="userSpaceOnUse"><stop offset="0" stop-color="#ec1876"/><stop offset=".9" stop-color="#7b499e"/></radialGradient><radialGradient id="g84" cx="218.8" cy="10.8" r="34.2" gradientUnits="userSpaceOnUse"><stop offset="0" stop-color="#ec1876"/><stop offset=".9" stop-color="#7b499e"/></radialGradient><radialGradient id="g85" cx="216.2" cy="15.4" r="28.4" gradientUnits="userSpaceOnUse"><stop offset="0" stop-color="#ec1876"/><stop offset=".9" stop-color="#7b499e"/></radialGradient><radialGradient id="g86" cx="226.3" cy="19.5" r="4.9" gradientUnits="userSpaceOnUse"><stop offset="0" stop-color="#ec1876"/><stop offset=".9" stop-color="#7b499e"/></radialGradient><radialGradient id="g87" cx="224" cy="10.5" r="7.6" gradientUnits="userSpaceOnUse"><stop offset="0" stop-color="#ec1876"/><stop offset=".9" stop-color="#7b499e"/></radialGradient><radialGradient id="g88" cx="233.7" cy="5.3" r="15.7" gradientUnits="userSpaceOnUse"><stop offset="0" stop-color="#ec1876"/><stop offset=".9" stop-color="#7b499e"/></radialGradient><radialGradient id="g89" cx="216.2" cy="20.4" r="9.6" gradientUnits="userSpaceOnUse"><stop offset="0" stop-color="#ec1876"/><stop offset=".9" stop-color="#7b499e"/></radialGradient><radialGradient id="g90" cx="212.6" cy="22.7" r="10.6" gradientUnits="userSpaceOnUse"><stop offset="0" stop-color="#ec1876"/><stop offset=".9" stop-color="#7b499e"/></radialGradient><radialGradient id="g91" cx="224.1" cy="32.9" r="6.2" gradientUnits="userSpaceOnUse"><stop offset="0" stop-color="#ec1876"/><stop offset=".9" stop-color="#7b499e"/></radialGradient><radialGradient id="g92" cx="237.6" cy="20.1" r="10.9" gradientUnits="userSpaceOnUse"><stop offset="0" stop-color="#ec1876"/><stop offset=".9" stop-color="#7b499e"/></radialGradient><radialGradient id="g93" cx="231.1" cy="23.2" r="7.5" gradientUnits="userSpaceOnUse"><stop offset="0" stop-color="#ec1876"/><stop offset=".9" stop-color="#7b499e"/></radialGradient><radialGradient id="g94" cx="220.3" cy="32.5" r="6.6" gradientUnits="userSpaceOnUse"><stop offset="0" stop-color="#ec1876"/><stop offset=".9" stop-color="#7b499e"/></radialGradient><radialGradient id="g95" cx="236.3" cy="17" r="20.8" gradientUnits="userSpaceOnUse"><stop offset="0" stop-color="#ec1876"/><stop offset=".9" stop-color="#7b499e"/></radialGradient><radialGradient id="g96" cx="216.7" cy="8.5" r="2.4" gradientUnits="userSpaceOnUse"><stop offset="0" stop-color="#ec1876"/><stop offset=".9" stop-color="#7b499e"/></radialGradient><radialGradient id="g97" cx="212.9" cy="3.1" r="7.2" gradientUnits="userSpaceOnUse"><stop offset="0" stop-color="#ec1876"/><stop offset=".9" stop-color="#7b499e"/></radialGradient><radialGradient id="g98" cx="225.6" cy="-7.1" r="17.9" gradientUnits="userSpaceOnUse"><stop offset="0" stop-color="#ec1876"/><stop offset=".9" stop-color="#7b499e"/></radialGradient><radialGradient id="g99" cx="225.7" cy="4.4" r="5.3" gradientUnits="userSpaceOnUse"><stop offset="0" stop-color="#ec1876"/><stop offset=".9" stop-color="#7b499e"/></radialGradient><radialGradient id="g100" cx="202.7" cy="23" r="7.9" gradientUnits="userSpaceOnUse"><stop offset="0" stop-color="#ec1876"/><stop offset=".9" stop-color="#7b499e"/></radialGradient><radialGradient id="g101" cx="207.7" cy="10.5" r="7.5" gradientUnits="userSpaceOnUse"><stop offset="0" stop-color="#ec1876"/><stop offset=".9" stop-color="#7b499e"/></radialGradient><radialGradient id="g102" cx="205.7" cy="23.5" r="6.2" gradientUnits="userSpaceOnUse"><stop offset="0" stop-color="#ec1876"/><stop offset=".9" stop-color="#7b499e"/></radialGradient><radialGradient id="g103" cx="207.6" cy="9.9" r="14" gradientUnits="userSpaceOnUse"><stop offset="0" stop-color="#ec1876"/><stop offset=".9" stop-color="#7b499e"/></radialGradient><radialGradient id="g104" cx="217.5" cy="22.1" r="19.7" gradientUnits="userSpaceOnUse"><stop offset="0" stop-color="#452c7e"/><stop offset="1" stop-color="#1db2dc" stop-opacity="0"/></radialGradient><radialGradient id="g105" cx="116.3" cy="258.6" r="46.8" gradientUnits="userSpaceOnUse"><stop offset="0" stop-color="#ec1876"/><stop offset=".9" stop-color="#7b499e"/></radialGradient><radialGradient id="g106" cx="116.1" cy="262.1" r="44.4" gradientUnits="userSpaceOnUse"><stop offset="0" stop-color="#ec1876"/><stop offset=".9" stop-color="#7b499e"/></radialGradient><radialGradient id="g107" cx="117.8" cy="268.6" r="37.3" gradientUnits="userSpaceOnUse"><stop offset="0" stop-color="#ec1876"/><stop offset=".9" stop-color="#7b499e"/></radialGradient><radialGradient id="g108" cx="130.8" cy="261.3" r="5.7" gradientUnits="userSpaceOnUse"><stop offset="0" stop-color="#ec1876"/><stop offset=".9" stop-color="#7b499e"/></radialGradient><radialGradient id="g109" cx="120.8" cy="256.9" r="9.2" gradientUnits="userSpaceOnUse"><stop offset="0" stop-color="#ec1876"/><stop offset=".9" stop-color="#7b499e"/></radialGradient><radialGradient id="g110" cx="124.4" cy="244" r="19" gradientUnits="userSpaceOnUse"><stop offset="0" stop-color="#ec1876"/><stop offset=".9" stop-color="#7b499e"/></radialGradient><radialGradient id="g111" cx="122.2" cy="270.5" r="13.4" gradientUnits="userSpaceOnUse"><stop offset="0" stop-color="#ec1876"/><stop offset=".9" stop-color="#7b499e"/></radialGradient><radialGradient id="g112" cx="121.4" cy="277.3" r="14.1" gradientUnits="userSpaceOnUse"><stop offset="0" stop-color="#ec1876"/><stop offset=".9" stop-color="#7b499e"/></radialGradient><radialGradient id="g113" cx="141.9" cy="275.9" r="12.5" gradientUnits="userSpaceOnUse"><stop offset="0" stop-color="#ec1876"/><stop offset=".9" stop-color="#7b499e"/></radialGradient><radialGradient id="g114" cx="141.5" cy="252.9" r="13" gradientUnits="userSpaceOnUse"><stop offset="0" stop-color="#ec1876"/><stop offset=".9" stop-color="#7b499e"/></radialGradient><radialGradient id="g115" cx="138.4" cy="261.5" r="9.3" gradientUnits="userSpaceOnUse"><stop offset="0" stop-color="#ec1876"/><stop offset=".9" stop-color="#7b499e"/></radialGradient><radialGradient id="g116" cx="137.2" cy="279.5" r="7.8" gradientUnits="userSpaceOnUse"><stop offset="0" stop-color="#ec1876"/><stop offset=".9" stop-color="#7b499e"/></radialGradient><radialGradient id="g117" cx="137.5" cy="250.9" r="25.3" gradientUnits="userSpaceOnUse"><stop offset="0" stop-color="#ec1876"/><stop offset=".9" stop-color="#7b499e"/></radialGradient><radialGradient id="g118" cx="113.8" cy="262.6" r="8.5" gradientUnits="userSpaceOnUse"><stop offset="0" stop-color="#ec1876"/><stop offset=".9" stop-color="#7b499e"/></radialGradient><radialGradient id="g119" cx="104.6" cy="260.3" r="9.1" gradientUnits="userSpaceOnUse"><stop offset="0" stop-color="#ec1876"/><stop offset=".9" stop-color="#7b499e"/></radialGradient><radialGradient id="g120" cx="106.2" cy="240.5" r="22.5" gradientUnits="userSpaceOnUse"><stop offset="0" stop-color="#ec1876"/><stop offset=".9" stop-color="#7b499e"/></radialGradient><radialGradient id="g121" cx="117" cy="250.1" r="6.7" gradientUnits="userSpaceOnUse"><stop offset="0" stop-color="#ec1876"/><stop offset=".9" stop-color="#7b499e"/></radialGradient><radialGradient id="g122" cx="115" cy="285.2" r="7.2" gradientUnits="userSpaceOnUse"><stop offset="0" stop-color="#ec1876"/><stop offset=".9" stop-color="#7b499e"/></radialGradient><radialGradient id="g123" cx="107.3" cy="271.5" r="8.8" gradientUnits="userSpaceOnUse"><stop offset="0" stop-color="#ec1876"/><stop offset=".9" stop-color="#7b499e"/></radialGradient><radialGradient id="g124" cx="116.9" cy="284.4" r="7.5" gradientUnits="userSpaceOnUse"><stop offset="0" stop-color="#ec1876"/><stop offset=".9" stop-color="#7b499e"/></radialGradient><radialGradient id="g125" cx="107" cy="271.4" r="16.3" gradientUnits="userSpaceOnUse"><stop offset="0" stop-color="#ec1876"/><stop offset=".9" stop-color="#7b499e"/></radialGradient><radialGradient id="g126" cx="125.6" cy="272.5" r="26.2" gradientUnits="userSpaceOnUse"><stop offset=".1" stop-color="#f4a51a"/><stop offset="1" stop-color="#d13c9a" stop-opacity="0"/></radialGradient><radialGradient id="g127" cx="678.6" cy="59.1" r="32" gradientUnits="userSpaceOnUse"><stop offset="0" stop-color="#ec1876"/><stop offset=".9" stop-color="#7b499e"/></radialGradient><radialGradient id="g128" cx="677.4" cy="59.7" r="31.3" gradientUnits="userSpaceOnUse"><stop offset="0" stop-color="#ec1876"/><stop offset=".9" stop-color="#7b499e"/></radialGradient><radialGradient id="g129" cx="674.4" cy="63.7" r="26" gradientUnits="userSpaceOnUse"><stop offset="0" stop-color="#ec1876"/><stop offset=".9" stop-color="#7b499e"/></radialGradient><radialGradient id="g130" cx="683.4" cy="68.6" r="4.7" gradientUnits="userSpaceOnUse"><stop offset="0" stop-color="#ec1876"/><stop offset=".9" stop-color="#7b499e"/></radialGradient><radialGradient id="g131" cx="682" cy="60" r="7" gradientUnits="userSpaceOnUse"><stop offset="0" stop-color="#ec1876"/><stop offset=".9" stop-color="#7b499e"/></radialGradient><radialGradient id="g132" cx="691.3" cy="56.1" r="14.5" gradientUnits="userSpaceOnUse"><stop offset="0" stop-color="#ec1876"/><stop offset=".9" stop-color="#7b499e"/></radialGradient><radialGradient id="g133" cx="674.2" cy="68.4" r="8.7" gradientUnits="userSpaceOnUse"><stop offset="0" stop-color="#ec1876"/><stop offset=".9" stop-color="#7b499e"/></radialGradient><radialGradient id="g134" cx="670.5" cy="70.1" r="9.7" gradientUnits="userSpaceOnUse"><stop offset="0" stop-color="#ec1876"/><stop offset=".9" stop-color="#7b499e"/></radialGradient><radialGradient id="g135" cx="680.1" cy="80.5" r="5" gradientUnits="userSpaceOnUse"><stop offset="0" stop-color="#ec1876"/><stop offset=".9" stop-color="#7b499e"/></radialGradient><radialGradient id="g136" cx="693.5" cy="70.1" r="9.9" gradientUnits="userSpaceOnUse"><stop offset="0" stop-color="#ec1876"/><stop offset=".9" stop-color="#7b499e"/></radialGradient><radialGradient id="g137" cx="687.4" cy="72.4" r="6.8" gradientUnits="userSpaceOnUse"><stop offset="0" stop-color="#ec1876"/><stop offset=".9" stop-color="#7b499e"/></radialGradient><radialGradient id="g138" cx="676.6" cy="80" r="5.7" gradientUnits="userSpaceOnUse"><stop offset="0" stop-color="#ec1876"/><stop offset=".9" stop-color="#7b499e"/></radialGradient><radialGradient id="g139" cx="692.8" cy="67.2" r="18.9" gradientUnits="userSpaceOnUse"><stop offset="0" stop-color="#ec1876"/><stop offset=".9" stop-color="#7b499e"/></radialGradient><radialGradient id="g140" cx="675.4" cy="57.6" r="2.2" gradientUnits="userSpaceOnUse"><stop offset="0" stop-color="#ec1876"/><stop offset=".9" stop-color="#7b499e"/></radialGradient><radialGradient id="g141" cx="672.6" cy="52.3" r="6.6" gradientUnits="userSpaceOnUse"><stop offset="0" stop-color="#ec1876"/><stop offset=".9" stop-color="#7b499e"/></radialGradient><radialGradient id="g142" cx="685.2" cy="43.4" r="17.2" gradientUnits="userSpaceOnUse"><stop offset="0" stop-color="#ec1876"/><stop offset=".9" stop-color="#7b499e"/></radialGradient><radialGradient id="g143" cx="684.1" cy="54.6" r="4.9" gradientUnits="userSpaceOnUse"><stop offset="0" stop-color="#ec1876"/><stop offset=".9" stop-color="#7b499e"/></radialGradient><radialGradient id="g144" cx="661.9" cy="69.7" r="7.2" gradientUnits="userSpaceOnUse"><stop offset="0" stop-color="#ec1876"/><stop offset=".9" stop-color="#7b499e"/></radialGradient><radialGradient id="g145" cx="667.1" cy="58.7" r="6.8" gradientUnits="userSpaceOnUse"><stop offset="0" stop-color="#ec1876"/><stop offset=".9" stop-color="#7b499e"/></radialGradient><radialGradient id="g146" cx="664.1" cy="70.2" r="5.7" gradientUnits="userSpaceOnUse"><stop offset="0" stop-color="#ec1876"/><stop offset=".9" stop-color="#7b499e"/></radialGradient><radialGradient id="g147" cx="667.3" cy="58" r="12.9" gradientUnits="userSpaceOnUse"><stop offset="0" stop-color="#ec1876"/><stop offset=".9" stop-color="#7b499e"/></radialGradient><radialGradient id="g148" cx="675.1" cy="70" r="17.9" gradientUnits="userSpaceOnUse"><stop offset=".1" stop-color="#f4a51a"/><stop offset="1" stop-color="#d13c9a" stop-opacity="0"/></radialGradient></defs><style>.s83,.s9{fill:#e0a326}.s83{opacity:.5;mix-blend-mode:multiply}</style><g id="&lt;Group&gt;"><g id="&lt;Group&gt;"><path id="&lt;Path&gt;" d="M707.1 190.9c0 26-21 47-46.9 47-26 0-47-21-47-47 0-25.9 21-46.9 47-46.9 25.9 0 46.9 21 46.9 46.9z" style="mix-blend-mode:screen" fill="url(#g1)"/><path id="&lt;Path&gt;" d="M700.3 190.9c0 22.2-18 40.2-40.1 40.2-22.2 0-40.2-18-40.2-40.2 0-22.1 18-40.1 40.2-40.1 22.1 0 40.1 18 40.1 40.1z" fill="url(#g2)"/><path id="&lt;Path&gt;" d="M700.3 190.9c0 22.2-18 40.2-40.1 40.2-22.2 0-40.2-18-40.2-40.2 0-22.1 18-40.1 40.2-40.1 22.1 0 40.1 18 40.1 40.1z" style="mix-blend-mode:screen" fill="url(#g3)"/><g id="&lt;Group&gt;"><path id="&lt;Path&gt;" d="M666.1 215c-4.5 1.7-9.3 2.3-14.1 2.7-5 .3-11 1.1-13.1 5.6q-.3.7-.5 1.4c-6.7-4.4-12.1-10.8-15.3-18.3 2.1.4 4.2.5 6.2.2 5.7-.6 11-3.3 15.8-6.6.8-.5 1.9-1.1 2.8-.6.3.2.6.6.7 1 1.3 2.8.7 6.4 2.6 8.9 1.8 2.3 5.4 2.6 8.1 1.6 2.8-1 5.1-3 7.5-4.8 2.3-1.8 5-3.4 8-3.4 1.2.1 2.7.6 2.9 1.9.1.6-.2 1.2-.6 1.8-2.4 4.1-6.6 6.9-11 8.6z" style="mix-blend-mode:screen" fill="url(#g4)"/><path id="&lt;Path&gt;" d="M700 195.8c-2.7 0-5.4.2-7.6 1.7-3.7 2.4-4.7 7.4-4.2 11.8.2 1.1.4 2.4-.1 3.4-.3.7-.8 1.2-1.3 1.6-5.1 4.4-11.6 6.7-17.4 10-2.5 1.5-5.2 3.7-5.2 6.6 18.7-1.9 33.6-16.6 35.8-35.1z" style="mix-blend-mode:screen" fill="url(#g5)"/><path id="&lt;Path&gt;" d="M660.2 150.8q3.2 0 6.4.5c-.1.7-.4 1.3-.7 1.9-1.5 2.9-4.3 4.8-6.5 7.1-2.3 2.3-4.1 5.6-3 8.7.4 1.1 1.2 2.1 1.8 3 1.4 2 2.6 4.3 2.5 6.7-.1 2.5-1.8 4.9-4.2 5.3-1.8.2-3.5-.8-5.4-1.2-2-.4-4.2.1-6 1.3-2 1.4-3.3 3.8-4.4 6-1.1 2.3-2.2 4.7-4.2 6.3-2 1.6-5 2.1-7 .5-.8-.7-1.3-1.6-2.1-2.3-1.4-1.2-3.4-1.2-5.2-1.8q-1.2-.4-2.1-1.2-.1-.3-.1-.7c0-22.1 18-40.1 40.2-40.1z" style="mix-blend-mode:screen" fill="url(#g6)"/><path id="&lt;Path&gt;" d="M676.8 154.4c13.1 6 22.4 18.8 23.4 34-2.5 1.2-5.3 1.9-8.1 1.7-3.1-.3-6.3-1.5-9.1-.1-3.4 1.6-4.4 6.5-7.8 8.1-1.8.9-4 .7-5.9.2-3.1-.8-6.4-2.8-6.9-6-.6-3 1.6-5.8 3.9-7.8 2.1-1.8 4.5-3.3 7-4.5 2.8-1.2 6.1-2.3 7.4-5.1 1.1-2.3.4-5-.7-7.3s-2.6-4.4-3.3-6.8c-.6-2.1-.5-4.3.1-6.4z" style="mix-blend-mode:screen" fill="url(#g7)"/></g><path id="&lt;Path&gt;" d="M700.3 190.9c0 22.2-18 40.2-40.1 40.2-18.8 0-34.6-13-39-30.4 7.1 6 16.2 9.7 26.3 9.7 22.1 0 40.1-17.9 40.1-40.1 0-3.3-.4-6.6-1.2-9.7 8.5 7.3 13.9 18.2 13.9 30.3z" style="mix-blend-mode:multiply" opacity=".3" fill="url(#g8)"/><path id="&lt;Path&gt;" d="M697.5 191.3c0 20.6-16.7 37.3-37.3 37.3-16.3 0-30.1-10.4-35.2-25 6.2 12 18.7 20.2 33.1 20.2 20.6 0 37.4-16.7 37.4-37.4 0-4.3-.8-8.4-2.1-12.3 2.6 5.2 4.1 11 4.1 17.2z" style="mix-blend-mode:screen" opacity=".3" fill="url(#g9)"/><g id="&lt;Group&gt;" style="mix-blend-mode:screen" opacity=".5"><path id="&lt;Path&gt;" class="s9" d="M628.6 215.6c-5.4-6.8-8.6-15.3-8.6-24.7 0-22.1 18-40.1 40.2-40.1 14.4 0 27 7.6 34.1 19-7.4-9.4-18.8-15.4-31.6-15.4-22.2 0-40.2 17.9-40.2 40.1 0 7.8 2.2 15 6.1 21.1z"/></g></g><path id="&lt;Path&gt;" d="M626 199c-1.2-4.7.6-12 1.6-15.4 2.3-8.2 6.9-15.5 13.8-20.6 17.8-13.3 38.4-3.6 43.8 2.3 5.5 6-.9 12.4-10.8 12.3-9.9-.2-19.6-.4-25.2 4.6-5.6 5.1-5.2 17.7-12.7 20.4-2.5.9-6.1 1.7-8.4 0-1.1-.9-1.8-2.1-2.1-3.6z" style="mix-blend-mode:screen" fill="url(#g10)"/><g id="&lt;Group&gt;"><g id="&lt;Group&gt;" style="mix-blend-mode:screen" opacity=".5"><path id="&lt;Path&gt;" class="s9" d="M643.8 168.3c2.2 1.9 1.2 6.6-2.2 10.4-3.4 3.9-7.9 5.4-10.1 3.5-2.2-1.9-1.2-6.6 2.2-10.4 3.4-3.9 7.9-5.4 10.1-3.5z"/></g><g id="&lt;Group&gt;" style="mix-blend-mode:screen" opacity=".5"><path id="&lt;Path&gt;" class="s9" d="M655.3 160.8c.8 1.5-.7 3.9-3.3 5.3-2.7 1.4-5.5 1.3-6.3-.2-.8-1.5.7-3.8 3.4-5.3 2.6-1.4 5.5-1.3 6.2.2z"/></g></g></g><g id="&lt;Group&gt;" style="mix-blend-mode:screen"><g id="&lt;Group&gt;"><path id="&lt;Path&gt;" d="M60.5 173.8C27.2 173.9.2 147 .1 113.7 0 80.4 26.9 53.3 60.2 53.2c33.2-.1 60.3 26.8 60.4 60.1.1 33.3-26.8 60.4-60.1 60.5z" style="mix-blend-mode:screen" fill="url(#g11)"/><path id="&lt;Path&gt;" d="M60.5 165.1c-28.5.1-51.7-22.9-51.8-51.4-.1-28.6 23-51.7 51.5-51.8 28.5-.1 51.7 22.9 51.7 51.4.1 28.5-22.9 51.7-51.4 51.8z" fill="url(#g12)"/><path id="&lt;Path&gt;" d="M60.5 165.1c-28.5.1-51.7-22.9-51.8-51.4-.1-28.6 23-51.7 51.5-51.8 28.5-.1 51.7 22.9 51.7 51.4.1 28.5-22.9 51.7-51.4 51.8z" style="mix-blend-mode:screen" fill="url(#g13)"/><g id="&lt;Group&gt;"><path id="&lt;Path&gt;" d="M29.4 121.2c-2.2-5.8-3-11.9-3.5-18.1-.5-6.4-1.5-14.1-7.3-16.9q-.9-.3-1.7-.5c5.6-8.8 13.7-15.7 23.4-19.8-.5 2.6-.6 5.3-.3 8 .9 7.3 4.4 14.1 8.6 20.3.7 1 1.5 2.4.8 3.5-.3.5-.8.8-1.3 1-3.6 1.7-8.2.9-11.4 3.3-3 2.4-3.3 6.9-2 10.5 1.3 3.6 3.9 6.5 6.2 9.5 2.3 3.1 4.4 6.6 4.3 10.4 0 1.6-.7 3.5-2.3 3.7-.8.1-1.6-.3-2.3-.7-5.3-3.1-9-8.5-11.2-14.2z" fill="url(#g14)"/><path id="&lt;Path&gt;" d="M54.3 164.7c-.1-3.4-.4-6.8-2.2-9.7-3.1-4.8-9.6-6.1-15.3-5.3-1.4.2-3 .5-4.4-.1-.8-.4-1.4-1.1-2-1.8-5.7-6.5-8.6-14.9-13-22.3-1.9-3.3-4.7-6.7-8.4-6.7 2.4 24 21.4 43.2 45.3 45.9z" fill="url(#g15)"/><path id="&lt;Path&gt;" d="M111.9 113.3q.1 4.2-.6 8.3c-.8-.2-1.7-.5-2.4-.9-3.7-1.9-6.2-5.5-9.2-8.3-3-2.9-7.2-5.2-11.1-3.8-1.5.5-2.7 1.5-4 2.4-2.5 1.7-5.5 3.2-8.6 3.1-3.1-.1-6.3-2.2-6.7-5.3-.3-2.4 1-4.6 1.5-6.9.5-2.7-.1-5.5-1.7-7.7-1.8-2.7-4.9-4.3-7.8-5.7-2.9-1.4-6-2.9-8.1-5.4-2-2.5-2.7-6.5-.6-9 .8-1 2-1.7 2.9-2.7 1.5-1.8 1.5-4.4 2.3-6.7q.5-1.5 1.5-2.8h.9c28.5-.1 51.7 22.9 51.7 51.4z" fill="url(#g16)"/><path id="&lt;Path&gt;" d="M107.4 134.7c-7.7 16.9-24.1 29-43.6 30.3-1.7-3.2-2.5-6.8-2.2-10.4.3-4 1.8-8.1.1-11.7-2.2-4.4-8.4-5.6-10.6-10.1-1.1-2.3-.8-5.1-.2-7.6 1.1-4 3.6-8.2 7.7-8.9 3.8-.7 7.5 2.1 10.1 5.1 2.3 2.7 4.2 5.7 5.7 8.9 1.7 3.6 3.1 7.9 6.7 9.5 2.9 1.4 6.4.6 9.3-.8 3-1.4 5.6-3.4 8.7-4.3 2.7-.8 5.6-.8 8.3 0z" fill="url(#g17)"/></g><path id="&lt;Path&gt;" d="M60.6 164.9c-28.5.1-51.7-23-51.8-51.5 0-24.2 16.6-44.5 39-50.2C40 72.3 35.3 84.1 35.3 97c.1 28.5 23.3 51.5 51.8 51.4 4.3 0 8.5-.5 12.5-1.5a51.89 51.89 0 01-39 18z" style="mix-blend-mode:multiply" opacity=".3" fill="url(#g18)"/><path id="&lt;Path&gt;" d="M60 161.6c-26.5.1-48.1-21.4-48.1-47.9-.1-21 13.3-38.8 32-45.4-15.4 8-25.9 24.1-25.8 42.7.1 26.5 21.6 48 48.2 47.9 5.5 0 10.8-1 15.8-2.8-6.6 3.5-14.1 5.5-22.1 5.5z" style="mix-blend-mode:screen" opacity=".3" fill="url(#g19)"/><g id="&lt;Group&gt;" style="mix-blend-mode:screen" opacity=".5"><path id="&lt;Path&gt;" d="M28.4 72.9c8.8-6.9 19.8-11 31.8-11 28.5-.1 51.7 22.9 51.7 51.4.1 18.6-9.6 34.8-24.2 44 12-9.5 19.7-24.2 19.7-40.7-.1-28.5-23.3-51.6-51.8-51.5-10 0-19.3 2.9-27.2 7.8z" fill="url(#g20)"/></g></g><path id="&lt;Path&gt;" d="M49.8 69.5c6.1-1.5 15.4.9 19.9 2.1 10.5 2.9 19.9 8.9 26.5 17.6 17.2 22.9 4.8 49.4-2.8 56.5-7.7 7-15.9-1.2-15.8-13.9.2-12.7.3-25.2-6.1-32.4-6.5-7.3-22.8-6.6-26.3-16.3-1.1-3.2-2.2-7.8.1-10.8 1-1.4 2.6-2.3 4.5-2.8z" style="mix-blend-mode:screen" fill="url(#g21)"/><g id="&lt;Group&gt;"><g id="&lt;Group&gt;" style="mix-blend-mode:screen" opacity=".5"><path id="&lt;Path&gt;" d="M89.4 92.3C87 95.1 81 93.9 76 89.5c-5-4.3-7-10.1-4.6-12.9 2.5-2.8 8.5-1.6 13.5 2.8 5 4.3 7 10.1 4.5 12.9z" fill="url(#g22)"/></g><g id="&lt;Group&gt;" style="mix-blend-mode:screen" opacity=".5"><path id="&lt;Path&gt;" d="M99.1 107.2c-2 1-5-.9-6.8-4.4-1.9-3.4-1.8-7 .2-8 1.9-1.1 4.9.9 6.8 4.3 1.8 3.4 1.7 7.1-.2 8.1z" fill="url(#g23)"/></g></g></g><g id="&lt;Group&gt;" style="mix-blend-mode:screen"><g id="&lt;Group&gt;"><path id="&lt;Path&gt;" d="M555.3 163.3c-8.7 0-15.8-7-15.8-15.8 0-8.7 7-15.8 15.7-15.8 8.8 0 15.9 7 15.9 15.7 0 8.8-7 15.9-15.8 15.9z" style="mix-blend-mode:screen" fill="url(#g24)"/><path id="&lt;Path&gt;" d="M555.3 161c-7.4 0-13.5-6-13.5-13.5-.1-7.4 6-13.5 13.5-13.5 7.4-.1 13.5 6 13.5 13.5 0 7.4-6 13.5-13.5 13.5z" fill="url(#g25)"/><path id="&lt;Path&gt;" d="M555.3 161c-7.4 0-13.5-6-13.5-13.5-.1-7.4 6-13.5 13.5-13.5 7.4-.1 13.5 6 13.5 13.5 0 7.4-6 13.5-13.5 13.5z" style="mix-blend-mode:screen" fill="url(#g26)"/><g id="&lt;Group&gt;"><path id="&lt;Path&gt;" d="M547.2 149.5c-.6-1.5-.8-3.1-.9-4.7-.2-1.7-.4-3.7-2-4.4l-.4-.2c1.5-2.3 3.6-4.1 6.1-5.2q-.2 1.1 0 2.1c.2 1.9 1.1 3.7 2.2 5.3.2.3.4.7.2 1q-.1.1-.3.2c-1 .5-2.2.2-3 .9-.8.6-.9 1.8-.5 2.7.3 1 1 1.7 1.6 2.5.6.8 1.1 1.7 1.1 2.7 0 .5-.2 1-.6 1-.2 0-.4-.1-.6-.2-1.4-.8-2.3-2.2-2.9-3.7z" fill="url(#g27)"/><path id="&lt;Path&gt;" d="M553.7 160.9c0-.9-.1-1.8-.6-2.5-.8-1.3-2.5-1.6-4-1.4-.4 0-.8.1-1.1-.1-.2-.1-.4-.2-.6-.4-1.4-1.7-2.2-3.9-3.4-5.9-.4-.8-1.2-1.7-2.2-1.7.7 6.3 5.6 11.3 11.9 12z" fill="url(#g28)"/><path id="&lt;Path&gt;" d="M568.8 147.5q0 1.1-.1 2.1-.4 0-.7-.2c-.9-.5-1.6-1.5-2.4-2.2-.8-.8-1.9-1.4-2.9-1-.4.1-.7.4-1 .6-.7.5-1.5.9-2.3.9-.8-.1-1.6-.6-1.8-1.4 0-.7.3-1.2.4-1.9.2-.6 0-1.4-.4-2-.5-.7-1.3-1.1-2.1-1.5-.7-.3-1.5-.7-2.1-1.4-.5-.6-.7-1.7-.1-2.3.2-.3.5-.5.7-.7.4-.5.4-1.2.6-1.8q.2-.4.4-.7h.3c7.4-.1 13.5 6 13.5 13.5z" fill="url(#g29)"/><path id="&lt;Path&gt;" d="M567.6 153.1c-2 4.4-6.3 7.5-11.4 7.9-.4-.9-.7-1.8-.6-2.7.1-1.1.5-2.2 0-3.1-.5-1.2-2.2-1.5-2.7-2.6-.3-.6-.2-1.4-.1-2 .3-1.1 1-2.2 2-2.4 1-.1 2 .6 2.7 1.4q.9 1 1.5 2.3c.4 1 .8 2.1 1.7 2.5.8.4 1.7.1 2.5-.2.8-.4 1.5-.9 2.3-1.2.7-.2 1.4-.1 2.1.1z" fill="url(#g30)"/></g><path id="&lt;Path&gt;" d="M555.4 161c-7.5 0-13.6-6.1-13.6-13.5 0-6.4 4.3-11.7 10.2-13.2-2 2.4-3.3 5.5-3.3 8.9.1 7.4 6.1 13.5 13.6 13.5q1.7-.1 3.3-.5c-2.5 2.9-6.1 4.7-10.2 4.8z" style="mix-blend-mode:multiply" opacity=".3" fill="url(#g31)"/><path id="&lt;Path&gt;" d="M555.2 160.1c-6.9 0-12.6-5.6-12.6-12.6 0-5.4 3.5-10.1 8.4-11.9-4 2.1-6.8 6.4-6.8 11.2 0 7 5.7 12.6 12.6 12.6q2.2 0 4.2-.7c-1.7.9-3.7 1.4-5.8 1.4z" style="mix-blend-mode:screen" opacity=".3" fill="url(#g32)"/><g id="&lt;Group&gt;" style="mix-blend-mode:screen" opacity=".5"><path id="&lt;Path&gt;" d="M546.9 136.9c2.3-1.8 5.2-2.9 8.4-2.9 7.4-.1 13.5 6 13.5 13.5 0 4.8-2.5 9.1-6.3 11.5 3.1-2.5 5.1-6.4 5.1-10.7 0-7.5-6.1-13.5-13.5-13.5-2.7 0-5.1.8-7.2 2.1z" fill="url(#g33)"/></g></g><path id="&lt;Path&gt;" d="M552.5 136c1.6-.4 4.1.2 5.2.5 2.8.8 5.3 2.3 7 4.6 4.5 6 1.3 13-.7 14.8-2 1.9-4.2-.3-4.2-3.6.1-3.3.1-6.6-1.6-8.5-1.7-1.9-6-1.7-6.9-4.3-.3-.8-.6-2 0-2.8.3-.4.7-.6 1.2-.7z" style="mix-blend-mode:screen" fill="url(#g34)"/><g id="&lt;Group&gt;"><g id="&lt;Group&gt;" style="mix-blend-mode:screen" opacity=".5"><path id="&lt;Path&gt;" d="M562.9 142c-.6.7-2.2.4-3.5-.8-1.3-1.1-1.8-2.6-1.2-3.4.6-.7 2.2-.4 3.5.8 1.3 1.1 1.9 2.6 1.2 3.4z" fill="url(#g35)"/></g><g id="&lt;Group&gt;" style="mix-blend-mode:screen" opacity=".5"><path id="&lt;Path&gt;" d="M565.4 145.8c-.5.3-1.3-.2-1.7-1.1-.5-.9-.5-1.8 0-2.1.5-.3 1.3.2 1.8 1.1.5.9.5 1.9-.1 2.1z" fill="url(#g36)"/></g></g></g><g id="&lt;Group&gt;"><g id="&lt;Group&gt;"><path id="&lt;Path&gt;" d="M553.4 11.9c17.7 12.9 21.5 37.7 8.6 55.3-12.9 17.7-37.7 21.6-55.3 8.7C489 63 485.1 38.2 498 20.5c12.9-17.7 37.7-21.5 55.4-8.6z" fill="url(#g37)"/><path id="&lt;Path&gt;" d="M548.2 19c13.7 10 16.7 29.3 6.7 43s-29.3 16.7-43 6.7-16.7-29.2-6.7-43c10-13.7 29.2-16.7 43-6.7z" fill="url(#g38)"/><g id="&lt;Group&gt;"><path id="&lt;Path&gt;" d="M547.6 51.1c-1 3.5-2.8 6.8-4.7 9.9-2 3.3-4.3 7.3-2.4 10.7q.2.5.6.9c-5.8 2.2-12.1 2.7-18.2 1.2 1.1-1.1 2.1-2.3 2.9-3.7 2.2-3.9 2.9-8.4 3.1-12.8 0-.8.1-1.7.8-2 .3-.1.7-.1 1 0 2.3.4 4.2 2.5 6.6 2.4 2.3-.1 4.1-2.1 4.7-4.3.7-2.2.4-4.5.4-6.8 0-2.2.2-4.7 1.6-6.5.5-.7 1.6-1.4 2.4-.9.4.2.7.7.9 1.1 1.4 3.4 1.3 7.3.3 10.8z" style="mix-blend-mode:screen" fill="url(#g39)"/><path id="&lt;Path&gt;" d="M551 21.4c-1.2 1.7-2.2 3.4-2.3 5.5-.2 3.3 2.4 6.3 5.4 7.9.8.4 1.6.8 2.1 1.6.2.5.3 1 .3 1.6.4 5.1-1.1 10.1-1.6 15.2-.3 2.3-.1 4.9 1.7 6.2 7.3-12.4 4.9-28.2-5.6-38z" style="mix-blend-mode:screen" fill="url(#g40)"/><path id="&lt;Path&gt;" d="M505.2 25.7q1.5-2 3.2-3.7c.3.4.6.8.9 1.3 1 2.2 1 4.8 1.4 7.2.4 2.4 1.7 5.1 4 5.8.9.2 1.8.2 2.8.2 1.8.1 3.8.4 5.2 1.5 1.5 1.2 2.3 3.3 1.4 4.9-.7 1.3-2.1 1.9-3.2 2.9-1.2 1.1-1.9 2.6-1.9 4.3-.1 1.9.8 3.7 1.7 5.4 1 1.8 1.9 3.5 2 5.5.1 1.9-1 4.1-2.9 4.5-.7.2-1.5.1-2.3.3-1.4.4-2.3 1.6-3.5 2.4q-.8.6-1.7.8-.2-.1-.4-.3c-13.7-10-16.7-29.2-6.7-43z" style="mix-blend-mode:screen" fill="url(#g41)"/><path id="&lt;Path&gt;" d="M514.9 17.1c9.7-5.5 21.8-5.4 31.6.8-.3 2.1-1.1 4.2-2.6 5.8-1.5 1.8-3.7 3.2-4.1 5.6-.6 2.8 2 5.6 1.5 8.5-.3 1.5-1.4 2.8-2.6 3.8-1.9 1.5-4.6 2.6-6.8 1.5-2.1-1-2.9-3.6-3.1-6-.1-2.1 0-4.2.4-6.3.5-2.3 1.3-4.8.1-6.9-.9-1.7-2.9-2.5-4.8-2.9-1.9-.3-3.8-.4-5.6-1-1.6-.6-3-1.6-4-2.9z" style="mix-blend-mode:screen" fill="url(#g42)"/></g><path id="&lt;Path&gt;" d="M548.4 18.9c13.7 10 16.7 29.3 6.7 43-8.5 11.6-23.6 15.6-36.4 10.4 6.9-1.6 13.4-5.7 17.9-11.9 10-13.7 7-32.9-6.7-43q-3.2-2.2-6.6-3.6c8.4-2 17.6-.4 25.1 5.1z" style="mix-blend-mode:multiply" opacity=".3" fill="url(#g43)"/><path id="&lt;Path&gt;" d="M548 19.8c12.7 9.3 15.5 27.2 6.2 40-7.4 10.1-20.1 14-31.4 10.5 10.2 1.6 20.9-2.4 27.5-11.4 9.3-12.7 6.5-30.7-6.3-40-2.6-1.9-5.5-3.3-8.5-4.3 4.3.7 8.6 2.4 12.5 5.2z" style="mix-blend-mode:screen" opacity=".3" fill="url(#g44)"/><g id="&lt;Group&gt;" style="mix-blend-mode:screen" opacity=".5"><path id="&lt;Path&gt;" d="M531 74.6c-6.6.2-13.3-1.7-19.1-5.9-13.7-10-16.7-29.2-6.7-43 6.5-8.9 16.9-13.3 27.2-12.5-9.2.3-18.1 4.6-23.9 12.6-10 13.7-7 33 6.7 43 4.8 3.5 10.3 5.4 15.8 5.8z" fill="url(#g45)"/></g></g><path id="&lt;Path&gt;" d="M519.6 68.7c-3.5-1.4-7.1-5.8-8.9-8-4-5.1-6.4-11.3-6.5-17.8-.2-17.1 15.2-25.5 21.3-26.1 6.2-.7 7.2 6.1 2.7 12.2-4.6 6-9.1 12-8.5 17.7.5 5.8 8.6 11.2 6.9 17.1-.6 1.9-1.7 4.5-3.9 5.2-1 .3-2 .1-3.1-.3z" style="mix-blend-mode:screen" fill="url(#g46)"/><g id="&lt;Group&gt;"><g id="&lt;Group&gt;" style="mix-blend-mode:screen" opacity=".5"><path id="&lt;Path&gt;" d="M508.6 43.8c2.1-.5 4.6 2.2 5.4 6.1.9 3.8-.2 7.3-2.3 7.8-2.2.5-4.6-2.3-5.5-6.1-.9-3.9.2-7.4 2.4-7.8z" fill="url(#g47)"/></g><g id="&lt;Group&gt;" style="mix-blend-mode:screen" opacity=".5"><path id="&lt;Path&gt;" d="M509.2 33.2c1.3.2 2.1 2.2 1.7 4.5-.3 2.3-1.6 4-2.9 3.8-1.3-.2-2.1-2.2-1.8-4.5.4-2.3 1.7-4 3-3.8z" fill="url(#g48)"/></g></g></g><g id="&lt;Group&gt;"><g id="&lt;Group&gt;"><path id="&lt;Path&gt;" d="M172.6 176.1c-2.7 7.1-10.7 10.6-17.8 7.8-7-2.8-10.5-10.7-7.8-17.8 2.8-7.1 10.7-10.6 17.8-7.8 7.1 2.7 10.6 10.7 7.8 17.8z" fill="url(#g49)"/><path id="&lt;Path&gt;" d="M169.8 175c-2.2 5.5-8.4 8.2-13.9 6-5.4-2.1-8.2-8.3-6-13.8 2.1-5.5 8.3-8.2 13.8-6.1 5.5 2.2 8.2 8.4 6.1 13.9z" fill="url(#g50)"/><g id="&lt;Group&gt;"><path id="&lt;Path&gt;" d="M159 177.6c-1.3 0-2.6-.3-3.8-.7-1.3-.4-2.8-.7-3.8.2q-.1.1-.2.3c-1.3-1.8-2-3.9-2.1-6q.8.4 1.6.6c1.4.4 3 .2 4.5-.1.3-.1.6-.1.8.1q.1.2.1.3c0 .8-.5 1.7-.3 2.5.3.7 1.1 1.1 1.9 1.2.8 0 1.5-.3 2.3-.5.8-.2 1.6-.4 2.3-.1.3.2.6.4.6.8-.1.1-.2.3-.4.4-1 .7-2.3 1.1-3.5 1z" style="mix-blend-mode:screen" fill="url(#g51)"/><path id="&lt;Path&gt;" d="M169.2 176.1c-.6-.2-1.3-.4-2-.3-1.2.3-1.9 1.4-2.2 2.6-.1.3-.1.6-.3.8-.2.1-.4.2-.5.3-1.7.6-3.6.5-5.3.8-.8.1-1.7.4-1.9 1.1 4.8 1.3 9.9-.9 12.2-5.3z" style="mix-blend-mode:screen" fill="url(#g52)"/><path id="&lt;Path&gt;" d="M163.7 161.1q.8.4 1.5.8-.1.2-.3.4c-.7.6-1.5.8-2.3 1.1-.8.4-1.6 1-1.6 1.9 0 .3.1.6.2.9.1.7.2 1.3-.1 1.9-.2.6-.9 1.1-1.5.9-.5-.1-.8-.5-1.2-.8-.5-.3-1.1-.4-1.6-.3-.7.2-1.2.7-1.7 1.1-.5.5-1 1-1.7 1.2-.6.2-1.4 0-1.7-.6-.2-.2-.2-.5-.3-.8-.3-.4-.8-.6-1.2-.9q-.2-.2-.4-.5 0-.1.1-.2c2.1-5.5 8.3-8.2 13.8-6.1z" style="mix-blend-mode:screen" fill="url(#g53)"/><path id="&lt;Path&gt;" d="M167.5 163.6c2.6 2.8 3.7 6.9 2.5 10.7-.7.1-1.5 0-2.2-.3-.7-.4-1.4-1-2.2-.9-1 0-1.7 1.2-2.8 1.2-.5.1-1-.2-1.4-.5-.7-.5-1.3-1.3-1.2-2.1.2-.8 1-1.3 1.8-1.6q1-.4 2.1-.4c.8-.1 1.8 0 2.4-.6.4-.5.6-1.2.5-1.9 0-.6-.2-1.3-.2-2 .1-.5.3-1.1.7-1.6z" style="mix-blend-mode:screen" fill="url(#g54)"/></g><path id="&lt;Path&gt;" d="M169.8 175c-2.1 5.5-8.3 8.3-13.8 6.1-4.7-1.8-7.3-6.5-6.7-11.3 1.1 2.2 3.1 4 5.5 5 5.5 2.1 11.7-.6 13.9-6.1q.5-1.3.6-2.5c1.4 2.6 1.7 5.8.5 8.8z" style="mix-blend-mode:multiply" opacity=".3" fill="url(#g55)"/><path id="&lt;Path&gt;" d="M169.5 175c-2 5.1-7.8 7.6-12.9 5.6-4-1.6-6.4-5.5-6.3-9.6.4 3.6 2.7 6.8 6.3 8.2 5.1 2 10.8-.5 12.8-5.6q.7-1.6.7-3.3c.2 1.6 0 3.1-.6 4.7z" style="mix-blend-mode:screen" opacity=".3" fill="url(#g56)"/><g id="&lt;Group&gt;" style="mix-blend-mode:screen" opacity=".5"><path id="&lt;Path&gt;" d="M149.6 174.2c-.7-2.2-.6-4.7.3-7 2.1-5.5 8.3-8.2 13.8-6.1 3.6 1.4 6 4.5 6.6 8.1-.9-3.1-3.1-5.7-6.3-6.9-5.5-2.2-11.7.5-13.9 6-.7 2-.9 4-.5 5.9z" fill="url(#g57)"/></g></g><path id="&lt;Path&gt;" d="M150.6 169.8c.1-1.3 1.3-2.9 1.9-3.7 1.3-1.8 3.2-3.1 5.4-3.7 5.7-1.6 9.8 2.8 10.6 4.8.8 2-1.4 2.9-3.9 2-2.4-1-4.8-2-6.7-1.3-1.8.7-2.9 3.9-5.1 3.8-.7 0-1.6-.2-2.1-.8q-.2-.5-.1-1.1z" style="mix-blend-mode:screen" fill="url(#g58)"/><g id="&lt;Group&gt;"><g id="&lt;Group&gt;" style="mix-blend-mode:screen" opacity=".5"><path id="&lt;Path&gt;" d="M158 163.9c.3.7-.4 1.7-1.6 2.4-1.2.6-2.5.5-2.8-.1-.4-.7.3-1.8 1.5-2.4 1.2-.6 2.5-.6 2.9.1z" fill="url(#g59)"/></g><g id="&lt;Group&gt;" style="mix-blend-mode:screen" opacity=".5"><path id="&lt;Path&gt;" d="M161.5 163.2c.1.4-.5.8-1.3.9-.8.1-1.5-.2-1.6-.6 0-.5.6-.9 1.4-1 .8-.1 1.5.2 1.5.7z" fill="url(#g60)"/></g></g></g><g id="&lt;Group&gt;"><g id="&lt;Group&gt;"><g id="&lt;Group&gt;"><path id="&lt;Path&gt;" d="M582.9 298.8c0 12-9.7 21.6-21.7 21.6-11.9 0-21.6-9.6-21.6-21.6 0-11.9 9.7-21.6 21.6-21.6 12 0 21.7 9.7 21.7 21.6z" style="mix-blend-mode:screen" fill="url(#g61)"/><path id="&lt;Path&gt;" d="M578.9 298.8c0 9.8-7.9 17.7-17.7 17.7-9.8 0-17.7-7.9-17.7-17.7 0-9.8 7.9-17.7 17.7-17.7 9.8 0 17.7 7.9 17.7 17.7z" fill="url(#g62)"/><g id="&lt;Group&gt;" style="mix-blend-mode:screen" opacity=".5"><path id="&lt;Path&gt;" class="s9" d="M548.6 311.2c-3.1-3.2-5.1-7.5-5.1-12.4 0-9.8 7.9-17.7 17.7-17.7 5.4 0 10.2 2.4 13.5 6.2-3.3-3.3-7.7-5.3-12.6-5.3-9.8 0-17.7 7.9-17.7 17.7 0 4.4 1.6 8.4 4.2 11.5z"/></g><g id="&lt;Group&gt;" style="mix-blend-mode:screen" opacity=".5"><path id="&lt;Path&gt;" class="s9" d="M551 310.9c-3-2.8-4.8-6.8-4.8-11.3 0-8.6 7-15.6 15.7-15.6 7.8 0 14.3 5.6 15.5 13.1-2.8-2.7-6.7-4.4-10.9-4.4-8.7 0-15.7 7-15.7 15.7q0 1.3.2 2.5z"/></g><path id="&lt;Path&gt;" d="M578.9 298.8c0 9.8-7.9 17.7-17.7 17.7-9.7 0-17.6-7.8-17.7-17.5 2.9 4.2 7.8 7 13.3 7 8.9 0 16.2-7.3 16.2-16.2q0-2.5-.8-4.9c4.1 3.3 6.7 8.3 6.7 13.9z" style="mix-blend-mode:multiply" opacity=".5" fill="url(#g63)"/><path id="&lt;Path&gt;" d="M577.9 298.9c0 9.2-7.5 16.7-16.7 16.7-7.3 0-13.4-4.7-15.7-11.2 2.8 5.4 8.3 9 14.8 9 9.2 0 16.7-7.4 16.7-16.7 0-1.9-.4-3.7-1-5.5 1.2 2.3 1.9 4.9 1.9 7.7z" style="mix-blend-mode:multiply" opacity=".5" fill="url(#g64)"/><g id="&lt;Group&gt;"><path id="&lt;Compound Path&gt;" fill-rule="evenodd" d="M572.8 290.6c-.7 1.9-3.5 2.5-6.1 1.5-2.6-1-4.1-3.4-3.4-5.3.8-1.9 3.5-2.5 6.1-1.5 2.6 1 4.1 3.4 3.4 5.3zm-9.4 2.2c-.4.9-1.6 1.2-2.8.7-1.3-.4-1.9-1.5-1.6-2.4.3-.9 1.6-1.2 2.8-.7 1.2.5 1.9 1.6 1.6 2.4z" style="mix-blend-mode:multiply" opacity=".5" fill="url(#g65)"/><g id="&lt;Group&gt;"><path id="&lt;Path&gt;" d="M563.4 292.8q-.1.3-.3.4c0-.7-.6-1.6-1.7-2-1-.4-2-.2-2.5.3q0-.2.1-.4c.3-.9 1.6-1.2 2.8-.7 1.2.5 1.9 1.6 1.6 2.4z" style="mix-blend-mode:multiply" opacity=".5" fill="url(#g66)"/><path id="&lt;Path&gt;" d="M572.8 290.6q-.1.2-.3.5c.5-1.9-1-4-3.4-5-2.4-.9-4.9-.4-5.9 1.1q.1-.2.1-.4c.8-1.9 3.5-2.5 6.1-1.5 2.6 1 4.1 3.4 3.4 5.3z" style="mix-blend-mode:multiply" opacity=".5" fill="url(#g67)"/></g></g><g id="&lt;Group&gt;"><path id="&lt;Path&gt;" d="M567 310c-.1 1.5-2 2.7-4.1 2.5-2.2-.1-3.9-1.5-3.8-3.1.1-1.6 2-2.7 4.2-2.6 2.2.2 3.8 1.6 3.7 3.2z" style="mix-blend-mode:multiply" opacity=".5" fill="url(#g68)"/><path id="&lt;Path&gt;" d="M567 310c-.1 1.5-2 2.7-4.1 2.5-2.1-.1-3.8-1.4-3.8-2.9.6 1 1.9 1.8 3.4 1.9 2.2.1 4.1-1 4.2-2.6v-.2q.4.6.3 1.3z" style="mix-blend-mode:multiply" opacity=".5" fill="url(#g69)"/></g><g id="&lt;Group&gt;"><path id="&lt;Compound Path&gt;" fill-rule="evenodd" d="M576.5 297.9c1.2.4 1.3 2.9.2 5.5-1 2.6-2.8 4.4-4 3.9-1.1-.4-1.2-2.9-.2-5.5 1-2.7 2.8-4.4 4-3.9zm-2.8 11.1c.3.4-.1 1.2-.9 1.9-.8.6-1.6.9-1.9.6-.3-.4 0-1.2.8-1.9s1.7-.9 2-.6zm1.7-17.3c.7-.2 1.4.9 1.6 2.3.3 1.4 0 2.6-.6 2.7-.6.1-1.3-.9-1.6-2.3-.3-1.4 0-2.6.6-2.7zm-1.2 4c.4.2.4 1.1 0 2-.4 1-1.1 1.6-1.5 1.4-.5-.2-.4-1.1 0-2.1.4-.9 1.1-1.5 1.5-1.3z" style="mix-blend-mode:multiply" opacity=".5" fill="url(#g70)"/><g id="&lt;Group&gt;"><path id="&lt;Path&gt;" d="M575.3 291.7h.1c.7-.2 1.4.9 1.6 2.3.3 1.4 0 2.6-.6 2.7q-.3.1-.6-.2c.5-.2.8-1.4.5-2.7-.2-.9-.6-1.7-1-2.1z" style="mix-blend-mode:multiply" opacity=".5" fill="url(#g71)"/><path id="&lt;Path&gt;" d="M573.7 295.8q.3-.2.5-.1c.4.2.4 1.1 0 2-.4 1-1.1 1.6-1.5 1.4q-.2-.1-.2-.2c.3-.2.7-.7 1-1.3.3-.7.4-1.4.2-1.8z" style="mix-blend-mode:multiply" opacity=".5" fill="url(#g72)"/><path id="&lt;Path&gt;" d="M573.7 309c.3.4-.1 1.2-.9 1.9-.8.6-1.6.9-1.9.6l-.1-.1c.4-.1.9-.3 1.3-.7.7-.6 1.1-1.4.9-1.8.3-.1.5 0 .7.1z" style="mix-blend-mode:multiply" opacity=".5" fill="url(#g73)"/><path id="&lt;Path&gt;" d="M576.7 303.4c-1 2.6-2.8 4.4-4 3.9q-.1 0-.1-.1c1.1-.1 2.5-1.7 3.4-3.9 1-2.5.9-4.9 0-5.5q.2 0 .5.1c1.2.4 1.3 2.9.2 5.5z" style="mix-blend-mode:multiply" opacity=".5" fill="url(#g74)"/></g></g><g id="&lt;Group&gt;"><path id="&lt;Compound Path&gt;" fill-rule="evenodd" d="M554.7 284.9c1 .8.3 3.2-1.4 5.4-1.8 2.1-4 3.3-5 2.5-1-.8-.3-3.2 1.5-5.4 1.7-2.2 4-3.3 4.9-2.5zm4.6-1.5c.2.4-.4 1.1-1.4 1.5-.9.4-1.8.4-2 0-.2-.5.4-1.1 1.4-1.5.9-.4 1.8-.4 2 0zm-12 9.5c.4.2.3 1.1-.2 2-.5.9-1.2 1.4-1.6 1.2-.4-.2-.3-1.1.2-2 .5-.9 1.2-1.4 1.6-1.2z" style="mix-blend-mode:multiply" opacity=".5" fill="url(#g75)"/><g id="&lt;Group&gt;"><path id="&lt;Path&gt;" d="M545.7 296.2q-.1 0-.2-.1c-.4-.2-.3-1.1.2-2 .5-.9 1.2-1.4 1.6-1.2.2.1.3.4.3.7-.5 0-1.1.5-1.5 1.3-.3.4-.4.9-.4 1.3z" style="mix-blend-mode:multiply" opacity=".5" fill="url(#g76)"/><path id="&lt;Path&gt;" d="M548.3 292.8c-1-.8-.3-3.2 1.5-5.4 1.7-2.2 4-3.3 4.9-2.5q.4.2.4.7c-.9-.7-3.1.4-4.9 2.6-1.4 1.6-2.1 3.5-1.9 4.6z" style="mix-blend-mode:multiply" opacity=".5" fill="url(#g77)"/><path id="&lt;Path&gt;" d="M556.4 285.2q-.4-.1-.5-.3c-.2-.5.4-1.1 1.4-1.5.9-.4 1.8-.4 2 0q.1.2-.1.5c-.3-.1-.9 0-1.5.2-.6.3-1.1.7-1.3 1.1z" style="mix-blend-mode:multiply" opacity=".5" fill="url(#g78)"/></g></g><g id="&lt;Group&gt;"><path id="&lt;Compound Path&gt;" fill-rule="evenodd" d="M552.8 311.4c-.6.7-2.4.1-4-1.3-1.5-1.5-2.2-3.2-1.6-4 .7-.7 2.5-.1 4.1 1.4 1.5 1.4 2.2 3.2 1.5 3.9zm4.7 2.4c-.3.4-1.2.3-2.1-.3-.9-.5-1.5-1.3-1.2-1.7.2-.4 1.2-.3 2.1.2.9.6 1.4 1.3 1.2 1.8zm-8.1-8.8c-.4.3-1.2-.2-1.9-1s-.9-1.7-.5-2c.4-.4 1.3.1 1.9.9.7.8.9 1.8.5 2.1z" style="mix-blend-mode:multiply" opacity=".5" fill="url(#g79)"/><g id="&lt;Group&gt;"><path id="&lt;Path&gt;" d="M547.5 304c-.7-.8-.9-1.7-.5-2q.1-.1.3-.1c0 .4.2 1 .7 1.6.5.6 1.1 1 1.6 1q0 .3-.2.5c-.4.3-1.2-.2-1.9-1z" style="mix-blend-mode:multiply" opacity=".5" fill="url(#g80)"/><path id="&lt;Path&gt;" d="M557.5 313.4v.4c-.3.4-1.2.3-2.1-.3-.9-.5-1.5-1.3-1.2-1.7q.1-.2.4-.3c.1.5.5 1.1 1.2 1.5.7.4 1.3.5 1.7.4z" style="mix-blend-mode:multiply" opacity=".5" fill="url(#g81)"/><path id="&lt;Path&gt;" d="M553 311q0 .2-.2.4c-.6.7-2.4.1-4-1.3-1.5-1.5-2.2-3.2-1.6-4q.1-.1.3-.2c-.3.9.5 2.4 1.8 3.6 1.4 1.3 2.9 1.9 3.7 1.5z" style="mix-blend-mode:multiply" opacity=".5" fill="url(#g82)"/></g></g></g><g id="&lt;Group&gt;" style="mix-blend-mode:screen" opacity=".5"><g id="&lt;Group&gt;"><g id="&lt;Group&gt;" style="mix-blend-mode:screen" opacity=".5"><path id="&lt;Path&gt;" class="s9" d="M554.7 288.7c.9.8.5 2.8-1 4.4-1.4 1.7-3.3 2.3-4.3 1.5-.9-.8-.5-2.8 1-4.4 1.4-1.7 3.3-2.3 4.3-1.5z"/></g><g id="&lt;Group&gt;" style="mix-blend-mode:screen" opacity=".5"><path id="&lt;Path&gt;" class="s9" d="M559.6 285.5c.3.7-.4 1.7-1.5 2.3-1.1.6-2.3.5-2.7-.1-.3-.7.4-1.7 1.5-2.3 1.1-.6 2.3-.5 2.7.1z"/></g></g></g></g><g id="&lt;Group&gt;"><g id="&lt;Group&gt;"><path id="&lt;Path&gt;" class="s9" d="M564.5 306.7c-17.1 9-32.9 12.8-35.1 8.5-1.6-3 4.3-9.5 14.2-16.2q0 1 .3 2c-6.3 4.7-9.9 9.1-8.7 11.3 1.8 3.4 14.6.3 28.6-7 14-7.3 23.9-16 22.1-19.5-1.1-2-5.9-1.8-12.6.2q-.8-.8-1.6-1.4c10.4-3.8 18.4-4.7 19.9-1.8 2.2 4.2-9.9 14.9-27.1 23.9z"/></g><path id="&lt;Path&gt;" class="s83" d="M588.3 286c-1.9 5.1-10.9 12.4-18.4 16.5-7.4 4.2-26.7 14.6-34.2 11.6-7.4-3 4.2-9.9 3.9-11.1-.1-.9-5.2 3.6-8.1 6.3 2.4-3 6.7-6.6 12.1-10.3q0 1 .3 2c-6.3 4.7-9.9 9.1-8.7 11.3 1.8 3.4 14.6.3 28.6-7 14-7.3 23.9-16 22.1-19.5-1.1-2-5.9-1.8-12.6.2q-.8-.8-1.6-1.4 1.5-.6 3-1.1-.1.4 0 .7c.5 2.3 15.5-3.3 13.6 1.8z"/><g id="&lt;Group&gt;" style="mix-blend-mode:screen"><g id="&lt;Group&gt;"><g id="&lt;Group&gt;" style="mix-blend-mode:multiply" opacity=".5"><path id="&lt;Path&gt;" class="s9" d="M535.7 315c-.1.1-.4.1-.8.1-.5.1-1.1.2-1.8.2s-1.5-.3-1.9-.8c-.2-.2-.4-.4-.4-.6l-.1-.3v-.3q-.1-.3.1-.7c.1-.5.4-1.2.8-1.7.7-1.1 1.6-2 1.7-1.9.2.1-.5 1.2-1 2.3-.3.6-.5 1.1-.5 1.5-.1.4 0 .6 0 .6s0 .2.2.5c.1.2.6.5 1.2.6.5.1 1.2.1 1.7.2s.8.3.8.3z"/></g><g id="&lt;Group&gt;" style="mix-blend-mode:multiply" opacity=".5"><path id="&lt;Path&gt;" class="s9" d="M586.9 291c-.1-.1 1.2-1.7 2.3-3.5.5-.8 1-1.7 1.1-2.4.1-.3.1-.6.1-.7v-.3l-.1-.3c0-.2-.1-.4-.3-.6q-.3-.3-.9-.5c-.4-.2-.9-.3-1.4-.3-1-.1-2-.1-2.8.1-.7.1-1.2.2-1.3.1 0 0 .4-.3 1.2-.6.8-.2 1.8-.4 2.9-.4q.8 0 1.6.2c.5.1 1.1.3 1.4.7.4.3.6.7.7 1 0 .2.1.4.1.4v.4c0 .3 0 .7-.2 1.1-.2.9-.8 1.8-1.5 2.6-1.3 1.7-2.8 3.1-2.9 3z"/></g></g></g></g></g><g id="&lt;Group&gt;"><g id="&lt;Group&gt;"><g id="&lt;Group&gt;"><path id="&lt;Path&gt;" d="M230.1 34.3c-6.6 7.2-17.8 7.7-25 1.1-7.2-6.6-7.7-17.8-1.1-25 6.6-7.2 17.8-7.7 25-1.1 7.2 6.6 7.7 17.8 1.1 25z" fill="url(#g83)"/><g id="&lt;Group&gt;" style="mix-blend-mode:screen" opacity=".5"><path id="&lt;Path&gt;" class="s9" d="M199.4 23c-.2-4.5 1.3-9 4.6-12.6 6.6-7.2 17.8-7.7 25-1.1 4 3.7 5.9 8.7 5.7 13.7-.1-4.6-2.1-9.1-5.7-12.4-7.2-6.6-18.4-6.2-25 1.1-3 3.2-4.5 7.3-4.6 11.3z"/></g><g id="&lt;Group&gt;" style="mix-blend-mode:screen" opacity=".5"><path id="&lt;Path&gt;" class="s9" d="M201.3 24.4c-.2-4.1 1.1-8.3 4.1-11.5 5.9-6.4 15.8-6.9 22.2-1 5.7 5.2 6.7 13.8 2.5 20.1-.2-3.9-1.9-7.7-5-10.6-6.4-5.8-16.4-5.4-22.2 1q-.9 1-1.6 2z"/></g><path id="&lt;Path&gt;" d="M230.1 34.3c-6.6 7.2-17.8 7.7-25 1.1-7.2-6.5-7.7-17.6-1.2-24.8-.7 5 1 10.4 5.1 14.1 6.5 6 16.8 5.6 22.8-1q1.7-1.9 2.7-4.1c.8 5.1-.6 10.6-4.4 14.7z" style="mix-blend-mode:multiply" opacity=".5" fill="url(#g84)"/><path id="&lt;Path&gt;" d="M229.3 33.7c-6.2 6.8-16.8 7.3-23.6 1.1-5.4-4.9-6.8-12.6-4.1-18.9-1.5 5.8.1 12.3 4.9 16.6 6.8 6.3 17.3 5.8 23.6-1 1.3-1.4 2.3-3 3-4.7-.7 2.5-1.9 4.9-3.8 6.9z" style="mix-blend-mode:multiply" opacity=".5" fill="url(#g85)"/><g id="&lt;Group&gt;"><path id="&lt;Compound Path&gt;" fill-rule="evenodd" d="M231.1 24.1c-1.8.9-4.2-.4-5.5-3-1.2-2.5-.7-5.3 1.1-6.1 1.8-.9 4.3.4 5.5 2.9 1.2 2.6.8 5.3-1.1 6.2zm-8.4-4.7c-.9.4-2-.2-2.6-1.4-.6-1.1-.3-2.4.5-2.8.8-.4 2 .2 2.5 1.4.6 1.1.4 2.4-.4 2.8z" style="mix-blend-mode:multiply" opacity=".5" fill="url(#g86)"/><g id="&lt;Group&gt;"><path id="&lt;Path&gt;" d="M222.7 19.4q-.3.1-.5.1c.5-.5.6-1.6.1-2.6-.4-.9-1.3-1.5-2-1.5q.1-.1.3-.2c.8-.4 2 .2 2.5 1.4.6 1.1.4 2.4-.4 2.8z" style="mix-blend-mode:multiply" opacity=".5" fill="url(#g87)"/><path id="&lt;Path&gt;" d="M231.1 24.1q-.2.1-.5.2c1.6-1 2-3.6.8-6-1.1-2.3-3.3-3.6-5-3.2q.1-.1.3-.1c1.8-.9 4.3.4 5.5 2.9 1.2 2.6.8 5.3-1.1 6.2z" style="mix-blend-mode:multiply" opacity=".5" fill="url(#g88)"/></g></g><g id="&lt;Group&gt;"><path id="&lt;Path&gt;" d="M213.8 34.5c-1.2 1.1-3.3.7-4.8-.9s-1.8-3.8-.7-4.9c1.2-1 3.3-.6 4.8 1s1.8 3.7.7 4.8z" style="mix-blend-mode:multiply" opacity=".5" fill="url(#g89)"/><path id="&lt;Path&gt;" d="M213.8 34.5c-1.2 1.1-3.3.7-4.8-.9-1.5-1.5-1.8-3.5-.8-4.7-.3 1.1.2 2.6 1.2 3.7 1.6 1.6 3.7 2 4.9.9l.1-.1q-.1.6-.6 1.1z" style="mix-blend-mode:multiply" opacity=".5" fill="url(#g90)"/></g><g id="&lt;Group&gt;"><path id="&lt;Compound Path&gt;" fill-rule="evenodd" d="M228.9 32c.6 1.1-1 3-3.6 4.3-2.5 1.2-5 1.3-5.5.1-.6-1.1 1-3 3.6-4.2 2.5-1.2 5-1.3 5.5-.2zm-9.6 6.3c0 .5-.8.8-1.9.8-1 0-1.8-.4-1.8-.9 0-.4.9-.8 1.9-.8 1 .1 1.8.4 1.8.9zm13-11.6c.6.3.4 1.6-.3 2.8-.8 1.2-1.8 1.9-2.4 1.6-.5-.3-.3-1.6.4-2.8.8-1.2 1.8-1.9 2.3-1.6zm-3.6 2.2c.2.4-.4 1.1-1.4 1.4-.9.4-1.8.4-2 0-.2-.4.4-1.1 1.4-1.5.9-.4 1.8-.3 2 .1z" style="mix-blend-mode:multiply" opacity=".5" fill="url(#g91)"/><g id="&lt;Group&gt;"><path id="&lt;Path&gt;" d="M232.2 26.7h.1c.6.3.4 1.6-.3 2.8-.8 1.2-1.8 1.9-2.4 1.6q-.2-.2-.2-.6c.5.2 1.5-.5 2.1-1.6.6-.8.8-1.7.7-2.2z" style="mix-blend-mode:multiply" opacity=".5" fill="url(#g92)"/><path id="&lt;Path&gt;" d="M228.3 28.6q.3.1.4.3c.2.4-.4 1.1-1.4 1.4-.9.4-1.8.4-2 0q-.1-.1 0-.3c.4.1 1 0 1.6-.2.7-.4 1.3-.8 1.4-1.2z" style="mix-blend-mode:multiply" opacity=".5" fill="url(#g93)"/><path id="&lt;Path&gt;" d="M219.3 38.3c0 .5-.8.8-1.9.8-1 0-1.8-.4-1.8-.9.4.1.9.3 1.4.3 1 0 1.8-.3 1.9-.7.3.1.4.3.4.5z" style="mix-blend-mode:multiply" opacity=".5" fill="url(#g94)"/><path id="&lt;Path&gt;" d="M225.3 36.3c-2.5 1.2-5 1.3-5.5.1l-.1-.1c.9.6 3.1.4 5.2-.6 2.4-1.2 4-3 3.7-4.1q.2.2.3.4c.6 1.1-1 3-3.6 4.3z" style="mix-blend-mode:multiply" opacity=".5" fill="url(#g95)"/></g></g><g id="&lt;Group&gt;"><path id="&lt;Compound Path&gt;" fill-rule="evenodd" d="M221.7 7.7c.2 1.3-2 2.6-4.7 3-2.8.4-5.2-.3-5.4-1.5-.2-1.2 1.9-2.6 4.7-3 2.8-.4 5.2.3 5.4 1.5zm4.3 2c-.1.5-1 .5-2 .2-.9-.4-1.6-1-1.5-1.4.2-.4 1.1-.5 2.1-.2.9.4 1.6 1 1.4 1.4zm-15.2-1.1c.1.4-.5 1.1-1.5 1.4-1 .3-1.9.2-2-.2-.2-.5.5-1.1 1.5-1.4.9-.3 1.8-.2 2 .2z" style="mix-blend-mode:multiply" opacity=".5" fill="url(#g96)"/><g id="&lt;Group&gt;"><path id="&lt;Path&gt;" d="M207.4 9.9q-.1 0-.1-.1c-.2-.5.5-1.1 1.5-1.4.9-.3 1.8-.2 2 .2.1.2-.1.5-.3.7-.3-.3-1.1-.3-1.9 0-.5.1-1 .4-1.2.6z" style="mix-blend-mode:multiply" opacity=".5" fill="url(#g97)"/><path id="&lt;Path&gt;" d="M211.6 9.2c-.2-1.2 1.9-2.6 4.7-3 2.8-.4 5.2.3 5.4 1.5q0 .4-.2.8c-.2-1.2-2.6-1.8-5.4-1.4-2.2.3-3.9 1.2-4.5 2.1z" style="mix-blend-mode:multiply" opacity=".5" fill="url(#g98)"/><path id="&lt;Path&gt;" d="M222.7 9q-.2-.3-.2-.5c.2-.4 1.1-.5 2.1-.2.9.4 1.6 1 1.4 1.4q0 .2-.3.3c-.3-.3-.7-.6-1.3-.8-.7-.3-1.3-.3-1.7-.2z" style="mix-blend-mode:multiply" opacity=".5" fill="url(#g99)"/></g></g><g id="&lt;Group&gt;"><path id="&lt;Compound Path&gt;" fill-rule="evenodd" d="M202.4 26c-1 .1-2-1.6-2.1-3.7-.2-2.1.5-3.9 1.5-4 1 0 1.9 1.6 2.1 3.7.1 2.2-.5 3.9-1.5 4zm1.8 4.9c-.5.1-1.1-.6-1.4-1.6-.3-1-.2-2 .3-2.1.5-.1 1.1.6 1.4 1.6.3 1 .2 1.9-.3 2.1zm0-12c-.5 0-.9-.9-.8-1.9.1-1.1.6-1.9 1-1.9.5 0 .9.9.8 2-.1 1-.5 1.9-1 1.8z" style="mix-blend-mode:multiply" opacity=".5" fill="url(#g100)"/><g id="&lt;Group&gt;"><path id="&lt;Path&gt;" d="M203.4 17c.1-1.1.6-1.9 1-1.9q.2 0 .3.1c-.3.3-.5.9-.6 1.7 0 .8.2 1.5.5 1.8q-.2.2-.4.2c-.5 0-.9-.9-.8-1.9z" style="mix-blend-mode:multiply" opacity=".5" fill="url(#g101)"/><path id="&lt;Path&gt;" d="M204.4 30.7l-.2.2c-.5.1-1.1-.6-1.4-1.6-.3-1-.2-2 .3-2.1q.2-.1.5.1c-.3.4-.3 1.1-.1 1.9.2.7.6 1.2.9 1.5z" style="mix-blend-mode:multiply" opacity=".5" fill="url(#g102)"/><path id="&lt;Path&gt;" d="M202.8 25.9q-.2.1-.4.1c-1 .1-2-1.6-2.1-3.7-.2-2.1.5-3.9 1.5-4q.1 0 .3.1c-.8.4-1.2 2-1.1 3.8.2 1.9.9 3.4 1.8 3.7z" style="mix-blend-mode:multiply" opacity=".5" fill="url(#g103)"/></g></g><path id="&lt;Path&gt;" d="M233 37c-8.1 8.8-21.8 9.4-30.6 1.3-8.8-8-9.4-21.7-1.3-30.5s21.7-9.4 30.6-1.4c8.8 8.1 9.4 21.8 1.3 30.6z" fill="url(#g104)"/></g><g id="&lt;Group&gt;" style="mix-blend-mode:screen" opacity=".5"><g id="&lt;Group&gt;"><g id="&lt;Group&gt;" style="mix-blend-mode:screen" opacity=".5"><path id="&lt;Path&gt;" class="s9" d="M219 10.5c.2 1.2-1.5 2.4-3.6 2.6-2.2.2-4.1-.6-4.2-1.8-.1-1.2 1.5-2.4 3.7-2.6 2.1-.2 4 .6 4.1 1.8z"/></g><g id="&lt;Group&gt;" style="mix-blend-mode:screen" opacity=".5"><path id="&lt;Path&gt;" class="s9" d="M224.8 11.5c-.2.7-1.3 1-2.6.6-1.2-.3-2.1-1.1-1.9-1.8.2-.7 1.3-1 2.6-.7 1.2.3 2.1 1.2 1.9 1.9z"/></g></g></g></g><g id="&lt;Group&gt;"><g id="&lt;Group&gt;"><path id="&lt;Path&gt;" class="s9" d="M214.2 30.4c-18.8-5-32.9-12.8-31.7-17.4.9-3.3 9.6-4.1 21.4-2.4q-.7.8-1.1 1.7c-7.9-.8-13.4 0-14.1 2.4-1 3.8 10.6 10.1 25.9 14.2 15.2 4.1 28.4 4.3 29.4.5.6-2.2-3.1-5.3-9.4-8.3q0-1.1-.2-2.2c10.2 4.3 16.7 9 15.9 12.2-1.3 4.6-17.4 4.3-36.1-.7z"/></g><path id="&lt;Path&gt;" class="s83" d="M245.7 31.2c-4.9 2.5-16.5 1.8-24.8-.2-8.2-2-29.5-7.3-33-14.6-3.5-7.2 9.7-4.4 10.4-5.5.5-.8-6.3-.9-10.3-.8 3.8-.6 9.4-.4 15.9.5q-.7.8-1.1 1.7c-7.9-.8-13.4 0-14.1 2.4-1 3.8 10.6 10.1 25.9 14.2 15.2 4.1 28.4 4.3 29.4.5.6-2.2-3.1-5.3-9.4-8.3q0-1.1-.2-2.2 1.5.7 2.9 1.3-.3.2-.4.5c-1.2 2.1 13.6 8 8.8 10.5z"/><g id="&lt;Group&gt;" style="mix-blend-mode:screen"><g id="&lt;Group&gt;"><g id="&lt;Group&gt;" style="mix-blend-mode:multiply" opacity=".5"><path id="&lt;Path&gt;" class="s9" d="M187.2 17.1s-.2-.2-.6-.5c-.4-.3-.9-.6-1.4-1.1-.5-.4-.9-1.1-.9-1.8 0-.3 0-.6.1-.8l.1-.2q0-.1.2-.3.2-.2.6-.4c.4-.3 1.1-.5 1.7-.7 1.3-.3 2.6-.4 2.6-.2 0 .1-1.2.5-2.3 1-.6.2-1.1.5-1.4.7-.3.3-.4.5-.4.5s-.2.1-.2.4c0 .3.1.9.5 1.3.3.5.8.9 1.1 1.3.3.4.4.7.3.8z"/></g><g id="&lt;Group&gt;" style="mix-blend-mode:multiply" opacity=".5"><path id="&lt;Path&gt;" class="s9" d="M241.3 33.9c-.1-.1 2-.4 4-1 1-.2 1.9-.5 2.5-.9.2-.2.4-.4.5-.6l.2-.2.1-.2c.1-.2.2-.4.2-.7q0-.4-.3-1c-.2-.4-.5-.8-.9-1.2-.6-.7-1.4-1.4-2-1.8-.7-.4-1.1-.6-1.1-.7 0-.1.5 0 1.3.3.7.3 1.6.9 2.4 1.7q.6.5 1.1 1.2c.3.4.5 1 .5 1.5.1.5-.1.9-.2 1.1-.1.3-.2.4-.2.4s-.1.1-.2.3c-.2.2-.5.5-.9.7-.8.5-1.8.7-2.9.9-2 .4-4.1.4-4.1.2z"/></g></g></g></g></g><g id="&lt;Group&gt;"><g id="&lt;Group&gt;"><g id="&lt;Group&gt;"><path id="&lt;Path&gt;" d="M147.4 272c.7 12.1-8.6 22.5-20.7 23.2-12 .7-22.4-8.6-23.1-20.7-.7-12 8.6-22.4 20.7-23.1 12-.7 22.4 8.6 23.1 20.6z" fill="url(#g105)"/><g id="&lt;Group&gt;" style="mix-blend-mode:screen" opacity=".5"><path id="&lt;Path&gt;" class="s9" d="M110.8 289.5c-4.1-3.7-6.8-9-7.2-15-.7-12 8.6-22.4 20.7-23.1 6.6-.4 12.7 2.3 17 6.7-4.2-3.8-9.9-6-16-5.6-12 .7-21.3 11-20.6 23.1.3 5.4 2.6 10.3 6.1 13.9z"/></g><g id="&lt;Group&gt;" style="mix-blend-mode:screen" opacity=".5"><path id="&lt;Path&gt;" class="s9" d="M113.7 289c-3.8-3.3-6.4-8.1-6.7-13.6-.6-10.7 7.6-19.9 18.3-20.5 9.6-.6 18 6 20 15.1-3.6-3.1-8.5-5-13.7-4.7-10.8.7-18.9 9.8-18.3 20.5q.1 1.7.4 3.2z"/></g><path id="&lt;Path&gt;" d="M147.4 272c.7 12.1-8.6 22.5-20.7 23.2-12 .7-22.3-8.5-23.1-20.5 3.9 5.1 10.1 8.1 17 7.7 11-.6 19.4-10 18.8-21.1-.1-2.1-.6-4.1-1.3-5.9 5.3 3.7 8.9 9.7 9.3 16.6z" style="mix-blend-mode:multiply" opacity=".5" fill="url(#g106)"/><path id="&lt;Path&gt;" d="M146.1 272.3c.7 11.3-8 21.1-19.4 21.8-9 .5-17-4.9-20.3-12.7 3.9 6.4 11 10.5 19 10 11.4-.6 20.1-10.4 19.4-21.8-.1-2.3-.7-4.6-1.5-6.7 1.6 2.8 2.6 5.9 2.8 9.4z" style="mix-blend-mode:multiply" opacity=".5" fill="url(#g107)"/><g id="&lt;Group&gt;"><path id="&lt;Compound Path&gt;" fill-rule="evenodd" d="M139.2 262.3c-.8 2.4-4.1 3.4-7.4 2.3-3.3-1.1-5.3-3.9-4.5-6.3.7-2.3 4.1-3.4 7.4-2.3 3.3 1.1 5.3 3.9 4.5 6.3zm-11.5 3.5c-.4 1-1.9 1.5-3.4 1s-2.5-1.8-2.1-2.9c.4-1.1 1.9-1.5 3.4-1s2.5 1.8 2.1 2.9z" style="mix-blend-mode:multiply" opacity=".5" fill="url(#g108)"/><g id="&lt;Group&gt;"><path id="&lt;Path&gt;" d="M127.7 265.8q-.1.2-.3.5c0-1-.9-2-2.2-2.4-1.2-.4-2.5-.2-3.1.5q0-.2.1-.5c.4-1.1 1.9-1.5 3.4-1s2.5 1.8 2.1 2.9z" style="mix-blend-mode:multiply" opacity=".5" fill="url(#g109)"/><path id="&lt;Path&gt;" d="M139.2 262.3q-.1.3-.3.6c.5-2.3-1.5-4.8-4.6-5.9-3-1-6-.2-7.2 1.8q.1-.3.2-.5c.7-2.3 4.1-3.4 7.4-2.3 3.3 1.1 5.3 3.9 4.5 6.3z" style="mix-blend-mode:multiply" opacity=".5" fill="url(#g110)"/></g></g><g id="&lt;Group&gt;"><path id="&lt;Path&gt;" d="M133.5 286.7c-.1 1.9-2.3 3.5-5 3.4-2.7 0-4.9-1.6-4.9-3.6 0-1.9 2.2-3.5 5-3.5 2.7.1 4.9 1.7 4.9 3.7z" style="mix-blend-mode:multiply" opacity=".5" fill="url(#g111)"/><path id="&lt;Path&gt;" d="M133.5 286.7c-.1 1.9-2.3 3.5-5 3.4-2.6 0-4.7-1.5-4.9-3.3.8 1.2 2.5 2 4.4 2.1 2.7 0 5-1.6 5-3.5v-.3q.5.7.5 1.6z" style="mix-blend-mode:multiply" opacity=".5" fill="url(#g112)"/></g><g id="&lt;Group&gt;"><path id="&lt;Compound Path&gt;" fill-rule="evenodd" d="M144.3 271c1.5.5 1.8 3.6.7 6.9-1.1 3.3-3.2 5.6-4.7 5.1-1.4-.5-1.7-3.6-.6-6.9 1.1-3.3 3.1-5.5 4.6-5.1zm-2.7 14c.4.4 0 1.5-1 2.4-.9.9-1.9 1.3-2.3.8-.4-.4 0-1.4.9-2.3.9-.9 2-1.3 2.4-.9zm1-21.5c.7-.2 1.7 1 2.1 2.7.4 1.7.2 3.3-.6 3.4-.8.2-1.7-1-2.1-2.7-.5-1.7-.2-3.2.6-3.4zm-1.3 5c.6.3.6 1.4.1 2.6-.4 1.1-1.2 1.9-1.8 1.7-.5-.2-.5-1.3-.1-2.5.5-1.2 1.3-2 1.8-1.8z" style="mix-blend-mode:multiply" opacity=".5" fill="url(#g113)"/><g id="&lt;Group&gt;"><path id="&lt;Path&gt;" d="M142.4 263.5h.2c.7-.2 1.7 1 2.1 2.7.4 1.7.2 3.3-.6 3.4q-.4.1-.7-.2c.6-.3.8-1.8.4-3.3-.3-1.2-.8-2.1-1.4-2.6z" style="mix-blend-mode:multiply" opacity=".5" fill="url(#g114)"/><path id="&lt;Path&gt;" d="M140.7 268.7q.4-.3.6-.2c.6.3.6 1.4.1 2.6-.4 1.1-1.2 1.9-1.8 1.7l-.2-.2c.4-.3.8-.9 1.1-1.7.4-.9.5-1.8.2-2.2z" style="mix-blend-mode:multiply" opacity=".5" fill="url(#g115)"/><path id="&lt;Path&gt;" d="M141.6 285c.4.4 0 1.5-1 2.4-.9.9-1.9 1.3-2.3.8.4-.1 1-.5 1.5-1 .8-.8 1.2-1.8.9-2.3.4-.1.7-.1.9.1z" style="mix-blend-mode:multiply" opacity=".5" fill="url(#g116)"/><path id="&lt;Path&gt;" d="M145 277.9c-1.1 3.3-3.2 5.6-4.7 5.1q-.1 0-.2-.1c1.4-.2 3-2.3 4-5.1 1-3.2.8-6.1-.5-6.8q.4-.1.7 0c1.5.5 1.8 3.6.7 6.9z" style="mix-blend-mode:multiply" opacity=".5" fill="url(#g117)"/></g></g><g id="&lt;Group&gt;"><path id="&lt;Compound Path&gt;" fill-rule="evenodd" d="M116.5 256.5c1.2.9.6 4-1.4 6.8-2.1 2.8-4.8 4.3-6 3.4-1.3-.9-.6-3.9 1.4-6.7 2.1-2.8 4.7-4.4 6-3.5zm5.5-2.1c.3.5-.4 1.4-1.6 1.9-1.1.6-2.2.6-2.5.1-.2-.5.5-1.4 1.6-1.9 1.2-.6 2.3-.6 2.5-.1zM107.9 267c.5.2.5 1.3-.1 2.5-.6 1.1-1.4 1.8-1.9 1.6-.5-.3-.5-1.4.1-2.5.5-1.2 1.4-1.9 1.9-1.6z" style="mix-blend-mode:multiply" opacity=".5" fill="url(#g118)"/><g id="&lt;Group&gt;"><path id="&lt;Path&gt;" d="M106.1 271.1h-.2c-.5-.3-.5-1.4.1-2.5.5-1.2 1.4-1.9 1.9-1.6.2.1.3.4.3.8-.5 0-1.2.7-1.7 1.7-.3.6-.4 1.2-.4 1.6z" style="mix-blend-mode:multiply" opacity=".5" fill="url(#g119)"/><path id="&lt;Path&gt;" d="M109.1 266.7c-1.3-.9-.6-3.9 1.4-6.7 2.1-2.8 4.7-4.4 6-3.5q.4.3.6.9c-1.3-.9-4 .7-6 3.5-1.6 2.2-2.3 4.5-2 5.8z" style="mix-blend-mode:multiply" opacity=".5" fill="url(#g120)"/><path id="&lt;Path&gt;" d="M118.6 256.8q-.5-.1-.7-.4c-.2-.5.5-1.4 1.6-1.9 1.2-.6 2.3-.6 2.5-.1q.2.2 0 .6c-.5-.1-1.2 0-1.9.4-.8.4-1.3.9-1.5 1.4z" style="mix-blend-mode:multiply" opacity=".5" fill="url(#g121)"/></g></g><g id="&lt;Group&gt;"><path id="&lt;Compound Path&gt;" fill-rule="evenodd" d="M116 289.4c-.8 1-3 .4-5-1.3-2.1-1.7-3.1-3.8-2.3-4.8.8-.9 3.1-.3 5.1 1.4 2 1.7 3 3.8 2.2 4.7zm5.9 2.6c-.3.6-1.4.5-2.6-.1-1.2-.6-1.9-1.5-1.6-2.1.3-.5 1.5-.5 2.6.2 1.2.6 1.9 1.5 1.6 2zm-10.6-10.3c-.4.4-1.5 0-2.4-1-.9-1-1.2-2.1-.7-2.5.4-.4 1.5 0 2.4 1 .8 1 1.2 2.1.7 2.5z" style="mix-blend-mode:multiply" opacity=".5" fill="url(#g122)"/><g id="&lt;Group&gt;"><path id="&lt;Path&gt;" d="M108.9 280.7c-.9-1-1.2-2.1-.7-2.5q.1-.1.3-.2c0 .6.4 1.3 1 2 .7.7 1.5 1.2 2 1.1q0 .4-.2.6c-.4.4-1.5 0-2.4-1z" style="mix-blend-mode:multiply" opacity=".5" fill="url(#g123)"/><path id="&lt;Path&gt;" d="M122 291.6q0 .3-.1.4c-.3.6-1.4.5-2.6-.1-1.2-.6-1.9-1.5-1.6-2.1q.2-.2.5-.3c.1.5.7 1.2 1.6 1.7.8.4 1.6.6 2.2.4z" style="mix-blend-mode:multiply" opacity=".5" fill="url(#g124)"/><path id="&lt;Path&gt;" d="M116.3 289q-.1.2-.3.4c-.8 1-3 .4-5-1.3-2.1-1.7-3.1-3.8-2.3-4.8q.2-.1.3-.2c-.2 1 .8 2.8 2.5 4.3 1.8 1.5 3.8 2.1 4.8 1.6z" style="mix-blend-mode:multiply" opacity=".5" fill="url(#g125)"/></g></g><path id="&lt;Path&gt;" d="M152.2 271.8c.9 14.7-10.4 27.4-25.2 28.2-14.7.9-27.4-10.4-28.2-25.2-.9-14.8 10.4-27.4 25.2-28.2 14.7-.9 27.4 10.4 28.2 25.2z" style="mix-blend-mode:screen" fill="url(#g126)"/></g><g id="&lt;Group&gt;" style="mix-blend-mode:screen" opacity=".5"><g id="&lt;Group&gt;"><g id="&lt;Group&gt;" style="mix-blend-mode:screen" opacity=".5"><path id="&lt;Path&gt;" class="s9" d="M116.7 261.2c1.2 1 .8 3.5-.9 5.6-1.7 2.1-4 3.1-5.2 2.1-1.2-.9-.8-3.4.9-5.5 1.6-2.1 4-3.1 5.2-2.2z"/></g><g id="&lt;Group&gt;" style="mix-blend-mode:screen" opacity=".5"><path id="&lt;Path&gt;" class="s9" d="M122.5 257c.5.7-.3 2-1.6 2.9-1.4.8-2.9.8-3.3.1-.5-.8.2-2.1 1.6-2.9 1.4-.8 2.8-.9 3.3-.1z"/></g></g></g></g><g id="&lt;Group&gt;"><g id="&lt;Group&gt;"><path id="&lt;Path&gt;" class="s9" d="M130.1 282.8c-20.6 12.3-39.7 18.1-42.7 13-2.2-3.6 4.6-12 16.3-21q.1 1.2.5 2.4c-7.4 6.3-11.5 11.9-10 14.5 2.5 4.2 18.1-.6 34.9-10.6 16.8-10 28.4-21.5 26-25.6-1.5-2.5-7.5-1.8-15.6 1.1q-1-.9-2.1-1.6c12.7-5.5 22.4-7.2 24.5-3.6 3.1 5.1-11.2 19.1-31.8 31.4z"/></g><path id="&lt;Path&gt;" class="s83" d="M158.1 255.5c-2.1 6.5-12.7 16.2-21.6 21.8-8.9 5.6-32 19.9-41.4 16.7-9.4-3.1 4.4-12.5 4-14-.2-1.2-6.2 4.8-9.6 8.4 2.8-3.9 7.8-8.7 14.2-13.6q.1 1.2.5 2.4c-7.4 6.3-11.5 11.9-10 14.5 2.5 4.2 18.1-.6 34.9-10.6 16.8-10 28.4-21.5 26-25.6-1.5-2.5-7.5-1.8-15.6 1.1q-1-.9-2.1-1.6 1.9-.8 3.7-1.5-.1.4 0 .8c.8 2.8 19-5.2 17 1.2z"/><g id="&lt;Group&gt;" style="mix-blend-mode:screen"><g id="&lt;Group&gt;"><g id="&lt;Group&gt;" style="mix-blend-mode:multiply" opacity=".5"><path id="&lt;Path&gt;" class="s9" d="M95.1 295.1c-.1.1-.5.1-1 .2-.6.1-1.3.3-2.2.3-.9.1-1.8-.2-2.4-.7-.3-.3-.5-.6-.6-.8l-.1-.4-.1-.3c0-.3 0-.6.1-.9.1-.7.5-1.5.9-2.2.9-1.4 1.9-2.6 2.1-2.5.1.1-.6 1.5-1.2 3-.3.7-.5 1.4-.5 1.9-.1.5 0 .7 0 .7s.1.2.3.5c.2.4.8.7 1.5.8.7.1 1.6 0 2.2.1.6.1 1 .2 1 .3z"/></g><g id="&lt;Group&gt;" style="mix-blend-mode:multiply" opacity=".5"><path id="&lt;Path&gt;" class="s9" d="M156.6 261.8c-.1-.1 1.4-2.2 2.6-4.4.7-1.1 1.2-2.2 1.3-3.1.1-.4.1-.7 0-.9v-.4l-.1-.3c-.1-.2-.2-.5-.5-.7-.2-.3-.6-.5-1.1-.6-.5-.1-1.2-.2-1.8-.3-1.2 0-2.5.1-3.4.3-.9.2-1.5.4-1.6.3 0-.1.5-.4 1.5-.8.9-.4 2.2-.7 3.5-.8q1 0 2 .2c.7.1 1.3.3 1.8.7.5.4.7.9.9 1.2.1.3.1.5.1.5s.1.2.1.5c0 .4 0 .9-.1 1.4-.3 1.1-1 2.2-1.7 3.3-1.5 2.2-3.3 4-3.5 3.9z"/></g></g></g></g></g><g id="&lt;Group&gt;"><g id="&lt;Group&gt;"><g id="&lt;Group&gt;"><path id="&lt;Path&gt;" d="M685.4 82.3c-6.6 6-16.9 5.4-22.8-1.2-6-6.7-5.5-16.9 1.2-22.9s16.9-5.4 22.9 1.3c6 6.6 5.4 16.9-1.3 22.8z" fill="url(#g127)"/><g id="&lt;Group&gt;" style="mix-blend-mode:screen" opacity=".5"><path id="&lt;Path&gt;" class="s9" d="M658.4 69.3c.3-4.1 2.1-8.1 5.4-11.1 6.7-6 16.9-5.4 22.9 1.3 3.3 3.6 4.6 8.4 4 12.9.2-4.2-1.1-8.5-4.1-11.8-6-6.7-16.2-7.3-22.9-1.3-3 2.7-4.8 6.3-5.3 10z"/></g><g id="&lt;Group&gt;" style="mix-blend-mode:screen" opacity=".5"><path id="&lt;Path&gt;" class="s9" d="M660.1 70.7c.1-3.8 1.7-7.5 4.8-10.2 5.9-5.3 15-4.8 20.3 1.1 4.7 5.4 4.8 13.2.5 18.6.1-3.6-1.1-7.2-3.7-10.1-5.3-5.9-14.4-6.4-20.3-1.1q-.9.8-1.6 1.7z"/></g><path id="&lt;Path&gt;" d="M685.4 82.3c-6.6 6-16.9 5.4-22.8-1.2-6-6.6-5.5-16.8 1.1-22.8-1.1 4.6 0 9.6 3.4 13.3 5.4 6.1 14.8 6.6 20.8 1.2q1.8-1.6 2.9-3.5c.3 4.8-1.5 9.6-5.4 13z" style="mix-blend-mode:multiply" opacity=".5" fill="url(#g128)"/><path id="&lt;Path&gt;" d="M684.7 81.7c-6.2 5.6-15.9 5.1-21.5-1.2-4.5-4.9-5.1-12-2-17.5-2 5.1-1.1 11.2 2.9 15.6 5.6 6.3 15.3 6.8 21.6 1.1 1.3-1.1 2.3-2.5 3.1-4-.8 2.3-2.2 4.3-4.1 6z" style="mix-blend-mode:multiply" opacity=".5" fill="url(#g129)"/><g id="&lt;Group&gt;"><path id="&lt;Compound Path&gt;" fill-rule="evenodd" d="M687.3 73.1c-1.7.7-3.9-.8-4.8-3.2-.8-2.4-.2-4.9 1.6-5.5 1.7-.7 3.8.8 4.7 3.2.9 2.4.2 4.9-1.5 5.5zm-7.3-5c-.8.3-1.8-.4-2.2-1.5-.4-1.1-.1-2.3.7-2.6.8-.3 1.8.4 2.2 1.5.4 1.1.1 2.3-.7 2.6z" style="mix-blend-mode:multiply" opacity=".5" fill="url(#g130)"/><g id="&lt;Group&gt;"><path id="&lt;Path&gt;" d="M680 68.1h-.5c.6-.4.8-1.4.4-2.3-.3-.9-1-1.5-1.7-1.6q.1-.1.3-.2c.8-.3 1.8.4 2.2 1.5.4 1.1.1 2.3-.7 2.6z" style="mix-blend-mode:multiply" opacity=".5" fill="url(#g131)"/><path id="&lt;Path&gt;" d="M687.3 73.1q-.2.1-.5.1c1.5-.8 2.1-3.1 1.3-5.4-.8-2.2-2.7-3.5-4.3-3.3q.1-.1.3-.1c1.7-.7 3.8.8 4.7 3.2.9 2.4.2 4.9-1.5 5.5z" style="mix-blend-mode:multiply" opacity=".5" fill="url(#g132)"/></g></g><g id="&lt;Group&gt;"><path id="&lt;Path&gt;" d="M670.6 81c-1.2.9-3.1.4-4.3-1.2-1.3-1.6-1.4-3.6-.2-4.5 1.1-.9 3.1-.3 4.3 1.2 1.2 1.6 1.3 3.6.2 4.5z" style="mix-blend-mode:multiply" opacity=".5" fill="url(#g133)"/><path id="&lt;Path&gt;" d="M670.6 81c-1.2.9-3.1.4-4.3-1.2-1.2-1.5-1.3-3.4-.4-4.4-.3 1 0 2.4.9 3.5 1.2 1.6 3.1 2.2 4.3 1.3q.1-.1.1-.2-.1.6-.6 1z" style="mix-blend-mode:multiply" opacity=".5" fill="url(#g134)"/></g><g id="&lt;Group&gt;"><path id="&lt;Compound Path&gt;" fill-rule="evenodd" d="M684.6 80.1c.4 1.1-1.2 2.7-3.7 3.6-2.4.8-4.7.7-5.1-.4-.4-1.1 1.3-2.6 3.7-3.5 2.4-.9 4.7-.8 5.1.3zm-9.3 4.9c-.1.4-.9.6-1.8.5-1-.1-1.7-.5-1.6-.9 0-.4.8-.7 1.8-.6.9.1 1.6.6 1.6 1zm12.9-9.4c.4.3.2 1.5-.6 2.5s-1.8 1.6-2.3 1.2c-.4-.3-.2-1.4.6-2.5.8-1 1.8-1.6 2.3-1.2zm-3.5 1.6c.1.4-.5 1-1.4 1.3-.9.2-1.8.1-1.9-.3-.1-.4.5-.9 1.4-1.2.9-.3 1.8-.2 1.9.2z" style="mix-blend-mode:multiply" opacity=".5" fill="url(#g135)"/><g id="&lt;Group&gt;"><path id="&lt;Path&gt;" d="M688.1 75.5q0 .1.1.1c.4.3.2 1.5-.6 2.5s-1.8 1.6-2.3 1.2q-.2-.1-.2-.5c.5.2 1.4-.3 2.1-1.3.6-.7.9-1.4.9-2z" style="mix-blend-mode:multiply" opacity=".5" fill="url(#g136)"/><path id="&lt;Path&gt;" d="M684.3 76.9q.3.1.4.3c.1.4-.5 1-1.4 1.3-.9.2-1.8.1-1.9-.3q0-.1.1-.3c.3.2.9.1 1.4 0 .7-.2 1.3-.6 1.4-1z" style="mix-blend-mode:multiply" opacity=".5" fill="url(#g137)"/><path id="&lt;Path&gt;" d="M675.3 85c-.1.4-.9.6-1.8.5-1-.1-1.7-.5-1.6-.9v-.1c.3.2.7.4 1.2.4.9.1 1.7-.1 1.8-.5.2.2.4.4.4.6z" style="mix-blend-mode:multiply" opacity=".5" fill="url(#g138)"/><path id="&lt;Path&gt;" d="M680.9 83.7c-2.4.8-4.7.7-5.1-.4v-.2c.8.7 2.7.7 4.8 0 2.3-.9 3.9-2.3 3.7-3.4q.2.2.3.4c.4 1.1-1.2 2.7-3.7 3.6z" style="mix-blend-mode:multiply" opacity=".5" fill="url(#g139)"/></g></g><g id="&lt;Group&gt;"><path id="&lt;Compound Path&gt;" fill-rule="evenodd" d="M680.2 57.3c0 1.2-2 2.2-4.6 2.3-2.6.1-4.7-.7-4.8-1.8 0-1.2 2-2.2 4.6-2.3 2.6-.1 4.7.7 4.8 1.8zm3.8 2.2c-.2.4-1 .4-1.9 0-.8-.4-1.4-1-1.2-1.4.2-.4 1-.4 1.8 0 .9.4 1.4 1.1 1.3 1.4zm-13.8-2.3c0 .4-.6.9-1.5 1.1-1 .2-1.8 0-1.9-.4 0-.4.6-.9 1.5-1.1 1-.2 1.8 0 1.9.4z" style="mix-blend-mode:multiply" opacity=".5" fill="url(#g140)"/><g id="&lt;Group&gt;"><path id="&lt;Path&gt;" d="M666.9 58.1q0-.1-.1-.2c0-.4.6-.9 1.5-1.1 1-.2 1.8 0 1.9.4 0 .2-.1.4-.4.6-.2-.3-.9-.4-1.7-.3-.5.2-.9.3-1.2.6z" style="mix-blend-mode:multiply" opacity=".5" fill="url(#g141)"/><path id="&lt;Path&gt;" d="M670.8 57.8c0-1.2 2-2.2 4.6-2.3 2.6-.1 4.7.7 4.8 1.8q0 .4-.3.8c-.1-1.2-2.2-2-4.8-1.9-2 .1-3.6.8-4.3 1.6z" style="mix-blend-mode:multiply" opacity=".5" fill="url(#g142)"/><path id="&lt;Path&gt;" d="M681 58.6q-.2-.3-.1-.5c.2-.4 1-.4 1.8 0 .9.4 1.4 1.1 1.3 1.4q-.1.2-.4.3c-.2-.3-.6-.7-1.1-.9-.6-.3-1.2-.4-1.5-.3z" style="mix-blend-mode:multiply" opacity=".5" fill="url(#g143)"/></g></g><g id="&lt;Group&gt;"><path id="&lt;Compound Path&gt;" fill-rule="evenodd" d="M660.9 72.2c-.9 0-1.6-1.6-1.5-3.5 0-2 .8-3.5 1.7-3.5.9 0 1.6 1.6 1.5 3.6 0 1.9-.8 3.5-1.7 3.4zm1.2 4.6c-.4.1-.9-.6-1.1-1.5-.2-1 0-1.8.5-1.9.4-.1.9.6 1.1 1.6.2.9 0 1.8-.5 1.8zm1.1-10.8c-.4-.1-.7-1-.5-1.9.2-1 .7-1.7 1.1-1.6.4.1.7.9.5 1.9-.2.9-.7 1.6-1.1 1.6z" style="mix-blend-mode:multiply" opacity=".5" fill="url(#g144)"/><g id="&lt;Group&gt;"><path id="&lt;Path&gt;" d="M662.7 64.1c.2-1 .7-1.7 1.1-1.6q.1 0 .2.1c-.3.3-.5.8-.6 1.5-.2.7 0 1.4.2 1.7q-.2.2-.4.2c-.4-.1-.7-1-.5-1.9z" style="mix-blend-mode:multiply" opacity=".5" fill="url(#g145)"/><path id="&lt;Path&gt;" d="M662.4 76.7q-.1.1-.3.1c-.4.1-.9-.6-1.1-1.5-.2-1 0-1.8.5-1.9q.2 0 .4.1c-.3.3-.4 1-.2 1.8.1.6.4 1.1.7 1.4z" style="mix-blend-mode:multiply" opacity=".5" fill="url(#g146)"/><path id="&lt;Path&gt;" d="M661.3 72.2h-.4c-.9 0-1.6-1.6-1.5-3.5 0-2 .8-3.5 1.7-3.5q.1 0 .3.1c-.8.3-1.3 1.7-1.4 3.4 0 1.7.5 3.1 1.3 3.5z" style="mix-blend-mode:multiply" opacity=".5" fill="url(#g147)"/></g></g><path id="&lt;Path&gt;" d="M687.8 85c-8.1 7.3-20.6 6.6-27.9-1.5-7.3-8.2-6.6-20.7 1.5-28 8.2-7.3 20.7-6.6 28 1.5 7.3 8.2 6.6 20.7-1.6 28z" style="mix-blend-mode:screen" fill="url(#g148)"/></g><g id="&lt;Group&gt;" style="mix-blend-mode:screen" opacity=".5"><g id="&lt;Group&gt;"><g id="&lt;Group&gt;" style="mix-blend-mode:screen" opacity=".5"><path id="&lt;Path&gt;" class="s9" d="M677.5 59.6c0 1.1-1.6 2-3.6 2.1-2 0-3.6-.9-3.6-2 0-1.2 1.6-2.1 3.6-2.1s3.6.9 3.6 2z"/></g><g id="&lt;Group&gt;" style="mix-blend-mode:screen" opacity=".5"><path id="&lt;Path&gt;" class="s9" d="M682.7 61c-.3.6-1.3.8-2.4.4-1.1-.4-1.9-1.2-1.6-1.9.2-.6 1.3-.8 2.4-.4 1.1.5 1.8 1.3 1.6 1.9z"/></g></g></g></g><g id="&lt;Group&gt;"><g id="&lt;Group&gt;"><path id="&lt;Path&gt;" class="s9" d="M671.3 77.3c-16.6-6.2-28.9-14.6-27.3-18.7 1.1-2.9 9.1-2.9 19.7-.2q-.7.6-1.2 1.4c-7.1-1.4-12.2-1.2-13 .9-1.2 3.4 8.7 10.2 22.3 15.3 13.5 5.1 25.5 6.5 26.8 3.1.7-1.9-2.4-5.1-7.9-8.4q.1-1 0-2c9 4.8 14.5 9.7 13.4 12.5-1.5 4.1-16.2 2.4-32.8-3.9z"/></g><path id="&lt;Path&gt;" class="s83" d="M699.9 80.9c-4.6 1.8-15.1.1-22.5-2.4-7.4-2.6-26.3-9.4-28.8-16.3s9.3-3.2 10-4.1c.5-.7-5.7-1.3-9.3-1.7 3.5-.2 8.6.5 14.4 2q-.7.6-1.2 1.4c-7.1-1.4-12.2-1.2-13 .9-1.2 3.4 8.7 10.2 22.3 15.3 13.5 5.1 25.5 6.5 26.8 3.1.7-1.9-2.4-5.1-7.9-8.4q.1-1 0-2l2.6 1.4q-.3.2-.5.4c-1.2 1.8 11.8 8.6 7.1 10.4z"/><g id="&lt;Group&gt;" style="mix-blend-mode:screen"><g id="&lt;Group&gt;"><g id="&lt;Group&gt;" style="mix-blend-mode:multiply" opacity=".5"><path id="&lt;Path&gt;" class="s9" d="M647.9 62.7c0 .1-.2-.1-.5-.4-.3-.3-.8-.7-1.2-1.1-.4-.5-.7-1.2-.7-1.8.1-.3.2-.5.2-.7l.2-.2.2-.2q.1-.2.5-.4c.5-.2 1.1-.4 1.7-.4 1.1-.2 2.3-.2 2.3 0 .1.1-1.1.3-2.2.7-.5.1-1 .3-1.3.5-.3.2-.4.4-.4.4s-.2.1-.2.4c-.1.3 0 .8.3 1.2.3.5.7.9.9 1.3.2.4.3.7.2.7z"/></g><g id="&lt;Group&gt;" style="mix-blend-mode:multiply" opacity=".5"><path id="&lt;Path&gt;" class="s9" d="M695.6 83c0-.2 1.9-.2 3.8-.6.9-.1 1.8-.3 2.3-.6q.4-.3.6-.5l.2-.2.1-.2c.1-.1.2-.3.2-.6q.1-.4-.2-.9c-.1-.4-.4-.8-.6-1.1-.5-.8-1.2-1.4-1.8-1.9-.5-.4-.9-.7-.9-.7.1-.1.5 0 1.2.4.6.3 1.4 1 2 1.7q.5.6.9 1.2c.2.4.4.9.4 1.4 0 .5-.2.8-.3 1l-.2.4-.3.3c-.2.1-.5.3-.8.5-.8.4-1.8.5-2.7.5-2 .2-3.9 0-3.9-.1z"/></g></g></g></g></g></svg>