<svg version="1.2" xmlns="http://www.w3.org/2000/svg" width="979" height="329"><defs><radialGradient id="a" cx="483.1" cy="-2.2" r="505.6" gradientUnits="userSpaceOnUse"><stop offset="0" stop-color="#513393" stop-opacity="0"/><stop offset="1" stop-color="#0e1124"/></radialGradient><radialGradient id="b" cx="483.9" cy="19.3" r="440.3" gradientUnits="userSpaceOnUse"><stop offset="0" stop-color="#513393" stop-opacity="0"/><stop offset="1" stop-color="#0e1124"/></radialGradient><radialGradient id="c" cx="472.7" cy="1.6" r="391.5" gradientUnits="userSpaceOnUse"><stop offset="0" stop-color="#513393"/><stop offset="1" stop-color="#0e1124"/></radialGradient><radialGradient id="d" cx="483.6" cy="31.7" r="215.7" gradientUnits="userSpaceOnUse"><stop offset="0" stop-color="#513393"/><stop offset="1" stop-color="#0e1124"/></radialGradient><radialGradient id="e" cx="503.4" cy="113.8" r="44.3" gradientUnits="userSpaceOnUse"><stop offset="0" stop-color="#513393"/><stop offset="1" stop-color="#0e1124"/></radialGradient><radialGradient id="f" cx="517.1" cy="113.2" r="44.3" gradientUnits="userSpaceOnUse"><stop offset="0" stop-color="#513393"/><stop offset="1" stop-color="#0e1124"/></radialGradient><radialGradient id="g" cx="572.5" cy="21.5" r="174.1" gradientUnits="userSpaceOnUse"><stop offset="0" stop-color="#513393"/><stop offset="1" stop-color="#0e1124"/></radialGradient><radialGradient id="h" cx="572.5" cy="15.7" r="174" gradientUnits="userSpaceOnUse"><stop offset="0" stop-color="#513393"/><stop offset="1" stop-color="#0e1124"/></radialGradient><radialGradient id="i" cx="572.5" cy="16.4" r="177.8" gradientUnits="userSpaceOnUse"><stop offset="0" stop-color="#513393"/><stop offset="1" stop-color="#0e1124"/></radialGradient><radialGradient id="j" cx="572.5" cy="12.9" r="180.7" gradientUnits="userSpaceOnUse"><stop offset="0" stop-color="#513393"/><stop offset="1" stop-color="#0e1124"/></radialGradient><radialGradient id="k" cx="572.5" cy="3.9" r="193.6" gradientUnits="userSpaceOnUse"><stop offset="0" stop-color="#513393"/><stop offset="1" stop-color="#0e1124"/></radialGradient><radialGradient id="l" cx="572.5" cy="12.3" r="183.2" gradientUnits="userSpaceOnUse"><stop offset="0" stop-color="#513393"/><stop offset="1" stop-color="#0e1124"/></radialGradient><radialGradient id="m" cx="307.5" cy="109.7" r="54.7" gradientUnits="userSpaceOnUse"><stop offset="0" stop-color="#513393"/><stop offset="1" stop-color="#0e1124"/></radialGradient><radialGradient id="n" cx="606.8" cy="45.3" r="55.3" gradientUnits="userSpaceOnUse"><stop offset="0" stop-color="#513393"/><stop offset="1" stop-color="#0e1124"/></radialGradient><radialGradient id="o" cx="785.3" cy="112.6" r="56.4" gradientUnits="userSpaceOnUse"><stop offset="0" stop-color="#513393"/><stop offset="1" stop-color="#0e1124"/></radialGradient><radialGradient id="p" cx="628.5" cy="67.9" r="23.5" gradientUnits="userSpaceOnUse"><stop offset="0" stop-color="#513393"/><stop offset="1" stop-color="#0e1124"/></radialGradient><radialGradient id="q" cx="661.2" cy="115.4" r="23.5" gradientUnits="userSpaceOnUse"><stop offset="0" stop-color="#513393"/><stop offset="1" stop-color="#0e1124"/></radialGradient><radialGradient id="r" cx="693.1" cy="83.9" r="23.5" gradientUnits="userSpaceOnUse"><stop offset="0" stop-color="#513393"/><stop offset="1" stop-color="#0e1124"/></radialGradient><radialGradient id="s" cx="723.1" cy="132.5" r="24.4" gradientUnits="userSpaceOnUse"><stop offset="0" stop-color="#513393"/><stop offset="1" stop-color="#0e1124"/></radialGradient><radialGradient id="t" cx="714.3" cy="86.6" r="37.7" gradientUnits="userSpaceOnUse"><stop offset="0" stop-color="#513393"/><stop offset="1" stop-color="#0e1124"/></radialGradient><radialGradient id="u" cx="613.7" cy="101.5" r="37.5" gradientUnits="userSpaceOnUse"><stop offset="0" stop-color="#513393"/><stop offset="1" stop-color="#0e1124"/></radialGradient><radialGradient id="v" cx="389.1" cy="79.2" r="33.1" gradientUnits="userSpaceOnUse"><stop offset="0" stop-color="#513393"/><stop offset="1" stop-color="#0e1124"/></radialGradient><radialGradient id="w" cx="384.2" cy="116.6" r="33.1" gradientUnits="userSpaceOnUse"><stop offset="0" stop-color="#513393"/><stop offset="1" stop-color="#0e1124"/></radialGradient><radialGradient id="x" cx="398" cy="114" r="20.6" gradientUnits="userSpaceOnUse"><stop offset="0" stop-color="#513393"/><stop offset="1" stop-color="#0e1124"/></radialGradient><radialGradient id="y" cx="368.8" cy="64.6" r="20.6" gradientUnits="userSpaceOnUse"><stop offset="0" stop-color="#513393"/><stop offset="1" stop-color="#0e1124"/></radialGradient><radialGradient id="z" cx="331.2" cy="114" r="20.6" gradientUnits="userSpaceOnUse"><stop offset="0" stop-color="#513393"/><stop offset="1" stop-color="#0e1124"/></radialGradient><radialGradient id="A" cx="422.2" cy="63.7" r="54.7" gradientUnits="userSpaceOnUse"><stop offset="0" stop-color="#513393"/><stop offset="1" stop-color="#0e1124"/></radialGradient><radialGradient id="B" cx="445.9" cy="68" r="20.6" gradientUnits="userSpaceOnUse"><stop offset="0" stop-color="#513393"/><stop offset="1" stop-color="#0e1124"/></radialGradient><radialGradient id="C" cx="333.3" cy="74.2" r="20.6" gradientUnits="userSpaceOnUse"><stop offset="0" stop-color="#513393"/><stop offset="1" stop-color="#0e1124"/></radialGradient></defs><path d="M978.5 328.3H.1v-86.9C85.4 99.4 276.7.4 499.1.4c206.7 0 386.7 85.5 479.4 211.7z" style="mix-blend-mode:screen" fill="url(#a)"/><path d="M915.3 307.1H63.4v-75.7C137.6 107.8 304.2 21.6 497.8 21.6c180.1 0 336.7 74.5 417.5 184.3z" style="mix-blend-mode:screen" fill="url(#b)"/><path d="M868.1 292.3H110.6v-63.1c66-103 214.1-174.8 386.3-174.8 160.1 0 299.3 62 371.2 153.5z" style="mix-blend-mode:screen" fill="url(#c)"/><path d="M235.9 117.3c71.8-39.4 162.5-62.9 261-62.9 95.1 0 182.8 21.9 253.5 58.8 12.1 17.5 13.2 35.5-9.9 48.3-58.3 32.4-147.3-11.1-273.9.5-126.7 11.7-237.7 6.9-234.2-31.3.5-4.6 1.7-9.1 3.5-13.4z" style="mix-blend-mode:screen" fill="url(#d)"/><path fill-rule="evenodd" d="M667.8 111.2c-1.1 8.4-18.3 12.6-38.4 9.4-20-3.2-35.3-12.7-34.1-21.1 1.1-8.4 18.3-12.6 38.3-9.4 20.1 3.2 35.4 12.6 34.2 21.1zM337.3 100c2.9 8-10.2 20.8-29.1 28.6-18.9 7.8-36.5 7.7-39.4-.3-2.8-7.9 10.3-20.7 29.2-28.5 18.9-7.8 36.5-7.7 39.3.2zm52.8 14.4c1.9 5.7-7.6 14.6-21.3 19.9-13.6 5.2-26.2 4.8-28.1-.9-1.9-5.7 7.6-14.6 21.3-19.9 13.6-5.2 26.2-4.8 28.1.9zm23.4-41.1c1.3 4.3-6.1 10.7-16.4 14.2-10.3 3.4-19.6 2.8-20.9-1.6-1.3-4.3 6.1-10.6 16.4-14.1 10.3-3.5 19.6-2.9 20.9 1.5zM738 137.4c-1.7 4.1-11.1 3.7-21-1-9.9-4.8-16.5-12-14.8-16.1 1.7-4.2 11.1-3.7 21 1s16.5 11.9 14.8 16.1zm-40.7 13.8c-.5 5.1-10.8 8-23 6.5s-21.6-6.9-21.1-12c.6-5.1 10.9-8.1 23.1-6.5 12.2 1.5 21.6 6.9 21 12z" style="mix-blend-mode:screen" fill="url(#e)"/><path fill-rule="evenodd" d="M314 128c-8.6 3.6-17 5.5-23.9 5.8 5.6-.9 11.8-2.6 18.1-5.2 18.9-7.8 32-20.6 29.1-28.6-1.5-4.3-7.4-6.3-15.5-6 11-1.7 19.5.2 21.3 5.5 2.9 7.9-10.2 20.7-29.1 28.5zm81.9-14.2c1.9 5.8-7.6 14.7-21.3 19.9-6.1 2.4-12.1 3.6-17 3.7 3.5-.6 7.3-1.6 11.2-3.1 13.7-5.3 23.2-14.2 21.3-19.9-1.1-3.1-5.3-4.7-11.1-4.6 8.7-1.4 15.5-.1 16.9 4zm221.2-24.7c6.4-1 14.1-.9 22.4.4 20 3.2 35.3 12.7 34.1 21.1-.8 5.9-9.6 9.8-21.8 10.4 9.1-1.4 15.3-4.9 16-9.8 1.2-8.5-14.1-17.9-34.2-21.1-5.8-1-11.4-1.3-16.5-1zm126.7 47.7c-.9 2.2-4 3.1-8.3 2.8 1.2-.5 2.1-1.2 2.5-2.2 1.7-4.2-4.9-11.4-14.8-16.1-4.6-2.2-9.1-3.4-12.7-3.8 3.7-1.5 11-.3 18.5 3.2 9.9 4.8 16.5 12 14.8 16.1zm-40.7 13.8c-.4 4-6.9 6.7-15.5 6.9 5.6-1 9.4-3.3 9.7-6.3.6-5.1-8.8-10.5-21-12-2.6-.4-5.2-.5-7.5-.4 3.8-.7 8.4-.8 13.3-.2 12.2 1.5 21.6 6.9 21 12zM419.3 72.7c1.3 4.3-6 10.7-16.3 14.2-4.5 1.5-8.7 2.2-12.3 2.2q3.1-.5 6.4-1.6c10.3-3.5 17.7-9.9 16.4-14.2-.7-2.5-4.1-3.8-8.7-3.8 7.5-1.3 13.5-.2 14.5 3.2z" style="mix-blend-mode:screen" fill="url(#f)"/><path d="M674.3 157.7c-5.8-.7-10.9-2.3-14.7-4.3 4.2-2 11.1-2.8 18.7-1.8 5.8.7 10.9 2.3 14.7 4.3-4.2 2-11.1 2.8-18.7 1.8z" opacity=".5" fill="url(#g)"/><path d="M629.4 120.6c-13.3-2.1-24.5-7-30.2-12.5 5.2-5.8 19.8-8.3 36.5-5.6 13.3 2.1 24.5 7 30.2 12.5-5.2 5.8-19.8 8.3-36.5 5.6z" opacity=".5" fill="url(#h)"/><path d="M725.2 133.7c3.7 1.8 7 3.9 9.5 6.1-3.9 1.1-10.7-.1-17.7-3.4-3.7-1.8-6.9-3.9-9.5-6.1 4-1.1 10.7.1 17.7 3.4z" opacity=".5" fill="url(#i)"/><path d="M300 112.2c14.9-6.2 29-7.4 35.7-3.7-4.1 6.9-14.4 14.7-27.5 20.1-14.9 6.1-29 7.4-35.7 3.7 4.1-6.9 14.4-14.7 27.5-20.1z" opacity=".5" fill="url(#j)"/><path d="M408 82c-2.9 2.1-6.6 4-10.9 5.5-4.9 1.6-9.6 2.3-13.3 2.2 2.8-2.1 6.5-4.1 10.8-5.5 4.9-1.7 9.7-2.4 13.4-2.2z" opacity=".5" fill="url(#k)"/><path d="M364 126c9-3.5 17.6-4.5 22.9-3.1-3.8 4.1-10.2 8.4-18.1 11.4-9 3.5-17.5 4.4-22.8 3.1 3.7-4.2 10.1-8.4 18-11.4z" opacity=".5" fill="url(#l)"/><path d="M326.2 137.4c.9 3.1-4.5 7.8-12.1 10.4-7.7 2.6-14.6 2.1-15.5-1.1-1-3.1 4.5-7.8 12.1-10.4 7.6-2.6 14.6-2.1 15.5 1.1z" opacity=".3" fill="url(#m)"/><path d="M611.7 78.7c-.5 3.3-7.2 5-15.1 3.8-8-1.2-14.1-4.8-13.6-8.1.4-3.3 7.2-5 15.1-3.8 7.9 1.2 14 4.8 13.6 8.1z" opacity=".3" fill="url(#n)"/><path d="M777.7 145.4c-1.6 2.9-8.4 1.5-15.3-3-6.8-4.5-11-10.4-9.4-13.3 1.6-2.8 8.4-1.4 15.2 3 6.9 4.5 11.1 10.5 9.5 13.3z" opacity=".3" fill="url(#o)"/><path d="M630.5 82.1c-.1 1.4-3 2.2-6.4 1.7-3.3-.5-5.9-2.1-5.7-3.5.1-1.4 3-2.1 6.4-1.6 3.3.5 5.9 2 5.7 3.4z" opacity=".3" fill="url(#p)"/><path d="M663.3 129.6c-.2 1.4-3.1 2.1-6.4 1.6-3.4-.5-6-2-5.8-3.4.2-1.4 3.1-2.2 6.4-1.7 3.4.5 6 2.1 5.8 3.5z" opacity=".3" fill="url(#q)"/><path d="M695.1 98.1c-.1 1.4-3 2.1-6.4 1.6-3.3-.5-5.9-2-5.7-3.4.1-1.4 3-2.1 6.4-1.6 3.3.5 5.9 2 5.7 3.4z" opacity=".3" fill="url(#r)"/><path d="M721.9 147.2c-.4 1.3-3.4 1.2-6.6-.1-3.1-1.4-5.3-3.5-4.8-4.8.5-1.3 3.4-1.3 6.6.1 3.2 1.3 5.3 3.5 4.8 4.8z" opacity=".3" fill="url(#s)"/><path d="M714.9 109.5c-.5 2.2-5.2 2.7-10.5 1.2-5.3-1.5-9.1-4.6-8.5-6.7.5-2.2 5.2-2.7 10.5-1.2 5.2 1.5 9.1 4.5 8.5 6.7z" opacity=".3" fill="url(#t)"/><path d="M616.6 124.2c-.4 2.3-5 3.3-10.4 2.4-5.4-.9-9.5-3.5-9.1-5.7.3-2.3 4.9-3.3 10.3-2.4 5.4.9 9.5 3.5 9.2 5.7z" opacity=".3" fill="url(#u)"/><path d="M399.7 96.5c.4 2-3 4.7-7.8 6-4.7 1.3-9 .8-9.4-1.2-.5-2 3-4.7 7.7-6 4.8-1.3 9-.8 9.5 1.2z" opacity=".3" fill="url(#v)"/><path d="M394.8 134c.4 2-3 4.6-7.8 5.9-4.7 1.4-9 .8-9.5-1.1-.4-2 3.1-4.7 7.8-6 4.8-1.3 9-.8 9.5 1.2z" opacity=".3" fill="url(#w)"/><path d="M404.5 124.8c.3 1.3-1.8 2.9-4.8 3.7-2.9.9-5.6.5-5.9-.7-.3-1.2 1.9-2.9 4.9-3.7 2.9-.8 5.6-.5 5.8.7z" opacity=".3" fill="url(#x)"/><path d="M375.3 75.4c.3 1.3-1.8 2.9-4.8 3.8-3 .8-5.6.4-5.9-.8-.3-1.2 1.9-2.9 4.8-3.7 3-.8 5.6-.5 5.9.7z" opacity=".3" fill="url(#y)"/><path d="M337.8 124.8c.3 1.3-1.8 2.9-4.8 3.7-3 .9-5.6.5-5.9-.7-.3-1.2 1.9-2.9 4.8-3.7 3-.8 5.6-.5 5.9.7z" opacity=".3" fill="url(#z)"/><path d="M440.9 91.4c.9 3.1-4.5 7.8-12.2 10.4-7.6 2.6-14.5 2.1-15.4-1.1-1-3.1 4.5-7.8 12.1-10.4 7.6-2.6 14.6-2.1 15.5 1.1z" opacity=".3" fill="url(#A)"/><path d="M452.5 78.8c.3 1.3-1.8 2.9-4.8 3.7-3 .9-5.6.5-5.9-.7-.3-1.2 1.9-2.9 4.8-3.7 3-.8 5.6-.5 5.9.7z" opacity=".3" fill="url(#B)"/><path d="M339.9 85.1c.3 1.2-1.9 2.8-4.8 3.7-3 .8-5.6.5-5.9-.8-.3-1.2 1.8-2.9 4.8-3.7 3-.8 5.6-.5 5.9.8z" opacity=".3" fill="url(#C)"/></svg>