<svg version="1.2" xmlns="http://www.w3.org/2000/svg" width="268" height="285"><defs><radialGradient id="a" cx="146.1" cy="3.2" r="272.5" gradientUnits="userSpaceOnUse"><stop offset="0" stop-color="#ec1876"/><stop offset=".9" stop-color="#7b499e"/></radialGradient><radialGradient id="b" cx="132.2" cy="113" r=".3" gradientUnits="userSpaceOnUse"><stop offset="0" stop-color="#ec1876"/><stop offset=".9" stop-color="#7b499e"/></radialGradient><radialGradient id="c" cx="132.3" cy="113.5" r=".3" gradientUnits="userSpaceOnUse"><stop offset="0" stop-color="#ec1876"/><stop offset=".9" stop-color="#7b499e"/></radialGradient><radialGradient id="d" cx="132" cy="112.2" r=".5" gradientUnits="userSpaceOnUse"><stop offset="0" stop-color="#ec1876"/><stop offset=".9" stop-color="#7b499e"/></radialGradient><radialGradient id="e" cx="127.7" cy="83.4" r=".9" gradientUnits="userSpaceOnUse"><stop offset="0" stop-color="#ec1876"/><stop offset=".9" stop-color="#7b499e"/></radialGradient><radialGradient id="f" cx="131.8" cy="111.5" r=".6" gradientUnits="userSpaceOnUse"><stop offset="0" stop-color="#ec1876"/><stop offset=".9" stop-color="#7b499e"/></radialGradient><radialGradient id="g" cx="132.5" cy="113.9" r=".3" gradientUnits="userSpaceOnUse"><stop offset="0" stop-color="#ec1876"/><stop offset=".9" stop-color="#7b499e"/></radialGradient><radialGradient id="h" cx="131.3" cy="109.8" r=".6" gradientUnits="userSpaceOnUse"><stop offset="0" stop-color="#ec1876"/><stop offset=".9" stop-color="#7b499e"/></radialGradient><radialGradient id="i" cx="129.6" cy="102.6" r=".9" gradientUnits="userSpaceOnUse"><stop offset="0" stop-color="#ec1876"/><stop offset=".9" stop-color="#7b499e"/></radialGradient><radialGradient id="j" cx="130.2" cy="105.2" r=".9" gradientUnits="userSpaceOnUse"><stop offset="0" stop-color="#ec1876"/><stop offset=".9" stop-color="#7b499e"/></radialGradient><radialGradient id="k" cx="131.5" cy="110.7" r=".5" gradientUnits="userSpaceOnUse"><stop offset="0" stop-color="#ec1876"/><stop offset=".9" stop-color="#7b499e"/></radialGradient><radialGradient id="l" cx="129.9" cy="103.8" r="1.1" gradientUnits="userSpaceOnUse"><stop offset="0" stop-color="#ec1876"/><stop offset=".9" stop-color="#7b499e"/></radialGradient><radialGradient id="m" cx="124.6" cy="112.1" r="7.7" gradientUnits="userSpaceOnUse"><stop offset="0" stop-color="#ec1876"/><stop offset=".9" stop-color="#7b499e"/></radialGradient><radialGradient id="n" cx="131" cy="108.7" r=".8" gradientUnits="userSpaceOnUse"><stop offset="0" stop-color="#ec1876"/><stop offset=".9" stop-color="#7b499e"/></radialGradient><radialGradient id="o" cx="130.7" cy="107.7" r=".8" gradientUnits="userSpaceOnUse"><stop offset="0" stop-color="#ec1876"/><stop offset=".9" stop-color="#7b499e"/></radialGradient><radialGradient id="p" cx="130.5" cy="106.6" r=".7" gradientUnits="userSpaceOnUse"><stop offset="0" stop-color="#ec1876"/><stop offset=".9" stop-color="#7b499e"/></radialGradient><radialGradient id="q" cx="74.6" cy="175.8" r=".6" gradientUnits="userSpaceOnUse"><stop offset="0" stop-color="#ec1876"/><stop offset=".9" stop-color="#7b499e"/></radialGradient><radialGradient id="r" cx="75.5" cy="176.1" r=".3" gradientUnits="userSpaceOnUse"><stop offset="0" stop-color="#ec1876"/><stop offset=".9" stop-color="#7b499e"/></radialGradient><radialGradient id="s" cx="73.2" cy="175.5" r=".8" gradientUnits="userSpaceOnUse"><stop offset="0" stop-color="#ec1876"/><stop offset=".9" stop-color="#7b499e"/></radialGradient><radialGradient id="t" cx="5" cy="201.7" r="1.4" gradientUnits="userSpaceOnUse"><stop offset="0" stop-color="#ec1876"/><stop offset=".9" stop-color="#7b499e"/></radialGradient><radialGradient id="u" cx="40.9" cy="174.1" r="42" gradientUnits="userSpaceOnUse"><stop offset="0" stop-color="#ec1876"/><stop offset=".9" stop-color="#7b499e"/></radialGradient><radialGradient id="v" cx="3.8" cy="203.7" r="1.1" gradientUnits="userSpaceOnUse"><stop offset="0" stop-color="#ec1876"/><stop offset=".9" stop-color="#7b499e"/></radialGradient><radialGradient id="w" cx="71.2" cy="175.1" r="1" gradientUnits="userSpaceOnUse"><stop offset="0" stop-color="#ec1876"/><stop offset=".9" stop-color="#7b499e"/></radialGradient><radialGradient id="x" cx="132.7" cy="114.7" r="0" gradientUnits="userSpaceOnUse"><stop offset="0" stop-color="#ec1876"/><stop offset=".9" stop-color="#7b499e"/></radialGradient><radialGradient id="y" cx="75.8" cy="175.9" r=".2" gradientUnits="userSpaceOnUse"><stop offset="0" stop-color="#ec1876"/><stop offset=".9" stop-color="#7b499e"/></radialGradient><radialGradient id="z" cx="75.4" cy="174.9" r=".8" gradientUnits="userSpaceOnUse"><stop offset="0" stop-color="#ec1876"/><stop offset=".9" stop-color="#7b499e"/></radialGradient><radialGradient id="A" cx="101.5" cy="112" r="62.1" gradientUnits="userSpaceOnUse"><stop offset="0" stop-color="#ec1876"/><stop offset=".9" stop-color="#7b499e"/></radialGradient><radialGradient id="B" cx="66" cy="174.5" r="1.4" gradientUnits="userSpaceOnUse"><stop offset="0" stop-color="#ec1876"/><stop offset=".9" stop-color="#7b499e"/></radialGradient><radialGradient id="C" cx="68.8" cy="174.8" r="1.2" gradientUnits="userSpaceOnUse"><stop offset="0" stop-color="#ec1876"/><stop offset=".9" stop-color="#7b499e"/></radialGradient><radialGradient id="D" cx="60.2" cy="174.2" r=".8" gradientUnits="userSpaceOnUse"><stop offset="0" stop-color="#ec1876"/><stop offset=".9" stop-color="#7b499e"/></radialGradient><radialGradient id="E" cx="62.8" cy="174.3" r="1.5" gradientUnits="userSpaceOnUse"><stop offset="0" stop-color="#ec1876"/><stop offset=".9" stop-color="#7b499e"/></radialGradient><radialGradient id="F" cx="127.8" cy="87" r="1.6" gradientUnits="userSpaceOnUse"><stop offset="0" stop-color="#ec1876"/><stop offset=".9" stop-color="#7b499e"/></radialGradient><radialGradient id="G" cx="207" cy="1.2" r=".5" gradientUnits="userSpaceOnUse"><stop offset="0" stop-color="#ec1876"/><stop offset=".9" stop-color="#7b499e"/></radialGradient><radialGradient id="H" cx="205.8" cy="1.3" r=".5" gradientUnits="userSpaceOnUse"><stop offset="0" stop-color="#ec1876"/><stop offset=".9" stop-color="#7b499e"/></radialGradient><radialGradient id="I" cx="210" cy="1" r="2.2" gradientUnits="userSpaceOnUse"><stop offset="0" stop-color="#ec1876"/><stop offset=".9" stop-color="#7b499e"/></radialGradient><radialGradient id="J" cx="212.8" cy="1" r=".3" gradientUnits="userSpaceOnUse"><stop offset="0" stop-color="#ec1876"/><stop offset=".9" stop-color="#7b499e"/></radialGradient><radialGradient id="K" cx="129.3" cy="101.1" r=".9" gradientUnits="userSpaceOnUse"><stop offset="0" stop-color="#ec1876"/><stop offset=".9" stop-color="#7b499e"/></radialGradient><radialGradient id="L" cx="198.1" cy="2.3" r=".6" gradientUnits="userSpaceOnUse"><stop offset="0" stop-color="#ec1876"/><stop offset=".9" stop-color="#7b499e"/></radialGradient><radialGradient id="M" cx="204.6" cy="1.4" r=".5" gradientUnits="userSpaceOnUse"><stop offset="0" stop-color="#ec1876"/><stop offset=".9" stop-color="#7b499e"/></radialGradient><radialGradient id="N" cx="201.4" cy="1.5" r="2.4" gradientUnits="userSpaceOnUse"><stop offset="0" stop-color="#ec1876"/><stop offset=".9" stop-color="#7b499e"/></radialGradient><radialGradient id="O" cx="217.8" cy="1.1" r=".1" gradientUnits="userSpaceOnUse"><stop offset="0" stop-color="#ec1876"/><stop offset=".9" stop-color="#7b499e"/></radialGradient><radialGradient id="P" cx="196.7" cy="2.6" r=".6" gradientUnits="userSpaceOnUse"><stop offset="0" stop-color="#ec1876"/><stop offset=".9" stop-color="#7b499e"/></radialGradient><radialGradient id="Q" cx="218" cy="1.1" r=".1" gradientUnits="userSpaceOnUse"><stop offset="0" stop-color="#ec1876"/><stop offset=".9" stop-color="#7b499e"/></radialGradient><radialGradient id="R" cx="217.5" cy="1.1" r=".1" gradientUnits="userSpaceOnUse"><stop offset="0" stop-color="#ec1876"/><stop offset=".9" stop-color="#7b499e"/></radialGradient><radialGradient id="S" cx="214.3" cy="1" r=".3" gradientUnits="userSpaceOnUse"><stop offset="0" stop-color="#ec1876"/><stop offset=".9" stop-color="#7b499e"/></radialGradient><radialGradient id="T" cx="218.1" cy="1.1" r="0" gradientUnits="userSpaceOnUse"><stop offset="0" stop-color="#ec1876"/><stop offset=".9" stop-color="#7b499e"/></radialGradient><radialGradient id="U" cx="215" cy="1" r=".3" gradientUnits="userSpaceOnUse"><stop offset="0" stop-color="#ec1876"/><stop offset=".9" stop-color="#7b499e"/></radialGradient><radialGradient id="V" cx="217.1" cy="1.1" r=".1" gradientUnits="userSpaceOnUse"><stop offset="0" stop-color="#ec1876"/><stop offset=".9" stop-color="#7b499e"/></radialGradient><radialGradient id="W" cx="216.1" cy="1" r=".7" gradientUnits="userSpaceOnUse"><stop offset="0" stop-color="#ec1876"/><stop offset=".9" stop-color="#7b499e"/></radialGradient><radialGradient id="X" cx="213.6" cy="1" r=".2" gradientUnits="userSpaceOnUse"><stop offset="0" stop-color="#ec1876"/><stop offset=".9" stop-color="#7b499e"/></radialGradient><radialGradient id="Y" cx="128.2" cy="92.7" r="1.4" gradientUnits="userSpaceOnUse"><stop offset="0" stop-color="#ec1876"/><stop offset=".9" stop-color="#7b499e"/></radialGradient><radialGradient id="Z" cx="128.4" cy="94.6" r="1.2" gradientUnits="userSpaceOnUse"><stop offset="0" stop-color="#ec1876"/><stop offset=".9" stop-color="#7b499e"/></radialGradient><radialGradient id="aa" cx="128" cy="91.1" r="1.1" gradientUnits="userSpaceOnUse"><stop offset="0" stop-color="#ec1876"/><stop offset=".9" stop-color="#7b499e"/></radialGradient><radialGradient id="ab" cx="127.9" cy="89.3" r="1.1" gradientUnits="userSpaceOnUse"><stop offset="0" stop-color="#ec1876"/><stop offset=".9" stop-color="#7b499e"/></radialGradient><radialGradient id="ac" cx="127.8" cy="85.3" r="1.5" gradientUnits="userSpaceOnUse"><stop offset="0" stop-color="#ec1876"/><stop offset=".9" stop-color="#7b499e"/></radialGradient><radialGradient id="ad" cx="195.2" cy="2.9" r=".6" gradientUnits="userSpaceOnUse"><stop offset="0" stop-color="#ec1876"/><stop offset=".9" stop-color="#7b499e"/></radialGradient><radialGradient id="ae" cx="128.8" cy="97.9" r="1.2" gradientUnits="userSpaceOnUse"><stop offset="0" stop-color="#ec1876"/><stop offset=".9" stop-color="#7b499e"/></radialGradient><radialGradient id="af" cx="128.6" cy="96.4" r="1" gradientUnits="userSpaceOnUse"><stop offset="0" stop-color="#ec1876"/><stop offset=".9" stop-color="#7b499e"/></radialGradient><radialGradient id="ag" cx="129.1" cy="99.4" r="1.3" gradientUnits="userSpaceOnUse"><stop offset="0" stop-color="#ec1876"/><stop offset=".9" stop-color="#7b499e"/></radialGradient><radialGradient id="ah" cx="127.8" cy="81.4" r="1.3" gradientUnits="userSpaceOnUse"><stop offset="0" stop-color="#ec1876"/><stop offset=".9" stop-color="#7b499e"/></radialGradient><radialGradient id="ai" cx="193.8" cy="3.2" r=".6" gradientUnits="userSpaceOnUse"><stop offset="0" stop-color="#ec1876"/><stop offset=".9" stop-color="#7b499e"/></radialGradient><radialGradient id="aj" cx="128.3" cy="72.6" r="1.7" gradientUnits="userSpaceOnUse"><stop offset="0" stop-color="#ec1876"/><stop offset=".9" stop-color="#7b499e"/></radialGradient><radialGradient id="ak" cx="161.1" cy="2.8" r="90" gradientUnits="userSpaceOnUse"><stop offset="0" stop-color="#ec1876"/><stop offset=".9" stop-color="#7b499e"/></radialGradient><radialGradient id="al" cx="127.8" cy="79.1" r="1.7" gradientUnits="userSpaceOnUse"><stop offset="0" stop-color="#ec1876"/><stop offset=".9" stop-color="#7b499e"/></radialGradient><radialGradient id="am" cx="128.1" cy="75.1" r="1.2" gradientUnits="userSpaceOnUse"><stop offset="0" stop-color="#ec1876"/><stop offset=".9" stop-color="#7b499e"/></radialGradient><radialGradient id="an" cx="127.9" cy="77.2" r="1.3" gradientUnits="userSpaceOnUse"><stop offset="0" stop-color="#ec1876"/><stop offset=".9" stop-color="#7b499e"/></radialGradient></defs><path d="M267.5 221.7L230 284.2S-21.8 251.4 2.4 206.8c24.3-44.6 73.5-30.5 73.5-30.5s-14.1-25.8 3.9-49.3c18-23.4 52.9-12.2 52.9-12.2S115 68.4 146.3 32.4c31.3-35.9 71.9-31.2 71.9-31.2z" style="mix-blend-mode:screen" fill="url(#a)"/><path d="M132.1 113q.1.2.1.4 0-.2-.1-.4z" style="mix-blend-mode:screen" fill="url(#b)"/><path d="M132.3 113.5q.1.2.1.3 0-.1-.1-.3z" style="mix-blend-mode:screen" fill="url(#c)"/><path d="M131.9 112.2l.2.6-.2-.6z" style="mix-blend-mode:screen" fill="url(#d)"/><path d="M127.7 84.8v-1.4 1.4z" style="mix-blend-mode:screen" fill="url(#e)"/><path d="M131.7 111.5q.1.4.2.7-.1-.3-.2-.7z" style="mix-blend-mode:screen" fill="url(#f)"/><path d="M132.4 113.9l.2.4-.2-.4z" style="mix-blend-mode:screen" fill="url(#g)"/><path d="M131.2 109.8q.1.4.2.7-.1-.3-.2-.7z" style="mix-blend-mode:screen" fill="url(#h)"/><path d="M129.5 102.6q.1.5.2.9-.1-.4-.2-.9z" style="mix-blend-mode:screen" fill="url(#i)"/><path d="M130.1 105.2l.2 1-.2-1z" style="mix-blend-mode:screen" fill="url(#j)"/><path d="M131.4 110.7l.2.6-.2-.6z" style="mix-blend-mode:screen" fill="url(#k)"/><path d="M129.8 103.9l.2 1.2-.2-1.2z" style="mix-blend-mode:screen" fill="url(#l)"/><path d="M132.7 114.8s-7-2.3-16.4-2.6c9.4.3 16.4 2.6 16.4 2.6z" style="mix-blend-mode:screen" fill="url(#m)"/><path d="M130.9 108.7q.1.4.2.9-.1-.5-.2-.9z" style="mix-blend-mode:screen" fill="url(#n)"/><path d="M130.6 107.7l.2.8-.2-.8z" style="mix-blend-mode:screen" fill="url(#o)"/><path d="M130.4 106.6q.1.4.1.7 0-.3-.1-.7z" style="mix-blend-mode:screen" fill="url(#p)"/><path d="M74.1 175.8q.6.2 1.1.3-.5-.1-1.1-.3z" style="mix-blend-mode:screen" fill="url(#q)"/><path d="M75.3 176.1q.4.1.5.2-.1-.1-.5-.2z" style="mix-blend-mode:screen" fill="url(#r)"/><path d="M72.3 175.5q1 .2 1.7.3-.7-.1-1.7-.3z" style="mix-blend-mode:screen" fill="url(#s)"/><path d="M5.5 201.7q-.5.7-1 1.5.5-.8 1-1.5z" style="mix-blend-mode:screen" fill="url(#t)"/><path d="M76.4 205.9c-18.1 11.7-46.2 4.3-69.8-5.9q-.5.7-1 1.5c15.3-23.3 38.2-27.5 53.7-27.3 19.5 7.3 37.4 18.6 17.1 31.7z" style="mix-blend-mode:screen" fill="url(#u)"/><path d="M4.2 203.7q-.4.6-.7 1.2.3-.6.7-1.2z" style="mix-blend-mode:screen" fill="url(#v)"/><path d="M70.1 175.1q1.2.2 2.2.4-1-.2-2.2-.4z" style="mix-blend-mode:screen" fill="url(#w)"/><path d="M132.7 114.8v-.1.1z" style="mix-blend-mode:screen" fill="url(#x)"/><path d="M75.7 175.9q.1.1.1.2 0-.1-.1-.2z" style="mix-blend-mode:screen" fill="url(#y)"/><path d="M75.2 174.9q.3.5.4.9-.1-.4-.4-.9z" style="mix-blend-mode:screen" fill="url(#z)"/><path d="M119.9 153.1c-27.1 14.5-41.5 8.4-49.2-.8-.4 10.6 3 19.2 4.5 22.6-2.6-5.8-10.9-27.7 4.6-47.9 9.9-12.9 24.9-15.3 36.5-14.8 18.3 10.8 31.3 25.9 3.6 40.9z" style="mix-blend-mode:screen" fill="url(#A)"/><path d="M64.5 174.5q1.6.1 3 .3-1.4-.2-3-.3z" style="mix-blend-mode:screen" fill="url(#B)"/><path d="M67.5 174.8q1.4.1 2.6.3-1.2-.2-2.6-.3z" style="mix-blend-mode:screen" fill="url(#C)"/><path d="M59.3 174.2q.9 0 1.7.1-.8-.1-1.7-.1z" style="mix-blend-mode:screen" fill="url(#D)"/><path d="M61.1 174.3q1.8 0 3.3.2-1.5-.2-3.3-.2z" style="mix-blend-mode:screen" fill="url(#E)"/><path d="M127.8 87.1q0 .8.1 1.7-.1-.9-.1-1.7z" style="mix-blend-mode:screen" fill="url(#F)"/><path d="M207.5 1.2q-.5 0-1 .1.5-.1 1-.1z" style="mix-blend-mode:screen" fill="url(#G)"/><path d="M206.3 1.3q-.5 0-1 .1.5-.1 1-.1z" style="mix-blend-mode:screen" fill="url(#H)"/><path d="M212.4 1q-2.1 0-4.9.2 2.8-.2 4.9-.2z" style="mix-blend-mode:screen" fill="url(#I)"/><path d="M213.2 1h-.7.7z" style="mix-blend-mode:screen" fill="url(#J)"/><path d="M129.3 101.2q0 .5.1 1-.1-.5-.1-1z" style="mix-blend-mode:screen" fill="url(#K)"/><path d="M198.7 2.3q-.6.1-1.2.3.6-.2 1.2-.3z" style="mix-blend-mode:screen" fill="url(#L)"/><path d="M205.2 1.4q-.6.1-1.1.1.5 0 1.1-.1z" style="mix-blend-mode:screen" fill="url(#M)"/><path d="M204 1.5q-2.4.3-5.2.8 2.8-.5 5.2-.8z" style="mix-blend-mode:screen" fill="url(#N)"/><path d="M217.9 1.1h-.2.2z" style="mix-blend-mode:screen" fill="url(#O)"/><path d="M197.3 2.6l-1.2.2 1.2-.2z" style="mix-blend-mode:screen" fill="url(#P)"/><path d="M218.1 1.1h-.2.2z" style="mix-blend-mode:screen" fill="url(#Q)"/><path d="M217.6 1.1h-.2.2z" style="mix-blend-mode:screen" fill="url(#R)"/><path d="M214.6 1h-.6.6z" style="mix-blend-mode:screen" fill="url(#S)"/><path d="M218.2 1.1h-.1.1z" style="mix-blend-mode:screen" fill="url(#T)"/><path d="M215.3 1h-.6.6z" style="mix-blend-mode:screen" fill="url(#U)"/><path d="M217.3 1.1h-.3.3z" style="mix-blend-mode:screen" fill="url(#V)"/><path d="M216.9 1h-1.5 1.5z" style="mix-blend-mode:screen" fill="url(#W)"/><path d="M213.3 1q.3-.1.6 0-.3-.1-.6 0z" style="mix-blend-mode:screen" fill="url(#X)"/><path d="M128.1 92.7q.1.9.2 1.7-.1-.8-.2-1.7z" style="mix-blend-mode:screen" fill="url(#Y)"/><path d="M128.3 94.6q.1.7.2 1.3-.1-.6-.2-1.3z" style="mix-blend-mode:screen" fill="url(#Z)"/><path d="M128 91.1q0 .6.1 1.3-.1-.7-.1-1.3z" style="mix-blend-mode:screen" fill="url(#aa)"/><path d="M127.9 89.3q0 .6.1 1.2-.1-.6-.1-1.2z" style="mix-blend-mode:screen" fill="url(#ab)"/><path d="M127.7 85.3q.1.9.1 1.7 0-.8-.1-1.7z" style="mix-blend-mode:screen" fill="url(#ac)"/><path d="M195.8 2.9q-.6.1-1.2.3.6-.2 1.2-.3z" style="mix-blend-mode:screen" fill="url(#ad)"/><path d="M128.7 97.9l.2 1.4-.2-1.4z" style="mix-blend-mode:screen" fill="url(#ae)"/><path d="M128.5 96.4q.1.6.2 1.1-.1-.5-.2-1.1z" style="mix-blend-mode:screen" fill="url(#af)"/><path d="M129 99.4l.2 1.4-.2-1.4z" style="mix-blend-mode:screen" fill="url(#ag)"/><path d="M127.8 81.4q0 .7-.1 1.5.1-.8.1-1.5z" style="mix-blend-mode:screen" fill="url(#ah)"/><path d="M194.4 3.2q-.6.2-1.3.3.7-.1 1.3-.3z" style="mix-blend-mode:screen" fill="url(#ai)"/><path d="M128.5 72.6q-.2 1-.3 2 .1-1 .3-2z" style="mix-blend-mode:screen" fill="url(#aj)"/><path d="M188.3 4.8c0 41.1-4.6 105.1-33 100.1-17.7-3.2-24.7-17.2-26.8-32.3 1.6-13 6.5-27.2 17.8-40.2C161.5 14.9 179 7 193 3.6q-2.3.5-4.7 1.2z" style="mix-blend-mode:screen" fill="url(#ak)"/><path d="M127.9 79.1q-.1 1-.1 1.9 0-.9.1-1.9z" style="mix-blend-mode:screen" fill="url(#al)"/><path d="M128.2 75.2l-.2 1.4.2-1.4z" style="mix-blend-mode:screen" fill="url(#am)"/><path d="M128 77.2q-.1.7-.1 1.5 0-.8.1-1.5z" style="mix-blend-mode:screen" fill="url(#an)"/></svg>