<svg version="1.2" xmlns="http://www.w3.org/2000/svg" width="744" height="394"><defs><radialGradient id="g1" cx="507.5" cy="201.5" r="182.7" gradientUnits="userSpaceOnUse"><stop offset=".1" stop-color="#191b53"/><stop offset=".9" stop-color="#2479b4"/></radialGradient><radialGradient id="g2" cx="513.7" cy="202.2" r="182.7" gradientUnits="userSpaceOnUse"><stop offset=".1" stop-color="#191b53"/><stop offset=".9" stop-color="#2479b4"/></radialGradient><radialGradient id="g3" cx="513.7" cy="202.2" r="182.7" gradientUnits="userSpaceOnUse"><stop offset=".1" stop-color="#191b53"/><stop offset=".9" stop-color="#2479b4"/></radialGradient><radialGradient id="g4" cx="507.5" cy="201.5" r="182.7" gradientUnits="userSpaceOnUse"><stop offset=".1" stop-color="#191b53"/><stop offset=".9" stop-color="#2479b4"/></radialGradient><radialGradient id="g5" cx="526.6" cy="200.3" r="182.7" gradientUnits="userSpaceOnUse"><stop offset=".1" stop-color="#191b53"/><stop offset=".9" stop-color="#2479b4"/></radialGradient><radialGradient id="g6" cx="513.7" cy="202.2" r="182.7" gradientUnits="userSpaceOnUse"><stop offset=".1" stop-color="#191b53"/><stop offset=".9" stop-color="#2479b4"/></radialGradient><radialGradient id="g7" cx="584.6" cy="110.1" r="12.7" gradientUnits="userSpaceOnUse"><stop offset=".1" stop-color="#191b53"/><stop offset=".9" stop-color="#2479b4"/></radialGradient><radialGradient id="g8" cx="448.6" cy="57.7" r="13.7" gradientUnits="userSpaceOnUse"><stop offset=".1" stop-color="#191b53"/><stop offset=".9" stop-color="#2479b4"/></radialGradient><radialGradient id="g9" cx="99.2" cy="320.1" r="182.7" gradientUnits="userSpaceOnUse"><stop offset=".1" stop-color="#191b53"/><stop offset=".9" stop-color="#2479b4"/></radialGradient><radialGradient id="g10" cx="99.2" cy="320.1" r="182.7" gradientUnits="userSpaceOnUse"><stop offset=".1" stop-color="#191b53"/><stop offset=".9" stop-color="#2479b4"/></radialGradient><radialGradient id="g11" cx="176.3" cy="228.7" r="12.7" gradientUnits="userSpaceOnUse"><stop offset=".1" stop-color="#191b53"/><stop offset=".9" stop-color="#2479b4"/></radialGradient><radialGradient id="g12" cx="282.6" cy="38.2" r="12.7" gradientUnits="userSpaceOnUse"><stop offset=".1" stop-color="#191b53"/><stop offset=".9" stop-color="#2479b4"/></radialGradient><radialGradient id="g13" cx="281.4" cy="294.8" r="132.5" gradientUnits="userSpaceOnUse"><stop offset=".1" stop-color="#191b53"/><stop offset=".9" stop-color="#2479b4"/></radialGradient><radialGradient id="g14" cx="281.4" cy="294.8" r="132.5" gradientUnits="userSpaceOnUse"><stop offset=".1" stop-color="#191b53"/><stop offset=".9" stop-color="#2479b4"/></radialGradient><radialGradient id="g15" cx="281.4" cy="294.8" r="132.5" gradientUnits="userSpaceOnUse"><stop offset=".1" stop-color="#191b53"/><stop offset=".9" stop-color="#2479b4"/></radialGradient><radialGradient id="g16" cx="281.4" cy="294.8" r="132.5" gradientUnits="userSpaceOnUse"><stop offset=".1" stop-color="#191b53"/><stop offset=".9" stop-color="#2479b4"/></radialGradient><radialGradient id="g17" cx="361.1" cy="289.5" r="132.5" gradientUnits="userSpaceOnUse"><stop offset=".1" stop-color="#191b53"/><stop offset=".9" stop-color="#2479b4"/></radialGradient><radialGradient id="g18" cx="465.4" cy="186.4" r="132.5" gradientUnits="userSpaceOnUse"><stop offset=".1" stop-color="#191b53"/><stop offset=".9" stop-color="#2479b4"/></radialGradient><radialGradient id="g19" cx="515.1" cy="119.3" r="9.2" gradientUnits="userSpaceOnUse"><stop offset=".1" stop-color="#191b53"/><stop offset=".9" stop-color="#2479b4"/></radialGradient><radialGradient id="g20" cx="234.2" cy="190" r="9.9" gradientUnits="userSpaceOnUse"><stop offset=".1" stop-color="#191b53"/><stop offset=".9" stop-color="#2479b4"/></radialGradient><radialGradient id="g21" cx="288.9" cy="61.7" r="120.7" gradientUnits="userSpaceOnUse"><stop offset=".1" stop-color="#191b53"/><stop offset=".9" stop-color="#2479b4"/></radialGradient><radialGradient id="g22" cx="284.1" cy="62.8" r="132.5" gradientUnits="userSpaceOnUse"><stop offset=".1" stop-color="#191b53"/><stop offset=".9" stop-color="#2479b4"/></radialGradient><radialGradient id="g23" cx="479.9" cy="2.3" r="132.5" gradientUnits="userSpaceOnUse"><stop offset=".1" stop-color="#191b53"/><stop offset=".9" stop-color="#2479b4"/></radialGradient><radialGradient id="g24" cx="479.9" cy="2.3" r="132.5" gradientUnits="userSpaceOnUse"><stop offset=".1" stop-color="#191b53"/><stop offset=".9" stop-color="#2479b4"/></radialGradient><radialGradient id="g25" cx="284.1" cy="62.8" r="132.5" gradientUnits="userSpaceOnUse"><stop offset=".1" stop-color="#191b53"/><stop offset=".9" stop-color="#2479b4"/></radialGradient><radialGradient id="g26" cx="284.1" cy="62.8" r="132.5" gradientUnits="userSpaceOnUse"><stop offset=".1" stop-color="#191b53"/><stop offset=".9" stop-color="#2479b4"/></radialGradient><radialGradient id="g27" cx="290.3" cy="143.9" r="8.1" gradientUnits="userSpaceOnUse"><stop offset=".1" stop-color="#191b53"/><stop offset=".9" stop-color="#2479b4"/></radialGradient><radialGradient id="g28" cx="589.1" cy="47.7" r="8" gradientUnits="userSpaceOnUse"><stop offset=".1" stop-color="#191b53"/><stop offset=".9" stop-color="#2479b4"/></radialGradient><radialGradient id="g29" cx="73.4" cy="66.6" r="166.4" gradientUnits="userSpaceOnUse"><stop offset=".1" stop-color="#191b53"/><stop offset=".9" stop-color="#2479b4"/></radialGradient><radialGradient id="g30" cx="66.8" cy="68" r="182.7" gradientUnits="userSpaceOnUse"><stop offset=".1" stop-color="#191b53"/><stop offset=".9" stop-color="#2479b4"/></radialGradient><radialGradient id="g31" cx="66.8" cy="68" r="182.7" gradientUnits="userSpaceOnUse"><stop offset=".1" stop-color="#191b53"/><stop offset=".9" stop-color="#2479b4"/></radialGradient><radialGradient id="g32" cx="66.8" cy="68" r="182.7" gradientUnits="userSpaceOnUse"><stop offset=".1" stop-color="#191b53"/><stop offset=".9" stop-color="#2479b4"/></radialGradient><radialGradient id="g33" cx="189.9" cy="142.2" r="11.1" gradientUnits="userSpaceOnUse"><stop offset=".1" stop-color="#191b53"/><stop offset=".9" stop-color="#2479b4"/></radialGradient><radialGradient id="g34" cx="454.2" cy="259.5" r="166.4" gradientUnits="userSpaceOnUse"><stop offset=".1" stop-color="#191b53"/><stop offset=".9" stop-color="#2479b4"/></radialGradient><radialGradient id="g35" cx="453.8" cy="261.7" r="182.7" gradientUnits="userSpaceOnUse"><stop offset=".1" stop-color="#191b53"/><stop offset=".9" stop-color="#2479b4"/></radialGradient><radialGradient id="g36" cx="447.6" cy="260.9" r="182.7" gradientUnits="userSpaceOnUse"><stop offset=".1" stop-color="#191b53"/><stop offset=".9" stop-color="#2479b4"/></radialGradient><radialGradient id="g37" cx="447.5" cy="260.9" r="182.7" gradientUnits="userSpaceOnUse"><stop offset=".1" stop-color="#191b53"/><stop offset=".9" stop-color="#2479b4"/></radialGradient><radialGradient id="g38" cx="579.4" cy="59.7" r="182.7" gradientUnits="userSpaceOnUse"><stop offset=".1" stop-color="#191b53"/><stop offset=".9" stop-color="#2479b4"/></radialGradient><radialGradient id="g39" cx="483.6" cy="274.5" r="11.1" gradientUnits="userSpaceOnUse"><stop offset=".1" stop-color="#191b53"/><stop offset=".9" stop-color="#2479b4"/></radialGradient><radialGradient id="g40" cx="588.1" cy="323.5" r="11.1" gradientUnits="userSpaceOnUse"><stop offset=".1" stop-color="#191b53"/><stop offset=".9" stop-color="#2479b4"/></radialGradient><radialGradient id="g41" cx="154.9" cy="200.7" r="2.1" gradientUnits="userSpaceOnUse"><stop offset=".1" stop-color="#f17d9c"/><stop offset=".5" stop-color="#ed3298"/><stop offset="1" stop-color="#d31b5c"/></radialGradient><radialGradient id="g42" cx="147.8" cy="334" r="2.3" gradientUnits="userSpaceOnUse"><stop offset=".1" stop-color="#f17d9c"/><stop offset=".5" stop-color="#ed3298"/><stop offset="1" stop-color="#d31b5c"/></radialGradient><radialGradient id="g43" cx="199.9" cy="275.6" r="2.3" gradientUnits="userSpaceOnUse"><stop offset=".1" stop-color="#f17d9c"/><stop offset=".5" stop-color="#ed3298"/><stop offset="1" stop-color="#d31b5c"/></radialGradient><radialGradient id="g44" cx="161.3" cy="252.1" r="2.3" gradientUnits="userSpaceOnUse"><stop offset=".1" stop-color="#f17d9c"/><stop offset=".5" stop-color="#ed3298"/><stop offset="1" stop-color="#d31b5c"/></radialGradient><radialGradient id="g45" cx="182.3" cy="302" r="12.6" gradientUnits="userSpaceOnUse"><stop offset=".1" stop-color="#f17d9c"/><stop offset=".5" stop-color="#ed3298"/><stop offset="1" stop-color="#d31b5c"/></radialGradient><radialGradient id="g46" cx="510.5" cy="4.3" r="2.1" gradientUnits="userSpaceOnUse"><stop offset=".1" stop-color="#f17d9c"/><stop offset=".5" stop-color="#ed3298"/><stop offset="1" stop-color="#d31b5c"/></radialGradient><radialGradient id="g47" cx="497.1" cy="136.9" r="2.3" gradientUnits="userSpaceOnUse"><stop offset=".1" stop-color="#f17d9c"/><stop offset=".5" stop-color="#ed3298"/><stop offset="1" stop-color="#d31b5c"/></radialGradient><radialGradient id="g48" cx="555.4" cy="79.2" r="2.3" gradientUnits="userSpaceOnUse"><stop offset=".1" stop-color="#f17d9c"/><stop offset=".5" stop-color="#ed3298"/><stop offset="1" stop-color="#d31b5c"/></radialGradient><radialGradient id="g49" cx="516.9" cy="55.8" r="2.3" gradientUnits="userSpaceOnUse"><stop offset=".1" stop-color="#f17d9c"/><stop offset=".5" stop-color="#ed3298"/><stop offset="1" stop-color="#d31b5c"/></radialGradient><radialGradient id="g50" cx="359.2" cy="20.4" r="2.3" gradientUnits="userSpaceOnUse"><stop offset=".1" stop-color="#f17d9c"/><stop offset=".5" stop-color="#ed3298"/><stop offset="1" stop-color="#d31b5c"/></radialGradient><radialGradient id="g51" cx="605.7" cy="55.9" r="2.3" gradientUnits="userSpaceOnUse"><stop offset=".1" stop-color="#f17d9c"/><stop offset=".5" stop-color="#ed3298"/><stop offset="1" stop-color="#d31b5c"/></radialGradient><radialGradient id="g52" cx="578.5" cy="23.2" r="12.5" gradientUnits="userSpaceOnUse"><stop offset=".1" stop-color="#f17d9c"/><stop offset=".5" stop-color="#ed3298"/><stop offset="1" stop-color="#d31b5c"/></radialGradient><radialGradient id="g53" cx="502.2" cy="220.6" r="12.6" gradientUnits="userSpaceOnUse"><stop offset=".1" stop-color="#f17d9c"/><stop offset=".5" stop-color="#ed3298"/><stop offset="1" stop-color="#d31b5c"/></radialGradient><radialGradient id="g54" cx="319.5" cy="64.4" r="1.5" gradientUnits="userSpaceOnUse"><stop offset=".1" stop-color="#f17d9c"/><stop offset=".5" stop-color="#ed3298"/><stop offset="1" stop-color="#d31b5c"/></radialGradient><radialGradient id="g55" cx="314.2" cy="161.1" r="1.6" gradientUnits="userSpaceOnUse"><stop offset=".1" stop-color="#f17d9c"/><stop offset=".5" stop-color="#ed3298"/><stop offset="1" stop-color="#d31b5c"/></radialGradient><radialGradient id="g56" cx="352" cy="118.7" r="1.6" gradientUnits="userSpaceOnUse"><stop offset=".1" stop-color="#f17d9c"/><stop offset=".5" stop-color="#ed3298"/><stop offset="1" stop-color="#d31b5c"/></radialGradient><radialGradient id="g57" cx="324.1" cy="101.7" r="1.6" gradientUnits="userSpaceOnUse"><stop offset=".1" stop-color="#f17d9c"/><stop offset=".5" stop-color="#ed3298"/><stop offset="1" stop-color="#d31b5c"/></radialGradient><radialGradient id="g58" cx="209.7" cy="76" r="1.6" gradientUnits="userSpaceOnUse"><stop offset=".1" stop-color="#f17d9c"/><stop offset=".5" stop-color="#ed3298"/><stop offset="1" stop-color="#d31b5c"/></radialGradient><radialGradient id="g59" cx="219.1" cy="157.3" r="1.6" gradientUnits="userSpaceOnUse"><stop offset=".1" stop-color="#f17d9c"/><stop offset=".5" stop-color="#ed3298"/><stop offset="1" stop-color="#d31b5c"/></radialGradient><radialGradient id="g60" cx="199.3" cy="133.6" r="9.1" gradientUnits="userSpaceOnUse"><stop offset=".1" stop-color="#f17d9c"/><stop offset=".5" stop-color="#ed3298"/><stop offset="1" stop-color="#d31b5c"/></radialGradient><radialGradient id="g61" cx="339.3" cy="137.9" r="9.1" gradientUnits="userSpaceOnUse"><stop offset=".1" stop-color="#f17d9c"/><stop offset=".5" stop-color="#ed3298"/><stop offset="1" stop-color="#d31b5c"/></radialGradient><radialGradient id="g62" cx="281.6" cy="209.8" r="9.1" gradientUnits="userSpaceOnUse"><stop offset=".1" stop-color="#f17d9c"/><stop offset=".5" stop-color="#ed3298"/><stop offset="1" stop-color="#d31b5c"/></radialGradient><radialGradient id="g63" cx="289.1" cy="281.8" r="1.5" gradientUnits="userSpaceOnUse"><stop offset=".1" stop-color="#f17d9c"/><stop offset=".5" stop-color="#ed3298"/><stop offset="1" stop-color="#d31b5c"/></radialGradient><radialGradient id="g64" cx="224.3" cy="209.7" r="1.4" gradientUnits="userSpaceOnUse"><stop offset=".1" stop-color="#f17d9c"/><stop offset=".5" stop-color="#ed3298"/><stop offset="1" stop-color="#d31b5c"/></radialGradient><radialGradient id="g65" cx="227.6" cy="266.4" r="1.4" gradientUnits="userSpaceOnUse"><stop offset=".1" stop-color="#f17d9c"/><stop offset=".5" stop-color="#ed3298"/><stop offset="1" stop-color="#d31b5c"/></radialGradient><radialGradient id="g66" cx="259.4" cy="258.6" r="1.4" gradientUnits="userSpaceOnUse"><stop offset=".1" stop-color="#f17d9c"/><stop offset=".5" stop-color="#ed3298"/><stop offset="1" stop-color="#d31b5c"/></radialGradient><radialGradient id="g67" cx="542.4" cy="87.5" r="1.4" gradientUnits="userSpaceOnUse"><stop offset=".1" stop-color="#f17d9c"/><stop offset=".5" stop-color="#ed3298"/><stop offset="1" stop-color="#d31b5c"/></radialGradient><radialGradient id="g68" cx="283.2" cy="172.6" r="1.4" gradientUnits="userSpaceOnUse"><stop offset=".1" stop-color="#f17d9c"/><stop offset=".5" stop-color="#ed3298"/><stop offset="1" stop-color="#d31b5c"/></radialGradient><radialGradient id="g69" cx="496.4" cy="71" r="9.6" gradientUnits="userSpaceOnUse"><stop offset=".1" stop-color="#f17d9c"/><stop offset=".5" stop-color="#ed3298"/><stop offset="1" stop-color="#d31b5c"/></radialGradient><radialGradient id="g70" cx="223.6" cy="239.3" r="9.1" gradientUnits="userSpaceOnUse"><stop offset=".1" stop-color="#f17d9c"/><stop offset=".5" stop-color="#ed3298"/><stop offset="1" stop-color="#d31b5c"/></radialGradient><radialGradient id="g71" cx="398.2" cy="15.5" r="1.4" gradientUnits="userSpaceOnUse"><stop offset=".1" stop-color="#f17d9c"/><stop offset=".5" stop-color="#ed3298"/><stop offset="1" stop-color="#d31b5c"/></radialGradient><radialGradient id="g72" cx="397.5" cy="45.1" r="9.1" gradientUnits="userSpaceOnUse"><stop offset=".1" stop-color="#f17d9c"/><stop offset=".5" stop-color="#ed3298"/><stop offset="1" stop-color="#d31b5c"/></radialGradient><radialGradient id="g73" cx="792.9" cy="207.3" r="182.7" gradientUnits="userSpaceOnUse"><stop offset=".1" stop-color="#191b53"/><stop offset=".9" stop-color="#2479b4"/></radialGradient><radialGradient id="g74" cx="727.8" cy="62.8" r="13.7" gradientUnits="userSpaceOnUse"><stop offset=".1" stop-color="#191b53"/><stop offset=".9" stop-color="#2479b4"/></radialGradient><radialGradient id="g75" cx="638.3" cy="25.4" r="2.3" gradientUnits="userSpaceOnUse"><stop offset=".1" stop-color="#f17d9c"/><stop offset=".5" stop-color="#ed3298"/><stop offset="1" stop-color="#d31b5c"/></radialGradient><radialGradient id="g76" cx="677.4" cy="20.5" r="1.4" gradientUnits="userSpaceOnUse"><stop offset=".1" stop-color="#f17d9c"/><stop offset=".5" stop-color="#ed3298"/><stop offset="1" stop-color="#d31b5c"/></radialGradient><radialGradient id="g77" cx="676.6" cy="50.2" r="9.1" gradientUnits="userSpaceOnUse"><stop offset=".1" stop-color="#f17d9c"/><stop offset=".5" stop-color="#ed3298"/><stop offset="1" stop-color="#d31b5c"/></radialGradient><radialGradient id="g78" cx="526.2" cy="327.3" r="2" gradientUnits="userSpaceOnUse"><stop offset=".1" stop-color="#f17d9c"/><stop offset=".5" stop-color="#ed3298"/><stop offset="1" stop-color="#d31b5c"/></radialGradient><radialGradient id="g79" cx="464.6" cy="129.8" r="2" gradientUnits="userSpaceOnUse"><stop offset=".1" stop-color="#f17d9c"/><stop offset=".5" stop-color="#ed3298"/><stop offset="1" stop-color="#d31b5c"/></radialGradient><radialGradient id="g80" cx="469.1" cy="207.9" r="2" gradientUnits="userSpaceOnUse"><stop offset=".1" stop-color="#f17d9c"/><stop offset=".5" stop-color="#ed3298"/><stop offset="1" stop-color="#d31b5c"/></radialGradient><radialGradient id="g81" cx="512.9" cy="197.3" r="2" gradientUnits="userSpaceOnUse"><stop offset=".1" stop-color="#f17d9c"/><stop offset=".5" stop-color="#ed3298"/><stop offset="1" stop-color="#d31b5c"/></radialGradient><radialGradient id="g82" cx="518.1" cy="176.9" r="2" gradientUnits="userSpaceOnUse"><stop offset=".1" stop-color="#f17d9c"/><stop offset=".5" stop-color="#ed3298"/><stop offset="1" stop-color="#d31b5c"/></radialGradient><radialGradient id="g83" cx="577.5" cy="184.9" r="13.3" gradientUnits="userSpaceOnUse"><stop offset=".1" stop-color="#f17d9c"/><stop offset=".5" stop-color="#ed3298"/><stop offset="1" stop-color="#d31b5c"/></radialGradient><radialGradient id="g84" cx="48.9" cy="200.7" r="182.7" gradientUnits="userSpaceOnUse"><stop offset=".1" stop-color="#191b53"/><stop offset=".9" stop-color="#2479b4"/></radialGradient><radialGradient id="g85" cx="42.7" cy="200" r="182.7" gradientUnits="userSpaceOnUse"><stop offset=".1" stop-color="#191b53"/><stop offset=".9" stop-color="#2479b4"/></radialGradient><radialGradient id="g86" cx="48.9" cy="200.7" r="182.7" gradientUnits="userSpaceOnUse"><stop offset=".1" stop-color="#191b53"/><stop offset=".9" stop-color="#2479b4"/></radialGradient><radialGradient id="g87" cx="119.8" cy="108.5" r="12.7" gradientUnits="userSpaceOnUse"><stop offset=".1" stop-color="#191b53"/><stop offset=".9" stop-color="#2479b4"/></radialGradient><radialGradient id="g88" cx=".6" cy="184.9" r="132.5" gradientUnits="userSpaceOnUse"><stop offset=".1" stop-color="#191b53"/><stop offset=".9" stop-color="#2479b4"/></radialGradient><radialGradient id="g89" cx="50.3" cy="117.8" r="9.2" gradientUnits="userSpaceOnUse"><stop offset=".1" stop-color="#191b53"/><stop offset=".9" stop-color="#2479b4"/></radialGradient><radialGradient id="g90" cx="15.1" cy=".8" r="132.5" gradientUnits="userSpaceOnUse"><stop offset=".1" stop-color="#191b53"/><stop offset=".9" stop-color="#2479b4"/></radialGradient><radialGradient id="g91" cx="15.1" cy=".8" r="132.5" gradientUnits="userSpaceOnUse"><stop offset=".1" stop-color="#191b53"/><stop offset=".9" stop-color="#2479b4"/></radialGradient><radialGradient id="g92" cx="124.3" cy="46.2" r="8" gradientUnits="userSpaceOnUse"><stop offset=".1" stop-color="#191b53"/><stop offset=".9" stop-color="#2479b4"/></radialGradient><radialGradient id="g93" cx="-10.6" cy="258" r="166.4" gradientUnits="userSpaceOnUse"><stop offset=".1" stop-color="#191b53"/><stop offset=".9" stop-color="#2479b4"/></radialGradient><radialGradient id="g94" cx="-11" cy="260.2" r="182.7" gradientUnits="userSpaceOnUse"><stop offset=".1" stop-color="#191b53"/><stop offset=".9" stop-color="#2479b4"/></radialGradient><radialGradient id="g95" cx="-17.2" cy="259.4" r="182.7" gradientUnits="userSpaceOnUse"><stop offset=".1" stop-color="#191b53"/><stop offset=".9" stop-color="#2479b4"/></radialGradient><radialGradient id="g96" cx="-17.2" cy="259.4" r="182.7" gradientUnits="userSpaceOnUse"><stop offset=".1" stop-color="#191b53"/><stop offset=".9" stop-color="#2479b4"/></radialGradient><radialGradient id="g97" cx="114.7" cy="58.2" r="182.7" gradientUnits="userSpaceOnUse"><stop offset=".1" stop-color="#191b53"/><stop offset=".9" stop-color="#2479b4"/></radialGradient><radialGradient id="g98" cx="-11" cy="260.2" r="182.7" gradientUnits="userSpaceOnUse"><stop offset=".1" stop-color="#191b53"/><stop offset=".9" stop-color="#2479b4"/></radialGradient><radialGradient id="g99" cx="18.8" cy="273" r="11.1" gradientUnits="userSpaceOnUse"><stop offset=".1" stop-color="#191b53"/><stop offset=".9" stop-color="#2479b4"/></radialGradient><radialGradient id="g100" cx="123.3" cy="322" r="11.1" gradientUnits="userSpaceOnUse"><stop offset=".1" stop-color="#191b53"/><stop offset=".9" stop-color="#2479b4"/></radialGradient><radialGradient id="g101" cx="45.7" cy="2.8" r="2.1" gradientUnits="userSpaceOnUse"><stop offset=".1" stop-color="#f17d9c"/><stop offset=".5" stop-color="#ed3298"/><stop offset="1" stop-color="#d31b5c"/></radialGradient><radialGradient id="g102" cx="32.3" cy="135.3" r="2.3" gradientUnits="userSpaceOnUse"><stop offset=".1" stop-color="#f17d9c"/><stop offset=".5" stop-color="#ed3298"/><stop offset="1" stop-color="#d31b5c"/></radialGradient><radialGradient id="g103" cx="90.6" cy="77.7" r="2.3" gradientUnits="userSpaceOnUse"><stop offset=".1" stop-color="#f17d9c"/><stop offset=".5" stop-color="#ed3298"/><stop offset="1" stop-color="#d31b5c"/></radialGradient><radialGradient id="g104" cx="52.1" cy="54.2" r="2.3" gradientUnits="userSpaceOnUse"><stop offset=".1" stop-color="#f17d9c"/><stop offset=".5" stop-color="#ed3298"/><stop offset="1" stop-color="#d31b5c"/></radialGradient><radialGradient id="g105" cx="140.9" cy="54.4" r="2.3" gradientUnits="userSpaceOnUse"><stop offset=".1" stop-color="#f17d9c"/><stop offset=".5" stop-color="#ed3298"/><stop offset="1" stop-color="#d31b5c"/></radialGradient><radialGradient id="g106" cx="113.7" cy="21.7" r="12.5" gradientUnits="userSpaceOnUse"><stop offset=".1" stop-color="#f17d9c"/><stop offset=".5" stop-color="#ed3298"/><stop offset="1" stop-color="#d31b5c"/></radialGradient><radialGradient id="g107" cx="37.5" cy="219.1" r="12.6" gradientUnits="userSpaceOnUse"><stop offset=".1" stop-color="#f17d9c"/><stop offset=".5" stop-color="#ed3298"/><stop offset="1" stop-color="#d31b5c"/></radialGradient><radialGradient id="g108" cx="77.7" cy="86" r="1.4" gradientUnits="userSpaceOnUse"><stop offset=".1" stop-color="#f17d9c"/><stop offset=".5" stop-color="#ed3298"/><stop offset="1" stop-color="#d31b5c"/></radialGradient><radialGradient id="g109" cx="31.6" cy="69.4" r="9.6" gradientUnits="userSpaceOnUse"><stop offset=".1" stop-color="#f17d9c"/><stop offset=".5" stop-color="#ed3298"/><stop offset="1" stop-color="#d31b5c"/></radialGradient><radialGradient id="g110" cx="61.5" cy="325.8" r="2" gradientUnits="userSpaceOnUse"><stop offset=".1" stop-color="#f17d9c"/><stop offset=".5" stop-color="#ed3298"/><stop offset="1" stop-color="#d31b5c"/></radialGradient><radialGradient id="g111" cx="48.1" cy="195.8" r="2" gradientUnits="userSpaceOnUse"><stop offset=".1" stop-color="#f17d9c"/><stop offset=".5" stop-color="#ed3298"/><stop offset="1" stop-color="#d31b5c"/></radialGradient><radialGradient id="g112" cx="53.3" cy="175.4" r="2" gradientUnits="userSpaceOnUse"><stop offset=".1" stop-color="#f17d9c"/><stop offset=".5" stop-color="#ed3298"/><stop offset="1" stop-color="#d31b5c"/></radialGradient><radialGradient id="g113" cx="93.7" cy="184.6" r="13.3" gradientUnits="userSpaceOnUse"><stop offset=".1" stop-color="#f17d9c"/><stop offset=".5" stop-color="#ed3298"/><stop offset="1" stop-color="#d31b5c"/></radialGradient><radialGradient id="g114" cx="463.5" cy="170.6" r="12.6" gradientUnits="userSpaceOnUse"><stop offset=".1" stop-color="#f17d9c"/><stop offset=".5" stop-color="#ed3298"/><stop offset="1" stop-color="#d31b5c"/></radialGradient><radialGradient id="g115" cx="179.3" cy="123" r="2" gradientUnits="userSpaceOnUse"><stop offset=".1" stop-color="#f17d9c"/><stop offset=".5" stop-color="#ed3298"/><stop offset="1" stop-color="#d31b5c"/></radialGradient><radialGradient id="g116" cx="238.9" cy="320.5" r="11.1" gradientUnits="userSpaceOnUse"><stop offset=".1" stop-color="#191b53"/><stop offset=".9" stop-color="#2479b4"/></radialGradient><radialGradient id="g117" cx="248.3" cy="311.9" r="9.1" gradientUnits="userSpaceOnUse"><stop offset=".1" stop-color="#f17d9c"/><stop offset=".5" stop-color="#ed3298"/><stop offset="1" stop-color="#d31b5c"/></radialGradient><radialGradient id="g118" cx="228.3" cy="301.3" r="2" gradientUnits="userSpaceOnUse"><stop offset=".1" stop-color="#f17d9c"/><stop offset=".5" stop-color="#ed3298"/><stop offset="1" stop-color="#d31b5c"/></radialGradient><radialGradient id="g119" cx="558.4" cy="341.4" r="182.7" gradientUnits="userSpaceOnUse"><stop offset=".1" stop-color="#191b53"/><stop offset=".9" stop-color="#2479b4"/></radialGradient><radialGradient id="g120" cx="635.4" cy="250" r="12.7" gradientUnits="userSpaceOnUse"><stop offset=".1" stop-color="#191b53"/><stop offset=".9" stop-color="#2479b4"/></radialGradient><radialGradient id="g121" cx="740.6" cy="316.1" r="132.5" gradientUnits="userSpaceOnUse"><stop offset=".1" stop-color="#191b53"/><stop offset=".9" stop-color="#2479b4"/></radialGradient><radialGradient id="g122" cx="740.6" cy="316.1" r="132.5" gradientUnits="userSpaceOnUse"><stop offset=".1" stop-color="#191b53"/><stop offset=".9" stop-color="#2479b4"/></radialGradient><radialGradient id="g123" cx="740.6" cy="316.1" r="132.5" gradientUnits="userSpaceOnUse"><stop offset=".1" stop-color="#191b53"/><stop offset=".9" stop-color="#2479b4"/></radialGradient><radialGradient id="g124" cx="693.3" cy="211.3" r="9.9" gradientUnits="userSpaceOnUse"><stop offset=".1" stop-color="#191b53"/><stop offset=".9" stop-color="#2479b4"/></radialGradient><radialGradient id="g125" cx="526" cy="89.4" r="182.7" gradientUnits="userSpaceOnUse"><stop offset=".1" stop-color="#191b53"/><stop offset=".9" stop-color="#2479b4"/></radialGradient><radialGradient id="g126" cx="526" cy="89.4" r="182.7" gradientUnits="userSpaceOnUse"><stop offset=".1" stop-color="#191b53"/><stop offset=".9" stop-color="#2479b4"/></radialGradient><radialGradient id="g127" cx="526" cy="89.4" r="182.7" gradientUnits="userSpaceOnUse"><stop offset=".1" stop-color="#191b53"/><stop offset=".9" stop-color="#2479b4"/></radialGradient><radialGradient id="g128" cx="649" cy="163.5" r="11.1" gradientUnits="userSpaceOnUse"><stop offset=".1" stop-color="#191b53"/><stop offset=".9" stop-color="#2479b4"/></radialGradient><radialGradient id="g129" cx="659" cy="296.9" r="2.3" gradientUnits="userSpaceOnUse"><stop offset=".1" stop-color="#f17d9c"/><stop offset=".5" stop-color="#ed3298"/><stop offset="1" stop-color="#d31b5c"/></radialGradient><radialGradient id="g130" cx="641.4" cy="323.3" r="12.6" gradientUnits="userSpaceOnUse"><stop offset=".1" stop-color="#f17d9c"/><stop offset=".5" stop-color="#ed3298"/><stop offset="1" stop-color="#d31b5c"/></radialGradient><radialGradient id="g131" cx="668.8" cy="97.3" r="1.6" gradientUnits="userSpaceOnUse"><stop offset=".1" stop-color="#f17d9c"/><stop offset=".5" stop-color="#ed3298"/><stop offset="1" stop-color="#d31b5c"/></radialGradient><radialGradient id="g132" cx="678.2" cy="178.6" r="1.6" gradientUnits="userSpaceOnUse"><stop offset=".1" stop-color="#f17d9c"/><stop offset=".5" stop-color="#ed3298"/><stop offset="1" stop-color="#d31b5c"/></radialGradient><radialGradient id="g133" cx="658.5" cy="154.9" r="9.1" gradientUnits="userSpaceOnUse"><stop offset=".1" stop-color="#f17d9c"/><stop offset=".5" stop-color="#ed3298"/><stop offset="1" stop-color="#d31b5c"/></radialGradient><radialGradient id="g134" cx="683.5" cy="231" r="1.4" gradientUnits="userSpaceOnUse"><stop offset=".1" stop-color="#f17d9c"/><stop offset=".5" stop-color="#ed3298"/><stop offset="1" stop-color="#d31b5c"/></radialGradient><radialGradient id="g135" cx="686.7" cy="287.7" r="1.4" gradientUnits="userSpaceOnUse"><stop offset=".1" stop-color="#f17d9c"/><stop offset=".5" stop-color="#ed3298"/><stop offset="1" stop-color="#d31b5c"/></radialGradient><radialGradient id="g136" cx="682.7" cy="260.6" r="9.1" gradientUnits="userSpaceOnUse"><stop offset=".1" stop-color="#f17d9c"/><stop offset=".5" stop-color="#ed3298"/><stop offset="1" stop-color="#d31b5c"/></radialGradient><radialGradient id="g137" cx="638.5" cy="144.3" r="2" gradientUnits="userSpaceOnUse"><stop offset=".1" stop-color="#f17d9c"/><stop offset=".5" stop-color="#ed3298"/><stop offset="1" stop-color="#d31b5c"/></radialGradient><radialGradient id="g138" cx="698" cy="341.8" r="11.1" gradientUnits="userSpaceOnUse"><stop offset=".1" stop-color="#191b53"/><stop offset=".9" stop-color="#2479b4"/></radialGradient><radialGradient id="g139" cx="707.5" cy="333.2" r="9.1" gradientUnits="userSpaceOnUse"><stop offset=".1" stop-color="#f17d9c"/><stop offset=".5" stop-color="#ed3298"/><stop offset="1" stop-color="#d31b5c"/></radialGradient><radialGradient id="g140" cx="687.5" cy="322.6" r="2" gradientUnits="userSpaceOnUse"><stop offset=".1" stop-color="#f17d9c"/><stop offset=".5" stop-color="#ed3298"/><stop offset="1" stop-color="#d31b5c"/></radialGradient><radialGradient id="g141" cx="143.3" cy="88.6" r="13.3" gradientUnits="userSpaceOnUse"><stop offset=".1" stop-color="#f17d9c"/><stop offset=".5" stop-color="#ed3298"/><stop offset="1" stop-color="#d31b5c"/></radialGradient></defs><style>.s0{fill:#fff}.s1{opacity:.3}.s1,.s2,.s3{fill:#fff}.s2{opacity:.4}.s3{opacity:.5}</style><g id="&lt;Group&gt;"><path id="&lt;Path&gt;" class="s0" d="M595.8 148.4c.6.5 2.7 1.5 2.7 1.5s-2.1.9-2.7 1.5c-.5.5-1.4 2.7-1.4 2.7s-1-2.2-1.5-2.7c-.6-.6-2.7-1.5-2.7-1.5s2.1-1 2.7-1.5c.5-.6 1.5-2.7 1.5-2.7s.9 2.1 1.4 2.7z"/><path id="&lt;Path&gt;" class="s1" d="M571.3 52.1c.6.6 2.7 1.5 2.7 1.5s-2.1.9-2.7 1.5c-.5.5-1.5 2.7-1.5 2.7s-.9-2.2-1.4-2.7c-.6-.6-2.8-1.5-2.8-1.5s2.2-.9 2.8-1.5c.5-.5 1.4-2.7 1.4-2.7s1 2.2 1.5 2.7z"/><path id="&lt;Path&gt;" class="s0" d="M438.5 134.5c.5.6 2.7 1.5 2.7 1.5s-2.2 1-2.7 1.5c-.5.6-1.5 2.7-1.5 2.7s-.9-2.1-1.5-2.7c-.5-.5-2.7-1.5-2.7-1.5s2.2-.9 2.7-1.5c.6-.5 1.5-2.7 1.5-2.7s1 2.2 1.5 2.7zm-2.6-44.3c.9 1 4.5 2.5 4.5 2.5s-3.6 1.6-4.5 2.5c-.9.9-2.5 4.5-2.5 4.5s-1.5-3.6-2.4-4.5c-.9-.9-4.5-2.5-4.5-2.5s3.6-1.5 4.5-2.5c.9-.9 2.4-4.5 2.4-4.5s1.6 3.6 2.5 4.5z"/><path id="&lt;Path&gt;" class="s1" d="M499.5 185c1 .9 4.6 2.5 4.6 2.5s-3.6 1.5-4.6 2.4c-.9.9-2.4 4.6-2.4 4.6s-1.6-3.7-2.5-4.6c-.9-.9-4.5-2.4-4.5-2.4s3.6-1.6 4.5-2.5c.9-.9 2.5-4.5 2.5-4.5s1.5 3.6 2.4 4.5z"/><path id="&lt;Path&gt;" class="s0" d="M609.5 81.9c1 .9 4.6 2.4 4.6 2.4s-3.6 1.6-4.6 2.5c-.9.9-2.4 4.5-2.4 4.5s-1.6-3.6-2.5-4.5c-.9-.9-4.5-2.5-4.5-2.5s3.6-1.5 4.5-2.4c.9-.9 2.5-4.5 2.5-4.5s1.5 3.6 2.4 4.5z"/><path id="&lt;Path&gt;" class="s2" d="M168.5 268.2c.5.6 2.7 1.5 2.7 1.5s-2.2.9-2.7 1.5c-.6.5-1.5 2.7-1.5 2.7s-1-2.2-1.5-2.7c-.5-.6-2.7-1.5-2.7-1.5s2.2-.9 2.7-1.5c.5-.5 1.5-2.7 1.5-2.7s.9 2.2 1.5 2.7z"/><path id="&lt;Path&gt;" class="s0" d="M156.8 170c.6.5 2.7 1.5 2.7 1.5s-2.1.9-2.7 1.5c-.5.5-1.5 2.7-1.5 2.7s-.9-2.2-1.4-2.7c-.6-.6-2.7-1.5-2.7-1.5s2.1-1 2.7-1.5c.5-.6 1.4-2.7 1.4-2.7s1 2.1 1.5 2.7zm352.6-22c.4.4 2 1.1 2 1.1s-1.6.7-2 1.1c-.4.4-1.1 1.9-1.1 1.9s-.6-1.5-1-1.9c-.4-.4-2-1.1-2-1.1s1.6-.7 2-1.1c.4-.4 1-1.9 1-1.9s.7 1.5 1.1 1.9zm-2.2-70.5c.4.4 1.9 1.1 1.9 1.1s-1.5.7-1.9 1.1c-.4.4-1.1 1.9-1.1 1.9s-.7-1.5-1.1-1.9c-.4-.4-1.9-1.1-1.9-1.1s1.5-.7 1.9-1.1c.4-.4 1.1-1.9 1.1-1.9s.7 1.5 1.1 1.9zM231.3 246.2c.4.4 2 1.1 2 1.1s-1.6.7-2 1.1c-.4.4-1 2-1 2s-.7-1.6-1.1-2c-.4-.4-2-1.1-2-1.1s1.6-.7 2-1.1c.4-.4 1.1-1.9 1.1-1.9s.6 1.5 1 1.9zm-27.8-34.6c.6.6 3.3 1.8 3.3 1.8s-2.7 1.1-3.3 1.8c-.7.6-1.8 3.2-1.8 3.2s-1.1-2.6-1.8-3.2c-.7-.7-3.3-1.8-3.3-1.8s2.6-1.2 3.3-1.8c.7-.7 1.8-3.3 1.8-3.3s1.1 2.6 1.8 3.3z"/><path id="&lt;Path&gt;" class="s2" d="M244.7 32.1c.7.6 3.3 1.7 3.3 1.7s-2.6 1.2-3.3 1.8c-.7.7-1.8 3.3-1.8 3.3s-1.1-2.6-1.8-3.3c-.6-.6-3.3-1.8-3.3-1.8s2.7-1.1 3.3-1.7c.7-.7 1.8-3.3 1.8-3.3s1.1 2.6 1.8 3.3z"/><path id="&lt;Path&gt;" class="s3" d="M221.2 273.7c.7.6 3.3 1.8 3.3 1.8s-2.6 1.1-3.3 1.8c-.6.6-1.8 3.2-1.8 3.2s-1.1-2.6-1.7-3.2c-.7-.7-3.3-1.8-3.3-1.8s2.6-1.2 3.3-1.8c.6-.7 1.7-3.3 1.7-3.3s1.2 2.6 1.8 3.3z"/><path id="&lt;Path&gt;" class="s1" d="M517.8 209.9c.6.6 3.2 1.8 3.2 1.8s-2.6 1.1-3.2 1.8c-.7.6-1.8 3.2-1.8 3.2s-1.2-2.6-1.8-3.2c-.7-.7-3.3-1.8-3.3-1.8s2.6-1.2 3.3-1.8c.6-.7 1.8-3.3 1.8-3.3s1.1 2.6 1.8 3.3z"/><path id="&lt;Path&gt;" class="s0" d="M275.2 124.9c-.6 0-2.2.7-2.2.7s.7-1.6.7-2.2c0-.5-.7-2.1-.7-2.1s1.6.6 2.2.6c.5 0 2.1-.6 2.1-.6s-.6 1.6-.6 2.1c0 .6.6 2.2.6 2.2s-1.6-.7-2.1-.7zm56.3 44.5c-.5 0-2.1.6-2.1.6s.6-1.6.6-2.2c0-.5-.6-2.1-.6-2.1s1.6.6 2.1.6c.6 0 2.2-.6 2.2-.6s-.6 1.6-.6 2.1c0 .6.6 2.2.6 2.2s-1.6-.6-2.2-.6z"/><path id="&lt;Path&gt;" class="s2" d="M353.8 61.7c-.5 0-2.1.7-2.1.7s.6-1.6.6-2.2c0-.6-.6-2.1-.6-2.1s1.6.6 2.1.6c.6 0 2.2-.6 2.2-.6s-.6 1.5-.6 2.1c0 .6.6 2.2.6 2.2s-1.6-.7-2.2-.7z"/><path id="&lt;Path&gt;" class="s1" d="M577.3 19.9c-.9 0-3.6 1-3.6 1s1.1-2.6 1.1-3.6c0-.9-1.1-3.6-1.1-3.6s2.7 1.1 3.6 1.1c.9 0 3.6-1.1 3.6-1.1s-1.1 2.7-1.1 3.6c0 1 1.1 3.6 1.1 3.6s-2.7-1-3.6-1z"/><path id="&lt;Path&gt;" class="s0" d="M341.6 35.2c-1 0-3.6 1-3.6 1s1-2.6 1-3.5c0-1-1-3.6-1-3.6s2.6 1 3.6 1c.9 0 3.6-1 3.6-1s-1.1 2.6-1.1 3.6c0 .9 1.1 3.5 1.1 3.5s-2.7-1-3.6-1z"/><path id="&lt;Path&gt;" class="s3" d="M296.7 173.7c-1 0-3.6 1.1-3.6 1.1s1-2.7 1-3.6c0-1-1-3.6-1-3.6s2.6 1 3.6 1c.9 0 3.6-1 3.6-1s-1.1 2.6-1.1 3.6c0 .9 1.1 3.6 1.1 3.6s-2.7-1.1-3.6-1.1z"/><path id="&lt;Path&gt;" class="s0" d="M162.9 66.6c-.7 0-2.9.8-2.9.8s.8-2.1.8-2.9c0-.8-.8-3-.8-3s2.2.9 2.9.9c.8 0 3-.9 3-.9s-.9 2.2-.9 3c0 .8.9 2.9.9 2.9s-2.2-.8-3-.8z"/><path id="&lt;Path&gt;" class="s3" d="M201 92.2c-1.3 0-4.9 1.5-4.9 1.5s1.4-3.7 1.4-5c0-1.3-1.4-4.9-1.4-4.9s3.6 1.4 4.9 1.4c1.3 0 5-1.4 5-1.4s-1.5 3.6-1.5 4.9c0 1.3 1.5 5 1.5 5s-3.7-1.5-5-1.5z"/><path id="&lt;Path&gt;" class="s0" d="M146 30c-1.2 0-4.9 1.4-4.9 1.4s1.5-3.6 1.5-4.9c0-1.3-1.5-4.9-1.5-4.9s3.7 1.4 4.9 1.4c1.3 0 5-1.4 5-1.4s-1.5 3.6-1.5 4.9c0 1.3 1.5 4.9 1.5 4.9s-3.7-1.4-5-1.4z"/><path id="&lt;Path&gt;" class="s3" d="M462.8 248.4c-.7 0-2.9.9-2.9.9s.8-2.2.8-3c0-.8-.8-3-.8-3s2.2.9 2.9.9c.8 0 3-.9 3-.9s-.9 2.2-.9 3c0 .8.9 3 .9 3s-2.2-.9-3-.9z"/><path id="&lt;Path&gt;" class="s0" d="M543.7 259.5c-.8 0-3 .8-3 .8s.9-2.2.9-2.9c0-.8-.9-3-.9-3s2.2.9 3 .9c.7 0 2.9-.9 2.9-.9s-.8 2.2-.8 3c0 .7.8 2.9.8 2.9s-2.2-.8-2.9-.8z"/><path id="&lt;Path&gt;" class="s2" d="M581.8 285.1c-1.3 0-5 1.4-5 1.4s1.5-3.6 1.5-4.9c0-1.3-1.5-4.9-1.5-4.9s3.7 1.4 5 1.4c1.2 0 4.9-1.4 4.9-1.4s-1.5 3.6-1.5 4.9c0 1.3 1.5 4.9 1.5 4.9s-3.7-1.4-4.9-1.4z"/><path id="&lt;Path&gt;" class="s0" d="M571.8 227.9c-1.2 0-4.9 1.4-4.9 1.4s1.5-3.6 1.5-4.9c0-1.3-1.5-4.9-1.5-4.9s3.7 1.4 4.9 1.4c1.3 0 5-1.4 5-1.4s-1.5 3.6-1.5 4.9c0 1.3 1.5 4.9 1.5 4.9s-3.7-1.4-5-1.4zm-79.3 87.7c-1.3 0-5 1.5-5 1.5s1.5-3.7 1.5-5c0-1.2-1.5-4.9-1.5-4.9s3.7 1.4 5 1.4c1.2 0 4.9-1.4 4.9-1.4s-1.5 3.7-1.5 4.9c0 1.3 1.5 5 1.5 5s-3.7-1.5-4.9-1.5z"/><path id="&lt;Path&gt;" d="M443.4 162.7c-1.3 0-2.3-1.1-2.3-2.4 0-1.3 1-2.3 2.3-2.3 1.3 0 2.4 1 2.4 2.3 0 1.3-1.1 2.4-2.4 2.4z" style="mix-blend-mode:screen" opacity=".5" fill="url(#g1)"/><path id="&lt;Path&gt;" d="M487.6 35.4s-.5-1.2-.8-1.5c-.3-.3-1.5-.8-1.5-.8s1.2-.5 1.5-.8c.3-.3.8-1.5.8-1.5s.5 1.2.9 1.5c.3.3 1.5.8 1.5.8s-1.2.5-1.5.8c-.4.3-.9 1.5-.9 1.5z" style="mix-blend-mode:screen" opacity=".5" fill="url(#g2)"/><path id="&lt;Path&gt;" d="M423.4 80.1s-.5-1.2-.8-1.5c-.3-.3-1.5-.8-1.5-.8s1.2-.5 1.5-.8c.3-.3.8-1.5.8-1.5s.5 1.2.8 1.5c.3.3 1.5.8 1.5.8s-1.2.5-1.5.8c-.3.3-.8 1.5-.8 1.5z" style="mix-blend-mode:screen" opacity=".5" fill="url(#g3)"/><path id="&lt;Path&gt;" d="M449.2 111.1s-.5-1.2-.8-1.5c-.3-.3-1.5-.8-1.5-.8s1.2-.5 1.5-.8c.3-.3.8-1.5.8-1.5s.5 1.2.8 1.5c.3.3 1.5.8 1.5.8s-1.2.5-1.5.8c-.3.3-.8 1.5-.8 1.5z" style="mix-blend-mode:screen" opacity=".5" fill="url(#g4)"/><path id="&lt;Path&gt;" d="M613.4 181s-.5-1.2-.8-1.5c-.3-.3-1.5-.8-1.5-.8s1.2-.5 1.5-.8c.3-.3.8-1.5.8-1.5s.5 1.2.8 1.5c.3.3 1.5.8 1.5.8s-1.2.5-1.5.8c-.3.3-.8 1.5-.8 1.5z" style="mix-blend-mode:screen" opacity=".5" fill="url(#g5)"/><path id="&lt;Path&gt;" d="M573.6 77.8s-.6-1.2-.9-1.5c-.3-.3-1.5-.8-1.5-.8s1.2-.5 1.5-.8c.3-.3.9-1.5.9-1.5s.5 1.2.8 1.5c.3.3 1.5.8 1.5.8s-1.2.5-1.5.8c-.3.3-.8 1.5-.8 1.5z" style="mix-blend-mode:screen" fill="url(#g6)"/><path id="&lt;Compound Path&gt;" fill-rule="evenodd" d="M582 110.8c.4 0 .7.4.7.8s-.3.8-.7.8c-.5 0-.8-.4-.8-.8s.3-.8.8-.8zm-7-13.4c.8 0 1.5.7 1.5 1.5 0 .9-.7 1.6-1.5 1.6-.9 0-1.6-.7-1.6-1.6 0-.8.7-1.5 1.6-1.5zm-3.1 18.6c1.7 0 3.1 1.4 3.1 3.1 0 1.7-1.4 3.1-3.1 3.1-1.8 0-3.1-1.4-3.1-3.1 0-1.7 1.3-3.1 3.1-3.1zm26.9 3.6c.9 0 1.6.7 1.6 1.6 0 .9-.7 1.5-1.6 1.5-.9 0-1.5-.6-1.5-1.5s.6-1.6 1.5-1.6z" style="mix-blend-mode:screen" fill="url(#g7)"/><path id="&lt;Compound Path&gt;" fill-rule="evenodd" d="M450.4 57.4c-.4-.1-.7-.4-.7-.9 0-.4.4-.7.8-.7.5.1.8.4.8.9-.1.4-.5.7-.9.7zm5.8 14c-.8-.1-1.4-.8-1.4-1.7.1-.8.8-1.5 1.7-1.4.9.1 1.5.8 1.4 1.7-.1.8-.8 1.5-1.7 1.4zm4.7-18.3c-1.7-.2-3-1.7-2.8-3.4.1-1.7 1.6-3 3.3-2.8 1.8.1 3 1.6 2.9 3.3-.2 1.8-1.7 3-3.4 2.9zm-26.5-5.9c-.9-.1-1.5-.8-1.4-1.7 0-.9.8-1.5 1.6-1.4.9.1 1.5.8 1.5 1.7-.1.8-.9 1.5-1.7 1.4z" style="mix-blend-mode:screen" fill="url(#g8)"/><path id="&lt;Path&gt;" d="M186 300.9s-.5-1.2-.8-1.5c-.3-.3-1.5-.9-1.5-.9s1.2-.5 1.5-.8c.3-.3.8-1.5.8-1.5s.6 1.2.9 1.5c.3.3 1.5.8 1.5.8s-1.2.6-1.5.9c-.3.3-.9 1.5-.9 1.5z" style="mix-blend-mode:screen" opacity=".5" fill="url(#g9)"/><path id="&lt;Path&gt;" d="M159.1 195.7s-.5-1.2-.9-1.5c-.3-.3-1.5-.9-1.5-.9s1.2-.5 1.5-.8c.4-.3.9-1.5.9-1.5s.5 1.2.8 1.5c.3.3 1.5.8 1.5.8s-1.2.6-1.5.9c-.3.3-.8 1.5-.8 1.5z" style="mix-blend-mode:screen" opacity=".4" fill="url(#g10)"/><path id="&lt;Compound Path&gt;" fill-rule="evenodd" d="M173.7 229.4c.4 0 .8.4.8.8 0 .5-.4.8-.8.8s-.8-.3-.8-.8c0-.4.4-.8.8-.8zm-7-13.4c.9 0 1.5.7 1.5 1.5 0 .9-.6 1.6-1.5 1.6s-1.6-.7-1.6-1.6c0-.8.7-1.5 1.6-1.5zm-3.1 18.6c1.7 0 3.1 1.4 3.1 3.1 0 1.8-1.4 3.1-3.1 3.1-1.7 0-3.1-1.3-3.1-3.1 0-1.7 1.4-3.1 3.1-3.1zm26.9 3.7c.9 0 1.6.7 1.6 1.5 0 .9-.7 1.6-1.6 1.6-.8 0-1.5-.7-1.5-1.6 0-.8.7-1.5 1.5-1.5z" style="mix-blend-mode:screen" fill="url(#g11)"/><path id="&lt;Compound Path&gt;" fill-rule="evenodd" d="M280 39c.4 0 .8.4.8.8s-.4.8-.8.8-.8-.4-.8-.8.4-.8.8-.8zm-7-13.5c.9 0 1.6.7 1.6 1.6 0 .8-.7 1.5-1.6 1.5-.8 0-1.5-.7-1.5-1.5 0-.9.7-1.6 1.5-1.6zm-3.1 18.7c1.7 0 3.1 1.4 3.1 3.1 0 1.7-1.4 3.1-3.1 3.1-1.7 0-3.1-1.4-3.1-3.1 0-1.7 1.4-3.1 3.1-3.1zm27 3.6c.8 0 1.5.7 1.5 1.6 0 .8-.7 1.5-1.5 1.5-.9 0-1.6-.7-1.6-1.5 0-.9.7-1.6 1.6-1.6z" style="mix-blend-mode:screen" fill="url(#g12)"/><path id="&lt;Path&gt;" d="M234.9 266.6c-.9 0-1.7-.7-1.7-1.6 0-1 .8-1.7 1.7-1.7.9 0 1.7.7 1.7 1.7 0 .9-.8 1.6-1.7 1.6z" style="mix-blend-mode:screen" opacity=".5" fill="url(#g13)"/><path id="&lt;Path&gt;" d="M262.5 173.8s-.4-.9-.6-1.1c-.2-.2-1.1-.6-1.1-.6s.9-.4 1.1-.6c.2-.2.6-1.1.6-1.1s.4.9.6 1.1c.2.2 1.1.6 1.1.6s-.9.4-1.1.6c-.2.2-.6 1.1-.6 1.1z" style="mix-blend-mode:screen" opacity=".5" fill="url(#g14)"/><path id="&lt;Path&gt;" d="M215.9 206.2s-.4-.9-.6-1.1c-.3-.2-1.1-.6-1.1-.6s.8-.4 1.1-.6c.2-.2.6-1.1.6-1.1s.3.9.6 1.1c.2.2 1.1.6 1.1.6s-.9.4-1.1.6c-.3.2-.6 1.1-.6 1.1z" style="mix-blend-mode:screen" opacity=".5" fill="url(#g15)"/><path id="&lt;Path&gt;" d="M239.1 229.2s-.4-.8-.6-1c-.2-.3-1.1-.6-1.1-.6s.9-.4 1.1-.6c.2-.3.6-1.1.6-1.1s.4.8.6 1.1c.2.2 1.1.6 1.1.6s-.9.3-1.1.6c-.2.2-.6 1-.6 1z" style="mix-blend-mode:screen" opacity=".5" fill="url(#g16)"/><path id="&lt;Path&gt;" d="M424.1 275.6s-.4-.9-.6-1.1c-.3-.3-1.1-.6-1.1-.6s.8-.4 1.1-.6c.2-.2.6-1.1.6-1.1s.3.9.6 1.1c.2.2 1 .6 1 .6s-.8.3-1 .6c-.3.2-.6 1.1-.6 1.1z" style="mix-blend-mode:screen" opacity=".5" fill="url(#g17)"/><path id="&lt;Path&gt;" d="M508.8 96.2s-.4-.9-.6-1.1c-.2-.3-1.1-.6-1.1-.6s.9-.4 1.1-.6c.2-.2.6-1.1.6-1.1s.4.9.6 1.1c.2.2 1.1.6 1.1.6s-.9.3-1.1.6c-.2.2-.6 1.1-.6 1.1z" style="mix-blend-mode:screen" fill="url(#g18)"/><path id="&lt;Compound Path&gt;" fill-rule="evenodd" d="M513.2 119.9c.3 0 .6.3.6.6s-.3.5-.6.5-.6-.2-.6-.5.3-.6.6-.6zm-5.1-9.8c.7 0 1.2.5 1.2 1.2 0 .6-.5 1.1-1.2 1.1-.6 0-1.1-.5-1.1-1.1 0-.7.5-1.2 1.1-1.2zm-2.2 13.6c1.2 0 2.2 1 2.2 2.2 0 1.3-1 2.3-2.2 2.3-1.3 0-2.3-1-2.3-2.3 0-1.2 1-2.2 2.3-2.2zm19.5 2.6c.7 0 1.2.5 1.2 1.1 0 .6-.5 1.2-1.2 1.2-.6 0-1.1-.6-1.1-1.2s.5-1.1 1.1-1.1z" style="mix-blend-mode:screen" fill="url(#g19)"/><path id="&lt;Compound Path&gt;" fill-rule="evenodd" d="M235.5 189.7c-.3 0-.6-.3-.5-.6 0-.3.3-.5.6-.5s.5.3.5.6-.3.5-.6.5zm4.2 10.2c-.6-.1-1.1-.6-1-1.2 0-.7.6-1.1 1.2-1.1.6.1 1.1.6 1 1.2 0 .7-.6 1.1-1.2 1.1zm3.4-13.3c-1.2-.1-2.2-1.2-2.1-2.5.1-1.2 1.2-2.1 2.5-2 1.2.1 2.1 1.2 2 2.4-.1 1.3-1.2 2.2-2.4 2.1zm-19.3-4.3c-.6-.1-1-.6-1-1.2.1-.6.6-1.1 1.2-1 .7 0 1.1.5 1.1 1.2-.1.6-.6 1.1-1.3 1z" style="mix-blend-mode:screen" fill="url(#g20)"/><path id="&lt;Path&gt;" d="M336.9 49.8c.6-.6 1.7-.6 2.4 0 .6.7.6 1.8 0 2.4-.7.7-1.8.7-2.4 0-.7-.6-.7-1.7 0-2.4z" style="mix-blend-mode:screen" opacity=".5" fill="url(#g21)"/><path id="&lt;Path&gt;" d="M383.1 135s.8.3 1.1.3c.4 0 1.2-.3 1.2-.3s-.3.9-.3 1.2c0 .3.3 1.2.3 1.2s-.8-.4-1.2-.4c-.3 0-1.1.4-1.1.4s.3-.9.3-1.2c0-.3-.3-1.2-.3-1.2z" style="mix-blend-mode:screen" opacity=".5" fill="url(#g22)"/><path id="&lt;Path&gt;" d="M588.9 18.6s.9.4 1.2.4c.3 0 1.2-.4 1.2-.4s-.3.9-.3 1.2c0 .3.3 1.2.3 1.2s-.9-.3-1.2-.3c-.3 0-1.2.3-1.2.3s.4-.9.4-1.2c0-.3-.4-1.2-.4-1.2z" style="mix-blend-mode:screen" opacity=".3" fill="url(#g23)"/><path id="&lt;Path&gt;" d="M556.2 18.8s.9.3 1.2.3c.3 0 1.2-.3 1.2-.3s-.4.8-.4 1.2c0 .3.4 1.1.4 1.1s-.9-.3-1.2-.3c-.3 0-1.2.3-1.2.3s.3-.8.3-1.1c0-.4-.3-1.2-.3-1.2z" style="mix-blend-mode:screen" opacity=".3" fill="url(#g24)"/><path id="&lt;Path&gt;" d="M249.4 117.2s.9.4 1.2.4c.3 0 1.2-.4 1.2-.4s-.4.9-.4 1.2c0 .3.4 1.2.4 1.2s-.9-.4-1.2-.4c-.3 0-1.2.4-1.2.4s.4-.9.4-1.2c0-.3-.4-1.2-.4-1.2z" style="mix-blend-mode:screen" opacity=".5" fill="url(#g25)"/><path id="&lt;Path&gt;" d="M317.2 157.3s.9.4 1.2.4c.3 0 1.2-.4 1.2-.4s-.3.9-.3 1.2c0 .3.3 1.2.3 1.2s-.9-.3-1.2-.3c-.3 0-1.2.3-1.2.3s.4-.9.4-1.2c0-.3-.4-1.2-.4-1.2z" style="mix-blend-mode:screen" fill="url(#g26)"/><path id="&lt;Compound Path&gt;" fill-rule="evenodd" d="M292.4 147.5c-.2.2-.6.2-.8 0-.2-.2-.2-.6 0-.8.2-.2.6-.2.8 0 .2.2.2.6 0 .8zm10.5 3.3c-.4.5-1.2.5-1.6 0-.4-.4-.4-1.1 0-1.6.4-.4 1.2-.4 1.6 0 .4.5.4 1.2 0 1.6zm-8-11.1c-.9.8-2.3.8-3.2 0-.9-.9-.9-2.4 0-3.2.9-.9 2.3-.9 3.2 0 .9.8.9 2.3 0 3.2zm-15.7 11.9c-.4.5-1.1.5-1.6 0-.4-.4-.4-1.1 0-1.6.5-.4 1.2-.4 1.6 0 .5.5.5 1.2 0 1.6z" style="mix-blend-mode:screen" opacity=".3" fill="url(#g27)"/><path id="&lt;Compound Path&gt;" fill-rule="evenodd" d="M586.7 44.2c.3-.2.6-.2.8 0 .2.3.2.6-.1.8-.2.2-.6.2-.8 0-.2-.3-.1-.6.1-.8zM576.5 40c.5-.4 1.2-.4 1.6.1.4.5.4 1.2-.1 1.6-.5.4-1.2.3-1.6-.2-.4-.4-.3-1.1.1-1.5zm7 11.8c1-.8 2.4-.7 3.2.2.8 1 .7 2.4-.3 3.2-.9.8-2.3.7-3.1-.3-.8-.9-.7-2.3.2-3.1zm16.7-10.6c.5-.4 1.2-.4 1.6.1.4.5.3 1.2-.2 1.6-.4.4-1.2.3-1.6-.1-.4-.5-.3-1.2.2-1.6z" style="mix-blend-mode:screen" opacity=".3" fill="url(#g28)"/><path id="&lt;Path&gt;" d="M139.6 50.2c.9-.9 2.3-.9 3.3 0 .9.9.9 2.4 0 3.3-1 .9-2.4.9-3.3 0-1-.9-1-2.4 0-3.3z" style="mix-blend-mode:screen" opacity=".5" fill="url(#g29)"/><path id="&lt;Path&gt;" d="M203.2 167.5s1.2.5 1.6.5c.5 0 1.7-.5 1.7-.5s-.5 1.3-.5 1.7c0 .4.5 1.6.5 1.6s-1.2-.4-1.7-.4c-.4 0-1.6.4-1.6.4s.5-1.2.5-1.6c0-.4-.5-1.7-.5-1.7z" style="mix-blend-mode:screen" opacity=".3" fill="url(#g30)"/><path id="&lt;Path&gt;" d="M217 90.5s1.2.5 1.7.5c.4 0 1.6-.5 1.6-.5s-.5 1.2-.5 1.7c0 .4.5 1.6.5 1.6s-1.2-.5-1.6-.5c-.5 0-1.7.5-1.7.5s.5-1.2.5-1.6c0-.5-.5-1.7-.5-1.7z" style="mix-blend-mode:screen" opacity=".5" fill="url(#g31)"/><path id="&lt;Path&gt;" d="M171.9 90.7s1.2.5 1.7.5c.4 0 1.6-.5 1.6-.5s-.5 1.2-.5 1.6c0 .5.5 1.7.5 1.7s-1.2-.5-1.6-.5c-.5 0-1.7.5-1.7.5s.5-1.2.5-1.7c0-.4-.5-1.6-.5-1.6z" style="mix-blend-mode:screen" opacity=".3" fill="url(#g32)"/><path id="&lt;Compound Path&gt;" fill-rule="evenodd" d="M186.6 137.3c.3-.3.8-.2 1.1.1.3.3.3.8-.1 1.1-.3.3-.8.2-1.1-.1-.2-.3-.2-.8.1-1.1zm-14-5.8c.6-.5 1.6-.5 2.2.2.5.6.4 1.6-.2 2.2-.7.5-1.6.5-2.2-.2-.6-.7-.5-1.6.2-2.2zm9.6 16.3c1.3-1.1 3.3-1 4.4.3 1.1 1.4 1 3.3-.4 4.4-1.3 1.1-3.2 1-4.3-.3-1.1-1.4-1-3.3.3-4.4zm23-14.6c.6-.6 1.6-.5 2.2.2.5.6.4 1.6-.2 2.2-.7.5-1.7.4-2.2-.2-.6-.7-.5-1.7.2-2.2z" style="mix-blend-mode:screen" opacity=".3" fill="url(#g33)"/><path id="&lt;Path&gt;" d="M520.3 243.1c.9-1 2.4-1 3.3 0 .9.9.9 2.3 0 3.3-.9.9-2.4.9-3.3 0-.9-1-.9-2.4 0-3.3z" style="mix-blend-mode:screen" opacity=".5" fill="url(#g34)"/><path id="&lt;Path&gt;" d="M590.2 361.2s1.2.5 1.6.5c.4 0 1.6-.5 1.6-.5s-.4 1.2-.4 1.6c0 .5.4 1.7.4 1.7s-1.2-.5-1.6-.5c-.4 0-1.6.5-1.6.5s.4-1.2.4-1.7c0-.4-.4-1.6-.4-1.6z" style="mix-blend-mode:screen" opacity=".5" fill="url(#g35)"/><path id="&lt;Path&gt;" d="M597.8 283.4s1.2.5 1.6.5c.4 0 1.7-.5 1.7-.5s-.5 1.2-.5 1.6c0 .5.5 1.7.5 1.7s-1.3-.5-1.7-.5c-.4 0-1.6.5-1.6.5s.5-1.2.5-1.7c0-.4-.5-1.6-.5-1.6z" style="mix-blend-mode:screen" opacity=".5" fill="url(#g36)"/><path id="&lt;Path&gt;" d="M552.7 283.6s1.2.5 1.6.5c.4 0 1.7-.5 1.7-.5s-.5 1.2-.5 1.6c0 .4.5 1.7.5 1.7s-1.3-.5-1.7-.5c-.4 0-1.6.5-1.6.5s.5-1.3.5-1.7c0-.4-.5-1.6-.5-1.6z" style="mix-blend-mode:screen" opacity=".5" fill="url(#g37)"/><path id="&lt;Path&gt;" d="M531.6 134.7s1.3.4 1.7.4c.4 0 1.6-.4 1.6-.4s-.5 1.2-.5 1.6c0 .4.5 1.7.5 1.7s-1.2-.5-1.6-.5c-.4 0-1.7.5-1.7.5s.5-1.3.5-1.7c0-.4-.5-1.6-.5-1.6z" style="mix-blend-mode:screen" fill="url(#g38)"/><path id="&lt;Compound Path&gt;" fill-rule="evenodd" d="M486.6 279.5c-.4.3-.8.3-1.1 0-.4-.3-.4-.8 0-1.1.3-.3.7-.3 1.1 0 .3.3.3.8 0 1.1zm14.4 4.6c-.6.6-1.6.6-2.2 0-.6-.6-.6-1.6 0-2.2.6-.6 1.6-.6 2.2 0 .6.6.6 1.6 0 2.2zm-11-15.4c-1.2 1.2-3.2 1.2-4.4 0-1.2-1.2-1.2-3.2 0-4.4 1.2-1.2 3.2-1.2 4.4 0 1.2 1.2 1.2 3.2 0 4.4zm-21.6 16.5c-.6.6-1.6.6-2.2 0-.6-.6-.6-1.6 0-2.2.6-.6 1.6-.6 2.2 0 .6.6.6 1.6 0 2.2z" style="mix-blend-mode:screen" fill="url(#g39)"/><path id="&lt;Compound Path&gt;" fill-rule="evenodd" d="M594.7 318.6c.4-.3.9-.3 1.1.1.3.3.3.8-.1 1.1-.3.2-.8.2-1.1-.1-.2-.4-.2-.8.1-1.1zm-14.2-3.6c.6.6 1.5.7 2.2.2.7-.6.7-1.6.2-2.2-.6-.7-1.5-.8-2.2-.2-.7.5-.7 1.5-.2 2.2zm9.5 18.4c1.1 1.4 3 1.5 4.4.4 1.3-1.1 1.4-3.1.3-4.4-1.1-1.3-3-1.4-4.4-.3-1.3 1.1-1.4 3-.3 4.3z" style="mix-blend-mode:screen" fill="url(#g40)"/><path id="&lt;Path&gt;" d="M154.4 198.4c1.3-.3 2.5.5 2.8 1.7.3 1.3-.5 2.5-1.7 2.8-1.3.3-2.5-.4-2.8-1.7-.3-1.2.4-2.5 1.7-2.8z" style="mix-blend-mode:screen" opacity=".5" fill="url(#g41)"/><path id="&lt;Path&gt;" d="M147.2 331.7s.8 1.1 1.2 1.3c.3.2 1.6.4 1.6.4s-1 .8-1.2 1.2c-.3.4-.5 1.6-.5 1.6s-.8-1-1.1-1.2c-.4-.3-1.7-.5-1.7-.5s1.1-.8 1.3-1.1c.2-.4.4-1.7.4-1.7z" style="mix-blend-mode:screen" opacity=".5" fill="url(#g42)"/><path id="&lt;Path&gt;" d="M199.3 273.3s.8 1.1 1.2 1.3c.3.2 1.6.4 1.6.4s-1 .8-1.3 1.2c-.2.3-.4 1.6-.4 1.6s-.8-1-1.2-1.2c-.3-.3-1.6-.5-1.6-.5s1-.8 1.3-1.1c.2-.4.4-1.7.4-1.7z" style="mix-blend-mode:screen" opacity=".5" fill="url(#g43)"/><path id="&lt;Path&gt;" d="M160.8 249.9s.8 1 1.1 1.2c.4.3 1.7.5 1.7.5s-1.1.8-1.3 1.1c-.2.4-.4 1.7-.4 1.7s-.8-1.1-1.2-1.3c-.3-.2-1.6-.4-1.6-.4s1-.8 1.2-1.2c.3-.3.5-1.6.5-1.6z" style="mix-blend-mode:screen" opacity=".4" fill="url(#g44)"/><path id="&lt;Compound Path&gt;" fill-rule="evenodd" d="M178.3 301.7c.4-.1.8.2.9.7.1.4-.2.8-.7.8-.4.1-.8-.2-.8-.6-.1-.4.2-.8.6-.9zm-8.9-12.3c.8-.1 1.6.5 1.8 1.3.1.9-.5 1.7-1.3 1.8-.9.1-1.7-.5-1.8-1.3-.1-.8.4-1.6 1.3-1.8zm-.3 18.9c1.7-.2 3.3 1 3.5 2.7.3 1.6-.9 3.2-2.6 3.5-1.7.2-3.3-.9-3.5-2.6-.3-1.7.9-3.3 2.6-3.6zm27.2-.4c.8-.1 1.6.5 1.8 1.3.1.9-.5 1.7-1.4 1.8-.8.1-1.6-.5-1.7-1.3-.1-.9.4-1.7 1.3-1.8z" style="mix-blend-mode:screen" opacity=".4" fill="url(#g45)"/><path id="&lt;Path&gt;" d="M509.9 2c1.3-.3 2.5.5 2.8 1.7.3 1.3-.4 2.6-1.7 2.9-1.2.3-2.5-.5-2.8-1.8-.3-1.2.5-2.5 1.7-2.8z" style="mix-blend-mode:screen" opacity=".5" fill="url(#g46)"/><path id="&lt;Path&gt;" d="M496.5 134.6s.8 1 1.2 1.3c.4.2 1.7.4 1.7.4s-1.1.8-1.3 1.2c-.2.3-.5 1.6-.5 1.6s-.8-1-1.1-1.3c-.4-.2-1.7-.4-1.7-.4s1.1-.8 1.3-1.2c.2-.3.4-1.6.4-1.6z" style="mix-blend-mode:screen" opacity=".5" fill="url(#g47)"/><path id="&lt;Path&gt;" d="M554.8 76.9s.8 1.1 1.2 1.3c.4.2 1.6.5 1.6.5s-1 .7-1.2 1.1c-.2.4-.5 1.7-.5 1.7s-.8-1.1-1.1-1.3c-.4-.2-1.7-.5-1.7-.5s1.1-.7 1.3-1.1c.2-.4.4-1.7.4-1.7z" style="mix-blend-mode:screen" opacity=".5" fill="url(#g48)"/><path id="&lt;Path&gt;" d="M516.3 53.5s.8 1 1.2 1.3c.3.2 1.6.4 1.6.4s-1 .8-1.2 1.2c-.3.3-.5 1.6-.5 1.6s-.8-1-1.1-1.3c-.4-.2-1.7-.4-1.7-.4s1-.8 1.3-1.2c.2-.3.4-1.6.4-1.6z" style="mix-blend-mode:screen" opacity=".5" fill="url(#g49)"/><path id="&lt;Path&gt;" d="M358.6 18.1s.8 1 1.2 1.3c.3.2 1.6.4 1.6.4s-1 .8-1.2 1.2c-.3.3-.5 1.6-.5 1.6s-.8-1-1.1-1.3c-.4-.2-1.7-.4-1.7-.4s1.1-.8 1.3-1.2c.2-.3.4-1.6.4-1.6z" style="mix-blend-mode:screen" opacity=".5" fill="url(#g50)"/><path id="&lt;Path&gt;" d="M605.2 53.6s.7 1.1 1.1 1.3c.4.2 1.7.5 1.7.5s-1.1.8-1.3 1.1c-.2.4-.5 1.7-.5 1.7s-.7-1.1-1.1-1.3c-.4-.2-1.7-.5-1.7-.5s1.1-.7 1.3-1.1c.2-.4.5-1.7.5-1.7z" style="mix-blend-mode:screen" opacity=".3" fill="url(#g51)"/><path id="&lt;Compound Path&gt;" fill-rule="evenodd" d="M583.1 24.2c-.4.1-.8-.2-.9-.6-.1-.4.1-.8.5-.9.4-.1.9.1 1 .6.1.4-.2.8-.6.9zm9.9 11.5c-.8.2-1.6-.3-1.8-1.2-.2-.8.3-1.6 1.1-1.8.8-.2 1.7.3 1.9 1.1.2.8-.3 1.7-1.2 1.9zm-1.3-18.9c-1.7.4-3.3-.6-3.7-2.3-.4-1.7.6-3.3 2.3-3.7 1.6-.4 3.3.6 3.7 2.3.4 1.6-.6 3.3-2.3 3.7zm-27 2.8c-.9.2-1.7-.4-1.9-1.2-.2-.8.3-1.7 1.1-1.9.9-.2 1.7.3 1.9 1.2.2.8-.3 1.7-1.1 1.9z" style="mix-blend-mode:screen" opacity=".3" fill="url(#g52)"/><path id="&lt;Compound Path&gt;" fill-rule="evenodd" d="M498.3 220.3c.4 0 .8.2.9.7 0 .4-.3.8-.7.9-.4 0-.8-.3-.9-.7 0-.4.3-.8.7-.9zm-8.9-12.3c.8-.1 1.6.5 1.7 1.3.1.9-.4 1.7-1.3 1.8-.8.1-1.6-.4-1.8-1.3-.1-.8.5-1.6 1.4-1.8zm-.3 18.9c1.7-.2 3.2 1 3.5 2.7.3 1.7-.9 3.2-2.6 3.5-1.7.3-3.3-.9-3.5-2.6-.3-1.7.9-3.3 2.6-3.6zm27.1-.4c.9-.1 1.7.5 1.8 1.3.1.9-.4 1.7-1.3 1.8-.8.1-1.6-.5-1.8-1.3-.1-.9.5-1.7 1.3-1.8z" style="mix-blend-mode:screen" opacity=".3" fill="url(#g53)"/><path id="&lt;Path&gt;" d="M319.1 62.7c.9-.2 1.8.4 2 1.3.2.9-.3 1.8-1.3 2-.9.2-1.8-.3-2-1.2-.2-.9.3-1.9 1.3-2.1z" style="mix-blend-mode:screen" opacity=".5" fill="url(#g54)"/><path id="&lt;Path&gt;" d="M313.9 159.5s.5.7.8.9c.2.2 1.2.3 1.2.3s-.8.6-.9.9c-.2.2-.4 1.2-.4 1.2s-.5-.8-.8-1c-.3-.1-1.2-.3-1.2-.3s.8-.6.9-.8c.2-.3.4-1.2.4-1.2z" style="mix-blend-mode:screen" opacity=".5" fill="url(#g55)"/><path id="&lt;Path&gt;" d="M351.6 117.1s.6.7.9.9c.2.2 1.2.3 1.2.3s-.8.6-.9.9c-.2.2-.4 1.2-.4 1.2s-.5-.8-.8-1c-.3-.1-1.2-.3-1.2-.3s.8-.5.9-.8c.2-.3.3-1.2.3-1.2z" style="mix-blend-mode:screen" opacity=".5" fill="url(#g56)"/><path id="&lt;Path&gt;" d="M323.7 100.1s.6.7.8.9c.3.2 1.2.3 1.2.3s-.7.6-.9.9c-.2.2-.3 1.2-.3 1.2s-.6-.8-.9-1c-.2-.1-1.2-.3-1.2-.3s.8-.6 1-.8c.1-.3.3-1.2.3-1.2z" style="mix-blend-mode:screen" opacity=".5" fill="url(#g57)"/><path id="&lt;Path&gt;" d="M209.3 74.4s.5.7.8.9c.3.2 1.2.3 1.2.3s-.8.6-.9.9c-.2.2-.3 1.2-.3 1.2s-.6-.8-.9-1c-.2-.1-1.2-.3-1.2-.3s.8-.6.9-.8c.2-.3.4-1.2.4-1.2z" style="mix-blend-mode:screen" opacity=".5" fill="url(#g58)"/><path id="&lt;Path&gt;" d="M218.7 155.7s.6.7.8.9c.3.1 1.2.3 1.2.3s-.7.6-.9.8c-.2.3-.3 1.2-.3 1.2s-.6-.7-.9-.9c-.2-.2-1.2-.3-1.2-.3s.8-.6 1-.8c.1-.3.3-1.2.3-1.2z" style="mix-blend-mode:screen" opacity=".3" fill="url(#g59)"/><path id="&lt;Compound Path&gt;" fill-rule="evenodd" d="M202.7 134.3c-.3.1-.6-.1-.7-.4-.1-.3.1-.6.4-.7.3-.1.6.1.7.4.1.3-.1.6-.4.7zm7.2 8.3c-.6.2-1.2-.2-1.4-.8-.1-.6.3-1.2.9-1.4.6-.1 1.2.2 1.3.9.2.6-.2 1.2-.8 1.3zm-1-13.7c-1.2.3-2.4-.4-2.7-1.6-.3-1.3.5-2.5 1.7-2.8 1.2-.3 2.4.5 2.7 1.7.3 1.2-.5 2.4-1.7 2.7zm-19.6 2c-.6.2-1.2-.2-1.4-.8-.1-.6.3-1.2.9-1.4.6-.1 1.2.2 1.3.9.2.6-.2 1.2-.8 1.3z" style="mix-blend-mode:screen" fill="url(#g60)"/><path id="&lt;Compound Path&gt;" fill-rule="evenodd" d="M336.4 137.7c.3-.1.6.2.6.5.1.3-.1.6-.4.6-.3.1-.6-.2-.7-.5 0-.3.2-.6.5-.6zm-6.5-8.9c.6-.1 1.2.3 1.3.9.1.6-.3 1.2-.9 1.3-.6.1-1.2-.3-1.3-.9-.1-.6.3-1.2.9-1.3zm-.2 13.7c1.3-.2 2.4.7 2.6 1.9.2 1.2-.7 2.4-1.9 2.6-1.2.2-2.4-.7-2.6-1.9-.2-1.3.7-2.4 1.9-2.6zm19.7-.3c.7-.1 1.2.3 1.3.9.1.7-.3 1.2-.9 1.3-.6.1-1.2-.3-1.3-.9-.1-.6.3-1.2.9-1.3z" style="mix-blend-mode:screen" fill="url(#g61)"/><path id="&lt;Compound Path&gt;" fill-rule="evenodd" d="M278.8 209.6c.3 0 .5.2.6.5 0 .3-.2.6-.5.7-.3 0-.6-.2-.6-.5-.1-.3.1-.6.5-.7zm-6.5-8.9c.6-.1 1.2.4 1.3 1 0 .6-.4 1.2-1 1.3-.6.1-1.2-.4-1.3-1-.1-.6.4-1.2 1-1.3zm-.2 13.8c1.2-.2 2.3.6 2.5 1.9.2 1.2-.6 2.3-1.9 2.5-1.2.2-2.3-.6-2.5-1.9-.2-1.2.6-2.4 1.9-2.5zm19.7-.4c.6 0 1.2.4 1.3 1 .1.6-.4 1.2-1 1.3-.6.1-1.2-.4-1.3-1-.1-.6.4-1.2 1-1.3z" style="mix-blend-mode:screen" fill="url(#g62)"/><path id="&lt;Path&gt;" d="M290.5 282.7c-.5.8-1.5 1-2.3.5-.8-.5-1.1-1.5-.6-2.3.5-.8 1.5-1.1 2.3-.6.8.5 1.1 1.6.6 2.4z" style="mix-blend-mode:screen" opacity=".5" fill="url(#g63)"/><path id="&lt;Path&gt;" d="M225.8 210.6s-1-.2-1.3-.1c-.3.1-1 .6-1 .6s.1-.9 0-1.2c-.1-.3-.6-1.1-.6-1.1s.9.1 1.2.1c.3-.1 1.1-.7 1.1-.7s-.1 1 0 1.3c0 .3.6 1.1.6 1.1z" style="mix-blend-mode:screen" opacity=".5" fill="url(#g64)"/><path id="&lt;Path&gt;" d="M229 267.3s-.9-.2-1.2-.1c-.3.1-1.1.6-1.1.6s.1-.9.1-1.2c-.1-.3-.7-1.1-.7-1.1s1 .1 1.3.1c.3-.1 1.1-.7 1.1-.7s-.2 1-.1 1.3c.1.3.6 1.1.6 1.1z" style="mix-blend-mode:screen" opacity=".5" fill="url(#g65)"/><path id="&lt;Path&gt;" d="M260.8 259.5s-.9-.1-1.2 0c-.3 0-1.1.6-1.1.6s.1-1 .1-1.3c-.1-.3-.7-1-.7-1s1 .1 1.3 0c.3-.1 1.1-.6 1.1-.6s-.2.9-.1 1.2c.1.3.6 1.1.6 1.1z" style="mix-blend-mode:screen" opacity=".5" fill="url(#g66)"/><path id="&lt;Path&gt;" d="M543.9 88.4s-1-.1-1.3-.1c-.3.1-1 .7-1 .7s.1-1 0-1.3c-.1-.3-.6-1.1-.6-1.1s.9.2 1.2.1c.3-.1 1.1-.6 1.1-.6s-.1.9 0 1.2c0 .3.6 1.1.6 1.1z" style="mix-blend-mode:screen" opacity=".5" fill="url(#g67)"/><path id="&lt;Path&gt;" d="M284.6 173.5s-.9-.1-1.2 0c-.3 0-1.1.6-1.1.6s.1-1 .1-1.3c-.1-.3-.7-1-.7-1s1 .1 1.3 0c.3-.1 1.1-.6 1.1-.6s-.2.9-.1 1.2c.1.3.6 1.1.6 1.1z" style="mix-blend-mode:screen" fill="url(#g68)"/><path id="&lt;Compound Path&gt;" fill-rule="evenodd" d="M495 68.9c.2-.2.5-.3.8-.1.3.1.3.5.2.7-.2.3-.5.4-.8.2-.3-.1-.3-.5-.2-.8zm-11-.8c.4-.5 1.1-.6 1.6-.3s.7 1 .4 1.5c-.4.6-1.1.7-1.6.4-.5-.3-.7-1-.4-1.6zm10.4 9.1c.6-1.1 2-1.4 3.1-.8 1.1.7 1.4 2.1.7 3.1-.6 1.1-2 1.4-3.1.8-1-.7-1.4-2.1-.7-3.1zm12.5-15.3c.3-.6 1-.7 1.5-.4.5.3.7 1 .4 1.6-.3.5-1 .6-1.6.3-.5-.3-.7-1-.3-1.5z" style="mix-blend-mode:screen" fill="url(#g69)"/><path id="&lt;Compound Path&gt;" fill-rule="evenodd" d="M225.2 241.9c-.2.3-.5.3-.8.1-.2-.2-.3-.5-.1-.8.2-.2.6-.3.8-.1.3.2.3.6.1.8zm10.9 1.7c-.4.5-1.1.6-1.6.3-.5-.4-.6-1.1-.2-1.6.4-.5 1.1-.6 1.6-.2.5.3.6 1 .2 1.5zm-9.5-9.8c-.8 1-2.2 1.2-3.2.5-1-.8-1.2-2.2-.5-3.2.8-1 2.2-1.2 3.2-.5 1 .8 1.2 2.2.5 3.2zM212.8 248c-.3.5-1 .6-1.5.2-.6-.4-.7-1.1-.3-1.6.4-.5 1.1-.6 1.6-.2.5.3.6 1.1.2 1.6z" style="mix-blend-mode:screen" fill="url(#g70)"/><path id="&lt;Path&gt;" class="s0" d="M405.2 52.1c.4.4 2 1 2 1s-1.6.7-2 1.1c-.4.4-1 2-1 2s-.7-1.6-1.1-2c-.4-.4-2-1.1-2-1.1s1.6-.6 2-1c.4-.4 1.1-2 1.1-2s.6 1.6 1 2z"/><path id="&lt;Path&gt;" class="s2" d="M398.8 19.4c.7.6 3.3 1.8 3.3 1.8s-2.6 1.1-3.3 1.8c-.6.6-1.7 3.2-1.7 3.2s-1.2-2.6-1.8-3.2c-.7-.7-3.3-1.8-3.3-1.8s2.6-1.2 3.3-1.8c.6-.7 1.8-3.3 1.8-3.3s1.1 2.6 1.7 3.3z"/><path id="&lt;Path&gt;" d="M399.7 16.4s-1-.1-1.3-.1c-.3.1-1 .6-1 .6s.1-.9 0-1.2c-.1-.3-.6-1.1-.6-1.1s.9.2 1.2.1c.3-.1 1.1-.6 1.1-.6s-.1.9 0 1.2c0 .3.6 1.1.6 1.1z" style="mix-blend-mode:screen" fill="url(#g71)"/><path id="&lt;Compound Path&gt;" fill-rule="evenodd" d="M399.1 47.7c-.2.3-.5.3-.8.2-.2-.2-.3-.6-.1-.8.2-.3.6-.3.8-.2.3.2.3.6.1.8zm10.9 1.8c-.4.5-1.1.6-1.6.2-.5-.4-.6-1.1-.2-1.6.4-.5 1.1-.6 1.6-.2.5.3.6 1.1.2 1.6zm-9.6-9.9c-.7 1-2.1 1.2-3.1.5-1-.8-1.2-2.2-.5-3.2.8-1 2.2-1.2 3.2-.5 1 .8 1.2 2.2.4 3.2zm-13.7 14.2c-.3.5-1.1.6-1.6.2-.5-.4-.6-1.1-.2-1.6.4-.5 1.1-.6 1.6-.2.5.4.6 1.1.2 1.6z" style="mix-blend-mode:screen" fill="url(#g72)"/><path id="&lt;Path&gt;" class="s1" d="M715.1 95.3c.9.9 4.5 2.5 4.5 2.5s-3.6 1.5-4.5 2.4c-.9.9-2.5 4.5-2.5 4.5s-1.6-3.6-2.5-4.5c-.9-.9-4.5-2.4-4.5-2.4s3.6-1.6 4.5-2.5c.9-.9 2.5-4.5 2.5-4.5s1.6 3.6 2.5 4.5zM633 66.8c-.6 0-2.1.6-2.1.6s.6-1.6.6-2.1c0-.6-.6-2.2-.6-2.2s1.5.6 2.1.6c.6 0 2.2-.6 2.2-.6s-.7 1.6-.7 2.2c0 .5.7 2.1.7 2.1s-1.6-.6-2.2-.6z"/><path id="&lt;Path&gt;" d="M702.6 85.2s-.6-1.2-.9-1.5c-.3-.3-1.5-.9-1.5-.9s1.2-.5 1.5-.8c.3-.3.9-1.5.9-1.5s.5 1.2.8 1.5c.3.3 1.5.8 1.5.8s-1.2.6-1.5.9c-.3.3-.8 1.5-.8 1.5z" style="mix-blend-mode:screen" opacity=".3" fill="url(#g73)"/><path id="&lt;Compound Path&gt;" fill-rule="evenodd" d="M729.6 62.4c-.4 0-.8-.4-.7-.8 0-.4.4-.8.8-.7.4 0 .8.4.7.8 0 .4-.4.8-.8.7zm5.8 14c-.8 0-1.5-.8-1.4-1.6.1-.9.8-1.5 1.7-1.4.8 0 1.5.8 1.4 1.6-.1.9-.8 1.5-1.7 1.4zm4.7-18.3c-1.7-.1-3-1.6-2.8-3.3.1-1.7 1.6-3 3.3-2.9 1.7.2 3 1.7 2.9 3.4-.2 1.7-1.7 3-3.4 2.8zm-26.5-5.9c-.9 0-1.5-.8-1.5-1.7.1-.8.9-1.4 1.7-1.4.9.1 1.5.9 1.4 1.7 0 .9-.8 1.5-1.6 1.4z" style="mix-blend-mode:screen" opacity=".3" fill="url(#g74)"/><path id="&lt;Path&gt;" d="M637.8 23.1s.8 1.1 1.1 1.3c.4.2 1.7.5 1.7.5s-1 .7-1.3 1.1c-.2.4-.4 1.7-.4 1.7s-.8-1.1-1.2-1.3c-.3-.2-1.6-.5-1.6-.5s1-.7 1.2-1.1c.3-.4.5-1.7.5-1.7z" style="mix-blend-mode:screen" opacity=".3" fill="url(#g75)"/><path id="&lt;Path&gt;" class="s1" d="M684.4 57.1c.4.4 2 1.1 2 1.1s-1.6.7-2 1.1c-.4.4-1.1 1.9-1.1 1.9s-.6-1.5-1-1.9c-.4-.4-2-1.1-2-1.1s1.6-.7 2-1.1c.4-.4 1-2 1-2s.7 1.6 1.1 2zM678 24.4c.7.7 3.3 1.8 3.3 1.8s-2.6 1.1-3.3 1.8c-.6.7-1.8 3.3-1.8 3.3s-1.1-2.6-1.8-3.3c-.6-.7-3.2-1.8-3.2-1.8s2.6-1.1 3.2-1.8c.7-.6 1.8-3.3 1.8-3.3s1.2 2.7 1.8 3.3z"/><path id="&lt;Path&gt;" d="M678.8 21.4s-.9-.1-1.2 0c-.3 0-1.1.6-1.1.6s.2-1 .1-1.3c-.1-.3-.6-1-.6-1s.9.1 1.2 0c.3 0 1.1-.6 1.1-.6s-.1 1-.1 1.3c.1.3.6 1 .6 1z" style="mix-blend-mode:screen" opacity=".3" fill="url(#g76)"/><path id="&lt;Compound Path&gt;" fill-rule="evenodd" d="M678.3 52.8c-.2.2-.5.3-.8.1-.2-.2-.3-.5-.1-.8.2-.2.5-.3.8-.1.2.2.3.5.1.8zm10.9 1.7c-.4.5-1.1.6-1.6.2-.5-.3-.6-1-.2-1.5.3-.5 1-.6 1.5-.3.5.4.6 1.1.3 1.6zm-9.6-9.9c-.7 1.1-2.1 1.3-3.1.5-1-.7-1.3-2.1-.5-3.1.7-1 2.1-1.2 3.1-.5s1.3 2.1.5 3.1zm-13.7 14.2c-.4.5-1.1.6-1.6.3-.5-.4-.6-1.1-.2-1.6.3-.5 1.1-.6 1.6-.3.5.4.6 1.1.2 1.6z" style="mix-blend-mode:screen" opacity=".3" fill="url(#g77)"/><path id="&lt;Path&gt;" d="M528.2 328.5c-.7 1.1-2.1 1.5-3.2.8s-1.4-2.1-.8-3.2c.7-1.1 2.2-1.4 3.3-.8 1.1.7 1.4 2.1.7 3.2z" style="mix-blend-mode:screen" opacity=".5" fill="url(#g78)"/><path id="&lt;Path&gt;" d="M466.6 131s-1.3-.2-1.7-.1c-.5.1-1.5.9-1.5.9s.2-1.3.1-1.7c-.1-.4-.9-1.5-.9-1.5s1.3.2 1.7.1c.4-.1 1.5-.9 1.5-.9s-.2 1.3-.1 1.7c.1.5.9 1.5.9 1.5z" style="mix-blend-mode:screen" opacity=".5" fill="url(#g79)"/><path id="&lt;Path&gt;" d="M471 209.2s-1.3-.2-1.7-.1c-.4.1-1.5.8-1.5.8s.2-1.3.1-1.7c-.1-.4-.8-1.5-.8-1.5s1.3.2 1.7.1c.4-.1 1.5-.8 1.5-.8s-.2 1.3-.1 1.7c.1.4.8 1.5.8 1.5z" style="mix-blend-mode:screen" opacity=".3" fill="url(#g80)"/><path id="&lt;Path&gt;" d="M514.9 198.5s-1.3-.2-1.7-.1c-.5.1-1.5.9-1.5.9s.2-1.3.1-1.8c-.1-.4-.9-1.4-.9-1.4s1.3.1 1.7 0c.4-.1 1.5-.8 1.5-.8s-.2 1.3-.1 1.7c.1.4.9 1.5.9 1.5z" style="mix-blend-mode:screen" opacity=".3" fill="url(#g81)"/><path id="&lt;Path&gt;" d="M520.1 178.1s-1.3-.1-1.7 0c-.4.1-1.5.8-1.5.8s.2-1.3.1-1.7c-.1-.4-.9-1.5-.9-1.5s1.3.2 1.8.1c.4-.1 1.4-.9 1.4-.9s-.1 1.3 0 1.8c.1.4.8 1.4.8 1.4z" style="mix-blend-mode:screen" fill="url(#g82)"/><path id="&lt;Compound Path&gt;" fill-rule="evenodd" d="M575.6 182.2c.2-.4.7-.5 1.1-.3.4.2.5.7.2 1.1-.2.3-.7.4-1 .2-.4-.2-.5-.7-.3-1zm-15.1-1.1c.4-.8 1.4-1 2.1-.5.7.4 1 1.4.5 2.1-.4.7-1.4 1-2.1.5-.7-.4-1-1.4-.5-2.1zm14.2 12.4c.9-1.5 2.9-1.9 4.3-1 1.5.8 1.9 2.8 1 4.2-.9 1.5-2.8 1.9-4.2 1.1-1.5-.9-2-2.9-1.1-4.3zm17.2-21.1c.5-.7 1.4-1 2.2-.5.7.4.9 1.4.5 2.1-.5.8-1.4 1-2.2.5-.7-.4-.9-1.4-.5-2.1z" style="mix-blend-mode:screen" fill="url(#g83)"/><path id="&lt;Path&gt;" class="s1" d="M112 148.1c.5.5 2.7 1.5 2.7 1.5s-2.2.9-2.7 1.4c-.6.6-1.5 2.7-1.5 2.7s-.9-2.1-1.5-2.7c-.5-.5-2.7-1.4-2.7-1.4s2.2-1 2.7-1.5c.6-.6 1.5-2.7 1.5-2.7s.9 2.1 1.5 2.7zm-5.5-97.5c.6.6 2.7 1.5 2.7 1.5s-2.1.9-2.7 1.5c-.5.5-1.4 2.7-1.4 2.7s-1-2.2-1.5-2.7c-.6-.6-2.7-1.5-2.7-1.5s2.1-.9 2.7-1.5c.5-.5 1.5-2.7 1.5-2.7s.9 2.2 1.4 2.7zM34.8 183.5c.9.9 4.5 2.4 4.5 2.4s-3.6 1.6-4.5 2.5c-.9.9-2.5 4.5-2.5 4.5s-1.6-3.6-2.5-4.5c-.9-.9-4.5-2.5-4.5-2.5s3.6-1.5 4.5-2.4c.9-.9 2.5-4.5 2.5-4.5s1.6 3.6 2.5 4.5z"/><path id="&lt;Path&gt;" class="s0" d="M144.8 80.3c.9 1 4.5 2.5 4.5 2.5s-3.6 1.6-4.5 2.5c-.9.9-2.5 4.5-2.5 4.5s-1.6-3.6-2.5-4.5c-.9-.9-4.5-2.5-4.5-2.5s3.6-1.5 4.5-2.5c.9-.9 2.5-4.5 2.5-4.5s1.6 3.6 2.5 4.5z"/><path id="&lt;Path&gt;" class="s1" d="M44.6 146.5c.4.4 2 1.1 2 1.1s-1.6.7-2 1.1c-.3.4-1 1.9-1 1.9s-.7-1.5-1.1-1.9c-.4-.4-2-1.1-2-1.1s1.6-.7 2-1.1c.4-.4 1.1-2 1.1-2s.7 1.6 1 2zM42.4 76c.4.4 2 1.1 2 1.1s-1.6.7-2 1c-.4.4-1.1 2-1.1 2s-.6-1.6-1-2c-.4-.3-2-1-2-1s1.6-.7 2-1.1c.4-.4 1-2 1-2s.7 1.6 1.1 2zM53 208.4c.6.6 3.3 1.8 3.3 1.8s-2.7 1.1-3.3 1.7c-.7.7-1.8 3.3-1.8 3.3s-1.1-2.6-1.8-3.3c-.7-.6-3.3-1.7-3.3-1.7s2.6-1.2 3.3-1.8c.7-.7 1.8-3.3 1.8-3.3s1.1 2.6 1.8 3.3zm59.5-190.1c-.9 0-3.6 1.1-3.6 1.1s1.1-2.7 1.1-3.6c0-.9-1.1-3.6-1.1-3.6s2.7 1.1 3.6 1.1c1 0 3.6-1.1 3.6-1.1s-1 2.7-1 3.6c0 .9 1 3.6 1 3.6s-2.6-1.1-3.6-1.1zM78.9 257.9c-.8 0-3 .9-3 .9s.9-2.2.9-3c0-.7-.9-2.9-.9-2.9s2.2.8 3 .8c.8 0 3-.8 3-.8s-.9 2.2-.9 2.9c0 .8.9 3 .9 3s-2.2-.9-3-.9zm38.1 25.7c-1.3 0-5 1.4-5 1.4s1.5-3.6 1.5-4.9c0-1.3-1.5-5-1.5-5s3.7 1.5 5 1.5c1.3 0 4.9-1.5 4.9-1.5s-1.4 3.7-1.4 5c0 1.3 1.4 4.9 1.4 4.9s-3.6-1.4-4.9-1.4zm-29-56c-1.3 0-5 1.4-5 1.4s1.5-3.6 1.5-4.9c0-1.3-1.5-5-1.5-5s3.7 1.5 5 1.5c1.3 0 4.9-1.5 4.9-1.5s-1.4 3.7-1.4 5c0 1.3 1.4 4.9 1.4 4.9s-3.6-1.4-4.9-1.4zm-60.3 86.5c-1.3 0-5 1.5-5 1.5s1.5-3.7 1.5-5c0-1.3-1.5-4.9-1.5-4.9s3.7 1.4 5 1.4c1.3 0 4.9-1.4 4.9-1.4s-1.4 3.6-1.4 4.9c0 1.3 1.4 5 1.4 5s-3.6-1.5-4.9-1.5z"/><path id="&lt;Path&gt;" d="M22.9 33.9s-.6-1.2-.9-1.5c-.3-.3-1.5-.8-1.5-.8s1.2-.5 1.5-.8c.3-.3.9-1.5.9-1.5s.5 1.2.8 1.5c.3.3 1.5.8 1.5.8s-1.2.5-1.5.8c-.3.3-.8 1.5-.8 1.5z" style="mix-blend-mode:screen" opacity=".3" fill="url(#g84)"/><path id="&lt;Path&gt;" d="M129.6 180.7s-.6-1.2-.9-1.5c-.3-.3-1.5-.8-1.5-.8s1.2-.5 1.5-.8c.3-.3.9-1.5.9-1.5s.5 1.2.8 1.5c.3.3 1.5.8 1.5.8s-1.2.5-1.5.8c-.3.3-.8 1.5-.8 1.5z" style="mix-blend-mode:screen" opacity=".5" fill="url(#g85)"/><path id="&lt;Path&gt;" d="M108.8 76.3s-.5-1.2-.8-1.5c-.3-.3-1.5-.8-1.5-.8s1.2-.6 1.5-.9c.3-.3.8-1.5.8-1.5s.5 1.2.8 1.5c.3.3 1.5.9 1.5.9s-1.2.5-1.5.8c-.3.3-.8 1.5-.8 1.5z" style="mix-blend-mode:screen" opacity=".3" fill="url(#g86)"/><path id="&lt;Compound Path&gt;" fill-rule="evenodd" d="M117.2 109.3c.4 0 .8.4.8.8s-.4.8-.8.8-.8-.4-.8-.8.4-.8.8-.8zm-7-13.5c.9 0 1.6.7 1.6 1.6 0 .8-.7 1.5-1.6 1.5-.9 0-1.6-.7-1.6-1.5 0-.9.7-1.6 1.6-1.6zm-3.1 18.7c1.7 0 3.1 1.4 3.1 3.1 0 1.7-1.4 3.1-3.1 3.1-1.7 0-3.1-1.4-3.1-3.1 0-1.7 1.4-3.1 3.1-3.1zm26.9 3.6c.9 0 1.6.7 1.6 1.6 0 .8-.7 1.5-1.6 1.5-.8 0-1.5-.7-1.5-1.5 0-.9.7-1.6 1.5-1.6z" style="mix-blend-mode:screen" opacity=".3" fill="url(#g87)"/><path id="&lt;Path&gt;" d="M44 94.6s-.3-.8-.6-1.1c-.2-.2-1-.6-1-.6s.8-.3 1-.5c.3-.3.6-1.1.6-1.1s.4.8.6 1.1c.3.2 1.1.5 1.1.5s-.8.4-1.1.6c-.2.3-.6 1.1-.6 1.1z" style="mix-blend-mode:screen" opacity=".3" fill="url(#g88)"/><path id="&lt;Compound Path&gt;" fill-rule="evenodd" d="M48.4 118.4c.3 0 .6.2.6.5 0 .4-.3.6-.6.6s-.5-.2-.5-.6c0-.3.2-.5.5-.5zm-5-9.8c.6 0 1.1.5 1.1 1.1 0 .7-.5 1.2-1.1 1.2-.7 0-1.2-.5-1.2-1.2 0-.6.5-1.1 1.2-1.1zm-2.3 13.5c1.2 0 2.3 1.1 2.3 2.3 0 1.2-1.1 2.3-2.3 2.3-1.2 0-2.3-1.1-2.3-2.3 0-1.2 1.1-2.3 2.3-2.3zm19.6 2.7c.6 0 1.1.5 1.1 1.1 0 .6-.5 1.1-1.1 1.1-.7 0-1.2-.5-1.2-1.1 0-.6.5-1.1 1.2-1.1z" style="mix-blend-mode:screen" opacity=".3" fill="url(#g89)"/><path id="&lt;Path&gt;" d="M124.1 17.1s.9.4 1.2.4c.3 0 1.2-.4 1.2-.4s-.3.9-.3 1.2c0 .3.3 1.2.3 1.2s-.9-.4-1.2-.4c-.3 0-1.2.4-1.2.4s.4-.9.4-1.2c0-.3-.4-1.2-.4-1.2z" style="mix-blend-mode:screen" opacity=".3" fill="url(#g90)"/><path id="&lt;Path&gt;" d="M91.4 17.2s.9.4 1.2.4c.3 0 1.2-.4 1.2-.4s-.3.9-.3 1.2c0 .3.3 1.2.3 1.2s-.9-.3-1.2-.3c-.3 0-1.2.3-1.2.3s.4-.9.4-1.2c0-.3-.4-1.2-.4-1.2z" style="mix-blend-mode:screen" opacity=".3" fill="url(#g91)"/><path id="&lt;Compound Path&gt;" fill-rule="evenodd" d="M121.9 42.6c.3-.2.6-.1.8.1.2.2.2.6 0 .8-.3.2-.6.2-.8-.1-.2-.2-.2-.6 0-.8zm-10.1-4.2c.4-.4 1.1-.3 1.5.2.4.4.4 1.2-.1 1.6-.5.4-1.2.3-1.6-.2-.4-.4-.3-1.2.2-1.6zm7 11.8c.9-.8 2.3-.6 3.1.3.8 1 .7 2.4-.2 3.2-1 .8-2.4.7-3.2-.3-.8-.9-.7-2.4.3-3.2zm16.6-10.6c.5-.4 1.2-.3 1.6.2.4.5.3 1.2-.1 1.6-.5.4-1.2.3-1.6-.2-.4-.4-.4-1.1.1-1.6z" style="mix-blend-mode:screen" opacity=".3" fill="url(#g92)"/><path id="&lt;Path&gt;" d="M55.5 241.5c.9-.9 2.4-.9 3.3 0 .9.9.9 2.4 0 3.3-.9.9-2.4.9-3.3 0-.9-.9-.9-2.4 0-3.3z" style="mix-blend-mode:screen" opacity=".3" fill="url(#g93)"/><path id="&lt;Path&gt;" d="M125.4 359.7s1.2.4 1.6.4c.5 0 1.7-.4 1.7-.4s-.5 1.2-.5 1.6c0 .4.5 1.6.5 1.6s-1.2-.4-1.7-.4c-.4 0-1.6.4-1.6.4s.5-1.2.5-1.6c0-.4-.5-1.6-.5-1.6z" style="mix-blend-mode:screen" opacity=".5" fill="url(#g94)"/><path id="&lt;Path&gt;" d="M133 281.9s1.2.5 1.6.5c.5 0 1.7-.5 1.7-.5s-.5 1.2-.5 1.6c0 .4.5 1.7.5 1.7s-1.2-.5-1.7-.5c-.4 0-1.6.5-1.6.5s.5-1.3.5-1.7c0-.4-.5-1.6-.5-1.6z" style="mix-blend-mode:screen" opacity=".5" fill="url(#g95)"/><path id="&lt;Path&gt;" d="M87.9 282.1s1.2.4 1.6.4c.5 0 1.7-.4 1.7-.4s-.5 1.2-.5 1.6c0 .4.5 1.6.5 1.6s-1.2-.4-1.7-.4c-.4 0-1.6.4-1.6.4s.5-1.2.5-1.6c0-.4-.5-1.6-.5-1.6z" style="mix-blend-mode:screen" opacity=".3" fill="url(#g96)"/><path id="&lt;Path&gt;" d="M66.9 133.1s1.2.5 1.6.5c.4 0 1.7-.5 1.7-.5s-.5 1.3-.5 1.7c0 .4.5 1.6.5 1.6s-1.3-.5-1.7-.5c-.4 0-1.6.5-1.6.5s.4-1.2.4-1.6c0-.4-.4-1.7-.4-1.7z" style="mix-blend-mode:screen" opacity=".3" fill="url(#g97)"/><path id="&lt;Path&gt;" d="M34.6 390.4s1.3.5 1.7.5c.4 0 1.6-.5 1.6-.5s-.4 1.3-.4 1.7c0 .4.4 1.6.4 1.6s-1.2-.4-1.6-.4c-.4 0-1.7.4-1.7.4s.5-1.2.5-1.6c0-.4-.5-1.7-.5-1.7z" style="mix-blend-mode:screen" opacity=".3" fill="url(#g98)"/><path id="&lt;Compound Path&gt;" fill-rule="evenodd" d="M21.8 278c-.3.3-.8.3-1.1 0-.3-.3-.3-.8 0-1.1.3-.3.8-.3 1.1 0 .3.3.3.8 0 1.1zm14.5 4.6c-.7.6-1.6.6-2.2 0-.7-.6-.7-1.6 0-2.2.6-.6 1.5-.6 2.2 0 .6.6.6 1.6 0 2.2zm-11-15.4c-1.3 1.2-3.2 1.2-4.4 0a2.97 2.97 0 010-4.4c1.2-1.2 3.1-1.2 4.4 0 1.2 1.2 1.2 3.2 0 4.4zM3.6 283.7c-.6.6-1.6.6-2.2 0-.6-.6-.6-1.6 0-2.2.6-.6 1.6-.6 2.2 0 .6.6.6 1.6 0 2.2z" style="mix-blend-mode:screen" opacity=".3" fill="url(#g99)"/><path id="&lt;Compound Path&gt;" fill-rule="evenodd" d="M130 317.1c.3-.3.8-.3 1.1.1.2.3.2.8-.1 1-.4.3-.9.3-1.1 0-.3-.4-.3-.9.1-1.1zm-14.3-3.6c.6.6 1.6.7 2.2.1.7-.5.8-1.5.2-2.1-.5-.7-1.5-.8-2.2-.2-.6.5-.7 1.5-.2 2.2zm9.5 18.4c1.1 1.3 3.1 1.5 4.4.4 1.3-1.1 1.5-3.1.4-4.4-1.1-1.3-3.1-1.5-4.4-.4-1.3 1.1-1.5 3.1-.4 4.4z" style="mix-blend-mode:screen" opacity=".3" fill="url(#g100)"/><path id="&lt;Path&gt;" d="M45.2.5c1.2-.3 2.5.5 2.8 1.7.3 1.3-.5 2.5-1.8 2.8-1.2.3-2.5-.4-2.8-1.7-.3-1.2.5-2.5 1.8-2.8z" style="mix-blend-mode:screen" opacity=".5" fill="url(#g101)"/><path id="&lt;Path&gt;" d="M31.8 133.1s.8 1 1.1 1.2c.4.3 1.7.5 1.7.5s-1.1.8-1.3 1.1c-.2.4-.4 1.7-.4 1.7s-.8-1.1-1.2-1.3c-.4-.2-1.6-.4-1.6-.4s1-.8 1.2-1.2c.3-.3.5-1.6.5-1.6z" style="mix-blend-mode:screen" opacity=".3" fill="url(#g102)"/><path id="&lt;Path&gt;" d="M90.1 75.4s.8 1.1 1.1 1.3c.4.2 1.7.4 1.7.4s-1.1.8-1.3 1.2c-.2.4-.4 1.6-.4 1.6s-.8-1-1.2-1.2c-.4-.3-1.7-.5-1.7-.5s1.1-.8 1.3-1.1c.2-.4.5-1.7.5-1.7z" style="mix-blend-mode:screen" opacity=".3" fill="url(#g103)"/><path id="&lt;Path&gt;" d="M51.5 52s.8 1 1.2 1.2c.4.3 1.7.5 1.7.5s-1.1.8-1.3 1.1c-.2.4-.5 1.7-.5 1.7s-.8-1.1-1.1-1.3c-.4-.2-1.7-.4-1.7-.4s1.1-.8 1.3-1.2c.2-.3.4-1.6.4-1.6z" style="mix-blend-mode:screen" opacity=".3" fill="url(#g104)"/><path id="&lt;Path&gt;" d="M140.4 52.1s.8 1.1 1.1 1.3c.4.2 1.7.4 1.7.4s-1.1.8-1.3 1.2c-.2.4-.4 1.6-.4 1.6s-.8-1-1.2-1.2c-.3-.2-1.6-.5-1.6-.5s1-.8 1.2-1.1c.3-.4.5-1.7.5-1.7z" style="mix-blend-mode:screen" opacity=".3" fill="url(#g105)"/><path id="&lt;Compound Path&gt;" fill-rule="evenodd" d="M118.3 22.7c-.4.1-.8-.2-.9-.6-.1-.4.1-.8.6-.9.4-.1.8.1.9.5.1.5-.2.9-.6 1zm10 11.5c-.9.2-1.7-.4-1.9-1.2-.2-.8.3-1.7 1.1-1.9.9-.2 1.7.3 1.9 1.2.2.8-.3 1.7-1.1 1.9zm-1.4-18.9c-1.6.4-3.3-.6-3.7-2.3-.4-1.7.6-3.4 2.3-3.8 1.7-.4 3.3.7 3.7 2.3.4 1.7-.6 3.4-2.3 3.8zm-27 2.7c-.8.2-1.7-.3-1.9-1.1-.2-.9.3-1.7 1.2-1.9.8-.2 1.6.3 1.8 1.2.2.8-.3 1.6-1.1 1.8z" style="mix-blend-mode:screen" opacity=".3" fill="url(#g106)"/><path id="&lt;Compound Path&gt;" fill-rule="evenodd" d="M33.5 218.8c.4-.1.8.2.9.6.1.5-.2.9-.7.9-.4.1-.8-.2-.8-.6-.1-.4.2-.8.6-.9zm-8.9-12.3c.8-.1 1.6.5 1.7 1.3.2.9-.4 1.7-1.3 1.8-.8.1-1.6-.5-1.7-1.3-.2-.9.4-1.7 1.3-1.8zm-.3 18.9c1.7-.2 3.3.9 3.5 2.6.3 1.7-.9 3.3-2.6 3.6-1.7.2-3.3-.9-3.5-2.6-.3-1.7.9-3.3 2.6-3.6zm27.2-.4c.8-.1 1.6.4 1.7 1.3.2.8-.4 1.6-1.3 1.8-.8.1-1.6-.5-1.7-1.3-.2-.9.4-1.7 1.3-1.8z" style="mix-blend-mode:screen" opacity=".3" fill="url(#g107)"/><path id="&lt;Path&gt;" d="M79.1 86.9s-.9-.1-1.2-.1c-.3.1-1.1.6-1.1.6s.1-.9 0-1.2c0-.3-.6-1.1-.6-1.1s1 .2 1.3.1c.3-.1 1-.6 1-.6s-.1.9 0 1.2c.1.3.6 1.1.6 1.1z" style="mix-blend-mode:screen" opacity=".3" fill="url(#g108)"/><path id="&lt;Compound Path&gt;" fill-rule="evenodd" d="M30.3 67.4c.1-.2.5-.3.7-.2.3.2.4.5.2.8-.1.3-.5.4-.8.2-.2-.2-.3-.5-.1-.8zm-11-.8c.3-.5 1-.7 1.5-.3.5.3.7 1 .4 1.5-.3.5-1 .7-1.6.4-.5-.3-.7-1-.3-1.6zm10.3 9c.7-1 2.1-1.4 3.1-.7 1.1.6 1.4 2 .8 3.1-.7 1.1-2.1 1.4-3.1.7-1.1-.6-1.4-2-.8-3.1zm12.5-15.3c.3-.5 1-.6 1.5-.3.6.3.7 1 .4 1.5-.3.6-1 .7-1.5.4-.6-.3-.7-1-.4-1.6z" style="mix-blend-mode:screen" opacity=".3" fill="url(#g109)"/><path id="&lt;Path&gt;" d="M63.5 327c-.7 1.1-2.2 1.5-3.3.8-1.1-.7-1.4-2.1-.7-3.2.6-1.1 2.1-1.5 3.2-.8s1.4 2.1.8 3.2z" style="mix-blend-mode:screen" opacity=".3" fill="url(#g110)"/><path id="&lt;Path&gt;" d="M50.1 197s-1.3-.2-1.7-.1c-.4.1-1.5.8-1.5.8s.2-1.3.1-1.7c-.1-.4-.9-1.5-.9-1.5s1.3.2 1.7.1c.5-.1 1.5-.8 1.5-.8s-.2 1.3-.1 1.7c.1.4.9 1.5.9 1.5z" style="mix-blend-mode:screen" opacity=".3" fill="url(#g111)"/><path id="&lt;Path&gt;" d="M55.3 176.6s-1.3-.2-1.7-.1c-.4.1-1.5.9-1.5.9s.2-1.3.1-1.7c-.1-.4-.8-1.5-.8-1.5s1.3.2 1.7.1c.4-.1 1.5-.9 1.5-.9s-.2 1.3-.1 1.7c.1.5.8 1.5.8 1.5z" style="mix-blend-mode:screen" opacity=".3" fill="url(#g112)"/><path id="&lt;Compound Path&gt;" fill-rule="evenodd" d="M91.8 181.8c.2-.3.7-.4 1-.2.4.2.5.7.3 1.1-.2.3-.7.4-1.1.2-.4-.2-.5-.7-.2-1.1zm-15.2-1.1c.5-.7 1.4-.9 2.2-.5.7.5.9 1.4.5 2.2-.5.7-1.4.9-2.2.5-.7-.5-.9-1.4-.5-2.2zm14.3 12.5c.9-1.5 2.8-2 4.3-1.1 1.4.9 1.9 2.8 1 4.3-.9 1.5-2.8 1.9-4.3 1-1.5-.9-1.9-2.8-1-4.2zm17.2-21.1c.4-.7 1.4-1 2.1-.5.7.4 1 1.4.5 2.1-.4.8-1.4 1-2.1.5-.7-.4-1-1.4-.5-2.1z" style="mix-blend-mode:screen" opacity=".3" fill="url(#g113)"/><path id="&lt;Compound Path&gt;" fill-rule="evenodd" d="M465.8 174.2c-.2.4-.7.4-1.1.2-.3-.3-.4-.7-.1-1.1.2-.3.7-.4 1-.2.4.3.5.8.2 1.1zm15 2.4c-.5.7-1.5.8-2.2.3-.7-.5-.8-1.5-.3-2.1.5-.7 1.5-.9 2.2-.4.7.5.8 1.5.3 2.2zM467.6 163c-1 1.4-2.9 1.7-4.3.7s-1.7-3-.7-4.4c1.1-1.4 3-1.6 4.4-.6 1.4 1 1.7 2.9.6 4.3zm-18.9 19.6c-.5.6-1.5.8-2.1.3-.7-.5-.9-1.5-.4-2.2.5-.7 1.5-.8 2.2-.3.7.5.8 1.5.3 2.2z" style="mix-blend-mode:screen" opacity=".3" fill="url(#g114)"/><path id="&lt;Path&gt;" d="M181.3 124.2s-1.3-.2-1.7-.1c-.4.1-1.5.9-1.5.9s.2-1.3.1-1.7c-.1-.4-.9-1.5-.9-1.5s1.3.2 1.8.1c.4-.1 1.4-.9 1.4-.9s-.1 1.3 0 1.7c.1.5.8 1.5.8 1.5z" style="mix-blend-mode:screen" opacity=".3" fill="url(#g115)"/><path id="&lt;Compound Path&gt;" fill-rule="evenodd" d="M235.6 315.6c.3-.3.8-.2 1.1.1.3.3.2.8-.1 1.1-.3.3-.8.2-1.1-.1-.3-.3-.2-.8.1-1.1zm-14-5.8c.6-.6 1.6-.5 2.2.2.5.6.4 1.6-.2 2.2-.7.5-1.7.5-2.2-.2-.6-.7-.5-1.6.2-2.2zm9.6 16.3c1.3-1.1 3.3-1 4.4.3 1.1 1.4.9 3.3-.4 4.4-1.3 1.1-3.3 1-4.4-.3-1.1-1.4-.9-3.3.4-4.4zm23-14.6c.6-.6 1.6-.5 2.1.2.6.6.5 1.6-.1 2.2-.7.5-1.7.4-2.2-.2-.6-.7-.5-1.7.2-2.2z" style="mix-blend-mode:screen" opacity=".3" fill="url(#g116)"/><path id="&lt;Compound Path&gt;" fill-rule="evenodd" d="M251.7 312.6c-.4.1-.7-.1-.7-.4-.1-.3.1-.6.4-.7.3-.1.6.1.7.4 0 .3-.1.6-.4.7zm7.2 8.3c-.6.2-1.3-.2-1.4-.8-.1-.6.2-1.2.8-1.4.6-.1 1.3.2 1.4.9.1.6-.2 1.2-.8 1.3zm-1-13.7c-1.2.3-2.4-.4-2.7-1.6-.3-1.3.4-2.5 1.7-2.8 1.2-.3 2.4.5 2.7 1.7.3 1.2-.5 2.4-1.7 2.7zm-19.6 2c-.6.2-1.2-.2-1.4-.8-.1-.6.2-1.2.9-1.4.6-.1 1.2.2 1.3.9.2.6-.2 1.2-.8 1.3z" style="mix-blend-mode:screen" opacity=".3" fill="url(#g117)"/><path id="&lt;Path&gt;" d="M230.3 302.5s-1.3-.2-1.7-.1c-.4.1-1.5.9-1.5.9s.2-1.3.1-1.7c-.1-.4-.9-1.5-.9-1.5s1.3.2 1.7.1c.5-.1 1.5-.9 1.5-.9s-.2 1.3-.1 1.7c.1.4.9 1.5.9 1.5z" style="mix-blend-mode:screen" opacity=".3" fill="url(#g118)"/><path id="&lt;Path&gt;" class="s2" d="M627.6 289.5c.6.6 2.7 1.5 2.7 1.5s-2.1.9-2.7 1.5c-.5.5-1.5 2.7-1.5 2.7s-.9-2.2-1.4-2.7c-.6-.6-2.7-1.5-2.7-1.5s2.1-.9 2.7-1.5c.5-.5 1.4-2.7 1.4-2.7s1 2.2 1.5 2.7z"/><path id="&lt;Path&gt;" class="s1" d="M690.5 267.5c.4.4 2 1.1 2 1.1s-1.6.7-2 1.1c-.4.4-1.1 2-1.1 2s-.7-1.6-1.1-2c-.3-.4-1.9-1.1-1.9-1.1s1.6-.7 1.9-1.1c.4-.3 1.1-1.9 1.1-1.9s.7 1.6 1.1 1.9zm-27.9-34.6c.7.7 3.3 1.8 3.3 1.8s-2.6 1.1-3.3 1.8c-.6.6-1.7 3.2-1.7 3.2s-1.2-2.6-1.8-3.2c-.7-.7-3.3-1.8-3.3-1.8s2.6-1.1 3.3-1.8c.6-.7 1.8-3.3 1.8-3.3s1.1 2.6 1.7 3.3zm41.3-179.5c.6.6 3.2 1.8 3.2 1.8s-2.6 1.1-3.2 1.7c-.7.7-1.8 3.3-1.8 3.3s-1.2-2.6-1.8-3.3c-.7-.6-3.3-1.7-3.3-1.7s2.6-1.2 3.3-1.8c.6-.7 1.8-3.3 1.8-3.3s1.1 2.6 1.8 3.3zM680.4 295c.7.6 3.3 1.8 3.3 1.8s-2.6 1.1-3.3 1.8c-.7.6-1.8 3.2-1.8 3.2s-1.1-2.6-1.8-3.2c-.6-.7-3.3-1.8-3.3-1.8s2.7-1.2 3.3-1.8c.7-.7 1.8-3.3 1.8-3.3s1.1 2.6 1.8 3.3z"/><path id="&lt;Path&gt;" class="s0" d="M622.1 87.9c-.8 0-3 .9-3 .9s.9-2.2.9-3c0-.8-.9-3-.9-3s2.2.9 3 .9c.8 0 3-.9 3-.9s-.9 2.2-.9 3c0 .8.9 3 .9 3s-2.2-.9-3-.9z"/><path id="&lt;Path&gt;" class="s1" d="M660.2 113.5c-1.3 0-5 1.5-5 1.5s1.5-3.7 1.5-5c0-1.3-1.5-4.9-1.5-4.9s3.7 1.4 5 1.4c1.3 0 4.9-1.4 4.9-1.4s-1.4 3.6-1.4 4.9c0 1.3 1.4 5 1.4 5s-3.6-1.5-4.9-1.5z"/><path id="&lt;Path&gt;" d="M645.2 322.2s-.5-1.2-.8-1.5c-.3-.3-1.5-.9-1.5-.9s1.2-.5 1.5-.8c.3-.3.8-1.5.8-1.5s.5 1.2.8 1.5c.3.3 1.5.8 1.5.8s-1.2.6-1.5.9c-.3.3-.8 1.5-.8 1.5z" style="mix-blend-mode:screen" opacity=".3" fill="url(#g119)"/><path id="&lt;Compound Path&gt;" fill-rule="evenodd" d="M632.8 250.8c.5 0 .8.3.8.7 0 .5-.3.8-.8.8-.4 0-.7-.3-.7-.8 0-.4.3-.7.7-.7zm-6.9-13.5c.8 0 1.5.7 1.5 1.5 0 .9-.7 1.6-1.5 1.6-.9 0-1.6-.7-1.6-1.6 0-.8.7-1.5 1.6-1.5zm-3.2 18.6c1.8 0 3.2 1.4 3.2 3.1 0 1.8-1.4 3.2-3.2 3.2-1.7 0-3.1-1.4-3.1-3.2 0-1.7 1.4-3.1 3.1-3.1zm27 3.7c.8 0 1.5.7 1.5 1.5 0 .9-.7 1.6-1.5 1.6-.9 0-1.6-.7-1.6-1.6 0-.8.7-1.5 1.6-1.5z" style="mix-blend-mode:screen" opacity=".3" fill="url(#g120)"/><path id="&lt;Path&gt;" d="M694.1 288c-1 0-1.7-.8-1.7-1.7 0-1 .7-1.7 1.7-1.7.9 0 1.7.7 1.7 1.7 0 .9-.8 1.7-1.7 1.7z" style="mix-blend-mode:screen" opacity=".3" fill="url(#g121)"/><path id="&lt;Path&gt;" d="M675 227.5s-.4-.9-.6-1.1c-.2-.2-1.1-.6-1.1-.6s.9-.4 1.1-.6c.2-.2.6-1.1.6-1.1s.4.9.6 1.1c.2.2 1.1.6 1.1.6s-.9.4-1.1.6c-.2.2-.6 1.1-.6 1.1z" style="mix-blend-mode:screen" opacity=".3" fill="url(#g122)"/><path id="&lt;Path&gt;" d="M698.3 250.6s-.4-.9-.6-1.1c-.3-.3-1.1-.6-1.1-.6s.8-.4 1.1-.6c.2-.2.6-1.1.6-1.1s.3.9.6 1.1c.2.2 1 .6 1 .6s-.8.3-1 .6c-.3.2-.6 1.1-.6 1.1z" style="mix-blend-mode:screen" opacity=".3" fill="url(#g123)"/><path id="&lt;Compound Path&gt;" fill-rule="evenodd" d="M694.6 211c-.3 0-.5-.3-.5-.6s.3-.5.6-.5.6.3.5.6c0 .3-.3.5-.6.5zm4.3 10.2c-.7-.1-1.1-.6-1.1-1.2.1-.7.6-1.1 1.3-1.1.6.1 1 .6 1 1.3-.1.6-.6 1-1.2 1zm3.4-13.3c-1.3-.1-2.2-1.2-2.1-2.5.1-1.2 1.2-2.1 2.4-2 1.3.1 2.2 1.2 2.1 2.4-.1 1.3-1.2 2.2-2.4 2.1zm-19.3-4.3c-.6 0-1.1-.6-1-1.2 0-.6.6-1.1 1.2-1 .6 0 1.1.6 1 1.2 0 .6-.6 1.1-1.2 1z" style="mix-blend-mode:screen" opacity=".3" fill="url(#g124)"/><path id="&lt;Path&gt;" d="M662.4 188.9s1.2.4 1.6.4c.4 0 1.7-.4 1.7-.4s-.5 1.2-.5 1.6c0 .4.5 1.6.5 1.6s-1.3-.4-1.7-.4c-.4 0-1.6.4-1.6.4s.4-1.2.4-1.6c0-.4-.4-1.6-.4-1.6z" style="mix-blend-mode:screen" opacity=".3" fill="url(#g125)"/><path id="&lt;Path&gt;" d="M676.2 111.8s1.2.5 1.6.5c.5 0 1.7-.5 1.7-.5s-.5 1.2-.5 1.7c0 .4.5 1.6.5 1.6s-1.2-.5-1.7-.5c-.4 0-1.6.5-1.6.5s.5-1.2.5-1.6c0-.5-.5-1.7-.5-1.7z" style="mix-blend-mode:screen" opacity=".3" fill="url(#g126)"/><path id="&lt;Path&gt;" d="M631.1 112s1.2.5 1.6.5c.5 0 1.7-.5 1.7-.5s-.5 1.2-.5 1.6c0 .5.5 1.7.5 1.7s-1.2-.5-1.7-.5c-.4 0-1.6.5-1.6.5s.5-1.2.5-1.7c0-.4-.5-1.6-.5-1.6z" style="mix-blend-mode:screen" opacity=".3" fill="url(#g127)"/><path id="&lt;Compound Path&gt;" fill-rule="evenodd" d="M645.8 158.6c.3-.3.8-.2 1.1.1.3.3.2.8-.1 1.1-.3.3-.8.2-1.1-.1-.3-.3-.2-.8.1-1.1zm-14.1-5.8c.7-.5 1.7-.5 2.2.2.6.7.5 1.6-.1 2.2-.7.5-1.7.5-2.2-.2-.6-.7-.5-1.6.1-2.2zm9.7 16.3c1.3-1.1 3.3-1 4.4.4 1.1 1.3.9 3.2-.4 4.3-1.3 1.1-3.3 1-4.4-.3-1.1-1.3-.9-3.3.4-4.4zm22.9-14.6c.7-.6 1.7-.5 2.2.2.6.6.5 1.6-.2 2.2-.6.5-1.6.4-2.2-.2-.5-.7-.4-1.7.2-2.2z" style="mix-blend-mode:screen" opacity=".3" fill="url(#g128)"/><path id="&lt;Path&gt;" d="M658.5 294.6s.8 1.1 1.1 1.3c.4.2 1.7.4 1.7.4s-1.1.8-1.3 1.2c-.2.4-.4 1.6-.4 1.6s-.8-1-1.2-1.2c-.4-.2-1.6-.5-1.6-.5s1-.8 1.2-1.1c.2-.4.5-1.7.5-1.7z" style="mix-blend-mode:screen" opacity=".3" fill="url(#g129)"/><path id="&lt;Compound Path&gt;" fill-rule="evenodd" d="M637.5 323c.4 0 .8.2.9.7 0 .4-.3.8-.7.9-.4 0-.8-.3-.9-.7 0-.4.3-.8.7-.9zm-9-12.3c.9-.1 1.7.5 1.8 1.3.1.9-.4 1.7-1.3 1.8-.8.1-1.6-.4-1.8-1.3-.1-.8.5-1.6 1.3-1.8zm-.2 18.9c1.7-.2 3.2 1 3.5 2.7.3 1.7-.9 3.2-2.6 3.5-1.7.3-3.3-.9-3.6-2.6-.2-1.7 1-3.3 2.7-3.6zm27.1-.4c.9-.1 1.7.5 1.8 1.3.1.9-.4 1.7-1.3 1.8-.8.1-1.6-.5-1.8-1.3-.1-.9.5-1.7 1.3-1.8z" style="mix-blend-mode:screen" opacity=".3" fill="url(#g130)"/><path id="&lt;Path&gt;" d="M668.4 95.7s.6.8.9.9c.2.2 1.2.3 1.2.3s-.8.6-1 .9c-.1.2-.3 1.2-.3 1.2s-.6-.8-.8-.9c-.3-.2-1.2-.4-1.2-.4s.7-.5.9-.8c.2-.3.3-1.2.3-1.2z" style="mix-blend-mode:screen" opacity=".3" fill="url(#g131)"/><path id="&lt;Path&gt;" d="M677.8 177s.6.7.9.9c.2.1 1.2.3 1.2.3s-.8.6-.9.8c-.2.3-.4 1.2-.4 1.2s-.5-.7-.8-.9c-.3-.1-1.2-.3-1.2-.3s.8-.6.9-.8c.2-.3.3-1.2.3-1.2z" style="mix-blend-mode:screen" opacity=".3" fill="url(#g132)"/><path id="&lt;Compound Path&gt;" fill-rule="evenodd" d="M661.8 155.6c-.3.1-.6-.1-.6-.4-.1-.3.1-.6.4-.7.3-.1.6.1.7.4 0 .3-.2.6-.5.7zm7.2 8.3c-.6.2-1.2-.2-1.3-.8-.2-.6.2-1.2.8-1.4.6-.1 1.2.3 1.4.9.1.6-.2 1.2-.9 1.3zm-.9-13.7c-1.2.3-2.4-.4-2.7-1.6-.3-1.2.4-2.5 1.6-2.8 1.3-.2 2.5.5 2.8 1.7.2 1.2-.5 2.4-1.7 2.7zm-19.6 2c-.6.2-1.3-.2-1.4-.8-.1-.6.2-1.2.8-1.4.6-.1 1.3.3 1.4.9.1.6-.2 1.2-.8 1.3z" style="mix-blend-mode:screen" opacity=".3" fill="url(#g133)"/><path id="&lt;Path&gt;" d="M684.9 231.9s-.9-.2-1.2-.1c-.3.1-1.1.6-1.1.6s.2-.9.1-1.2c-.1-.3-.6-1.1-.6-1.1s.9.1 1.2.1c.3-.1 1.1-.6 1.1-.6s-.2.9-.1 1.2c.1.3.6 1.1.6 1.1z" style="mix-blend-mode:screen" opacity=".3" fill="url(#g134)"/><path id="&lt;Path&gt;" d="M688.2 288.6s-1-.2-1.3-.1c-.3.1-1 .6-1 .6s.1-.9 0-1.2c0-.3-.6-1.1-.6-1.1s.9.1 1.2.1c.4-.1 1.1-.7 1.1-.7s-.1 1 0 1.3c0 .3.6 1.1.6 1.1z" style="mix-blend-mode:screen" opacity=".3" fill="url(#g135)"/><path id="&lt;Compound Path&gt;" fill-rule="evenodd" d="M684.4 263.2c-.2.3-.6.3-.8.1-.3-.1-.3-.5-.1-.7.2-.3.5-.4.8-.2.2.2.3.6.1.8zm10.9 1.7c-.4.5-1.1.6-1.6.3-.5-.4-.6-1.1-.2-1.6.3-.5 1-.6 1.5-.2.5.3.6 1 .3 1.5zm-9.6-9.8c-.7 1-2.1 1.2-3.1.5-1-.8-1.3-2.2-.5-3.2.7-1 2.1-1.2 3.1-.5 1 .8 1.3 2.2.5 3.2zM672 269.3c-.4.5-1.1.6-1.6.2-.5-.4-.6-1.1-.2-1.6.3-.5 1-.6 1.6-.2.5.4.6 1.1.2 1.6z" style="mix-blend-mode:screen" opacity=".3" fill="url(#g136)"/><path id="&lt;Path&gt;" d="M640.5 145.5s-1.3-.2-1.7-.1c-.5.1-1.5.9-1.5.9s.2-1.3.1-1.7c-.1-.4-.9-1.5-.9-1.5s1.3.2 1.7.1c.4-.1 1.5-.9 1.5-.9s-.2 1.3-.1 1.7c.1.5.9 1.5.9 1.5z" style="mix-blend-mode:screen" opacity=".3" fill="url(#g137)"/><path id="&lt;Compound Path&gt;" fill-rule="evenodd" d="M694.8 336.9c.3-.3.8-.2 1.1.1.2.3.2.8-.1 1.1-.4.3-.9.2-1.1-.1-.3-.3-.3-.8.1-1.1zm-14.1-5.8c.7-.5 1.7-.5 2.2.2.6.7.5 1.6-.2 2.2-.6.5-1.6.5-2.2-.2-.5-.7-.4-1.6.2-2.2zm9.7 16.3c1.3-1.1 3.2-1 4.4.4 1.1 1.3.9 3.2-.4 4.3-1.3 1.1-3.3 1-4.4-.3-1.1-1.4-.9-3.3.4-4.4zm22.9-14.6c.7-.6 1.6-.5 2.2.2.6.6.5 1.6-.2 2.2-.6.5-1.6.4-2.2-.2-.5-.7-.4-1.7.2-2.2z" style="mix-blend-mode:screen" opacity=".3" fill="url(#g138)"/><path id="&lt;Compound Path&gt;" fill-rule="evenodd" d="M710.8 333.9c-.3.1-.6-.1-.7-.4 0-.3.1-.6.4-.7.4-.1.7.1.7.4.1.3-.1.6-.4.7zm7.2 8.3c-.6.2-1.2-.2-1.3-.8-.2-.6.2-1.2.8-1.4.6-.1 1.2.3 1.4.9.1.6-.3 1.2-.9 1.3zm-.9-13.7c-1.2.3-2.5-.4-2.8-1.6-.2-1.3.5-2.5 1.7-2.8 1.2-.2 2.4.5 2.7 1.7.3 1.2-.4 2.4-1.6 2.7zm-19.7 2c-.6.2-1.2-.2-1.3-.8-.2-.6.2-1.2.8-1.4.6-.1 1.2.3 1.4.9.1.6-.3 1.2-.9 1.3z" style="mix-blend-mode:screen" opacity=".3" fill="url(#g139)"/><path id="&lt;Path&gt;" d="M689.5 323.8s-1.3-.2-1.8-.1c-.4.1-1.4.9-1.4.9s.1-1.3 0-1.7c-.1-.4-.8-1.5-.8-1.5s1.3.2 1.7.1c.4-.1 1.5-.9 1.5-.9s-.2 1.3-.1 1.7c.1.5.9 1.5.9 1.5z" style="mix-blend-mode:screen" fill="url(#g140)"/><path id="&lt;Compound Path&gt;" fill-rule="evenodd" d="M141.4 85.8c.2-.4.7-.5 1-.3.4.3.5.7.3 1.1-.2.4-.7.5-1.1.3-.3-.3-.5-.7-.2-1.1zm-15.2-1.1c.5-.7 1.4-1 2.2-.5.7.4.9 1.4.5 2.1-.5.8-1.4 1-2.2.5-.7-.4-.9-1.4-.5-2.1zm14.3 12.4c.9-1.4 2.8-1.9 4.3-1 1.4.9 1.9 2.8 1 4.3-.9 1.4-2.8 1.9-4.3 1-1.5-.9-1.9-2.8-1-4.3zm17.2-21c.4-.8 1.4-1 2.1-.6.7.5 1 1.4.5 2.2-.4.7-1.4.9-2.1.5-.7-.5-1-1.4-.5-2.1z" style="mix-blend-mode:screen" fill="url(#g141)"/></g></svg>