<svg xmlns="http://www.w3.org/2000/svg" width="400" height="400"><g fill-rule="evenodd"><path d="M67.923 49.1c-.705.821-1.233 1.7-1.022 1.7.082 0 .548-.54 1.036-1.2.964-1.304.955-1.628-.014-.5M307.8 92.587c-18.26 18.313-33.182 33.503-33.16 33.755.098 1.127.184 1.29.56 1.058.22-.136.4-.058.4.173 0 .42 1.047 1.771 2.639 3.406a15.69 15.69 0 011.546 1.942c.389.593.967 1.079 1.285 1.079.317 0 .473.169.345.376s.111.702.532 1.1c.943.893 3.653 4.439 3.653 4.781 0 .137.315.543.7.902.385.359.928 1.01 1.206 1.447 1.449 2.276 2.077 3.234 2.37 3.614.718.932 1.324 2.203 1.324 2.775 0 .333.18.605.4.605.22 0 .4.236.4.525 0 .288.364.915.808 1.392.445.477.79.916.768.975-.154.403.603 2.359 1.059 2.737.306.254.465.609.354.789-.111.18-.019.44.204.578.224.138.407.701.407 1.251 0 .565.174.893.4.753.226-.139.4.185.4.743 0 .545.19 1.054.422 1.131.232.077.467.447.522.822.055.374.225.806.378.959.153.153.278.688.278 1.188s.18 1.021.4 1.157c.22.136.4.687.4 1.224 0 .537.18.976.4.976.22 0 .4.439.4.976 0 .537.18 1.088.4 1.224.22.136.4.676.4 1.2 0 .524.18 1.064.4 1.2.22.136.4.957.4 1.824 0 .867.18 1.576.4 1.576.22 0 .4.709.4 1.576 0 .867.18 1.688.4 1.824.22.136.4 1.047.4 2.024 0 .977.18 1.776.4 1.776.229 0 .4 1.2.4 2.8 0 1.6.171 2.8.4 2.8.248 0 .4 2.2.4 5.8 0 3.6.152 5.8.4 5.8.22 0 .4.461.4 1.024s-.152.929-.339.814c-.186-.115-.375 2.349-.419 5.476-.045 3.155-.251 5.745-.462 5.819-.209.074-.38 1.289-.38 2.7 0 1.445-.175 2.567-.4 2.567-.226 0-.4 1.141-.4 2.624 0 1.647-.149 2.531-.4 2.376-.233-.144-.4.263-.4.976 0 .673-.18 1.224-.4 1.224-.22 0-.4.72-.4 1.6 0 .88-.18 1.6-.4 1.6-.22 0-.4.542-.4 1.205s-.158 1.518-.352 1.9c-.193.382-.667 1.685-1.053 2.895-.794 2.489-1.524 4.303-2.633 6.538-.419.846-.662 1.701-.539 1.9.124.199.067.362-.124.362-.404 0-2.099 3.718-2.099 4.604 0 .328-.135.597-.3.599-.365.004-1.3 1.946-1.3 2.7 0 .299-.18.433-.4.297-.22-.136-.4.033-.4.376 0 .343-.18.624-.4.624-.22 0-.4.278-.4.617 0 .339-.36 1.003-.8 1.475-.44.472-.8 1.095-.8 1.383 0 .289-.18.525-.4.525-.22 0-.4.36-.4.8 0 .44-.18.8-.4.8-.22 0-.4.281-.4.624 0 .343-.18.512-.4.376-.22-.136-.4.03-.4.369 0 .34-.449 1.115-.997 1.724-1.975 2.192-3.002 3.513-3.003 3.864 0 .196-.54.872-1.2 1.503-.66.631-1.2 1.246-1.2 1.366 0 .12-.897 1.131-1.994 2.245s-1.933 2.139-1.859 2.277c.074.139-.829 1.201-2.006 2.36-1.178 1.159-2.141 1.973-2.141 1.808 0-.164-.405.106-.9.602-2 2.003-4.099 3.786-7.023 5.965-1.692 1.261-3.368 2.613-3.724 3.005-.356.392-.951.712-1.324.712-.372 0-.565.18-.429.4.136.22-.033.4-.376.4-.343 0-.624.146-.624.325 0 .179-.63.573-1.4.875-.77.302-1.4.696-1.4.875 0 .179-.27.325-.6.325-.33 0-.6.18-.6.4 0 .22-.36.4-.8.4-.44 0-.8.18-.8.4 0 .22-.281.4-.624.4-.343 0-.512.18-.376.4.136.22-.033.4-.376.4-.343 0-.624.21-.624.467 0 .256-.11.357-.244.223-.291-.292-3.756 1.03-5.229 1.995-.576.377-1.245.732-1.487.788-1.422.331-3.44 1.167-3.44 1.425 0 .166-.377.302-.838.302-.461 0-1.316.334-1.9.742-.584.409-1.332.752-1.662.763-.588.021-2.611.675-4.2 1.359-.44.189-1.295.382-1.9.427-.605.046-1.1.224-1.1.396 0 .172-.619.313-1.376.313-.757 0-1.488.18-1.624.4-.136.22-.777.4-1.424.4-.647 0-1.176.149-1.176.332 0 .182-1.035.372-2.3.423-1.265.05-2.471.261-2.68.468-.209.207-1.388.377-2.62.377-1.232 0-2.433.193-2.67.43-.498.498-23.46.587-24.247.093-.266-.166-1.383-.354-2.483-.418s-2.27-.229-2.6-.367c-.33-.138-1.41-.33-2.4-.426-.99-.096-1.86-.341-1.933-.543-.074-.203-.828-.369-1.677-.369-.848 0-1.654-.18-1.79-.4-.136-.22-.856-.4-1.6-.4-.744 0-1.464-.18-1.6-.4-.136-.22-.739-.4-1.339-.4-.601 0-1.798-.36-2.661-.8-.863-.44-1.861-.8-2.218-.8s-.784-.135-.949-.3c-.165-.165-.42-.308-.566-.317-.622-.04-3.508-1.119-3.967-1.484-.275-.218-.5-.257-.5-.086s-.315.048-.7-.274c-2.534-2.116-.168-4.131-29.058 24.737-14.433 14.421-26.242 26.301-26.242 26.401 0 .429 1.196 1.323 1.771 1.323.346 0 .629.191.629.424 0 .233.18.312.4.176.22-.136.4-.027.4.243s.109.381.243.248c.133-.134.619.108 1.079.537.461.429 1.656 1.195 2.658 1.702 1.001.507 2.81 1.539 4.02 2.294 1.21.755 2.335 1.328 2.5 1.274.165-.054.3.082.3.302 0 .22.135.371.3.335.165-.035.807.145 1.426.4.619.256 1.279.465 1.467.465.187 0 .403.188.48.418.076.23.529.447 1.005.483.477.036.778.208.671.382-.108.174.084.317.427.317.343 0 .624.18.624.4 0 .22.349.4.776.4.427 0 .888.18 1.024.4.136.22.597.4 1.024.4.427 0 .776.18.776.4 0 .22.272.4.605.4.588 0 1.013.167 2.89 1.138.492.254 1.167.462 1.5.462.333 0 .605.18.605.4 0 .22.36.4.8.4.44 0 .803.225.806.5.004.333.136.3.394-.1s.39-.433.394-.1c.003.275.467.5 1.03.5.58 0 .916.173.776.4-.144.232.251.4.943.4.655 0 1.25.178 1.324.397.073.218.628.437 1.233.487.605.05 1.1.231 1.1.403 0 .172.461.313 1.024.313.58 0 .916.173.776.4-.15.242.404.4 1.4.4.996 0 1.55.158 1.4.4-.144.233.263.4.976.4.673 0 1.224.18 1.224.4 0 .22.63.4 1.4.4.77 0 1.4.18 1.4.4 0 .22.619.4 1.376.4.757 0 1.488.18 1.624.4.136.22.766.4 1.4.4.634 0 1.267.185 1.407.411.139.225.465.384.723.352.968-.119 1.868.047 1.823.337-.026.165-.013.39.029.5.043.11.168.65.279 1.2.318 1.578.473 2.2.545 2.2.037 0 .153.63.257 1.4.104.77.446 2.165.759 3.1s.685 2.465.828 3.4c.143.935.39 1.88.551 2.1.16.22.409.94.553 1.6.307 1.412.707 3.417.806 4.04.038.242.378.911.755 1.486s.685 1.412.685 1.86c0 .457.263.814.6.814.33 0 .6.161.6.358 0 .528 2.113 2.621 2.8 2.774.326.073.723.343.882.6.433.702 57.275.671 57.978-.032.275-.275.835-.5 1.244-.5.409 0 .632-.18.496-.4-.136-.22-.092-.4.098-.4.642 0 3.302-2.703 3.302-3.354 0-.355.191-.646.424-.646.233 0 .328-.153.212-.341-.116-.188.048-.683.364-1.1.316-.417.58-1.445.587-2.283.008-.911.174-1.424.413-1.276.242.149.4-.396.4-1.376 0-.971.188-1.624.467-1.624.256 0 .367-.099.246-.22s-.049-.886.16-1.7c1.322-5.15 1.872-7.493 2.117-9.023.1-.628.367-1.365.593-1.636.225-.272.277-.628.114-.791-.423-.423 1.071-1.417 1.742-1.16.308.119.561.016.561-.227 0-.244.619-.443 1.376-.443.757 0 1.488-.18 1.624-.4.136-.22.856-.4 1.6-.4.744 0 1.464-.18 1.6-.4.136-.22.689-.4 1.229-.4.54 0 1.294-.156 1.676-.347 1.345-.673 4.71-1.769 5.995-1.954.715-.103 1.3-.347 1.3-.543 0-.196.349-.356.776-.356.427 0 .888-.18 1.024-.4.136-.22.597-.4 1.024-.4.427 0 .776-.18.776-.4 0-.22.641-.4 1.424-.4.847 0 1.323-.162 1.176-.4-.144-.233.263-.4.976-.4.673 0 1.224-.18 1.224-.4 0-.22.349-.4.776-.4.427 0 .888-.18 1.024-.4.136-.22.597-.4 1.024-.4.427 0 .776-.18.776-.4 0-.22.36-.4.8-.4.44 0 .8-.18.8-.4 0-.22.349-.4.776-.4.427 0 .888-.18 1.024-.4.136-.22.597-.4 1.024-.4.427 0 .776-.16.776-.355 0-.196.617-.472 1.371-.613.754-.142 1.432-.441 1.507-.666.075-.225.403-.459.729-.519.993-.184 3.593-1.574 3.593-1.921 0-.179.27-.326.6-.326.33 0 .6-.18.6-.4 0-.22.246-.4.546-.4.3 0 1.057-.402 1.681-.893.624-.491.981-.643.792-.338-.188.305.483-.013 1.491-.707 1.009-.694 2.012-1.262 2.229-1.262.217 0 .462-.203.544-.45.083-.248.675-.45 1.317-.45.642 0 1.234.202 1.317.45.082.247.378.45.656.45.279 0 1.252.54 2.164 1.2.911.66 1.928 1.2 2.26 1.2.331 0 .603.186.603.413 0 .226.315.528.7.67.385.142 1.42.712 2.3 1.267.88.555 2.455 1.439 3.5 1.965s1.9 1.12 1.9 1.321c0 .2.349.364.776.364.427 0 .888.18 1.024.4.136.22.687.4 1.224.4.537 0 .976.18.976.4 0 .237 1.459.4 3.576.4 1.967 0 3.688-.18 3.824-.4.136-.22.687-.4 1.224-.4.537 0 .976-.18.976-.4 0-.22.251-.4.557-.4.307 0 .662-.272.789-.604.127-.332.447-.557.71-.5.263.057.716-.346 1.005-.896.29-.55.53-.853.533-.673.003.18.901-.52 1.995-1.556 1.094-1.035 1.876-2.065 1.738-2.289-.138-.223-.054-.284.187-.135.241.149.674-.016.962-.366.288-.35.923-1.011 1.41-1.469.488-.458.792-.985.677-1.172-.116-.187.006-.34.27-.34s.983-.495 1.598-1.1c.614-.605 1.402-1.336 1.752-1.624.349-.288.512-.738.362-1-.15-.262-.121-.337.066-.168.411.374 3.389-2.449 3.389-3.213 0-.298.135-.465.3-.371.395.225 2.119-1.572 1.807-1.883-.132-.133.023-.241.345-.241.794 0 3.642-2.965 3.256-3.389-.169-.187-.094-.216.168-.066s.712-.013 1-.362c.288-.35 1.019-1.138 1.624-1.752.605-.615 1.1-1.334 1.1-1.598s.153-.386.34-.27c.187.115.714-.189 1.172-.677.458-.487 1.119-1.122 1.469-1.41.35-.288.515-.721.366-.962-.149-.241-.088-.325.135-.187.224.138 1.254-.644 2.289-1.738 1.036-1.094 1.736-2.002 1.556-2.017-.18-.016.027-.167.46-.336.772-.302 1.755-1.646 2.659-3.636.249-.55.626-1.376.836-1.834.69-1.505-.138-10.026-.927-9.538-.312.192-.538-.668-.402-1.528.026-.165-.106-.3-.292-.3-.187 0-.664-.72-1.061-1.6-.397-.88-.874-1.6-1.061-1.6-.186 0-.3-.135-.253-.3.075-.263-.639-1.556-2.382-4.315a50.409 50.409 0 01-1.287-2.243c-.435-.802-1.022-1.709-1.304-2.016-1.374-1.492-2.136-4.726-1.113-4.726.22 0 .4-.193.4-.428s.54-1.213 1.2-2.172c.66-.959 1.2-2.027 1.2-2.372 0-.345.136-.628.302-.628.167 0 .557-.585.868-1.3.311-.715.689-1.39.839-1.5.465-.341 3.191-6.01 3.191-6.636 0-.326.291-1.036.646-1.578.355-.542.523-.986.373-.986-.151 0 .099-.523.554-1.162.455-.639.827-1.359.827-1.6 0-.241.18-.438.4-.438.22 0 .4-.36.4-.8 0-.44.18-.8.4-.8.22 0 .4-.349.4-.776 0-.427.18-.888.4-1.024.22-.136.4-.687.4-1.224 0-.537.18-.976.4-.976.22 0 .4-.525.4-1.167 0-.641.169-1.226.375-1.3.207-.073.438-.583.514-1.133.075-.55.446-1.613.824-2.361.378-.749.687-1.694.687-2.1 0-.407.18-.739.4-.739.22 0 .4-.439.4-.976 0-.537.18-1.088.4-1.224.22-.136.4-.747.4-1.357s.127-1.236.282-1.391c.155-.155.347-.767.426-1.36.079-.592.286-1.17.46-1.285.174-.114.33-.817.349-1.562.018-.745.224-1.546.458-1.78.234-.234.425-.918.425-1.521 0-.603.18-1.208.4-1.344.22-.136.4-.687.4-1.224 0-.601.231-.976.6-.976.33 0 .6-.141.6-.313 0-.172.495-.366 1.1-.431 1.696-.184 2.242-.29 3-.584 1.619-.629 2.18-.774 3.7-.957.88-.106 1.771-.356 1.98-.554.209-.199 1.075-.361 1.924-.361.927 0 1.444-.16 1.296-.4-.151-.244.455-.4 1.553-.4.99 0 1.911-.18 2.047-.4.136-.22.766-.4 1.4-.4.634 0 1.264-.18 1.4-.4.136-.22.597-.4 1.024-.4.427 0 .776-.18.776-.4 0-.22.275-.4.611-.4.775 0 4.189-3.387 4.189-4.156 0-.318.225-.652.5-.744.394-.131.5-6.309.5-29.1s-.106-28.969-.5-29.1c-.275-.092-.5-.419-.5-.727 0-.711-3.533-4.173-4.258-4.173-.298 0-.542-.18-.542-.4 0-.22-.45-.4-1-.4s-1-.18-1-.4c0-.22-.529-.4-1.176-.4-.647 0-1.299-.197-1.447-.438-.149-.24-.699-.355-1.223-.255-.524.1-1.268-.057-1.654-.35-.385-.292-1.364-.537-2.176-.544-.812-.007-1.581-.182-1.708-.388-.128-.206-.543-.372-.924-.369-1.011.008-2.667-.273-3.109-.526-.654-.375-3.441-1.067-4.883-1.213-.495-.05-.9-.232-.9-.404 0-.172-.27-.313-.6-.313-.33 0-.6-.349-.6-.776 0-.427-.18-.888-.4-1.024-.22-.136-.4-.942-.4-1.79 0-.849-.177-1.603-.393-1.677-.216-.073-.457-.719-.535-1.435-.078-.715-.261-1.42-.407-1.566-.146-.146-.265-.765-.265-1.375s-.18-1.221-.4-1.357c-.22-.136-.4-.777-.4-1.424 0-.647-.18-1.176-.4-1.176-.22 0-.4-.54-.4-1.2 0-.66-.18-1.2-.4-1.2-.22 0-.4-.439-.4-.976 0-.537-.18-1.088-.4-1.224-.22-.136-.4-.697-.4-1.247 0-.565-.174-.893-.4-.753-.233.144-.4-.263-.4-.976 0-.673-.18-1.224-.4-1.224-.22 0-.4-.551-.4-1.224 0-.713-.167-1.12-.4-.976-.226.14-.4-.193-.4-.767 0-.557-.359-1.603-.799-2.323-.439-.721-.799-1.61-.8-1.977 0-.366-.167-.726-.371-.8-.203-.073-.428-.39-.5-.705-.071-.314-.356-.854-.633-1.2-.277-.345-.495-.767-.484-.938.012-.17-.243-.8-.565-1.4-.773-1.439-1.194-2.608-1.095-3.04.044-.193-.167-.643-.47-1-.303-.358-.783-1.235-1.066-1.95-.283-.715-.672-1.3-.866-1.3-.193 0-.351-.257-.351-.571 0-.315-.244-.816-.543-1.115-.299-.299-.782-1.202-1.073-2.007-.291-.806-.677-1.373-.857-1.262-.18.111-.327-.078-.327-.421 0-.343-.191-.624-.424-.624-.233 0-.321-.165-.196-.368.125-.202.001-.611-.276-.909-.277-.298-.555-.782-.618-1.075-.063-.294-.376-.795-.696-1.115-.706-.706-.157-2.274 1.788-5.101.672-.977 1.222-1.969 1.222-2.204 0-.235.159-.428.354-.428.314 0 1.883-2.845 1.71-3.101-.037-.056.521-.956 1.242-2 .72-1.045 1.666-2.662 2.102-3.594.435-.933.927-1.698 1.092-1.7.165-.003.3-.444.3-.981 0-.537.18-1.088.4-1.224.541-.334.524-7.692-.018-7.873-.23-.076-.447-.529-.483-1.005-.036-.477-.177-.797-.314-.712-.138.084-.494-.468-.792-1.228-.298-.76-.809-1.382-1.134-1.382-.326 0-.479-.113-.34-.252.138-.138-1.092-1.591-2.734-3.227-1.642-1.637-2.985-3.071-2.985-3.188 0-.117-.585-.749-1.3-1.406-.715-.656-1.93-1.808-2.7-2.558-2.151-2.097-2.196-2.14-4.147-4.012-1.007-.966-2.062-1.737-2.342-1.712-.281.025-15.451 15.029-33.711 33.342M49.322 67.829L48.2 68.858l1.3-.904c.715-.497 1.3-.961 1.3-1.029 0-.316-.442-.045-1.478.904M79.07 270.127c-14.041 14.051-25.463 25.613-25.383 25.694.081.081 11.652-11.359 25.713-25.421 14.061-14.062 25.483-25.625 25.383-25.694-.101-.07-11.671 11.37-25.713 25.421" fill="#a4dcf4"/><path d="M189.6 118c0 .233-1.333.4-3.2.4-1.867 0-3.2.167-3.2.4 0 .22-.72.4-1.6.4-.88 0-1.6.18-1.6.4 0 .22-.72.4-1.6.4-.88 0-1.6.18-1.6.4 0 .22-.439.4-.976.4-.537 0-1.088.18-1.224.4-.136.22-.867.4-1.624.4-.757 0-1.376.18-1.376.4 0 .22-.36.4-.8.4-.44 0-.8.18-.8.4 0 .22-.54.4-1.2.4-.66 0-1.2.18-1.2.4 0 .22-.36.4-.8.4-.44 0-.8.18-.8.4 0 .22-.272.4-.605.4-.741 0-6.602 2.776-7.297 3.456-.277.27-.862.606-1.3.745-.439.139-.798.421-.798.626 0 .205-.32.373-.712.373-.391 0-.971.36-1.288.8-.317.44-.809.8-1.092.8-.283 0-1.08.54-1.771 1.2-.691.66-1.406 1.2-1.59 1.2-.913 0-15.545 14.593-15.548 15.507 0 .161-.54.923-1.199 1.693s-1.199 1.585-1.199 1.812c-.001.226-.361.671-.801.988-.44.317-.8.897-.8 1.288 0 .392-.18.712-.4.712-.22 0-.4.236-.4.525 0 .288-.322.873-.715 1.3-.869.941-3.685 6.726-3.685 7.57 0 .333-.18.605-.4.605-.22 0-.4.349-.4.776 0 .427-.18.888-.4 1.024-.22.136-.4.687-.4 1.224 0 .537-.18.976-.4.976-.22 0-.4.439-.4.976 0 .537-.18 1.088-.4 1.224-.22.136-.4.777-.4 1.424 0 .647-.18 1.176-.4 1.176-.22 0-.4.45-.4 1s-.18 1-.4 1c-.22 0-.4.72-.4 1.6 0 .88-.18 1.6-.4 1.6-.22 0-.4.709-.4 1.576 0 .867-.18 1.688-.4 1.824-.22.136-.4 1.587-.4 3.224 0 1.717-.169 2.976-.4 2.976-.256 0-.4 3.733-.4 10.4s.144 10.4.4 10.4c.229 0 .4 1.2.4 2.8 0 1.6.171 2.8.4 2.8.22 0 .4.799.4 1.776s.18 1.888.4 2.024c.22.136.4.777.4 1.424 0 .647.18 1.176.4 1.176.22 0 .4.63.4 1.4 0 .77.18 1.4.4 1.4 1.729 0 .059 2.351-6.1 8.591-3.575 3.622-6.879 6.995-7.343 7.497-.464.502-1.229 1.177-1.7 1.5-.538.37-.857 1.013-.857 1.729 0 1.616-51.317 53.016-52.199 52.284-.452-.375-1.562.558-5.786 4.867a1279.62 1279.62 0 01-6.035 6.132c-.444.44-4.316 4.31-8.603 8.6l-8.086 8.091-8.091 8.068c-7.991 7.968-8.8 8.82-8.8 9.264 0 .141-.495.733-1.1 1.317-.971.936-2.011 2.606-3.46 5.557-.242.493-.575.898-.74.9-.165.002-.3.543-.3 1.203s-.18 1.2-.4 1.2c-.22 0-.4.525-.4 1.167 0 .641-.225 1.241-.5 1.333-.382.127-.5 2.549-.5 10.3 0 7.751.118 10.173.5 10.3.275.092.5.692.5 1.333 0 .642.18 1.167.4 1.167.22 0 .404.405.409.9.005.495.361 1.35.791 1.9.43.55.786 1.225.791 1.5.005.275.189.5.409.5.22 0 .4.36.4.8 0 .44.18.8.4.8.22 0 .4.288.4.64 0 .351.54 1.143 1.2 1.76.66.617 1.2 1.319 1.2 1.56 0 .242.18.44.4.44.22 0 .4.215.4.477 0 .564 3.085 3.523 3.673 3.523.223 0 .91.54 1.527 1.2.617.66 1.409 1.2 1.76 1.2.352 0 .64.18.64.4 0 .22.36.4.8.4.44 0 .8.18.8.4 0 .22.278.4.617.4.339 0 1.003.36 1.475.8.472.44 1.275.8 1.783.8.509 0 .925.18.925.4 0 .22.525.4 1.167.4.641 0 1.241.225 1.333.5.128.382 2.549.5 10.3.5 7.751 0 10.173-.118 10.3-.5.092-.275.692-.5 1.333-.5.642 0 1.167-.18 1.167-.4 0-.22.234-.4.52-.4.736 0 2.673-.941 2.677-1.3.002-.165.363-.3.803-.3.44 0 .8-.18.8-.4 0-.22.36-.4.8-.4.44 0 .8-.18.8-.4 0-.22.288-.4.64-.4.351 0 1.143-.54 1.76-1.2.617-.66 1.236-1.2 1.377-1.2.437 0 1.243-.765 9.269-8.8l8.132-8.141 8.141-8.14c4.29-4.29 7.953-7.955 8.14-8.145.188-.189 2.914-2.875 6.059-5.967 3.269-3.215 5.603-5.811 5.448-6.062-.369-.596 50.88-51.82 52.169-52.143.543-.136 1.499-.823 2.125-1.525.626-.702 1.273-1.404 1.439-1.558.165-.155 3.315-3.26 6.998-6.9 6.349-6.275 8.703-7.957 8.703-6.219 0 .22.439.4.976.4.537 0 1.088.18 1.224.4.136.22.867.4 1.624.4.757 0 1.376.18 1.376.4 0 .22.9.4 2 .4s2 .18 2 .4c0 .222 1.067.4 2.4.4s2.4.178 2.4.4c0 .257 4 .4 11.2.4 7.2 0 11.2-.143 11.2-.4 0-.229 1.2-.4 2.8-.4 1.6 0 2.8-.171 2.8-.4 0-.22.709-.4 1.576-.4.867 0 1.688-.18 1.824-.4.136-.22.946-.4 1.8-.4.854 0 1.664-.18 1.8-.4.136-.22.687-.4 1.224-.4.537 0 .976-.18.976-.4 0-.22.54-.4 1.2-.4.66 0 1.2-.18 1.2-.4 0-.22.619-.4 1.376-.4.757 0 1.488-.18 1.624-.4.136-.22.597-.4 1.024-.4.427 0 .776-.18.776-.4 0-.22.439-.4.976-.4.537 0 1.088-.18 1.224-.4.136-.22.502-.4.813-.4.847 0 4.765-1.934 5.719-2.823.459-.427 1.072-.777 1.363-.777.291 0 .788-.36 1.105-.8.317-.44.897-.8 1.288-.8.392 0 .712-.18.712-.4 0-.22.243-.4.541-.4.297 0 1.105-.54 1.796-1.2.691-.66 1.449-1.2 1.685-1.2.237 0 1.307-.9 2.378-2 1.071-1.1 2.118-2 2.326-2 .517 0 5.274-4.877 5.274-5.408 0-.13 1.08-1.296 2.4-2.592 1.32-1.296 2.4-2.596 2.4-2.89 0-.293.36-.793.8-1.11.44-.317.8-.809.8-1.092 0-.283.54-1.08 1.2-1.771.66-.691 1.2-1.416 1.2-1.613 0-.197.36-.744.8-1.216.44-.472.8-1.095.8-1.383 0-.289.18-.525.4-.525.22 0 .4-.36.4-.8 0-.44.135-.801.3-.801.165-.001.75-.991 1.3-2.199.55-1.208 1.119-2.198 1.265-2.199.146 0 .386-.721.535-1.601.149-.88.434-1.6.635-1.6s.365-.54.365-1.2c0-.66.18-1.2.4-1.2.22 0 .4-.36.4-.8 0-.44.18-.8.4-.8.22 0 .4-.54.4-1.2 0-.66.18-1.2.4-1.2.22 0 .4-.54.4-1.2 0-.66.18-1.2.4-1.2.22 0 .4-.529.4-1.176 0-.647.18-1.288.4-1.424.22-.136.4-.777.4-1.424 0-.647.18-1.176.4-1.176.22 0 .4-.72.4-1.6 0-.88.18-1.6.4-1.6.228 0 .4-1.192.4-2.776 0-1.527.18-2.888.4-3.024.251-.155.4-4.263.4-11s-.149-10.845-.4-11c-.22-.136-.4-1.317-.4-2.624 0-1.317-.178-2.376-.4-2.376-.22 0-.4-.9-.4-2s-.18-2-.4-2c-.22 0-.4-.72-.4-1.6 0-.88-.18-1.6-.4-1.6-.22 0-.4-.36-.4-.8 0-.44-.18-.8-.4-.8-.22 0-.4-.185-.4-.411 0-.642-3.278-3.729-4.605-4.336-.657-.3-1.508-.705-1.89-.9-.968-.493-7.505-.452-7.505.047 0 .22-.45.4-1 .4s-1 .18-1 .4c0 .22-.27.4-.6.4-.33 0-.6.18-.6.4 0 .22-.213.4-.474.4-.533 0-1.609 1.024-11.579 11.021-3.879 3.89-7.593 7.613-8.253 8.273-5.83 5.834-10.497 10.202-11.403 10.674-.6.312-1.091.717-1.091.9 0 .182-.36.332-.8.332-.44 0-.8.18-.8.4 0 .22-.27.4-.6.4-.33 0-.6.18-.6.4 0 .22-.36.4-.8.4-.44 0-.8.18-.8.4 0 .22-.619.4-1.376.4-.757 0-1.488.18-1.624.4-.14.227-2.137.4-4.624.4-2.651 0-4.376-.158-4.376-.4 0-.22-.54-.4-1.2-.4-.66 0-1.2-.18-1.2-.4 0-.22-.45-.4-1-.4s-1-.18-1-.4c0-.22-.36-.4-.8-.4-.44 0-.8-.18-.8-.4 0-.22-.248-.4-.552-.4-.303 0-1.293-.72-2.2-1.6-.907-.88-1.919-1.6-2.248-1.6-.33 0-.6-.248-.6-.552 0-.303-.72-1.293-1.6-2.2-.88-.907-1.6-1.919-1.6-2.248 0-.33-.18-.6-.4-.6-.22 0-.4-.36-.4-.8 0-.44-.18-.8-.4-.8-.22 0-.4-.45-.4-1s-.18-1-.4-1c-.22 0-.4-.54-.4-1.2 0-.66-.18-1.2-.4-1.2-.242 0-.4-1.733-.4-4.4 0-2.667.158-4.4.4-4.4.22 0 .4-.72.4-1.6 0-.88.18-1.6.4-1.6.22 0 .4-.36.4-.8 0-.44.136-.8.302-.8.167 0 .562-.585.878-1.3.317-.715.9-1.649 1.298-2.075.397-.427.722-.924.722-1.104 0-.254 5.106-5.599 10.318-10.803l8.141-8.094c4.258-4.232 8.006-8.085 8.33-8.561.324-.476.881-.958 1.236-1.071.356-.113.901-.697 1.211-1.299.31-.601.879-1.442 1.264-1.868.385-.427.7-1.192.7-1.7 0-.509.18-.925.4-.925.239 0 .4-1.533.4-3.8s-.161-3.8-.4-3.8c-.22 0-.4-.272-.4-.605 0-1.24-3.765-5.795-4.789-5.795a.407.407 0 01-.411-.4c0-.22-.36-.4-.8-.4-.44 0-.8-.18-.8-.4 0-.22-.72-.4-1.6-.4-.88 0-1.6-.18-1.6-.4 0-.22-.9-.4-2-.4s-2-.18-2-.4c0-.229-1.2-.4-2.8-.4-1.6 0-2.8-.171-2.8-.4 0-.256-3.733-.4-10.4-.4s-10.4.144-10.4.4" fill="#149cf3"/><path d="M171.5.281c-.385.098-.7.344-.7.548 0 .204-.36.371-.8.371-.44 0-.801.225-.801.5-.001.275-.528.853-1.172 1.284-.643.431-1.082.926-.975 1.1.107.174-.105.316-.471.316-.422 0-.584.216-.441.588.124.324-.036.851-.357 1.172-.321.321-.583.956-.583 1.411 0 .456-.18.829-.4.829-.22 0-.4.439-.4.976 0 .537-.18 1.088-.4 1.224-.22.136-.4.831-.4 1.544 0 .713-.225 1.538-.5 1.835-.404.435-.393.477.062.218.416-.238.47-.175.206.241-.196.309-.372.652-.393.762l-.331 1.8c-.162.88-.488 2.05-.724 2.6-.236.55-.45 1.592-.475 2.315-.025.723-.225 1.443-.445 1.6-.22.157-.458 1.002-.529 1.879-.071.877-.294 1.793-.497 2.037-.202.243-.249.561-.104.706.243.243-.576.415-1.77.37-.275-.01-.5.142-.5.337 0 .196-.641.356-1.424.356-.847 0-1.323.162-1.176.4.227.367-1.54.615-2.957.417-.307-.043-.69.136-.852.397-.161.262-.84.498-1.508.525-.667.027-1.129.187-1.025.355.104.168-.552.306-1.458.306-.906 0-1.564.135-1.463.3.101.165-1.238.746-2.977 1.291-1.738.545-3.16 1.13-3.16 1.3 0 .17-.439.309-.976.309-.537 0-1.088.18-1.224.4-.136.22-.687.4-1.224.4-.537 0-.976.18-.976.4 0 .22-.324.4-.72.4-.396 0-.891.149-1.1.33-.209.182-1.145.571-2.08.864-.935.294-1.7.663-1.7.82 0 .157-.518.39-1.152.516-.633.127-1.43.51-1.771.85-.341.341-.92.62-1.287.62-.366 0-1.144.335-1.728.745-.584.409-1.734.867-2.556 1.017-.843.153-1.454.483-1.4.755.053.271-.297.462-.797.436-.49-.026-.798.104-.684.288.114.185-.242.448-.792.587-.55.138-1.21.503-1.466.811-.256.309-.794.561-1.195.561-.402 0-1.204.439-1.783.975-.579.537-1.316.875-1.637.751-.36-.138-.54-.013-.468.325.066.314-.182.525-.58.494-.382-.03-.597.105-.476.3s-.151.355-.604.355c-.453 0-.824.168-.824.373 0 .52-1.354.896-2.141.594-.36-.138-.536-.443-.391-.677.164-.266.017-.331-.391-.175-.361.139-.931-.026-1.272-.367-.34-.34-1.47-1.071-2.512-1.624-1.041-.553-1.983-1.125-2.093-1.27-.11-.146-1.055-.696-2.1-1.222-1.045-.527-1.9-1.109-1.9-1.295 0-.185-.36-.337-.8-.337-.44 0-.8-.18-.8-.4 0-.22-.36-.4-.8-.4-.44 0-.8-.18-.8-.4 0-.22-.281-.4-.624-.4-.343 0-.512-.18-.376-.4.136-.22-.09-.4-.501-.4-.412 0-1.494-.36-2.405-.8-1.808-.874-8.494-1.189-8.494-.4 0 .22-.551.4-1.224.4-.713 0-1.12.167-.976.4.136.22-.033.4-.376.4-.343 0-.624.18-.624.4 0 .22-.186.4-.413.4-.228 0-.948.546-1.6 1.214-.653.667-1.187 1.11-1.187.984 0-.126-.251.003-.558.286-.307.284-.476.651-.376.816.099.165-.099.3-.442.3-.343 0-.579.144-.524.321.055.176-.753 1.211-1.795 2.3-1.042 1.088-2.18 2.339-2.529 2.779-.35.44-.505.53-.346.2.159-.33-.689.435-1.886 1.7-1.196 1.265-2.393 2.3-2.659 2.3-.267 0-.485.261-.485.58 0 .318-.628 1.058-1.396 1.644-.768.586-1.337 1.18-1.264 1.321.166.318-1.208 1.654-1.451 1.411-.098-.098-.662.457-1.254 1.233-.591.776-1.337 1.411-1.655 1.411-.319 0-.58.218-.58.485 0 .266-1.035 1.463-2.3 2.659-1.265 1.197-2.03 2.045-1.7 1.886.33-.159.24-.004-.2.346-.44.349-1.691 1.487-2.779 2.529-1.089 1.042-2.124 1.85-2.3 1.795-.177-.055-.321.181-.321.524s-.135.541-.3.442c-.165-.1-.532.069-.816.376-.283.307-.418.558-.3.558.119 0-.144.36-.584.8-.44.44-.8.991-.8 1.224 0 .233-.15.331-.332.218-.183-.113-.577.417-.876 1.178-.37.943-.644 1.224-.861.882-.192-.302-.321.087-.325.974-.003.812-.195 1.594-.426 1.736-.505.312-.434 6.988.074 6.988.19 0 .346.36.346.8 0 .44.18.8.4.8.22 0 .4.551.4 1.224 0 .673.142 1.136.315 1.028.173-.107.568.378.878 1.077.309.699.881 1.613 1.271 2.032.39.418.613.914.497 1.102-.117.189.065.449.403.578.338.13.724.82.858 1.534.134.714.675 1.8 1.202 2.414.527.613.845 1.3.706 1.525-.14.225-.067.294.162.153.228-.141.638.281.91.938.272.657.653 1.195.847 1.195.193 0 .351.345.351.767 0 .421.169.826.376.9.734.26.807 2.303.097 2.7-.37.207-.628.479-.573.605.244.557.065 1.053-.3.828-.22-.136-.4.134-.4.6 0 .545-.167.744-.468.558-.314-.194-.384-.072-.214.372.156.407-.088 1.01-.632 1.567-.487.497-.947 1.264-1.022 1.704-.075.439-.39 1.083-.7 1.43-.31.348-.564.834-.564 1.081 0 .246-.231.592-.514.768-.282.176-.516.68-.518 1.12-.002.457-.233.75-.537.683-.358-.079-.463.152-.32.7.118.449.096.822-.048.828-.145.006-.712.996-1.26 2.2-.548 1.204-1.133 2.189-1.3 2.189-.167 0-.303.54-.303 1.2 0 .66-.18 1.2-.4 1.2-.22 0-.4.36-.4.8 0 .44-.21.8-.467.8-.256 0-.351.115-.21.256.265.266-.92 2.544-1.324 2.544-.126 0-.273.582-.327 1.293-.055.712-.273 1.468-.485 1.68-.213.213-.387.711-.387 1.107s-.191.72-.424.72c-.233 0-.328.153-.212.341.116.188-.048.683-.364 1.1-.316.417-.581 1.209-.589 1.759-.008.55-.379 1.599-.826 2.332-.447.733-.581 1.201-.299 1.041.412-.233.415-.184.014.248-.275.297-.5.874-.5 1.283 0 .409-.142.656-.315.548-.173-.107-.353.259-.399.813-.045.553-.219 1.215-.384 1.471-.166.255-.32.734-.343 1.064l-.1 1.524c-.032.508-.194.84-.359.738-.165-.101-.352.557-.416 1.463s-.334 1.786-.6 1.955c-.361.229-.344.309.065.314.443.005.452.122.051.606-.274.33-.35.6-.169.6.181 0 .113.216-.151.48s-.48.872-.48 1.351c0 .927-.898 1.937-1.334 1.501-.144-.143-.609.055-1.035.44-.517.468-1.065.607-1.652.421-.484-.153-.784-.124-.668.064.116.189-.283.379-.887.422-1.531.11-2.189.274-2.44.608-.118.158-.838.33-1.6.381-.761.052-1.482.234-1.603.405-.12.171-1.048.36-2.061.419-1.014.059-1.76.243-1.658.408.102.165-.287.3-.865.3-.577 0-1.372.173-1.766.384-.395.211-1.373.427-2.174.481-.801.054-1.457.22-1.457.368 0 .149-.585.506-1.3.795-.715.289-1.446.764-1.625 1.057-.178.292-.48.435-.671.318-.19-.118-.461.148-.602.591-.141.443-.476.806-.745.806-.27 0-.977.963-1.573 2.14L0 172.68v54.502l1.083 2.209c.596 1.214 1.406 2.31 1.8 2.435.394.126.717.465.717.754 0 .626 4.096 2.696 5.786 2.924.653.088 1.496.326 1.874.528.378.202 1.059.368 1.514.368.454 0 .826.191.826.425 0 .234.315.393.7.354 1.459-.148 2.94.033 2.752.337-.108.174.443.334 1.224.354.781.021 1.576.284 1.766.584.284.448.348.438.358-.054.008-.394.113-.447.306-.155.32.484 2.34.966 4.394 1.047.715.028 1.3.199 1.3.38 0 .18.354.328.786.328.847 0 1.805 1.367 1.409 2.008-.133.216-.082.392.115.392.363 0 .412.163.628 2.097.068.604.244 1.219.392 1.367.149.148.27.679.27 1.179s.18 1.021.4 1.157c.22.136.4.777.4 1.424 0 .647.141 1.176.313 1.176.172 0 .353.485.402 1.078.049.592.241 1.177.426 1.3.186.122.335.499.332.837-.008.816 1.658 5.789 2.588 7.723.406.846.739 1.785.739 2.088 0 .302.36 1.191.8 1.974.44.783.8 1.689.8 2.012 0 .323.18.588.4.588.22 0 .4.439.4.976 0 .537.18 1.088.4 1.224.22.136.4.607.4 1.047 0 .44.18.689.4.553.22-.136.4.008.4.32 0 .573 2.385 5.509 2.841 5.88.135.11.197.515.138.9-.06.385.056.7.256.7.201 0 .365.272.365.605 0 .698.812 2.257 1.4 2.689.22.162.258.297.084.3-.173.003.056.405.51.892s.733 1.127.62 1.421c-.112.294-.027.425.191.29.217-.134.395.009.395.317 0 .309.36.888.8 1.286.44.398.8 1.034.8 1.413s.268.911.596 1.183c.327.272.517.621.421.776-.096.155.176.535.604.843.429.309.779.839.779 1.177 0 .339.36.84.8 1.115.44.275.8.858.8 1.296 0 1.549 1.07.545 27.007-25.36l26.19-26.157-.578-1.114c-.318-.613-.487-1.263-.375-1.443.112-.181.013-.329-.22-.329s-.424-.439-.424-.976c0-.537-.18-1.088-.4-1.224-.22-.136-.4-.607-.4-1.047 0-.44-.18-.689-.4-.553-.233.144-.4-.255-.4-.953 0-.66-.18-1.311-.4-1.447-.22-.136-.4-.697-.4-1.247 0-.565-.174-.893-.4-.753-.37.229-.575-.553-.437-1.67.032-.258-.127-.584-.352-.723-.226-.14-.411-.794-.411-1.454 0-.698-.167-1.097-.4-.953-.244.151-.4-.463-.4-1.576 0-1.003-.18-1.824-.4-1.824-.22 0-.4-.619-.4-1.376 0-.757-.18-1.488-.4-1.624-.22-.136-.4-1.058-.4-2.05 0-.991-.164-2.108-.364-2.482-.2-.374-.423-1.757-.496-3.074-.072-1.317-.275-2.499-.451-2.627-.484-.353-.39-23.03.099-23.945.227-.423.415-1.816.418-3.096.004-1.649.119-2.151.394-1.726.325.503.683-3.41.447-4.9-.026-.165.133-.3.353-.3.22 0 .4-.619.4-1.376 0-.757.18-1.488.4-1.624.22-.136.4-.687.4-1.224 0-.537.225-.979.5-.982.333-.004.3-.136-.1-.394s-.433-.39-.1-.394c.275-.003.5-.399.5-.88 0-.48.351-1.605.779-2.5.429-.894.86-2.076.958-2.626.303-1.697.74-2.8 1.11-2.8.194 0 .353-.529.353-1.176 0-.647.18-1.288.4-1.424.22-.136.4-.607.4-1.047 0-.493.174-.693.452-.521.276.171.375.063.256-.276-.178-.504 1.197-3.445 2.168-4.638.216-.266.284-.66.15-.876-.134-.216.059-.562.427-.768.405-.227.572-.632.421-1.024-.162-.423-.038-.65.356-.65.333 0 .578-.225.544-.5-.095-.782.481-2.3.873-2.3.194 0 .353-.27.353-.6 0-.33.18-.6.4-.6.22 0 .4-.281.4-.624 0-.369.188-.507.462-.338.274.169.353.111.196-.144-.146-.236.006-.701.338-1.033.332-.332.604-.887.604-1.232 0-.346.18-.629.4-.629.22 0 .4-.193.4-.429 0-.592 1.049-1.589 1.352-1.285.137.136.248-.076.248-.471 0-.395.636-1.422 1.414-2.283.777-.86 1.306-1.737 1.176-1.948-.13-.211.133-.384.586-.384.471 0 .824-.261.824-.609 0-.335.69-1.37 1.534-2.3.844-.93 1.649-2.008 1.789-2.395.14-.387.422-.657.626-.6.204.057.344-.022.311-.177-.033-.155.525-.766 1.24-1.358.715-.592 1.3-1.244 1.3-1.448 0-.479 1.034-1.513 1.513-1.513.204 0 .83-.554 1.391-1.231.561-.678 1.172-1.263 1.358-1.3.186-.038.291-.209.234-.38-.057-.171.213-.431.6-.578.387-.146 1.359-.906 2.159-1.689 1.692-1.653 2.184-2.034 3.545-2.743.55-.287 1.803-1.232 2.786-2.1.982-.869 1.977-1.579 2.211-1.579.235 0 .686-.36 1.003-.8.317-.44.907-.8 1.312-.8.404 0 .624-.18.488-.4-.219-.355.622-.595 1.53-.437.181.031.215-.128.076-.353-.139-.226-.071-.41.153-.41.223 0 1.069-.45 1.879-1 .811-.55 1.789-1 2.175-1 .386 0 .804-.267.929-.593.13-.338.493-.492.843-.357.393.15.615.008.615-.395 0-.406.221-.545.622-.391.362.139.955-.118 1.416-.613.436-.468 1.226-.851 1.754-.851s1.089-.208 1.246-.462c.189-.305.108-.352-.238-.138-.339.21-.427.167-.249-.121.151-.244.521-.35.821-.234.301.115.666.017.811-.218.145-.235.704-.427 1.241-.427.537 0 .976-.18.976-.4 0-.22.279-.4.619-.4.341 0 1.365-.36 2.275-.8.911-.44 2.072-.8 2.581-.8.509 0 .925-.18.925-.4 0-.22.36-.4.8-.4.44 0 .8-.18.8-.4 0-.22.81-.4 1.8-.4s1.8-.18 1.8-.4c0-.22.619-.4 1.376-.4.757 0 1.488-.18 1.624-.4.136-.22.741-.4 1.344-.4.603 0 1.267-.163 1.476-.361.209-.199 1.19-.446 2.18-.549.99-.103 2.214-.292 2.721-.42.507-.128 1.812-.286 2.9-.351 1.088-.065 1.979-.254 1.979-.419 0-.165 2.621-.3 5.824-.3 4.552 0 5.758-.109 5.523-.5-.236-.393-.173-.397.292-.021.376.304 2.784.546 6.577.661 7.263.221 11.455.604 11.964 1.094.209.201 1.233.366 2.276.366 1.043 0 2.008.18 2.144.4.136.22.777.4 1.424.4.647 0 1.176.18 1.176.4 0 .22.731.4 1.624.4.893 0 1.535.143 1.427.317-.107.174.287.359.877.41 1.899.164 2.333.29 3.398.988.575.377 1.502.685 2.06.685s1.014.18 1.014.4c0 .22.273.4.606.4.97 0 3.794.966 3.794 1.297 0 .167.272.303.605.303.663 0 2.251.803 2.64 1.334.134.184.361.317.502.295.142-.022 1.135.405 2.207.948 1.072.543 2.06.875 2.197.738.137-.136.249-.026.249.245 0 .312.295.4.8.24.565-.179.8-.072.8.365 0 .344.49.74 1.1.889.605.148 1.19.38 1.3.516.11.135.65.469 1.2.741 1.501.742 3.887 2.212 4.689 2.889.391.33 1.251.933 1.911 1.34.66.407 1.604 1.217 2.098 1.8.494.583.899.821.9.529.001-.307.502-.054 1.189.6 1.61 1.534 2.338 2.131 2.596 2.131.294 0 3.279 3.002 3.467 3.486.083.213 1.105 1.054 2.272 1.869l2.122 1.482 33.586-33.589 33.586-33.589-3.808-3.82c-2.094-2.101-3.808-4.005-3.808-4.23 0-.225-.135-.409-.3-.409-.479-.001-6.9-6.305-6.9-6.775 0-.234-.179-.425-.397-.425-.399 0-1.775-1.074-3.392-2.648-1.278-1.245-10.611-2.46-10.611-1.381 0 .236-.435.429-.967.429-.531 0-1.026.135-1.1.3-.073.165-1.033.748-2.133 1.295-1.1.547-2.09 1.087-2.2 1.2-.843.866-1.735 1.372-1.418.805.185-.33-.069-.183-.564.327-.495.51-1.161.827-1.48.705-.323-.125-.472-.048-.335.173.22.355-.309.568-1.103.442-.165-.026-.255.088-.2.253.055.165-.016.3-.158.3-.142 0-.637.343-1.1.762-.463.419-.842.631-.842.471 0-.16-.474.082-1.054.538-.58.456-1.3.829-1.6.829-.3 0-.546.18-.546.4 0 .22-.371.4-.824.4-.453 0-.725.159-.604.354.334.541-1.748.806-2.31.295-.725-.66-2.187-1.449-2.685-1.449-.63 0-1.588-1.055-1.258-1.386.155-.154.101-.244-.119-.2-.928.187-1.829-.043-1.603-.409.135-.218-.007-.299-.315-.181-.309.118-.983-.224-1.5-.762-.517-.537-1.146-.897-1.397-.801-.251.097-.688-.103-.97-.443-.282-.34-.761-.618-1.064-.618-.303 0-.551-.191-.551-.424 0-.233-.168-.32-.372-.193-.205.126-.486.047-.624-.176-.138-.224-.646-.413-1.128-.42-.482-.007-1.218-.271-1.635-.587-.417-.316-.912-.48-1.1-.364-.188.116-.341.059-.341-.128s-.99-.775-2.2-1.308c-1.21-.533-2.2-1.111-2.2-1.284 0-.174-.339-.316-.754-.316-.846 0-2.93-.983-2.659-1.254.096-.096-.304-.214-.888-.263-.585-.048-1.243-.267-1.461-.485-.219-.219-.782-.398-1.251-.398-.47 0-.989-.135-1.154-.3-.283-.284-.429-.329-1.457-.45-.233-.027-.309-.234-.17-.46.139-.225.105-.384-.076-.353-1.243.216-2.547-.09-2.289-.537.158-.275.148-.375-.022-.221-.17.153-.964.035-1.764-.261-.8-.297-1.815-.674-2.255-.839a11.664 11.664 0 00-1.569-.447c-.422-.081-1.042-.369-1.376-.64-.497-.402-.546-.389-.27.07.253.419.196.472-.223.206-.63-.399-.815-.447-1.986-.518-.453-.028-.74-.185-.638-.35.101-.165-.553-.352-1.454-.415-.902-.064-1.872-.309-2.156-.545-.285-.236-.777-.33-1.094-.209-.316.122-.78-.025-1.031-.327-.25-.301-.791-.483-1.203-.404-.833.16-1.801-.751-1.432-1.348.13-.211.055-.444-.167-.518-.223-.075-.449-.899-.503-1.833-.054-.933-.233-1.698-.398-1.699-.165-.001-.3-.454-.3-1.007 0-.553-.159-1.318-.353-1.7-.333-.656-1.152-3.741-1.459-5.495-.077-.44-.32-1.51-.539-2.378-.22-.868-.31-1.723-.201-1.9.11-.177.009-.322-.224-.322s-.424-.369-.424-.82c0-.451-.263-1.328-.584-1.949-.321-.621-.471-1.242-.333-1.38.138-.138.04-.251-.216-.251-.257 0-.467-.348-.467-.773 0-.425-.36-.887-.8-1.027-.44-.14-.8-.43-.8-.645 0-.498-1.842-2.355-2.336-2.355-.205 0-.888-.27-1.518-.6-1.098-.576-54.851-.876-57.046-.319" fill="#b4e4f4"/><path d="M78.993 270.801C64.91 284.88 53.48 296.4 53.595 296.4c.114 0 11.726-11.52 25.805-25.6 14.079-14.08 25.508-25.6 25.399-25.599-.11 0-11.722 11.52-25.806 25.6m50.191 50.215c-13.96 13.961-25.225 25.384-25.033 25.384.471 0 50.836-50.347 50.6-50.582-.102-.102-11.607 11.237-25.567 25.198" fill="#8cd4f4"/><path d="M104.8 244.901c0 .705-50.875 51.499-51.581 51.499-.426 0-.461.118-.133.446.329.329 7.27-6.372 26.28-25.371C101.546 249.31 106.194 244.4 105 244.4c-.11 0-.2.226-.2.501m24.016 76.083c-14.18 14.181-25.699 25.836-25.599 25.9.101.064 11.794-11.539 25.984-25.784 14.191-14.245 25.71-25.9 25.599-25.9-.111 0-11.804 11.603-25.984 25.784" fill="#54b4f4"/></g></svg>