<svg version="1.0" xmlns="http://www.w3.org/2000/svg" width="682.667" height="682.667" viewBox="0 0 512 512"><path d="M220.5 1.4c-3.6 1.5-8.3 6.8-9 9.9-.3 1.2-1.7 7.4-3.3 13.7l-2.8 11.5-6 1.8c-23 6.9-38.3 13.1-53.7 21.9l-8.8 5-10.3-6.1C112 50.4 109 49.4 103.7 51c-3.5 1-8.1 5.1-27 23.8C52.4 99 49.4 103 50.6 109.4c.3 2 3.1 7.7 6.1 12.8 9.5 16 9.1 13.6 3.5 23.6-8.8 15.7-16.2 33.6-20.7 49.7-1.3 4.8-2.8 9.1-3.2 9.5-.4.4-6.6 2.1-13.7 3.8-13.1 3.1-16.3 4.6-20 9.6-2 2.7-2.1 4-2.1 37.6 0 33.8.1 34.9 2.1 37.7 3.6 4.8 7.6 6.7 20.8 9.7 10.5 2.4 12.9 3.3 13.6 5 .4 1.2 2.8 8.4 5.3 16.1C47 339.1 52.4 352 53.7 352c.4 0 16.3-15.9 35.3-35.3l34.6-35.2-1.4-12.5c-5.2-49.3 17.9-97.9 59.4-125.2 38.5-25.3 85.1-29.5 128.1-11.7 24.9 10.4 48.5 31.4 62.8 55.9 18.8 32.2 23.2 73 11.9 109.1-10.3 33.1-35.7 63-66.6 78.6-22.6 11.4-51.5 16.8-76.5 14.2l-11.5-1.2-35.1 35.1-35.1 35.1 6.9 3.2c5.7 2.6 23.4 8.7 36.5 12.7 2.2.7 2.8 2.1 5.7 14.2 3.4 13.8 4.8 16.8 9.7 20.4 2.7 2 4 2.1 37.6 2.1s34.9-.1 37.6-2.1c5-3.7 6.6-7 9.8-20.5l3.1-13.4 6-1.8c22.8-6.8 38.4-13.1 53.8-21.9l8.7-5 12.3 7.1c6.7 3.8 13.5 7.3 15 7.7 6.2 1.5 10.1-1.4 34.4-25.8 30.1-30.3 29.4-28.1 16.2-50.4l-6.1-10.3 5-8.8c8.8-15.4 15.1-31 21.9-53.8l1.8-6 13.4-3.2c13.7-3.2 16.8-4.7 20.5-9.7 2-2.7 2.1-4 2.1-37.6s-.1-34.9-2.1-37.6c-3.7-5-6.8-6.5-20.5-9.7l-13.4-3.2-1.8-6c-6.8-22.8-13.1-38.4-21.9-53.8l-5-8.8 6.1-10.3c13.2-22.3 13.9-20.1-16.2-50.4-24.3-24.4-28.2-27.3-34.4-25.8-1.5.4-8.3 3.9-15 7.7L375 65.2l-8.7-5c-15.4-8.8-31-15.1-53.8-21.9l-6-1.8-3.1-13.4c-3.2-13.5-4.8-16.8-9.8-20.5-2.6-2-4.2-2.1-36.4-2.3-26.5-.2-34.4 0-36.7 1.1z"/><path d="M243.5 151.7c-64.1 8.2-106 71.2-88.3 132.7l2 6.9-74.9 75.1c-70 70.1-75.1 75.5-77.7 81.4-7.9 18.1-4.5 37.4 8.8 50.8 13.4 13.3 32.7 16.7 50.8 8.8 5.9-2.6 11.3-7.7 81.4-77.7l75.2-74.9 4.8 1.5c11.2 3.5 16.2 4.2 30.9 4.2 13.1-.1 16.4-.4 26-2.9 23.7-6 42.1-17.8 55.8-35.9 15.7-20.5 23.7-45.9 22.3-70.9-1.1-21.2-4.9-30.4-13.6-32.6-7.9-2-9.7-.8-32 21.3-11.3 11.1-21.8 20.9-23.5 21.7-8.3 4.3-19.6 4.3-27.8.2-15-7.6-20.7-27.6-12-41.8 1.4-2.3 11.2-12.9 21.8-23.6 21-21.3 22.3-23.1 20.3-31-1.4-5.6-6.2-9.5-13.3-11-13.3-2.8-26.9-3.6-37-2.3z"/></svg>