<svg version="1.0" xmlns="http://www.w3.org/2000/svg" width="682.667" height="682.667" viewBox="0 0 512 512"><path d="M220 1.6c-5.4 2.2-7.9 7-11.4 21.7l-3.1 13.2-4 1.3c-29 9.1-41.5 14.1-56.8 22.9l-7.8 4.5-9.7-5.8c-15-9-16.8-9.7-22.1-8.9-4.4.6-5.6 1.7-29.3 25.3-31.3 31.4-30.3 28.2-16.4 51.4l5.8 9.7-4.5 7.8C51.9 160 47 172.1 37.8 201.5l-1.3 3.9-13.2 3.1c-14.9 3.6-19.5 6-21.8 11.8-2.2 5.5-2.2 65.9 0 71.4 2.3 5.7 6.9 8.2 21.7 11.7l13.2 3.1 1.2 3.5c.7 1.9 3.1 9.5 5.5 16.9 4.4 13.7 13.4 33.4 20.7 45.4 2.3 3.7 4.2 7 4.2 7.4 0 .4-13.5 14.2-29.9 30.8C11.3 437.3 7.8 441.2 5 447.2c-8.4 18-5.2 37.8 8.4 51.4 13.6 13.6 33.4 16.8 51.4 8.4 6-2.8 9.9-6.3 36.7-33.1 16.6-16.4 30.4-29.9 30.8-29.9.4 0 3.7 1.9 7.4 4.2 12 7.3 31.7 16.3 45.4 20.7 7.4 2.4 15 4.8 16.9 5.5l3.5 1.2 3.1 13.2c3.5 14.8 6 19.4 11.7 21.7 5.5 2.2 65.9 2.2 71.4 0 5.8-2.3 8.2-6.9 11.8-21.8l3.1-13.2 3.9-1.3c29.4-9.2 41.5-14.1 56.8-22.9l7.8-4.5 9.7 5.8c15 9 16.8 9.7 22.1 8.9 4.4-.6 5.6-1.7 29.3-25.3 31.3-31.4 30.3-28.2 16.4-51.4l-5.8-9.7 4.5-7.8c8.8-15.3 13.8-27.8 22.9-56.8l1.3-4 13.2-3.1c14.9-3.5 19.5-6 21.8-11.7 2.2-5.5 2.2-65.9 0-71.4-2.3-5.8-6.9-8.2-21.8-11.8l-13.2-3.1-1.3-3.9c-9.2-29.4-14.1-41.5-22.9-56.8l-4.5-7.8 5.8-9.7c9-15 9.7-16.8 8.9-22.1-.6-4.4-1.7-5.6-25.3-29.3-31.4-31.3-28.2-30.3-51.4-16.4l-9.7 5.8-7.8-4.5c-15.3-8.8-27.8-13.8-56.8-22.9l-4-1.3-3.1-13.2c-3.5-14.9-6-19.5-11.7-21.8-5.4-2.2-66.5-2.1-71.7.1zm57.4 41.5c1.7 6.9 3.9 13.7 4.9 15.2 2.4 3.7 5.4 5 20.2 8.6 20.7 5.2 41.4 14 58.4 25 7.6 4.9 12.2 6.5 16.4 5.7 1.8-.3 8.1-3.6 14.1-7.2l11-6.5 12.8 12.9 12.9 12.8-6.5 11c-3.6 6-6.9 12.3-7.2 14.1-.8 4.2.8 8.8 5.7 16.4 11.1 17.1 20 38.1 25 58.4 3.5 14.7 4.8 17.8 8.6 20.2 1.5 1 8.3 3.2 15.2 4.9l12.6 3v36.8l-12.6 3c-6.9 1.7-13.7 3.9-15.2 4.9-3.7 2.4-5 5.4-8.6 20.2-5.2 20.7-14 41.4-25 58.4-4.9 7.6-6.5 12.2-5.7 16.4.3 1.8 3.6 8.1 7.2 14.1l6.5 11-12.8 12.8-12.9 12.9-11.1-6.6c-6.7-4-12.7-6.9-15-7.2-4.2-.5-7.9 1.2-23.3 10.5-14.4 8.8-35.7 17-56.4 21.7-13.5 3.1-14.8 4.7-19.2 22.4l-3 12.6h-36.8l-3-12.6c-1.7-6.9-3.9-13.7-4.9-15.2-2.4-3.7-6-5.3-17.9-8.2-19.2-4.5-40.2-12.9-54.6-21.7l-3.4-2.1 10.7-10.7 10.7-10.8 9.2 4.3c13.2 6.2 25.2 10.2 39.5 13.2 11.1 2.3 14.9 2.7 31.6 2.7 21.7 0 31.2-1.3 49.5-7 50.8-15.8 91.2-55.9 108-107.2 22.8-69.9-4.8-147.7-67-188.5C305.2 91 252.1 83.9 205.8 99c-73.7 24.1-121.3 95.9-113.9 171.5 2.1 20.8 7 39.1 15.5 57.1l4.4 9.2-10.8 10.7-10.8 10.7-4.4-7.8c-8.5-15.3-15.5-33.6-19.7-51.7-2.4-10.4-4.2-14.1-7.8-16.4-1.5-1-8.3-3.2-15.2-4.9l-12.6-3v-36.8l12.6-3c6.9-1.7 13.7-3.9 15.2-4.9 3.7-2.4 5-5.4 8.6-20.2 5.2-20.7 14-41.4 25-58.4 4.9-7.6 6.5-12.2 5.7-16.4-.3-1.8-3.6-8.1-7.2-14.1l-6.5-11 12.9-12.8 12.8-12.9 11 6.5c6 3.6 12.3 6.9 14.1 7.2 4.2.8 8.8-.8 16.2-5.6 17.3-11.2 36.2-19.3 58.1-24.9 8.2-2.1 16.1-4.6 17.5-5.5 3.5-2.3 5.2-6.1 8-18.3 1.4-6 2.8-11.4 3-12.1.4-1 4.6-1.2 18.7-1l18.2.3 3 12.6zm-2.9 79.4c43.6 6.4 79.5 31.6 100.7 70.5 16.8 31 20.3 71.4 9.1 104.8-15.6 46.5-55.1 81.3-103.1 90.9-12.3 2.4-38.6 2.4-50.2-.1-10-2.1-21.9-5.8-28.5-8.7l-4.8-2.1 11.5-11.5 11.5-11.5 5.4 1.7c31.6 9.6 67 3.1 93.7-17.2 35.5-27.1 49.7-73.6 35.6-116.2-1.9-5.8-4.4-12-5.6-13.9-2.9-4.7-9.5-7.6-15.1-6.7-3.8.7-6.3 2.8-26.7 23-23.8 23.5-26.4 25.4-33.6 24-4.7-.8-10.1-5.8-11.5-10.6-2.4-7.9-1-10.1 23.6-34.9 20.2-20.4 22.3-22.9 23-26.7.9-5.6-2-12.2-6.6-15-5.6-3.4-20.5-8.2-30.8-9.9-12.8-2.1-29.2-1.4-42.2 2-46.4 11.8-79 54-78.9 102.1 0 7.9 2.1 21.4 4.5 29.4l1.7 5.4-11.5 11.5-11.5 11.5-2.1-4.8c-2.9-6.7-6.6-18.6-8.7-28.5-2.5-11.7-2.6-38-.1-50.2 14.2-70.7 81.1-118.6 151.2-108.3zm-10.7 59.1c2 .6 1 1.9-10.8 14.1-14.5 14.8-18.1 20.6-19.9 32.3-2.9 18 6 36.5 21.9 45.7 12.5 7.1 28.2 7.6 41.7 1.3 4.9-2.2 9.2-5.8 19.7-16 13.1-12.8 13.5-13.1 14.2-10.5 1 4.1-.5 20.6-2.5 27.7-5.3 18-15.9 32.4-31.1 42.3-20.8 13.6-44 15.9-69 6.8-15.9-5.7-5.9-13.7-95.5 75.7-42.9 42.8-79.4 78.5-81.2 79.4-4.4 2.2-8.8 2-13.3-.5-7-3.9-9.8-12.4-6.4-19.2.9-1.8 36.6-38.3 79.4-81.2 89.4-89.6 81.4-79.5 75.7-95.5-4.4-12.1-6.1-23.1-5.3-33.7 2.8-34.7 28.3-62.4 62.6-68.3 5.7-1 16.8-1.2 19.8-.4z"/></svg>